<?xml version="1.0" standalone="no"?>
 <!DOCTYPE svg PUBLIC "-//W3C//DTD SVG 1.1//EN" 
 "http://www.w3.org/Graphics/SVG/1.1/DTD/svg11.dtd"> 
<svg
  xmlns:svg="http://www.w3.org/2000/svg"
  xmlns="http://www.w3.org/2000/svg"
  xmlns:xlink="http://www.w3.org/1999/xlink"
  xmlns:inkscape="http://www.inkscape.org/namespaces/inkscape"
  version="1.1"
  width="64.9986mm" height="54.9910mm" viewBox="0.0000 0.0000 64.9986 54.9910">
<title>SVG Image created as pitalk_pcb_bottom.svg date 2026-06-07T01:42:16 </title>
  <desc>Image generated by PCBNEW </desc>
<g style="fill:#000000; fill-opacity:1.0000;stroke:#000000; stroke-opacity:1.0000;
stroke-linecap:round; stroke-linejoin:round;"
 transform="translate(0 0) scale(1 1)">
<path style="fill:#4D7FC4; fill-opacity:1.0000; stroke:none;fill-rule:evenodd;"
d="M 7.8486,46.4000
7.8296,46.3043
7.7754,46.2232
7.6943,46.1690
7.5986,46.1500
6.3986,46.1500
6.3029,46.1690
6.2218,46.2232
6.1676,46.3043
6.1486,46.4000
6.1486,47.6000
6.1676,47.6957
6.2218,47.7768
6.3029,47.8310
6.3986,47.8500
7.5986,47.8500
7.6943,47.8310
7.7754,47.7768
7.8296,47.6957
7.8486,47.6000
Z" /> 
</g>
<g style="fill:#4D7FC4; fill-opacity:1.0000; stroke:none;">
<circle cx="6.9986" cy="49.5400" r="0.8500" /> 
<circle cx="9.5386" cy="47.0000" r="0.8500" /> 
<circle cx="9.5386" cy="49.5400" r="0.8500" /> 
<circle cx="12.0786" cy="47.0000" r="0.8500" /> 
<circle cx="12.0786" cy="49.5400" r="0.8500" /> 
<circle cx="14.6186" cy="47.0000" r="0.8500" /> 
<circle cx="14.6186" cy="49.5400" r="0.8500" /> 
<circle cx="17.1586" cy="47.0000" r="0.8500" /> 
<circle cx="17.1586" cy="49.5400" r="0.8500" /> 
<circle cx="19.6986" cy="47.0000" r="0.8500" /> 
<circle cx="19.6986" cy="49.5400" r="0.8500" /> 
<circle cx="22.2386" cy="47.0000" r="0.8500" /> 
<circle cx="22.2386" cy="49.5400" r="0.8500" /> 
<circle cx="24.7786" cy="47.0000" r="0.8500" /> 
<circle cx="24.7786" cy="49.5400" r="0.8500" /> 
<circle cx="27.3186" cy="47.0000" r="0.8500" /> 
<circle cx="27.3186" cy="49.5400" r="0.8500" /> 
<circle cx="29.8586" cy="47.0000" r="0.8500" /> 
<circle cx="29.8586" cy="49.5400" r="0.8500" /> 
<circle cx="32.3986" cy="47.0000" r="0.8500" /> 
<circle cx="32.3986" cy="49.5400" r="0.8500" /> 
<circle cx="34.9386" cy="47.0000" r="0.8500" /> 
<circle cx="34.9386" cy="49.5400" r="0.8500" /> 
<circle cx="37.4786" cy="47.0000" r="0.8500" /> 
<circle cx="37.4786" cy="49.5400" r="0.8500" /> 
<circle cx="40.0186" cy="47.0000" r="0.8500" /> 
<circle cx="40.0186" cy="49.5400" r="0.8500" /> 
<circle cx="42.5586" cy="47.0000" r="0.8500" /> 
<circle cx="42.5586" cy="49.5400" r="0.8500" /> 
<circle cx="45.0986" cy="47.0000" r="0.8500" /> 
<circle cx="45.0986" cy="49.5400" r="0.8500" /> 
<circle cx="47.6386" cy="47.0000" r="0.8500" /> 
<circle cx="47.6386" cy="49.5400" r="0.8500" /> 
<circle cx="50.1786" cy="47.0000" r="0.8500" /> 
<circle cx="50.1786" cy="49.5400" r="0.8500" /> 
<circle cx="52.7186" cy="47.0000" r="0.8500" /> 
<circle cx="52.7186" cy="49.5400" r="0.8500" /> 
<circle cx="55.2586" cy="47.0000" r="0.8500" /> 
<circle cx="55.2586" cy="49.5400" r="0.8500" /> 
<path style="fill:#4D7FC4; fill-opacity:1.0000; stroke:none;fill-rule:evenodd;"
d="M 58.8686,5.1550
58.8496,5.0593
58.7954,4.9782
58.7143,4.9240
58.6186,4.9050
57.3786,4.9050
57.2829,4.9240
57.2018,4.9782
57.1476,5.0593
57.1286,5.1550
57.1286,6.8450
57.1476,6.9407
57.2018,7.0218
57.2829,7.0760
57.3786,7.0950
58.6186,7.0950
58.7143,7.0760
58.7954,7.0218
58.8496,6.9407
58.8686,6.8450
Z" /> 
</g>
<g style="fill:none; 
stroke:#4D7FC4; stroke-width:1.7400; stroke-opacity:1; 
stroke-linecap:round; stroke-linejoin:round;">
<path d="M55.4586 5.7750
L55.4586 6.2250
" />
<path d="M52.9186 5.7750
L52.9186 6.2250
" />
<path d="M50.3786 5.7750
L50.3786 6.2250
" />
<path d="M47.8386 5.7750
L47.8386 6.2250
" />
<path d="M45.2986 5.7750
L45.2986 6.2250
" />
<path d="M42.7586 5.7750
L42.7586 6.2250
" />
<path d="M40.2186 5.7750
L40.2186 6.2250
" />
<path d="M37.6786 5.7750
L37.6786 6.2250
" />
<path d="M35.1386 5.7750
L35.1386 6.2250
" />
<path d="M32.5986 5.7750
L32.5986 6.2250
" />
<path d="M30.0586 5.7750
L30.0586 6.2250
" />
<path d="M27.5186 5.7750
L27.5186 6.2250
" />
<path d="M24.9786 5.7750
L24.9786 6.2250
" />
<path d="M22.4386 5.7750
L22.4386 6.2250
" />
<path style="fill:#4D7FC4; fill-opacity:1.0000; stroke:none;fill-rule:evenodd;"
d="M 11.8486,6.8500
11.8486,5.1500
10.1486,5.1500
10.1486,6.8500
Z" /> 
</g>
<g style="fill:#4D7FC4; fill-opacity:1.0000; stroke:none;">
<circle cx="8.4586" cy="6.0000" r="0.8500" /> 
<circle cx="10.9986" cy="8.5400" r="0.8500" /> 
<circle cx="8.4586" cy="8.5400" r="0.8500" /> 
<circle cx="10.9986" cy="11.0800" r="0.8500" /> 
<circle cx="8.4586" cy="11.0800" r="0.8500" /> 
<path style="fill:#4D7FC4; fill-opacity:1.0000; stroke:none;fill-rule:evenodd;"
d="M 59.8486,21.8500
59.8486,20.1500
58.1486,20.1500
58.1486,21.8500
Z" /> 
<circle cx="58.9986" cy="23.5400" r="0.8500" /> 
<circle cx="58.9986" cy="26.0800" r="0.8500" /> 
<circle cx="58.9986" cy="28.6200" r="0.8500" /> 
<circle cx="58.9986" cy="31.1600" r="0.8500" /> 
<circle cx="58.9986" cy="33.7000" r="0.8500" /> 
<circle cx="58.9986" cy="36.2400" r="0.8500" /> 
<path style="fill:#4D7FC4; fill-opacity:1.0000; stroke:none;fill-rule:evenodd;"
d="M 50.8486,37.8500
50.8486,36.1500
49.1486,36.1500
49.1486,37.8500
Z" /> 
<circle cx="47.4586" cy="37.0000" r="0.8500" /> 
<circle cx="44.9186" cy="37.0000" r="0.8500" /> 
<circle cx="42.3786" cy="37.0000" r="0.8500" /> 
<path style="fill:#02FFEE; fill-opacity:0.4000; stroke:none;fill-rule:evenodd;"
d="M 7.8486,46.4000
7.8296,46.3043
7.7754,46.2232
7.6943,46.1690
7.5986,46.1500
6.3986,46.1500
6.3029,46.1690
6.2218,46.2232
6.1676,46.3043
6.1486,46.4000
6.1486,47.6000
6.1676,47.6957
6.2218,47.7768
6.3029,47.8310
6.3986,47.8500
7.5986,47.8500
7.6943,47.8310
7.7754,47.7768
7.8296,47.6957
7.8486,47.6000
Z" /> 
</g>
<g style="fill:#02FFEE; fill-opacity:0.4000; stroke:none;">
<circle cx="6.9986" cy="49.5400" r="0.8500" /> 
<circle cx="9.5386" cy="47.0000" r="0.8500" /> 
<circle cx="9.5386" cy="49.5400" r="0.8500" /> 
<circle cx="12.0786" cy="47.0000" r="0.8500" /> 
<circle cx="12.0786" cy="49.5400" r="0.8500" /> 
<circle cx="14.6186" cy="47.0000" r="0.8500" /> 
<circle cx="14.6186" cy="49.5400" r="0.8500" /> 
<circle cx="17.1586" cy="47.0000" r="0.8500" /> 
<circle cx="17.1586" cy="49.5400" r="0.8500" /> 
<circle cx="19.6986" cy="47.0000" r="0.8500" /> 
<circle cx="19.6986" cy="49.5400" r="0.8500" /> 
<circle cx="22.2386" cy="47.0000" r="0.8500" /> 
<circle cx="22.2386" cy="49.5400" r="0.8500" /> 
<circle cx="24.7786" cy="47.0000" r="0.8500" /> 
<circle cx="24.7786" cy="49.5400" r="0.8500" /> 
<circle cx="27.3186" cy="47.0000" r="0.8500" /> 
<circle cx="27.3186" cy="49.5400" r="0.8500" /> 
<circle cx="29.8586" cy="47.0000" r="0.8500" /> 
<circle cx="29.8586" cy="49.5400" r="0.8500" /> 
<circle cx="32.3986" cy="47.0000" r="0.8500" /> 
<circle cx="32.3986" cy="49.5400" r="0.8500" /> 
<circle cx="34.9386" cy="47.0000" r="0.8500" /> 
<circle cx="34.9386" cy="49.5400" r="0.8500" /> 
<circle cx="37.4786" cy="47.0000" r="0.8500" /> 
<circle cx="37.4786" cy="49.5400" r="0.8500" /> 
<circle cx="40.0186" cy="47.0000" r="0.8500" /> 
<circle cx="40.0186" cy="49.5400" r="0.8500" /> 
<circle cx="42.5586" cy="47.0000" r="0.8500" /> 
<circle cx="42.5586" cy="49.5400" r="0.8500" /> 
<circle cx="45.0986" cy="47.0000" r="0.8500" /> 
<circle cx="45.0986" cy="49.5400" r="0.8500" /> 
<circle cx="47.6386" cy="47.0000" r="0.8500" /> 
<circle cx="47.6386" cy="49.5400" r="0.8500" /> 
<circle cx="50.1786" cy="47.0000" r="0.8500" /> 
<circle cx="50.1786" cy="49.5400" r="0.8500" /> 
<circle cx="52.7186" cy="47.0000" r="0.8500" /> 
<circle cx="52.7186" cy="49.5400" r="0.8500" /> 
<circle cx="55.2586" cy="47.0000" r="0.8500" /> 
<circle cx="55.2586" cy="49.5400" r="0.8500" /> 
<path style="fill:#02FFEE; fill-opacity:0.4000; stroke:none;fill-rule:evenodd;"
d="M 58.8686,5.1550
58.8496,5.0593
58.7954,4.9782
58.7143,4.9240
58.6186,4.9050
57.3786,4.9050
57.2829,4.9240
57.2018,4.9782
57.1476,5.0593
57.1286,5.1550
57.1286,6.8450
57.1476,6.9407
57.2018,7.0218
57.2829,7.0760
57.3786,7.0950
58.6186,7.0950
58.7143,7.0760
58.7954,7.0218
58.8496,6.9407
58.8686,6.8450
Z" /> 
</g>
<g style="fill:none; 
stroke:#02FFEE; stroke-width:1.7400; stroke-opacity:1; 
stroke-linecap:round; stroke-linejoin:round;">
<path d="M55.4586 5.7750
L55.4586 6.2250
" />
<path d="M52.9186 5.7750
L52.9186 6.2250
" />
<path d="M50.3786 5.7750
L50.3786 6.2250
" />
<path d="M47.8386 5.7750
L47.8386 6.2250
" />
<path d="M45.2986 5.7750
L45.2986 6.2250
" />
<path d="M42.7586 5.7750
L42.7586 6.2250
" />
<path d="M40.2186 5.7750
L40.2186 6.2250
" />
<path d="M37.6786 5.7750
L37.6786 6.2250
" />
<path d="M35.1386 5.7750
L35.1386 6.2250
" />
<path d="M32.5986 5.7750
L32.5986 6.2250
" />
<path d="M30.0586 5.7750
L30.0586 6.2250
" />
<path d="M27.5186 5.7750
L27.5186 6.2250
" />
<path d="M24.9786 5.7750
L24.9786 6.2250
" />
<path d="M22.4386 5.7750
L22.4386 6.2250
" />
<path style="fill:#02FFEE; fill-opacity:0.4000; stroke:none;fill-rule:evenodd;"
d="M 11.8486,6.8500
11.8486,5.1500
10.1486,5.1500
10.1486,6.8500
Z" /> 
</g>
<g style="fill:#02FFEE; fill-opacity:0.4000; stroke:none;">
<circle cx="8.4586" cy="6.0000" r="0.8500" /> 
<circle cx="10.9986" cy="8.5400" r="0.8500" /> 
<circle cx="8.4586" cy="8.5400" r="0.8500" /> 
<circle cx="10.9986" cy="11.0800" r="0.8500" /> 
<circle cx="8.4586" cy="11.0800" r="0.8500" /> 
<path style="fill:#02FFEE; fill-opacity:0.4000; stroke:none;fill-rule:evenodd;"
d="M 59.8486,21.8500
59.8486,20.1500
58.1486,20.1500
58.1486,21.8500
Z" /> 
<circle cx="58.9986" cy="23.5400" r="0.8500" /> 
<circle cx="58.9986" cy="26.0800" r="0.8500" /> 
<circle cx="58.9986" cy="28.6200" r="0.8500" /> 
<circle cx="58.9986" cy="31.1600" r="0.8500" /> 
<circle cx="58.9986" cy="33.7000" r="0.8500" /> 
<circle cx="58.9986" cy="36.2400" r="0.8500" /> 
<path style="fill:#02FFEE; fill-opacity:0.4000; stroke:none;fill-rule:evenodd;"
d="M 50.8486,37.8500
50.8486,36.1500
49.1486,36.1500
49.1486,37.8500
Z" /> 
<circle cx="47.4586" cy="37.0000" r="0.8500" /> 
<circle cx="44.9186" cy="37.0000" r="0.8500" /> 
<circle cx="42.3786" cy="37.0000" r="0.8500" /> 
<circle cx="61.9986" cy="3.0000" r="1.6000" /> 
<circle cx="2.9986" cy="3.0000" r="1.6000" /> 
<circle cx="61.9986" cy="52.0000" r="1.6000" /> 
<circle cx="2.9986" cy="52.0000" r="1.6000" /> 
<path style="fill:none; 
stroke:#D0D2CD; stroke-width:0.1000; stroke-opacity:1; 
stroke-linecap:round; stroke-linejoin:round;fill:none"
d="M 64.9986,0.0000
-0.0014,0.0000
-0.0014,55.0000
64.9986,55.0000
Z" /> 
</g>
<g style="fill:#FFFFFF; fill-opacity:1.0000; stroke:none;">
<circle cx="6.9986" cy="47.0000" r="0.5000" /> 
</g>
<g style="fill:#FFFFFF; fill-opacity:1.0000; stroke:none;">
<circle cx="6.9986" cy="49.5400" r="0.5000" /> 
</g>
<g style="fill:#FFFFFF; fill-opacity:1.0000; stroke:none;">
<circle cx="9.5386" cy="47.0000" r="0.5000" /> 
</g>
<g style="fill:#FFFFFF; fill-opacity:1.0000; stroke:none;">
<circle cx="9.5386" cy="49.5400" r="0.5000" /> 
</g>
<g style="fill:#FFFFFF; fill-opacity:1.0000; stroke:none;">
<circle cx="12.0786" cy="47.0000" r="0.5000" /> 
</g>
<g style="fill:#FFFFFF; fill-opacity:1.0000; stroke:none;">
<circle cx="12.0786" cy="49.5400" r="0.5000" /> 
</g>
<g style="fill:#FFFFFF; fill-opacity:1.0000; stroke:none;">
<circle cx="14.6186" cy="47.0000" r="0.5000" /> 
</g>
<g style="fill:#FFFFFF; fill-opacity:1.0000; stroke:none;">
<circle cx="14.6186" cy="49.5400" r="0.5000" /> 
</g>
<g style="fill:#FFFFFF; fill-opacity:1.0000; stroke:none;">
<circle cx="17.1586" cy="47.0000" r="0.5000" /> 
</g>
<g style="fill:#FFFFFF; fill-opacity:1.0000; stroke:none;">
<circle cx="17.1586" cy="49.5400" r="0.5000" /> 
</g>
<g style="fill:#FFFFFF; fill-opacity:1.0000; stroke:none;">
<circle cx="19.6986" cy="47.0000" r="0.5000" /> 
</g>
<g style="fill:#FFFFFF; fill-opacity:1.0000; stroke:none;">
<circle cx="19.6986" cy="49.5400" r="0.5000" /> 
</g>
<g style="fill:#FFFFFF; fill-opacity:1.0000; stroke:none;">
<circle cx="22.2386" cy="47.0000" r="0.5000" /> 
</g>
<g style="fill:#FFFFFF; fill-opacity:1.0000; stroke:none;">
<circle cx="22.2386" cy="49.5400" r="0.5000" /> 
</g>
<g style="fill:#FFFFFF; fill-opacity:1.0000; stroke:none;">
<circle cx="24.7786" cy="47.0000" r="0.5000" /> 
</g>
<g style="fill:#FFFFFF; fill-opacity:1.0000; stroke:none;">
<circle cx="24.7786" cy="49.5400" r="0.5000" /> 
</g>
<g style="fill:#FFFFFF; fill-opacity:1.0000; stroke:none;">
<circle cx="27.3186" cy="47.0000" r="0.5000" /> 
</g>
<g style="fill:#FFFFFF; fill-opacity:1.0000; stroke:none;">
<circle cx="27.3186" cy="49.5400" r="0.5000" /> 
</g>
<g style="fill:#FFFFFF; fill-opacity:1.0000; stroke:none;">
<circle cx="29.8586" cy="47.0000" r="0.5000" /> 
</g>
<g style="fill:#FFFFFF; fill-opacity:1.0000; stroke:none;">
<circle cx="29.8586" cy="49.5400" r="0.5000" /> 
</g>
<g style="fill:#FFFFFF; fill-opacity:1.0000; stroke:none;">
<circle cx="32.3986" cy="47.0000" r="0.5000" /> 
</g>
<g style="fill:#FFFFFF; fill-opacity:1.0000; stroke:none;">
<circle cx="32.3986" cy="49.5400" r="0.5000" /> 
</g>
<g style="fill:#FFFFFF; fill-opacity:1.0000; stroke:none;">
<circle cx="34.9386" cy="47.0000" r="0.5000" /> 
</g>
<g style="fill:#FFFFFF; fill-opacity:1.0000; stroke:none;">
<circle cx="34.9386" cy="49.5400" r="0.5000" /> 
</g>
<g style="fill:#FFFFFF; fill-opacity:1.0000; stroke:none;">
<circle cx="37.4786" cy="47.0000" r="0.5000" /> 
</g>
<g style="fill:#FFFFFF; fill-opacity:1.0000; stroke:none;">
<circle cx="37.4786" cy="49.5400" r="0.5000" /> 
</g>
<g style="fill:#FFFFFF; fill-opacity:1.0000; stroke:none;">
<circle cx="40.0186" cy="47.0000" r="0.5000" /> 
</g>
<g style="fill:#FFFFFF; fill-opacity:1.0000; stroke:none;">
<circle cx="40.0186" cy="49.5400" r="0.5000" /> 
</g>
<g style="fill:#FFFFFF; fill-opacity:1.0000; stroke:none;">
<circle cx="42.5586" cy="47.0000" r="0.5000" /> 
</g>
<g style="fill:#FFFFFF; fill-opacity:1.0000; stroke:none;">
<circle cx="42.5586" cy="49.5400" r="0.5000" /> 
</g>
<g style="fill:#FFFFFF; fill-opacity:1.0000; stroke:none;">
<circle cx="45.0986" cy="47.0000" r="0.5000" /> 
</g>
<g style="fill:#FFFFFF; fill-opacity:1.0000; stroke:none;">
<circle cx="45.0986" cy="49.5400" r="0.5000" /> 
</g>
<g style="fill:#FFFFFF; fill-opacity:1.0000; stroke:none;">
<circle cx="47.6386" cy="47.0000" r="0.5000" /> 
</g>
<g style="fill:#FFFFFF; fill-opacity:1.0000; stroke:none;">
<circle cx="47.6386" cy="49.5400" r="0.5000" /> 
</g>
<g style="fill:#FFFFFF; fill-opacity:1.0000; stroke:none;">
<circle cx="50.1786" cy="47.0000" r="0.5000" /> 
</g>
<g style="fill:#FFFFFF; fill-opacity:1.0000; stroke:none;">
<circle cx="50.1786" cy="49.5400" r="0.5000" /> 
</g>
<g style="fill:#FFFFFF; fill-opacity:1.0000; stroke:none;">
<circle cx="52.7186" cy="47.0000" r="0.5000" /> 
</g>
<g style="fill:#FFFFFF; fill-opacity:1.0000; stroke:none;">
<circle cx="52.7186" cy="49.5400" r="0.5000" /> 
</g>
<g style="fill:#FFFFFF; fill-opacity:1.0000; stroke:none;">
<circle cx="55.2586" cy="47.0000" r="0.5000" /> 
</g>
<g style="fill:#FFFFFF; fill-opacity:1.0000; stroke:none;">
<circle cx="55.2586" cy="49.5400" r="0.5000" /> 
</g>
<g style="fill:#FFFFFF; fill-opacity:1.0000; stroke:none;">
<circle cx="57.9986" cy="6.0000" r="0.5950" /> 
</g>
<g style="fill:#FFFFFF; fill-opacity:1.0000; stroke:none;">
<circle cx="55.4586" cy="6.0000" r="0.5950" /> 
</g>
<g style="fill:#FFFFFF; fill-opacity:1.0000; stroke:none;">
<circle cx="52.9186" cy="6.0000" r="0.5950" /> 
</g>
<g style="fill:#FFFFFF; fill-opacity:1.0000; stroke:none;">
<circle cx="50.3786" cy="6.0000" r="0.5950" /> 
</g>
<g style="fill:#FFFFFF; fill-opacity:1.0000; stroke:none;">
<circle cx="47.8386" cy="6.0000" r="0.5950" /> 
</g>
<g style="fill:#FFFFFF; fill-opacity:1.0000; stroke:none;">
<circle cx="45.2986" cy="6.0000" r="0.5950" /> 
</g>
<g style="fill:#FFFFFF; fill-opacity:1.0000; stroke:none;">
<circle cx="42.7586" cy="6.0000" r="0.5950" /> 
</g>
<g style="fill:#FFFFFF; fill-opacity:1.0000; stroke:none;">
<circle cx="40.2186" cy="6.0000" r="0.5950" /> 
</g>
<g style="fill:#FFFFFF; fill-opacity:1.0000; stroke:none;">
<circle cx="37.6786" cy="6.0000" r="0.5950" /> 
</g>
<g style="fill:#FFFFFF; fill-opacity:1.0000; stroke:none;">
<circle cx="35.1386" cy="6.0000" r="0.5950" /> 
</g>
<g style="fill:#FFFFFF; fill-opacity:1.0000; stroke:none;">
<circle cx="32.5986" cy="6.0000" r="0.5950" /> 
</g>
<g style="fill:#FFFFFF; fill-opacity:1.0000; stroke:none;">
<circle cx="30.0586" cy="6.0000" r="0.5950" /> 
</g>
<g style="fill:#FFFFFF; fill-opacity:1.0000; stroke:none;">
<circle cx="27.5186" cy="6.0000" r="0.5950" /> 
</g>
<g style="fill:#FFFFFF; fill-opacity:1.0000; stroke:none;">
<circle cx="24.9786" cy="6.0000" r="0.5950" /> 
</g>
<g style="fill:#FFFFFF; fill-opacity:1.0000; stroke:none;">
<circle cx="22.4386" cy="6.0000" r="0.5950" /> 
</g>
<g style="fill:#FFFFFF; fill-opacity:1.0000; stroke:none;">
<circle cx="10.9986" cy="6.0000" r="0.5000" /> 
</g>
<g style="fill:#FFFFFF; fill-opacity:1.0000; stroke:none;">
<circle cx="8.4586" cy="6.0000" r="0.5000" /> 
</g>
<g style="fill:#FFFFFF; fill-opacity:1.0000; stroke:none;">
<circle cx="10.9986" cy="8.5400" r="0.5000" /> 
</g>
<g style="fill:#FFFFFF; fill-opacity:1.0000; stroke:none;">
<circle cx="8.4586" cy="8.5400" r="0.5000" /> 
</g>
<g style="fill:#FFFFFF; fill-opacity:1.0000; stroke:none;">
<circle cx="10.9986" cy="11.0800" r="0.5000" /> 
</g>
<g style="fill:#FFFFFF; fill-opacity:1.0000; stroke:none;">
<circle cx="8.4586" cy="11.0800" r="0.5000" /> 
</g>
<g style="fill:#FFFFFF; fill-opacity:1.0000; stroke:none;">
<circle cx="58.9986" cy="21.0000" r="0.5000" /> 
</g>
<g style="fill:#FFFFFF; fill-opacity:1.0000; stroke:none;">
<circle cx="58.9986" cy="23.5400" r="0.5000" /> 
</g>
<g style="fill:#FFFFFF; fill-opacity:1.0000; stroke:none;">
<circle cx="58.9986" cy="26.0800" r="0.5000" /> 
</g>
<g style="fill:#FFFFFF; fill-opacity:1.0000; stroke:none;">
<circle cx="58.9986" cy="28.6200" r="0.5000" /> 
</g>
<g style="fill:#FFFFFF; fill-opacity:1.0000; stroke:none;">
<circle cx="58.9986" cy="31.1600" r="0.5000" /> 
</g>
<g style="fill:#FFFFFF; fill-opacity:1.0000; stroke:none;">
<circle cx="58.9986" cy="33.7000" r="0.5000" /> 
</g>
<g style="fill:#FFFFFF; fill-opacity:1.0000; stroke:none;">
<circle cx="58.9986" cy="36.2400" r="0.5000" /> 
</g>
<g style="fill:#FFFFFF; fill-opacity:1.0000; stroke:none;">
<circle cx="49.9986" cy="37.0000" r="0.5000" /> 
</g>
<g style="fill:#FFFFFF; fill-opacity:1.0000; stroke:none;">
<circle cx="47.4586" cy="37.0000" r="0.5000" /> 
</g>
<g style="fill:#FFFFFF; fill-opacity:1.0000; stroke:none;">
<circle cx="44.9186" cy="37.0000" r="0.5000" /> 
</g>
<g style="fill:#FFFFFF; fill-opacity:1.0000; stroke:none;">
<circle cx="42.3786" cy="37.0000" r="0.5000" /> 
</g>
<g style="fill:#000000; fill-opacity:1.0000; stroke:none;">
<circle cx="61.9986" cy="3.0000" r="1.6000" /> 
<circle cx="2.9986" cy="3.0000" r="1.6000" /> 
<circle cx="61.9986" cy="52.0000" r="1.6000" /> 
<circle cx="2.9986" cy="52.0000" r="1.6000" /> 
</g> 
</svg>
