<?xml version="1.0" encoding="UTF-8"?>
<svg xmlns="http://www.w3.org/2000/svg" viewBox="0 0 860 720" width="860" height="720">
<defs>
  <style>
    .bg        { fill:#111318; }
    .pcb       { fill:#1a5e1a; }
    .pcb-edge  { fill:none; stroke:#c8a000; stroke-width:2.5; }
    .mhole     { fill:#0a2e0a; stroke:#d4a017; stroke-width:1.8; }
    .mhole-i   { fill:#111318; }
    .comp-body { fill:#252510; stroke:#d0d0a0; stroke-width:1.2; }
    .ic-body   { fill:#1a1008; stroke:#d0c080; stroke-width:1.5; }
    .pad-th    { fill:#d4a017; }
    .pad-smd   { fill:#d4a017; }
    .trace     { fill:none; stroke:#c8900a; stroke-width:1.8; stroke-opacity:0.75; }
    .silk      { fill:#e8e8e8; font-family:'Courier New',monospace; }
    .silk-sm   { font-size:10px; }
    .silk-md   { font-size:12px; }
    .silk-lg   { font-size:14px; font-weight:bold; }
    .net-lbl   { fill:#60e060; font-family:'Courier New',monospace; font-size:9px; }
    .pwr-lbl   { fill:#e06060; font-family:'Courier New',monospace; font-size:9px; }
    .gnd-lbl   { fill:#6080e0; font-family:'Courier New',monospace; font-size:9px; }
    .title-t   { fill:#ffffff; font-family:Arial,sans-serif; }
    .legend-t  { fill:#c8c8c8; font-family:'Courier New',monospace; font-size:10px; }
    .dim-line  { stroke:#606090; stroke-width:1; stroke-dasharray:4 3; fill:none; }
    .dim-text  { fill:#8090c0; font-family:Arial,sans-serif; font-size:10px; }
  </style>
</defs>

<!-- ═══════════════════════════════════════════════════ -->
<!-- Background & title                                  -->
<!-- ═══════════════════════════════════════════════════ -->
<rect width="860" height="720" class="bg"/>

<text x="430" y="32" text-anchor="middle" class="title-t" font-size="20" font-weight="bold">PiTalk — Custom PCB  (Top View)</text>
<text x="430" y="54" text-anchor="middle" class="title-t" font-size="12">65 × 55 mm · 2-layer FR4 · Rev 1.0</text>

<!-- ═══════════════════════════════════════════════════ -->
<!-- PCB board  65mm × 55mm  scale=9px/mm               -->
<!-- SVG origin of PCB top-left corner: (95, 70)        -->
<!-- 65mm → 585px   55mm → 495px                        -->
<!-- ═══════════════════════════════════════════════════ -->
<rect x="95" y="70" width="585" height="495" rx="8" class="pcb"/>
<rect x="95" y="70" width="585" height="495" rx="8" class="pcb-edge"/>

<!-- Dimension arrows -->
<line x1="95" y1="58" x2="680" y2="58" class="dim-line"/>
<text x="387" y="56" text-anchor="middle" class="dim-text">65 mm</text>
<line x1="83" y1="70" x2="83" y2="565" class="dim-line"/>
<text x="78" y="320" text-anchor="middle" class="dim-text" transform="rotate(-90,78,320)">55 mm</text>

<!-- Mounting holes  3 mm from each corner  drill Ø3.2 mm → r=14.4px≈14px -->
<circle cx="122" cy="97"  r="14" class="mhole"/><circle cx="122" cy="97"  r="7" class="mhole-i"/>
<circle cx="653" cy="97"  r="14" class="mhole"/><circle cx="653" cy="97"  r="7" class="mhole-i"/>
<circle cx="122" cy="538" r="14" class="mhole"/><circle cx="122" cy="538" r="7" class="mhole-i"/>
<circle cx="653" cy="538" r="14" class="mhole"/><circle cx="653" cy="538" r="7" class="mhole-i"/>

<!-- ═══════════════════════════════════════════════════ -->
<!-- J2  Screen keyed locking connector  1×15  2.54mm pitch -->
<!-- PCB pos: x=5mm y=3mm  →  SVG (140, 97)             -->
<!-- 15 pins × 2.54mm = 38.1mm → 343px wide             -->
<!-- ═══════════════════════════════════════════════════ -->
<rect x="140" y="97" width="343" height="45" rx="3" class="comp-body"/>
<!-- 15 pads, 22.9px pitch -->
<text x="311" y="112" text-anchor="middle" class="silk silk-md">J2 · Screen Locking 1×15</text>
<!-- pads -->
<rect x="148" y="118" width="13" height="13" rx="2" class="pad-th"/>
<rect x="171" y="118" width="13" height="13" rx="2" class="pad-th"/>
<rect x="194" y="118" width="13" height="13" rx="2" class="pad-th"/>
<rect x="217" y="118" width="13" height="13" rx="2" class="pad-th"/>
<rect x="240" y="118" width="13" height="13" rx="2" class="pad-th"/>
<rect x="263" y="118" width="13" height="13" rx="2" class="pad-th"/>
<rect x="286" y="118" width="13" height="13" rx="2" class="pad-th"/>
<rect x="309" y="118" width="13" height="13" rx="2" class="pad-th"/>
<rect x="332" y="118" width="13" height="13" rx="2" class="pad-th"/>
<rect x="355" y="118" width="13" height="13" rx="2" class="pad-th"/>
<rect x="378" y="118" width="13" height="13" rx="2" class="pad-th"/>
<rect x="401" y="118" width="13" height="13" rx="2" class="pad-th"/>
<rect x="424" y="118" width="13" height="13" rx="2" class="pad-th"/>
<rect x="447" y="118" width="13" height="13" rx="2" class="pad-th"/>
<rect x="470" y="118" width="13" height="13" rx="2" class="pad-th"/>
<!-- pin labels -->
<text x="154" y="148" class="gnd-lbl">GND</text>
<text x="177" y="148" class="pwr-lbl">3V3</text>
<text x="245" y="148" class="net-lbl">MOSI</text>
<text x="268" y="148" class="net-lbl">SCK</text>
<text x="291" y="148" class="net-lbl">CS</text>
<text x="314" y="148" class="net-lbl">DC</text>
<text x="337" y="148" class="net-lbl">RST</text>
<text x="358" y="148" class="net-lbl">SDA</text>
<text x="381" y="148" class="net-lbl">SCL</text>
<text x="404" y="148" class="net-lbl">INT</text>
<text x="427" y="148" class="net-lbl">BL</text>

<!-- ═══════════════════════════════════════════════════ -->
<!-- J3  Mic male pin header  2×3  2.54mm pitch         -->
<!-- PCB pos: x=47mm y=2mm  →  SVG (518, 88)            -->
<!-- 3 cols × 2.54mm = 7.62mm → 68px  2 rows            -->
<!-- ═══════════════════════════════════════════════════ -->
<rect x="516" y="88" width="84" height="62" rx="3" class="comp-body"/>
<text x="558" y="102" text-anchor="middle" class="silk silk-sm">J3 · Mic Male 2×3</text>
<!-- Row A (power): VDD, GND, L/R  y=107 -->
<rect x="524" y="107" width="13" height="13" rx="2" class="pad-th"/>
<rect x="547" y="107" width="13" height="13" rx="2" class="pad-th"/>
<rect x="570" y="107" width="13" height="13" rx="2" class="pad-th"/>
<!-- Row B (signals): SCK, WS, SD  y=130 -->
<rect x="524" y="130" width="13" height="13" rx="2" class="pad-th"/>
<rect x="547" y="130" width="13" height="13" rx="2" class="pad-th"/>
<rect x="570" y="130" width="13" height="13" rx="2" class="pad-th"/>
<!-- Row A labels above -->
<text x="524" y="105" class="pwr-lbl">3V3</text>
<text x="547" y="105" class="gnd-lbl">GND</text>
<text x="567" y="105" class="gnd-lbl">L/R</text>
<!-- Row B labels below -->
<text x="521" y="156" class="net-lbl">SCK</text>
<text x="544" y="156" class="net-lbl">WS</text>
<text x="570" y="156" class="net-lbl">SD</text>
<!-- cable group labels -->
<text x="602" y="118" class="net-lbl">← cable A</text>
<text x="602" y="141" class="net-lbl">← cable B</text>

<!-- ═══════════════════════════════════════════════════ -->
<!-- J4  Speaker screw terminal  1×2  5mm pitch         -->
<!-- PCB pos: x=2mm y=18mm  →  SVG (113, 232)           -->
<!-- 2 pins × 5mm = 10mm → 90px                         -->
<!-- ═══════════════════════════════════════════════════ -->
<rect x="108" y="220" width="50" height="80" rx="3" class="comp-body"/>
<text x="133" y="237" text-anchor="middle" class="silk silk-sm">J4</text>
<text x="133" y="250" text-anchor="middle" class="silk silk-sm">Spk</text>
<rect x="116" y="254" width="18" height="18" rx="3" class="pad-th"/>
<rect x="116" y="278" width="18" height="18" rx="3" class="pad-th"/>
<text x="140" y="267" class="net-lbl">OUT+</text>
<text x="140" y="291" class="net-lbl">OUT−</text>

<!-- ═══════════════════════════════════════════════════ -->
<!-- J5  Button connector  1×4  2.54mm pitch            -->
<!-- PCB pos: x=2mm y=29mm  →  SVG (113, 331)           -->
<!-- ═══════════════════════════════════════════════════ -->
<rect x="108" y="326" width="50" height="105" rx="3" class="comp-body"/>
<text x="133" y="343" text-anchor="middle" class="silk silk-sm">J5</text>
<text x="133" y="356" text-anchor="middle" class="silk silk-sm">Btn</text>
<rect x="116" y="360" width="13" height="13" rx="2" class="pad-th"/>
<rect x="116" y="383" width="13" height="13" rx="2" class="pad-th"/>
<rect x="116" y="406" width="13" height="13" rx="2" class="pad-th"/>
<rect x="116" y="429" width="13" height="13" rx="2" class="pad-th"/>
<text x="140" y="370" class="net-lbl">SW</text>
<text x="140" y="393" class="gnd-lbl">GND</text>
<text x="140" y="416" class="net-lbl">LED+</text>
<text x="140" y="439" class="gnd-lbl">GND</text>

<!-- ═══════════════════════════════════════════════════ -->
<!-- U1  MAX98357A  (shown enlarged for readability)    -->
<!-- PCB pos: x=28mm y=19mm  →  SVG (347, 241)          -->
<!-- Drawn as 14mm×16mm body → 126×144px               -->
<!-- ═══════════════════════════════════════════════════ -->
<rect x="347" y="221" width="126" height="144" rx="5" class="ic-body"/>
<!-- pin-1 marker -->
<circle cx="356" cy="230" r="5" fill="#e0e0e0"/>
<!-- IC markings -->
<text x="410" y="275" text-anchor="middle" class="silk silk-lg">MAX</text>
<text x="410" y="295" text-anchor="middle" class="silk silk-lg">98357A</text>
<text x="410" y="315" text-anchor="middle" class="silk silk-sm">I2S Class-D</text>
<text x="410" y="330" text-anchor="middle" class="silk silk-sm">Mono Amp</text>
<text x="356" y="217" class="silk silk-sm">U1</text>
<!-- Left pads: VDD, GND, BCLK, LRCLK, DIN -->
<rect x="337" y="230" width="12" height="10" rx="1" class="pad-smd"/>
<rect x="337" y="250" width="12" height="10" rx="1" class="pad-smd"/>
<rect x="337" y="270" width="12" height="10" rx="1" class="pad-smd"/>
<rect x="337" y="290" width="12" height="10" rx="1" class="pad-smd"/>
<rect x="337" y="310" width="12" height="10" rx="1" class="pad-smd"/>
<text x="328" y="238" text-anchor="end" class="pwr-lbl">VDD</text>
<text x="328" y="258" text-anchor="end" class="gnd-lbl">GND</text>
<text x="328" y="278" text-anchor="end" class="net-lbl">BCLK</text>
<text x="328" y="298" text-anchor="end" class="net-lbl">LRCLK</text>
<text x="328" y="318" text-anchor="end" class="net-lbl">DIN</text>
<!-- Right pads: SD_MODE, GAIN, OUT+, OUT- -->
<rect x="473" y="230" width="12" height="10" rx="1" class="pad-smd"/>
<rect x="473" y="250" width="12" height="10" rx="1" class="pad-smd"/>
<rect x="473" y="270" width="12" height="10" rx="1" class="pad-smd"/>
<rect x="473" y="290" width="12" height="10" rx="1" class="pad-smd"/>
<text x="487" y="238" class="net-lbl">SD_MODE</text>
<text x="487" y="258" class="net-lbl">GAIN(NC)</text>
<text x="487" y="278" class="net-lbl">OUT+</text>
<text x="487" y="298" class="net-lbl">OUT−</text>

<!-- ═══════════════════════════════════════════════════ -->
<!-- C1  100nF bypass  (0402)  near U1 VDD              -->
<!-- PCB pos: x=26mm y=22mm  →  SVG (329, 268)          -->
<!-- ═══════════════════════════════════════════════════ -->
<rect x="308" y="260" width="22" height="10" rx="1" fill="#3a3a8a" stroke="#8888cc" stroke-width="1"/>
<text x="308" y="257" class="silk silk-sm">C1</text>
<text x="308" y="283" class="net-lbl">100nF</text>

<!-- ═══════════════════════════════════════════════════ -->
<!-- C2  10µF bulk decoupling  (0402)                   -->
<!-- PCB pos: x=26mm y=27mm  →  SVG (329, 313)          -->
<!-- ═══════════════════════════════════════════════════ -->
<rect x="308" y="308" width="22" height="10" rx="1" fill="#3a3a8a" stroke="#8888cc" stroke-width="1"/>
<text x="308" y="305" class="silk silk-sm">C2</text>
<text x="308" y="331" class="net-lbl">10µF</text>

<!-- ═══════════════════════════════════════════════════ -->
<!-- R1  330Ω LED resistor  (0402)                      -->
<!-- PCB pos: x=16mm y=33mm  →  SVG (239, 367)          -->
<!-- ═══════════════════════════════════════════════════ -->
<rect x="222" y="362" width="22" height="10" rx="1" fill="#3a3a8a" stroke="#8888cc" stroke-width="1"/>
<text x="222" y="359" class="silk silk-sm">R1</text>
<text x="222" y="385" class="net-lbl">330Ω</text>

<!-- ═══════════════════════════════════════════════════ -->
<!-- J1  40-pin GPIO shrouded male IDC header  2×20  2.54mm -->
<!-- PCB pos: x=7mm y=47mm  →  SVG (158, 493)           -->
<!-- 20×2.54mm = 50.8mm → 457px wide  5.08mm → 46px     -->
<!-- ═══════════════════════════════════════════════════ -->
<rect x="158" y="493" width="457" height="46" rx="3" class="comp-body"/>
<text x="386" y="509" text-anchor="middle" class="silk silk-md">J1 · 40-pin GPIO Shrouded IDC Header</text>
<!-- Row 1 (odd pins): 20 pads, 22.85px pitch -->
<rect x="163" y="513" width="13" height="13" rx="2" class="pad-th"/><text x="169" y="511" class="gnd-lbl" font-size="8">1</text>
<rect x="186" y="513" width="13" height="13" rx="2" class="pad-th"/>
<rect x="209" y="513" width="13" height="13" rx="2" class="pad-th"/>
<rect x="232" y="513" width="13" height="13" rx="2" class="pad-th"/>
<rect x="255" y="513" width="13" height="13" rx="2" class="pad-th"/>
<rect x="278" y="513" width="13" height="13" rx="2" class="pad-th"/>
<rect x="301" y="513" width="13" height="13" rx="2" class="pad-th"/>
<rect x="324" y="513" width="13" height="13" rx="2" class="pad-th"/>
<rect x="347" y="513" width="13" height="13" rx="2" class="pad-th"/>
<rect x="370" y="513" width="13" height="13" rx="2" class="pad-th"/>
<rect x="393" y="513" width="13" height="13" rx="2" class="pad-th"/>
<rect x="416" y="513" width="13" height="13" rx="2" class="pad-th"/>
<rect x="439" y="513" width="13" height="13" rx="2" class="pad-th"/>
<rect x="462" y="513" width="13" height="13" rx="2" class="pad-th"/>
<rect x="485" y="513" width="13" height="13" rx="2" class="pad-th"/>
<rect x="508" y="513" width="13" height="13" rx="2" class="pad-th"/>
<rect x="531" y="513" width="13" height="13" rx="2" class="pad-th"/>
<rect x="554" y="513" width="13" height="13" rx="2" class="pad-th"/>
<rect x="577" y="513" width="13" height="13" rx="2" class="pad-th"/>
<rect x="600" y="513" width="13" height="13" rx="2" class="pad-th"/>
<!-- Row 2 (even pins) -->
<rect x="163" y="521" width="13" height="13" rx="2" class="pad-th"/>
<rect x="186" y="521" width="13" height="13" rx="2" class="pad-th"/>
<rect x="209" y="521" width="13" height="13" rx="2" class="pad-th"/>
<rect x="232" y="521" width="13" height="13" rx="2" class="pad-th"/>
<rect x="255" y="521" width="13" height="13" rx="2" class="pad-th"/>
<rect x="278" y="521" width="13" height="13" rx="2" class="pad-th"/>
<rect x="301" y="521" width="13" height="13" rx="2" class="pad-th"/>
<rect x="324" y="521" width="13" height="13" rx="2" class="pad-th"/>
<rect x="347" y="521" width="13" height="13" rx="2" class="pad-th"/>
<rect x="370" y="521" width="13" height="13" rx="2" class="pad-th"/>
<rect x="393" y="521" width="13" height="13" rx="2" class="pad-th"/>
<rect x="416" y="521" width="13" height="13" rx="2" class="pad-th"/>
<rect x="439" y="521" width="13" height="13" rx="2" class="pad-th"/>
<rect x="462" y="521" width="13" height="13" rx="2" class="pad-th"/>
<rect x="485" y="521" width="13" height="13" rx="2" class="pad-th"/>
<rect x="508" y="521" width="13" height="13" rx="2" class="pad-th"/>
<rect x="531" y="521" width="13" height="13" rx="2" class="pad-th"/>
<rect x="554" y="521" width="13" height="13" rx="2" class="pad-th"/>
<rect x="577" y="521" width="13" height="13" rx="2" class="pad-th"/>
<rect x="600" y="521" width="13" height="13" rx="2" class="pad-th"/><text x="606" y="545" class="gnd-lbl" font-size="8">40</text>

<!-- ═══════════════════════════════════════════════════ -->
<!-- Copper traces (simplified key routes)              -->
<!-- ═══════════════════════════════════════════════════ -->

<!-- 3.3V rail: J1 pin1 → J2, J3, U1 VDD -->
<polyline points="169,513 169,480 156,480 156,131 147,131" class="trace" stroke="#e04040"/>
<polyline points="169,480 527,480 527,131" class="trace" stroke="#e04040"/>
<polyline points="260,480 260,420 320,420 320,235 343,235" class="trace" stroke="#e04040"/>

<!-- GND rail -->
<polyline points="192,513 192,475 155,475 155,131 163,131" class="trace" stroke="#4060e0"/>

<!-- BCLK: J1→U1, J1→J3 -->
<polyline points="415,513 415,465 320,465 320,275 343,275" class="trace"/>
<polyline points="415,465 623,465 623,131" class="trace"/>

<!-- LRCLK: J1→U1, J1→J3 -->
<polyline points="530,513 530,460 330,460 330,290 343,290" class="trace"/>
<polyline points="530,460 600,460 600,131" class="trace"/>

<!-- I2S DOUT: J1→U1 DIN -->
<polyline points="600,513 600,455 340,455 340,315 343,315" class="trace"/>

<!-- I2S DIN: J1 pin38 → J3 -->
<polyline points="577,513 577,455" class="trace"/>

<!-- SPI MOSI: J1→J2 -->
<polyline points="324,513 324,440 250,440 250,131" class="trace"/>

<!-- SPI SCLK: J1→J2 -->
<polyline points="347,513 347,445 270,445 270,131" class="trace"/>

<!-- Speaker output: U1 OUT+ OUT- → J4 -->
<polyline points="485,275 520,275 520,200 155,200 155,263 114,263" class="trace"/>
<polyline points="485,295 525,295 525,195 150,195 150,287 114,287" class="trace"/>

<!-- BTN LED via R1: J1→R1→J5 -->
<polyline points="370,513 370,410 234,410 234,372" class="trace"/>
<polyline points="222,367 186,367 186,415 130,415" class="trace"/>

<!-- ═══════════════════════════════════════════════════ -->
<!-- Legend                                             -->
<!-- ═══════════════════════════════════════════════════ -->
<rect x="95" y="580" width="585" height="60" rx="5" fill="#0a180a" stroke="#204020" stroke-width="1"/>
<text x="115" y="598" class="legend-t" fill="#d4a017">■</text>
<text x="128" y="598" class="legend-t">Gold pads (HASL Cu)</text>
<text x="310" y="598" class="legend-t" fill="#c8900a">─</text>
<text x="322" y="598" class="legend-t">Cu traces (simplified)</text>
<text x="540" y="598" class="legend-t">● pin-1 marker</text>
<text x="115" y="618" class="legend-t" fill="#e04040">─</text>
<text x="127" y="618" class="legend-t">+3.3V</text>
<text x="185" y="618" class="legend-t" fill="#4060e0">─</text>
<text x="197" y="618" class="legend-t">GND</text>
<text x="250" y="618" class="legend-t" fill="#60e060">─</text>
<text x="262" y="618" class="legend-t">Signal</text>
<text x="540" y="618" class="legend-t">2-layer FR4  HASL  1oz Cu</text>

<!-- ═══════════════════════════════════════════════════ -->
<!-- Revision block                                     -->
<!-- ═══════════════════════════════════════════════════ -->
<rect x="680" y="640" width="165" height="70" rx="3" fill="#0a180a" stroke="#204020" stroke-width="1"/>
<text x="762" y="657" text-anchor="middle" class="legend-t" font-weight="bold">PiTalk PCB</text>
<text x="762" y="672" text-anchor="middle" class="legend-t">Rev 1.0 · 2026-05-28</text>
<text x="762" y="687" text-anchor="middle" class="legend-t">65 × 55 mm  2L</text>
<text x="762" y="702" text-anchor="middle" class="legend-t">assaftl.net@gmail.com</text>

</svg>
