%TF.GenerationSoftware,KiCad,Pcbnew,10.0.3*%
%TF.CreationDate,2026-06-27T01:26:00+03:00*%
%TF.ProjectId,pitalk,70697461-6c6b-42e6-9b69-6361645f7063,rev?*%
%TF.SameCoordinates,Original*%
%TF.FileFunction,Copper,L3,Inr*%
%TF.FilePolarity,Positive*%
%FSLAX46Y46*%
G04 Gerber Fmt 4.6, Leading zero omitted, Abs format (unit mm)*
G04 Created by KiCad (PCBNEW 10.0.3) date 2026-06-27 01:26:00*
%MOMM*%
%LPD*%
G01*
G04 APERTURE LIST*
%TA.AperFunction,ComponentPad*%
%ADD10R,1.700000X1.700000*%
%TD*%
%TA.AperFunction,ComponentPad*%
%ADD11C,1.700000*%
%TD*%
%TA.AperFunction,ViaPad*%
%ADD12C,0.600000*%
%TD*%
%TA.AperFunction,Conductor*%
%ADD13C,0.400000*%
%TD*%
%TA.AperFunction,Conductor*%
%ADD14C,0.250000*%
%TD*%
G04 APERTURE END LIST*
D10*
%TO.N,MIC_SD*%
%TO.C,J4*%
X5080000Y-24765000D03*
D11*
%TO.N,+3V3*%
X5080000Y-27305000D03*
%TD*%
D10*
%TO.N,+3V3*%
%TO.C,J1*%
X12700000Y-10795000D03*
D11*
X33020000Y-10795000D03*
%TO.N,SPI_MISO*%
X38100000Y-10795000D03*
%TO.N,LCD_CS*%
X40640000Y-8255000D03*
%TO.N,I2S_LRCLK*%
X55880000Y-10795000D03*
%TO.N,MIC_SD*%
X58420000Y-8255000D03*
%TD*%
D10*
%TO.N,BTN_SW*%
%TO.C,J6*%
X13970000Y-50800000D03*
%TD*%
%TO.N,I2S_LRCLK*%
%TO.C,J3*%
X69850000Y-24130000D03*
%TD*%
D12*
%TO.N,+3V3*%
X28575000Y-50800000D03*
%TO.N,SPI_MISO*%
X33020000Y-50165000D03*
%TO.N,LCD_CS*%
X38100000Y-50165000D03*
%TO.N,LCD_DC*%
X39370000Y-38100000D03*
%TO.N,LCD_RST*%
X36830000Y-36830000D03*
%TO.N,TP_SDA*%
X15240000Y-31115000D03*
%TO.N,TP_SCL*%
X43180000Y-38100000D03*
%TO.N,TP_INT*%
X20320000Y-38100000D03*
X45720000Y-52705000D03*
%TO.N,TP_RST*%
X46990000Y-50165000D03*
X34290000Y-9525000D03*
%TO.N,I2S_LRCLK*%
X44450000Y-40640000D03*
%TO.N,BTN_SW*%
X16510000Y-28575000D03*
%TO.N,BCM13*%
X45085000Y-41910000D03*
%TD*%
%TO.N,+3V3*%
D13*
X12700000Y-10795000D02*
X12700000Y-9525000D01*
X29210000Y-12065000D02*
X28575000Y-12065000D01*
X31750000Y-10795000D02*
X33020000Y-10795000D01*
X29210000Y-9525000D02*
X29210000Y-12065000D01*
X12700000Y-9525000D02*
X31750000Y-9525000D01*
X31750000Y-9525000D02*
X31750000Y-10795000D01*
X28575000Y-27305000D02*
X5080000Y-27305000D01*
X28575000Y-12065000D02*
X28575000Y-50800000D01*
%TO.N,SPI_MISO*%
D14*
X36830000Y-10795000D02*
X36830000Y-12065000D01*
X38100000Y-10795000D02*
X36830000Y-10795000D01*
X33020000Y-12065000D02*
X33020000Y-50165000D01*
X36830000Y-12065000D02*
X33020000Y-12065000D01*
%TO.N,LCD_CS*%
X39370000Y-12065000D02*
X38100000Y-12065000D01*
X40640000Y-8255000D02*
X39370000Y-8255000D01*
X39370000Y-8255000D02*
X39370000Y-12065000D01*
X38100000Y-12065000D02*
X38100000Y-50165000D01*
%TO.N,TP_INT*%
X20320000Y-52705000D02*
X45720000Y-52705000D01*
X20320000Y-38100000D02*
X20320000Y-52705000D01*
%TO.N,TP_RST*%
X41910000Y-50165000D02*
X46990000Y-50165000D01*
X34290000Y-6985000D02*
X41910000Y-6985000D01*
X34290000Y-9525000D02*
X34290000Y-6985000D01*
X41910000Y-6985000D02*
X41910000Y-50165000D01*
%TO.N,I2S_LRCLK*%
X44450000Y-24130000D02*
X44450000Y-40640000D01*
X55880000Y-24130000D02*
X69850000Y-24130000D01*
X55880000Y-24130000D02*
X44450000Y-24130000D01*
X55880000Y-10795000D02*
X55880000Y-24130000D01*
%TO.N,MIC_SD*%
X5080000Y-6350000D02*
X5080000Y-24765000D01*
X42545000Y-6985000D02*
X42545000Y-6350000D01*
X57150000Y-8255000D02*
X57150000Y-6985000D01*
X58420000Y-8255000D02*
X57150000Y-8255000D01*
X57150000Y-6985000D02*
X42545000Y-6985000D01*
X42545000Y-6350000D02*
X5080000Y-6350000D01*
%TO.N,BTN_SW*%
X13970000Y-28575000D02*
X13970000Y-50800000D01*
X16510000Y-28575000D02*
X13970000Y-28575000D01*
%TD*%
M02*
