%TF.GenerationSoftware,KiCad,Pcbnew,10.0.3*%
%TF.CreationDate,2026-06-27T01:26:00+03:00*%
%TF.ProjectId,pitalk,70697461-6c6b-42e6-9b69-6361645f7063,rev?*%
%TF.SameCoordinates,Original*%
%TF.FileFunction,Copper,L4,Bot*%
%TF.FilePolarity,Positive*%
%FSLAX46Y46*%
G04 Gerber Fmt 4.6, Leading zero omitted, Abs format (unit mm)*
G04 Created by KiCad (PCBNEW 10.0.3) date 2026-06-27 01:26:00*
%MOMM*%
%LPD*%
G01*
G04 APERTURE LIST*
G04 Aperture macros list*
%AMRoundRect*
0 Rectangle with rounded corners*
0 $1 Rounding radius*
0 $2 $3 $4 $5 $6 $7 $8 $9 X,Y pos of 4 corners*
0 Add a 4 corners polygon primitive as box body*
4,1,4,$2,$3,$4,$5,$6,$7,$8,$9,$2,$3,0*
0 Add four circle primitives for the rounded corners*
1,1,$1+$1,$2,$3*
1,1,$1+$1,$4,$5*
1,1,$1+$1,$6,$7*
1,1,$1+$1,$8,$9*
0 Add four rect primitives between the rounded corners*
20,1,$1+$1,$2,$3,$4,$5,0*
20,1,$1+$1,$4,$5,$6,$7,0*
20,1,$1+$1,$6,$7,$8,$9,0*
20,1,$1+$1,$8,$9,$2,$3,0*%
G04 Aperture macros list end*
%TA.AperFunction,ComponentPad*%
%ADD10C,1.700000*%
%TD*%
%TA.AperFunction,ComponentPad*%
%ADD11RoundRect,0.250000X-0.550000X-0.550000X0.550000X-0.550000X0.550000X0.550000X-0.550000X0.550000X0*%
%TD*%
%TA.AperFunction,ComponentPad*%
%ADD12C,1.600000*%
%TD*%
%TA.AperFunction,ViaPad*%
%ADD13C,0.600000*%
%TD*%
%TA.AperFunction,Conductor*%
%ADD14C,0.400000*%
%TD*%
%TA.AperFunction,Conductor*%
%ADD15C,0.250000*%
%TD*%
G04 APERTURE END LIST*
D10*
%TO.P,J1,2*%
%TO.N,+5V*%
X12700000Y-8255000D03*
%TO.P,J1,3*%
%TO.N,TP_SDA*%
X15240000Y-10795000D03*
%TO.P,J1,5*%
%TO.N,TP_SCL*%
X17780000Y-10795000D03*
%TO.P,J1,7*%
%TO.N,TP_INT*%
X20320000Y-10795000D03*
%TO.P,J1,11*%
%TO.N,TP_RST*%
X25400000Y-10795000D03*
%TO.P,J1,13*%
%TO.N,LCD_RST*%
X27940000Y-10795000D03*
%TO.P,J1,22*%
%TO.N,LCD_DC*%
X38100000Y-8255000D03*
%TO.P,J1,40*%
%TO.N,AMP_DIN*%
X60960000Y-8255000D03*
%TD*%
D11*
%TO.P,C1,1*%
%TO.N,+5V*%
X64770000Y-43180000D03*
%TD*%
D10*
%TO.P,J6,3*%
%TO.N,LED_A*%
X19050000Y-50800000D03*
%TD*%
%TO.P,J5,2*%
%TO.N,I2S_LRCLK*%
X5080000Y-37465000D03*
%TD*%
%TO.P,J3,3*%
%TO.N,AMP_DIN*%
X69850000Y-29210000D03*
%TO.P,J3,7*%
%TO.N,+5V*%
X69850000Y-39370000D03*
%TD*%
D12*
%TO.P,R1,1*%
%TO.N,BCM13*%
X15875000Y-45085000D03*
%TO.P,R1,2*%
%TO.N,LED_A*%
X26035000Y-45085000D03*
%TD*%
D13*
%TO.N,+3V3*%
X28575000Y-50800000D03*
%TO.N,SPI_MISO*%
X33020000Y-50165000D03*
%TO.N,LCD_CS*%
X38100000Y-50165000D03*
%TO.N,LCD_DC*%
X39370000Y-38100000D03*
%TO.N,LCD_RST*%
X36830000Y-36830000D03*
%TO.N,TP_SDA*%
X15240000Y-31115000D03*
%TO.N,TP_SCL*%
X43180000Y-38100000D03*
%TO.N,TP_INT*%
X20320000Y-38100000D03*
X45720000Y-52705000D03*
%TO.N,TP_RST*%
X46990000Y-50165000D03*
X34290000Y-9525000D03*
%TO.N,I2S_LRCLK*%
X44450000Y-40640000D03*
%TO.N,BTN_SW*%
X16510000Y-28575000D03*
%TO.N,BCM13*%
X45085000Y-41910000D03*
%TD*%
%TO.N,+5V*%
D14*
X12700000Y-9525000D02*
X13970000Y-9525000D01*
X64770000Y-39370000D02*
X64770000Y-43180000D01*
X12700000Y-8255000D02*
X12700000Y-9525000D01*
X13970000Y-9525000D02*
X13970000Y-39370000D01*
X13970000Y-39370000D02*
X69850000Y-39370000D01*
%TO.N,LCD_DC*%
D15*
X38100000Y-9525000D02*
X39370000Y-9525000D01*
X38100000Y-8255000D02*
X38100000Y-9525000D01*
X39370000Y-9525000D02*
X39370000Y-38100000D01*
%TO.N,LCD_RST*%
X27940000Y-10795000D02*
X27940000Y-36830000D01*
X27940000Y-36830000D02*
X36830000Y-36830000D01*
%TO.N,TP_SDA*%
X15240000Y-10795000D02*
X15240000Y-31115000D01*
%TO.N,TP_SCL*%
X17780000Y-9525000D02*
X19050000Y-9525000D01*
X41910000Y-6985000D02*
X41910000Y-38100000D01*
X17780000Y-10795000D02*
X17780000Y-9525000D01*
X41910000Y-38100000D02*
X43180000Y-38100000D01*
X19050000Y-6985000D02*
X41910000Y-6985000D01*
X19050000Y-9525000D02*
X19050000Y-6985000D01*
%TO.N,TP_INT*%
X20320000Y-10795000D02*
X20320000Y-38100000D01*
%TO.N,TP_RST*%
X25400000Y-9525000D02*
X34290000Y-9525000D01*
X25400000Y-10795000D02*
X25400000Y-9525000D01*
%TO.N,I2S_LRCLK*%
X6350000Y-38735000D02*
X5080000Y-38735000D01*
X6350000Y-40640000D02*
X6350000Y-38735000D01*
X44450000Y-40640000D02*
X6350000Y-40640000D01*
X5080000Y-38735000D02*
X5080000Y-37465000D01*
%TO.N,AMP_DIN*%
X60960000Y-9525000D02*
X62230000Y-9525000D01*
X60960000Y-8255000D02*
X60960000Y-9525000D01*
X62230000Y-9525000D02*
X62230000Y-29210000D01*
X62230000Y-29210000D02*
X69850000Y-29210000D01*
%TO.N,BCM13*%
X15875000Y-41910000D02*
X15875000Y-45085000D01*
X45085000Y-41910000D02*
X15875000Y-41910000D01*
%TO.N,LED_A*%
X19050000Y-45085000D02*
X19050000Y-50800000D01*
X26035000Y-45085000D02*
X19050000Y-45085000D01*
%TD*%
M02*
