%TF.GenerationSoftware,KiCad,Pcbnew,10.0.3*%
%TF.CreationDate,2026-06-27T01:26:00+03:00*%
%TF.ProjectId,pitalk,70697461-6c6b-42e6-9b69-6361645f7063,rev?*%
%TF.SameCoordinates,Original*%
%TF.FileFunction,Legend,Top*%
%TF.FilePolarity,Positive*%
%FSLAX46Y46*%
G04 Gerber Fmt 4.6, Leading zero omitted, Abs format (unit mm)*
G04 Created by KiCad (PCBNEW 10.0.3) date 2026-06-27 01:26:00*
%MOMM*%
%LPD*%
G01*
G04 APERTURE LIST*
%ADD10C,0.120000*%
%ADD11C,0.158750*%
G04 APERTURE END LIST*
D10*
X5800000Y-8363855D02*
X5800000Y-7563855D01*
X5800000Y-7563855D02*
X6104762Y-7563855D01*
X6104762Y-7563855D02*
X6180952Y-7601950D01*
X6180952Y-7601950D02*
X6219047Y-7640045D01*
X6219047Y-7640045D02*
X6257143Y-7716236D01*
X6257143Y-7716236D02*
X6257143Y-7830521D01*
X6257143Y-7830521D02*
X6219047Y-7906712D01*
X6219047Y-7906712D02*
X6180952Y-7944807D01*
X6180952Y-7944807D02*
X6104762Y-7982902D01*
X6104762Y-7982902D02*
X5800000Y-7982902D01*
X6600000Y-8363855D02*
X6600000Y-7563855D01*
X6980952Y-8363855D02*
X6980952Y-7563855D01*
X6980952Y-7563855D02*
X7438095Y-8363855D01*
X7438095Y-8363855D02*
X7438095Y-7563855D01*
X8238094Y-8363855D02*
X7780951Y-8363855D01*
X8009523Y-8363855D02*
X8009523Y-7563855D01*
X8009523Y-7563855D02*
X7933332Y-7678140D01*
X7933332Y-7678140D02*
X7857142Y-7754331D01*
X7857142Y-7754331D02*
X7780951Y-7792426D01*
X10271428Y-25340760D02*
X10385714Y-25378855D01*
X10385714Y-25378855D02*
X10576190Y-25378855D01*
X10576190Y-25378855D02*
X10652381Y-25340760D01*
X10652381Y-25340760D02*
X10690476Y-25302664D01*
X10690476Y-25302664D02*
X10728571Y-25226474D01*
X10728571Y-25226474D02*
X10728571Y-25150283D01*
X10728571Y-25150283D02*
X10690476Y-25074093D01*
X10690476Y-25074093D02*
X10652381Y-25035998D01*
X10652381Y-25035998D02*
X10576190Y-24997902D01*
X10576190Y-24997902D02*
X10423809Y-24959807D01*
X10423809Y-24959807D02*
X10347619Y-24921712D01*
X10347619Y-24921712D02*
X10309524Y-24883617D01*
X10309524Y-24883617D02*
X10271428Y-24807426D01*
X10271428Y-24807426D02*
X10271428Y-24731236D01*
X10271428Y-24731236D02*
X10309524Y-24655045D01*
X10309524Y-24655045D02*
X10347619Y-24616950D01*
X10347619Y-24616950D02*
X10423809Y-24578855D01*
X10423809Y-24578855D02*
X10614286Y-24578855D01*
X10614286Y-24578855D02*
X10728571Y-24616950D01*
X11071429Y-25378855D02*
X11071429Y-24578855D01*
X11071429Y-24578855D02*
X11261905Y-24578855D01*
X11261905Y-24578855D02*
X11376191Y-24616950D01*
X11376191Y-24616950D02*
X11452381Y-24693140D01*
X11452381Y-24693140D02*
X11490476Y-24769331D01*
X11490476Y-24769331D02*
X11528572Y-24921712D01*
X11528572Y-24921712D02*
X11528572Y-25035998D01*
X11528572Y-25035998D02*
X11490476Y-25188379D01*
X11490476Y-25188379D02*
X11452381Y-25264569D01*
X11452381Y-25264569D02*
X11376191Y-25340760D01*
X11376191Y-25340760D02*
X11261905Y-25378855D01*
X11261905Y-25378855D02*
X11071429Y-25378855D01*
X9909523Y-27118855D02*
X10404761Y-27118855D01*
X10404761Y-27118855D02*
X10138095Y-27423617D01*
X10138095Y-27423617D02*
X10252380Y-27423617D01*
X10252380Y-27423617D02*
X10328571Y-27461712D01*
X10328571Y-27461712D02*
X10366666Y-27499807D01*
X10366666Y-27499807D02*
X10404761Y-27575998D01*
X10404761Y-27575998D02*
X10404761Y-27766474D01*
X10404761Y-27766474D02*
X10366666Y-27842664D01*
X10366666Y-27842664D02*
X10328571Y-27880760D01*
X10328571Y-27880760D02*
X10252380Y-27918855D01*
X10252380Y-27918855D02*
X10023809Y-27918855D01*
X10023809Y-27918855D02*
X9947618Y-27880760D01*
X9947618Y-27880760D02*
X9909523Y-27842664D01*
X10633333Y-27118855D02*
X10900000Y-27918855D01*
X10900000Y-27918855D02*
X11166666Y-27118855D01*
X11357142Y-27118855D02*
X11852380Y-27118855D01*
X11852380Y-27118855D02*
X11585714Y-27423617D01*
X11585714Y-27423617D02*
X11699999Y-27423617D01*
X11699999Y-27423617D02*
X11776190Y-27461712D01*
X11776190Y-27461712D02*
X11814285Y-27499807D01*
X11814285Y-27499807D02*
X11852380Y-27575998D01*
X11852380Y-27575998D02*
X11852380Y-27766474D01*
X11852380Y-27766474D02*
X11814285Y-27842664D01*
X11814285Y-27842664D02*
X11776190Y-27880760D01*
X11776190Y-27880760D02*
X11699999Y-27918855D01*
X11699999Y-27918855D02*
X11471428Y-27918855D01*
X11471428Y-27918855D02*
X11395237Y-27880760D01*
X11395237Y-27880760D02*
X11357142Y-27842664D01*
X10290476Y-29696950D02*
X10214286Y-29658855D01*
X10214286Y-29658855D02*
X10100000Y-29658855D01*
X10100000Y-29658855D02*
X9985714Y-29696950D01*
X9985714Y-29696950D02*
X9909524Y-29773140D01*
X9909524Y-29773140D02*
X9871429Y-29849331D01*
X9871429Y-29849331D02*
X9833333Y-30001712D01*
X9833333Y-30001712D02*
X9833333Y-30115998D01*
X9833333Y-30115998D02*
X9871429Y-30268379D01*
X9871429Y-30268379D02*
X9909524Y-30344569D01*
X9909524Y-30344569D02*
X9985714Y-30420760D01*
X9985714Y-30420760D02*
X10100000Y-30458855D01*
X10100000Y-30458855D02*
X10176191Y-30458855D01*
X10176191Y-30458855D02*
X10290476Y-30420760D01*
X10290476Y-30420760D02*
X10328572Y-30382664D01*
X10328572Y-30382664D02*
X10328572Y-30115998D01*
X10328572Y-30115998D02*
X10176191Y-30115998D01*
X10671429Y-30458855D02*
X10671429Y-29658855D01*
X10671429Y-29658855D02*
X11128572Y-30458855D01*
X11128572Y-30458855D02*
X11128572Y-29658855D01*
X11509524Y-30458855D02*
X11509524Y-29658855D01*
X11509524Y-29658855D02*
X11700000Y-29658855D01*
X11700000Y-29658855D02*
X11814286Y-29696950D01*
X11814286Y-29696950D02*
X11890476Y-29773140D01*
X11890476Y-29773140D02*
X11928571Y-29849331D01*
X11928571Y-29849331D02*
X11966667Y-30001712D01*
X11966667Y-30001712D02*
X11966667Y-30115998D01*
X11966667Y-30115998D02*
X11928571Y-30268379D01*
X11928571Y-30268379D02*
X11890476Y-30344569D01*
X11890476Y-30344569D02*
X11814286Y-30420760D01*
X11814286Y-30420760D02*
X11700000Y-30458855D01*
X11700000Y-30458855D02*
X11509524Y-30458855D01*
X10290476Y-34776950D02*
X10214286Y-34738855D01*
X10214286Y-34738855D02*
X10100000Y-34738855D01*
X10100000Y-34738855D02*
X9985714Y-34776950D01*
X9985714Y-34776950D02*
X9909524Y-34853140D01*
X9909524Y-34853140D02*
X9871429Y-34929331D01*
X9871429Y-34929331D02*
X9833333Y-35081712D01*
X9833333Y-35081712D02*
X9833333Y-35195998D01*
X9833333Y-35195998D02*
X9871429Y-35348379D01*
X9871429Y-35348379D02*
X9909524Y-35424569D01*
X9909524Y-35424569D02*
X9985714Y-35500760D01*
X9985714Y-35500760D02*
X10100000Y-35538855D01*
X10100000Y-35538855D02*
X10176191Y-35538855D01*
X10176191Y-35538855D02*
X10290476Y-35500760D01*
X10290476Y-35500760D02*
X10328572Y-35462664D01*
X10328572Y-35462664D02*
X10328572Y-35195998D01*
X10328572Y-35195998D02*
X10176191Y-35195998D01*
X10671429Y-35538855D02*
X10671429Y-34738855D01*
X10671429Y-34738855D02*
X11128572Y-35538855D01*
X11128572Y-35538855D02*
X11128572Y-34738855D01*
X11509524Y-35538855D02*
X11509524Y-34738855D01*
X11509524Y-34738855D02*
X11700000Y-34738855D01*
X11700000Y-34738855D02*
X11814286Y-34776950D01*
X11814286Y-34776950D02*
X11890476Y-34853140D01*
X11890476Y-34853140D02*
X11928571Y-34929331D01*
X11928571Y-34929331D02*
X11966667Y-35081712D01*
X11966667Y-35081712D02*
X11966667Y-35195998D01*
X11966667Y-35195998D02*
X11928571Y-35348379D01*
X11928571Y-35348379D02*
X11890476Y-35424569D01*
X11890476Y-35424569D02*
X11814286Y-35500760D01*
X11814286Y-35500760D02*
X11700000Y-35538855D01*
X11700000Y-35538855D02*
X11509524Y-35538855D01*
X10347619Y-38078855D02*
X9966667Y-38078855D01*
X9966667Y-38078855D02*
X9966667Y-37278855D01*
X11071429Y-38078855D02*
X10804762Y-37697902D01*
X10614286Y-38078855D02*
X10614286Y-37278855D01*
X10614286Y-37278855D02*
X10919048Y-37278855D01*
X10919048Y-37278855D02*
X10995238Y-37316950D01*
X10995238Y-37316950D02*
X11033333Y-37355045D01*
X11033333Y-37355045D02*
X11071429Y-37431236D01*
X11071429Y-37431236D02*
X11071429Y-37545521D01*
X11071429Y-37545521D02*
X11033333Y-37621712D01*
X11033333Y-37621712D02*
X10995238Y-37659807D01*
X10995238Y-37659807D02*
X10919048Y-37697902D01*
X10919048Y-37697902D02*
X10614286Y-37697902D01*
X11871429Y-38002664D02*
X11833333Y-38040760D01*
X11833333Y-38040760D02*
X11719048Y-38078855D01*
X11719048Y-38078855D02*
X11642857Y-38078855D01*
X11642857Y-38078855D02*
X11528571Y-38040760D01*
X11528571Y-38040760D02*
X11452381Y-37964569D01*
X11452381Y-37964569D02*
X11414286Y-37888379D01*
X11414286Y-37888379D02*
X11376190Y-37735998D01*
X11376190Y-37735998D02*
X11376190Y-37621712D01*
X11376190Y-37621712D02*
X11414286Y-37469331D01*
X11414286Y-37469331D02*
X11452381Y-37393140D01*
X11452381Y-37393140D02*
X11528571Y-37316950D01*
X11528571Y-37316950D02*
X11642857Y-37278855D01*
X11642857Y-37278855D02*
X11719048Y-37278855D01*
X11719048Y-37278855D02*
X11833333Y-37316950D01*
X11833333Y-37316950D02*
X11871429Y-37355045D01*
X9833333Y-40199807D02*
X9947619Y-40237902D01*
X9947619Y-40237902D02*
X9985714Y-40275998D01*
X9985714Y-40275998D02*
X10023810Y-40352188D01*
X10023810Y-40352188D02*
X10023810Y-40466474D01*
X10023810Y-40466474D02*
X9985714Y-40542664D01*
X9985714Y-40542664D02*
X9947619Y-40580760D01*
X9947619Y-40580760D02*
X9871429Y-40618855D01*
X9871429Y-40618855D02*
X9566667Y-40618855D01*
X9566667Y-40618855D02*
X9566667Y-39818855D01*
X9566667Y-39818855D02*
X9833333Y-39818855D01*
X9833333Y-39818855D02*
X9909524Y-39856950D01*
X9909524Y-39856950D02*
X9947619Y-39895045D01*
X9947619Y-39895045D02*
X9985714Y-39971236D01*
X9985714Y-39971236D02*
X9985714Y-40047426D01*
X9985714Y-40047426D02*
X9947619Y-40123617D01*
X9947619Y-40123617D02*
X9909524Y-40161712D01*
X9909524Y-40161712D02*
X9833333Y-40199807D01*
X9833333Y-40199807D02*
X9566667Y-40199807D01*
X10823810Y-40542664D02*
X10785714Y-40580760D01*
X10785714Y-40580760D02*
X10671429Y-40618855D01*
X10671429Y-40618855D02*
X10595238Y-40618855D01*
X10595238Y-40618855D02*
X10480952Y-40580760D01*
X10480952Y-40580760D02*
X10404762Y-40504569D01*
X10404762Y-40504569D02*
X10366667Y-40428379D01*
X10366667Y-40428379D02*
X10328571Y-40275998D01*
X10328571Y-40275998D02*
X10328571Y-40161712D01*
X10328571Y-40161712D02*
X10366667Y-40009331D01*
X10366667Y-40009331D02*
X10404762Y-39933140D01*
X10404762Y-39933140D02*
X10480952Y-39856950D01*
X10480952Y-39856950D02*
X10595238Y-39818855D01*
X10595238Y-39818855D02*
X10671429Y-39818855D01*
X10671429Y-39818855D02*
X10785714Y-39856950D01*
X10785714Y-39856950D02*
X10823810Y-39895045D01*
X11547619Y-40618855D02*
X11166667Y-40618855D01*
X11166667Y-40618855D02*
X11166667Y-39818855D01*
X11814286Y-40618855D02*
X11814286Y-39818855D01*
X12271429Y-40618855D02*
X11928571Y-40161712D01*
X12271429Y-39818855D02*
X11814286Y-40275998D01*
X14419047Y-6563855D02*
X13961904Y-6563855D01*
X14190476Y-6563855D02*
X14190476Y-5763855D01*
X14190476Y-5763855D02*
X14114285Y-5878140D01*
X14114285Y-5878140D02*
X14038095Y-5954331D01*
X14038095Y-5954331D02*
X13961904Y-5992426D01*
X14761905Y-6144807D02*
X15371429Y-6144807D01*
X15371429Y-6373379D02*
X14761905Y-6373379D01*
X15676190Y-5763855D02*
X16171428Y-5763855D01*
X16171428Y-5763855D02*
X15904762Y-6068617D01*
X15904762Y-6068617D02*
X16019047Y-6068617D01*
X16019047Y-6068617D02*
X16095238Y-6106712D01*
X16095238Y-6106712D02*
X16133333Y-6144807D01*
X16133333Y-6144807D02*
X16171428Y-6220998D01*
X16171428Y-6220998D02*
X16171428Y-6411474D01*
X16171428Y-6411474D02*
X16133333Y-6487664D01*
X16133333Y-6487664D02*
X16095238Y-6525760D01*
X16095238Y-6525760D02*
X16019047Y-6563855D01*
X16019047Y-6563855D02*
X15790476Y-6563855D01*
X15790476Y-6563855D02*
X15714285Y-6525760D01*
X15714285Y-6525760D02*
X15676190Y-6487664D01*
X16400000Y-5763855D02*
X16666667Y-6563855D01*
X16666667Y-6563855D02*
X16933333Y-5763855D01*
X17123809Y-5763855D02*
X17619047Y-5763855D01*
X17619047Y-5763855D02*
X17352381Y-6068617D01*
X17352381Y-6068617D02*
X17466666Y-6068617D01*
X17466666Y-6068617D02*
X17542857Y-6106712D01*
X17542857Y-6106712D02*
X17580952Y-6144807D01*
X17580952Y-6144807D02*
X17619047Y-6220998D01*
X17619047Y-6220998D02*
X17619047Y-6411474D01*
X17619047Y-6411474D02*
X17580952Y-6487664D01*
X17580952Y-6487664D02*
X17542857Y-6525760D01*
X17542857Y-6525760D02*
X17466666Y-6563855D01*
X17466666Y-6563855D02*
X17238095Y-6563855D01*
X17238095Y-6563855D02*
X17161904Y-6525760D01*
X17161904Y-6525760D02*
X17123809Y-6487664D01*
X19142857Y-5840045D02*
X19180953Y-5801950D01*
X19180953Y-5801950D02*
X19257143Y-5763855D01*
X19257143Y-5763855D02*
X19447619Y-5763855D01*
X19447619Y-5763855D02*
X19523810Y-5801950D01*
X19523810Y-5801950D02*
X19561905Y-5840045D01*
X19561905Y-5840045D02*
X19600000Y-5916236D01*
X19600000Y-5916236D02*
X19600000Y-5992426D01*
X19600000Y-5992426D02*
X19561905Y-6106712D01*
X19561905Y-6106712D02*
X19104762Y-6563855D01*
X19104762Y-6563855D02*
X19600000Y-6563855D01*
X19942858Y-6144807D02*
X20552382Y-6144807D01*
X20552382Y-6373379D02*
X19942858Y-6373379D01*
X21314286Y-5763855D02*
X20933334Y-5763855D01*
X20933334Y-5763855D02*
X20895238Y-6144807D01*
X20895238Y-6144807D02*
X20933334Y-6106712D01*
X20933334Y-6106712D02*
X21009524Y-6068617D01*
X21009524Y-6068617D02*
X21200000Y-6068617D01*
X21200000Y-6068617D02*
X21276191Y-6106712D01*
X21276191Y-6106712D02*
X21314286Y-6144807D01*
X21314286Y-6144807D02*
X21352381Y-6220998D01*
X21352381Y-6220998D02*
X21352381Y-6411474D01*
X21352381Y-6411474D02*
X21314286Y-6487664D01*
X21314286Y-6487664D02*
X21276191Y-6525760D01*
X21276191Y-6525760D02*
X21200000Y-6563855D01*
X21200000Y-6563855D02*
X21009524Y-6563855D01*
X21009524Y-6563855D02*
X20933334Y-6525760D01*
X20933334Y-6525760D02*
X20895238Y-6487664D01*
X21580953Y-5763855D02*
X21847620Y-6563855D01*
X21847620Y-6563855D02*
X22114286Y-5763855D01*
X54066666Y-14563855D02*
X54561904Y-14563855D01*
X54561904Y-14563855D02*
X54295238Y-14868617D01*
X54295238Y-14868617D02*
X54409523Y-14868617D01*
X54409523Y-14868617D02*
X54485714Y-14906712D01*
X54485714Y-14906712D02*
X54523809Y-14944807D01*
X54523809Y-14944807D02*
X54561904Y-15020998D01*
X54561904Y-15020998D02*
X54561904Y-15211474D01*
X54561904Y-15211474D02*
X54523809Y-15287664D01*
X54523809Y-15287664D02*
X54485714Y-15325760D01*
X54485714Y-15325760D02*
X54409523Y-15363855D01*
X54409523Y-15363855D02*
X54180952Y-15363855D01*
X54180952Y-15363855D02*
X54104761Y-15325760D01*
X54104761Y-15325760D02*
X54066666Y-15287664D01*
X54942857Y-15363855D02*
X55095238Y-15363855D01*
X55095238Y-15363855D02*
X55171428Y-15325760D01*
X55171428Y-15325760D02*
X55209524Y-15287664D01*
X55209524Y-15287664D02*
X55285714Y-15173379D01*
X55285714Y-15173379D02*
X55323809Y-15020998D01*
X55323809Y-15020998D02*
X55323809Y-14716236D01*
X55323809Y-14716236D02*
X55285714Y-14640045D01*
X55285714Y-14640045D02*
X55247619Y-14601950D01*
X55247619Y-14601950D02*
X55171428Y-14563855D01*
X55171428Y-14563855D02*
X55019047Y-14563855D01*
X55019047Y-14563855D02*
X54942857Y-14601950D01*
X54942857Y-14601950D02*
X54904762Y-14640045D01*
X54904762Y-14640045D02*
X54866666Y-14716236D01*
X54866666Y-14716236D02*
X54866666Y-14906712D01*
X54866666Y-14906712D02*
X54904762Y-14982902D01*
X54904762Y-14982902D02*
X54942857Y-15020998D01*
X54942857Y-15020998D02*
X55019047Y-15059093D01*
X55019047Y-15059093D02*
X55171428Y-15059093D01*
X55171428Y-15059093D02*
X55247619Y-15020998D01*
X55247619Y-15020998D02*
X55285714Y-14982902D01*
X55285714Y-14982902D02*
X55323809Y-14906712D01*
X55666667Y-14944807D02*
X56276191Y-14944807D01*
X56276191Y-15173379D02*
X55666667Y-15173379D01*
X57076190Y-14601950D02*
X57000000Y-14563855D01*
X57000000Y-14563855D02*
X56885714Y-14563855D01*
X56885714Y-14563855D02*
X56771428Y-14601950D01*
X56771428Y-14601950D02*
X56695238Y-14678140D01*
X56695238Y-14678140D02*
X56657143Y-14754331D01*
X56657143Y-14754331D02*
X56619047Y-14906712D01*
X56619047Y-14906712D02*
X56619047Y-15020998D01*
X56619047Y-15020998D02*
X56657143Y-15173379D01*
X56657143Y-15173379D02*
X56695238Y-15249569D01*
X56695238Y-15249569D02*
X56771428Y-15325760D01*
X56771428Y-15325760D02*
X56885714Y-15363855D01*
X56885714Y-15363855D02*
X56961905Y-15363855D01*
X56961905Y-15363855D02*
X57076190Y-15325760D01*
X57076190Y-15325760D02*
X57114286Y-15287664D01*
X57114286Y-15287664D02*
X57114286Y-15020998D01*
X57114286Y-15020998D02*
X56961905Y-15020998D01*
X57457143Y-15363855D02*
X57457143Y-14563855D01*
X57457143Y-14563855D02*
X57914286Y-15363855D01*
X57914286Y-15363855D02*
X57914286Y-14563855D01*
X58295238Y-15363855D02*
X58295238Y-14563855D01*
X58295238Y-14563855D02*
X58485714Y-14563855D01*
X58485714Y-14563855D02*
X58600000Y-14601950D01*
X58600000Y-14601950D02*
X58676190Y-14678140D01*
X58676190Y-14678140D02*
X58714285Y-14754331D01*
X58714285Y-14754331D02*
X58752381Y-14906712D01*
X58752381Y-14906712D02*
X58752381Y-15020998D01*
X58752381Y-15020998D02*
X58714285Y-15173379D01*
X58714285Y-15173379D02*
X58676190Y-15249569D01*
X58676190Y-15249569D02*
X58600000Y-15325760D01*
X58600000Y-15325760D02*
X58485714Y-15363855D01*
X58485714Y-15363855D02*
X58295238Y-15363855D01*
X60047619Y-14830521D02*
X60047619Y-15363855D01*
X59857143Y-14525760D02*
X59666666Y-15097188D01*
X59666666Y-15097188D02*
X60161905Y-15097188D01*
X60619048Y-14563855D02*
X60695238Y-14563855D01*
X60695238Y-14563855D02*
X60771429Y-14601950D01*
X60771429Y-14601950D02*
X60809524Y-14640045D01*
X60809524Y-14640045D02*
X60847619Y-14716236D01*
X60847619Y-14716236D02*
X60885714Y-14868617D01*
X60885714Y-14868617D02*
X60885714Y-15059093D01*
X60885714Y-15059093D02*
X60847619Y-15211474D01*
X60847619Y-15211474D02*
X60809524Y-15287664D01*
X60809524Y-15287664D02*
X60771429Y-15325760D01*
X60771429Y-15325760D02*
X60695238Y-15363855D01*
X60695238Y-15363855D02*
X60619048Y-15363855D01*
X60619048Y-15363855D02*
X60542857Y-15325760D01*
X60542857Y-15325760D02*
X60504762Y-15287664D01*
X60504762Y-15287664D02*
X60466667Y-15211474D01*
X60466667Y-15211474D02*
X60428571Y-15059093D01*
X60428571Y-15059093D02*
X60428571Y-14868617D01*
X60428571Y-14868617D02*
X60466667Y-14716236D01*
X60466667Y-14716236D02*
X60504762Y-14640045D01*
X60504762Y-14640045D02*
X60542857Y-14601950D01*
X60542857Y-14601950D02*
X60619048Y-14563855D01*
X61228572Y-14944807D02*
X61838096Y-14944807D01*
X61838096Y-15173379D02*
X61228572Y-15173379D01*
X62219048Y-15363855D02*
X62219048Y-14563855D01*
X62219048Y-14563855D02*
X62409524Y-14563855D01*
X62409524Y-14563855D02*
X62523810Y-14601950D01*
X62523810Y-14601950D02*
X62600000Y-14678140D01*
X62600000Y-14678140D02*
X62638095Y-14754331D01*
X62638095Y-14754331D02*
X62676191Y-14906712D01*
X62676191Y-14906712D02*
X62676191Y-15020998D01*
X62676191Y-15020998D02*
X62638095Y-15173379D01*
X62638095Y-15173379D02*
X62600000Y-15249569D01*
X62600000Y-15249569D02*
X62523810Y-15325760D01*
X62523810Y-15325760D02*
X62409524Y-15363855D01*
X62409524Y-15363855D02*
X62219048Y-15363855D01*
X63019048Y-15363855D02*
X63019048Y-14563855D01*
X63400000Y-15363855D02*
X63400000Y-14563855D01*
X63400000Y-14563855D02*
X63857143Y-15363855D01*
X63857143Y-15363855D02*
X63857143Y-14563855D01*
X60947619Y-24743855D02*
X60566667Y-24743855D01*
X60566667Y-24743855D02*
X60566667Y-23943855D01*
X61671429Y-24743855D02*
X61404762Y-24362902D01*
X61214286Y-24743855D02*
X61214286Y-23943855D01*
X61214286Y-23943855D02*
X61519048Y-23943855D01*
X61519048Y-23943855D02*
X61595238Y-23981950D01*
X61595238Y-23981950D02*
X61633333Y-24020045D01*
X61633333Y-24020045D02*
X61671429Y-24096236D01*
X61671429Y-24096236D02*
X61671429Y-24210521D01*
X61671429Y-24210521D02*
X61633333Y-24286712D01*
X61633333Y-24286712D02*
X61595238Y-24324807D01*
X61595238Y-24324807D02*
X61519048Y-24362902D01*
X61519048Y-24362902D02*
X61214286Y-24362902D01*
X62471429Y-24667664D02*
X62433333Y-24705760D01*
X62433333Y-24705760D02*
X62319048Y-24743855D01*
X62319048Y-24743855D02*
X62242857Y-24743855D01*
X62242857Y-24743855D02*
X62128571Y-24705760D01*
X62128571Y-24705760D02*
X62052381Y-24629569D01*
X62052381Y-24629569D02*
X62014286Y-24553379D01*
X62014286Y-24553379D02*
X61976190Y-24400998D01*
X61976190Y-24400998D02*
X61976190Y-24286712D01*
X61976190Y-24286712D02*
X62014286Y-24134331D01*
X62014286Y-24134331D02*
X62052381Y-24058140D01*
X62052381Y-24058140D02*
X62128571Y-23981950D01*
X62128571Y-23981950D02*
X62242857Y-23943855D01*
X62242857Y-23943855D02*
X62319048Y-23943855D01*
X62319048Y-23943855D02*
X62433333Y-23981950D01*
X62433333Y-23981950D02*
X62471429Y-24020045D01*
X60433333Y-26864807D02*
X60547619Y-26902902D01*
X60547619Y-26902902D02*
X60585714Y-26940998D01*
X60585714Y-26940998D02*
X60623810Y-27017188D01*
X60623810Y-27017188D02*
X60623810Y-27131474D01*
X60623810Y-27131474D02*
X60585714Y-27207664D01*
X60585714Y-27207664D02*
X60547619Y-27245760D01*
X60547619Y-27245760D02*
X60471429Y-27283855D01*
X60471429Y-27283855D02*
X60166667Y-27283855D01*
X60166667Y-27283855D02*
X60166667Y-26483855D01*
X60166667Y-26483855D02*
X60433333Y-26483855D01*
X60433333Y-26483855D02*
X60509524Y-26521950D01*
X60509524Y-26521950D02*
X60547619Y-26560045D01*
X60547619Y-26560045D02*
X60585714Y-26636236D01*
X60585714Y-26636236D02*
X60585714Y-26712426D01*
X60585714Y-26712426D02*
X60547619Y-26788617D01*
X60547619Y-26788617D02*
X60509524Y-26826712D01*
X60509524Y-26826712D02*
X60433333Y-26864807D01*
X60433333Y-26864807D02*
X60166667Y-26864807D01*
X61423810Y-27207664D02*
X61385714Y-27245760D01*
X61385714Y-27245760D02*
X61271429Y-27283855D01*
X61271429Y-27283855D02*
X61195238Y-27283855D01*
X61195238Y-27283855D02*
X61080952Y-27245760D01*
X61080952Y-27245760D02*
X61004762Y-27169569D01*
X61004762Y-27169569D02*
X60966667Y-27093379D01*
X60966667Y-27093379D02*
X60928571Y-26940998D01*
X60928571Y-26940998D02*
X60928571Y-26826712D01*
X60928571Y-26826712D02*
X60966667Y-26674331D01*
X60966667Y-26674331D02*
X61004762Y-26598140D01*
X61004762Y-26598140D02*
X61080952Y-26521950D01*
X61080952Y-26521950D02*
X61195238Y-26483855D01*
X61195238Y-26483855D02*
X61271429Y-26483855D01*
X61271429Y-26483855D02*
X61385714Y-26521950D01*
X61385714Y-26521950D02*
X61423810Y-26560045D01*
X62147619Y-27283855D02*
X61766667Y-27283855D01*
X61766667Y-27283855D02*
X61766667Y-26483855D01*
X62414286Y-27283855D02*
X62414286Y-26483855D01*
X62871429Y-27283855D02*
X62528571Y-26826712D01*
X62871429Y-26483855D02*
X62414286Y-26940998D01*
X60680953Y-29823855D02*
X60680953Y-29023855D01*
X60680953Y-29023855D02*
X60871429Y-29023855D01*
X60871429Y-29023855D02*
X60985715Y-29061950D01*
X60985715Y-29061950D02*
X61061905Y-29138140D01*
X61061905Y-29138140D02*
X61100000Y-29214331D01*
X61100000Y-29214331D02*
X61138096Y-29366712D01*
X61138096Y-29366712D02*
X61138096Y-29480998D01*
X61138096Y-29480998D02*
X61100000Y-29633379D01*
X61100000Y-29633379D02*
X61061905Y-29709569D01*
X61061905Y-29709569D02*
X60985715Y-29785760D01*
X60985715Y-29785760D02*
X60871429Y-29823855D01*
X60871429Y-29823855D02*
X60680953Y-29823855D01*
X61480953Y-29823855D02*
X61480953Y-29023855D01*
X61861905Y-29823855D02*
X61861905Y-29023855D01*
X61861905Y-29023855D02*
X62319048Y-29823855D01*
X62319048Y-29823855D02*
X62319048Y-29023855D01*
X60871429Y-32363855D02*
X60871429Y-31563855D01*
X60871429Y-31563855D02*
X61328572Y-32363855D01*
X61328572Y-32363855D02*
X61328572Y-31563855D01*
X62166667Y-32287664D02*
X62128571Y-32325760D01*
X62128571Y-32325760D02*
X62014286Y-32363855D01*
X62014286Y-32363855D02*
X61938095Y-32363855D01*
X61938095Y-32363855D02*
X61823809Y-32325760D01*
X61823809Y-32325760D02*
X61747619Y-32249569D01*
X61747619Y-32249569D02*
X61709524Y-32173379D01*
X61709524Y-32173379D02*
X61671428Y-32020998D01*
X61671428Y-32020998D02*
X61671428Y-31906712D01*
X61671428Y-31906712D02*
X61709524Y-31754331D01*
X61709524Y-31754331D02*
X61747619Y-31678140D01*
X61747619Y-31678140D02*
X61823809Y-31601950D01*
X61823809Y-31601950D02*
X61938095Y-31563855D01*
X61938095Y-31563855D02*
X62014286Y-31563855D01*
X62014286Y-31563855D02*
X62128571Y-31601950D01*
X62128571Y-31601950D02*
X62166667Y-31640045D01*
X60871429Y-34903855D02*
X60871429Y-34103855D01*
X60871429Y-34103855D02*
X61328572Y-34903855D01*
X61328572Y-34903855D02*
X61328572Y-34103855D01*
X62166667Y-34827664D02*
X62128571Y-34865760D01*
X62128571Y-34865760D02*
X62014286Y-34903855D01*
X62014286Y-34903855D02*
X61938095Y-34903855D01*
X61938095Y-34903855D02*
X61823809Y-34865760D01*
X61823809Y-34865760D02*
X61747619Y-34789569D01*
X61747619Y-34789569D02*
X61709524Y-34713379D01*
X61709524Y-34713379D02*
X61671428Y-34560998D01*
X61671428Y-34560998D02*
X61671428Y-34446712D01*
X61671428Y-34446712D02*
X61709524Y-34294331D01*
X61709524Y-34294331D02*
X61747619Y-34218140D01*
X61747619Y-34218140D02*
X61823809Y-34141950D01*
X61823809Y-34141950D02*
X61938095Y-34103855D01*
X61938095Y-34103855D02*
X62014286Y-34103855D01*
X62014286Y-34103855D02*
X62128571Y-34141950D01*
X62128571Y-34141950D02*
X62166667Y-34180045D01*
X60890476Y-36681950D02*
X60814286Y-36643855D01*
X60814286Y-36643855D02*
X60700000Y-36643855D01*
X60700000Y-36643855D02*
X60585714Y-36681950D01*
X60585714Y-36681950D02*
X60509524Y-36758140D01*
X60509524Y-36758140D02*
X60471429Y-36834331D01*
X60471429Y-36834331D02*
X60433333Y-36986712D01*
X60433333Y-36986712D02*
X60433333Y-37100998D01*
X60433333Y-37100998D02*
X60471429Y-37253379D01*
X60471429Y-37253379D02*
X60509524Y-37329569D01*
X60509524Y-37329569D02*
X60585714Y-37405760D01*
X60585714Y-37405760D02*
X60700000Y-37443855D01*
X60700000Y-37443855D02*
X60776191Y-37443855D01*
X60776191Y-37443855D02*
X60890476Y-37405760D01*
X60890476Y-37405760D02*
X60928572Y-37367664D01*
X60928572Y-37367664D02*
X60928572Y-37100998D01*
X60928572Y-37100998D02*
X60776191Y-37100998D01*
X61271429Y-37443855D02*
X61271429Y-36643855D01*
X61271429Y-36643855D02*
X61728572Y-37443855D01*
X61728572Y-37443855D02*
X61728572Y-36643855D01*
X62109524Y-37443855D02*
X62109524Y-36643855D01*
X62109524Y-36643855D02*
X62300000Y-36643855D01*
X62300000Y-36643855D02*
X62414286Y-36681950D01*
X62414286Y-36681950D02*
X62490476Y-36758140D01*
X62490476Y-36758140D02*
X62528571Y-36834331D01*
X62528571Y-36834331D02*
X62566667Y-36986712D01*
X62566667Y-36986712D02*
X62566667Y-37100998D01*
X62566667Y-37100998D02*
X62528571Y-37253379D01*
X62528571Y-37253379D02*
X62490476Y-37329569D01*
X62490476Y-37329569D02*
X62414286Y-37405760D01*
X62414286Y-37405760D02*
X62300000Y-37443855D01*
X62300000Y-37443855D02*
X62109524Y-37443855D01*
X61347619Y-39183855D02*
X60966667Y-39183855D01*
X60966667Y-39183855D02*
X60928571Y-39564807D01*
X60928571Y-39564807D02*
X60966667Y-39526712D01*
X60966667Y-39526712D02*
X61042857Y-39488617D01*
X61042857Y-39488617D02*
X61233333Y-39488617D01*
X61233333Y-39488617D02*
X61309524Y-39526712D01*
X61309524Y-39526712D02*
X61347619Y-39564807D01*
X61347619Y-39564807D02*
X61385714Y-39640998D01*
X61385714Y-39640998D02*
X61385714Y-39831474D01*
X61385714Y-39831474D02*
X61347619Y-39907664D01*
X61347619Y-39907664D02*
X61309524Y-39945760D01*
X61309524Y-39945760D02*
X61233333Y-39983855D01*
X61233333Y-39983855D02*
X61042857Y-39983855D01*
X61042857Y-39983855D02*
X60966667Y-39945760D01*
X60966667Y-39945760D02*
X60928571Y-39907664D01*
X61614286Y-39183855D02*
X61880953Y-39983855D01*
X61880953Y-39983855D02*
X62147619Y-39183855D01*
X14295760Y-55685714D02*
X14333855Y-55571428D01*
X14333855Y-55571428D02*
X14333855Y-55380952D01*
X14333855Y-55380952D02*
X14295760Y-55304761D01*
X14295760Y-55304761D02*
X14257664Y-55266666D01*
X14257664Y-55266666D02*
X14181474Y-55228571D01*
X14181474Y-55228571D02*
X14105283Y-55228571D01*
X14105283Y-55228571D02*
X14029093Y-55266666D01*
X14029093Y-55266666D02*
X13990998Y-55304761D01*
X13990998Y-55304761D02*
X13952902Y-55380952D01*
X13952902Y-55380952D02*
X13914807Y-55533333D01*
X13914807Y-55533333D02*
X13876712Y-55609523D01*
X13876712Y-55609523D02*
X13838617Y-55647618D01*
X13838617Y-55647618D02*
X13762426Y-55685714D01*
X13762426Y-55685714D02*
X13686236Y-55685714D01*
X13686236Y-55685714D02*
X13610045Y-55647618D01*
X13610045Y-55647618D02*
X13571950Y-55609523D01*
X13571950Y-55609523D02*
X13533855Y-55533333D01*
X13533855Y-55533333D02*
X13533855Y-55342856D01*
X13533855Y-55342856D02*
X13571950Y-55228571D01*
X13533855Y-54961904D02*
X14333855Y-54771428D01*
X14333855Y-54771428D02*
X13762426Y-54619047D01*
X13762426Y-54619047D02*
X14333855Y-54466666D01*
X14333855Y-54466666D02*
X13533855Y-54276190D01*
X16111950Y-55609523D02*
X16073855Y-55685713D01*
X16073855Y-55685713D02*
X16073855Y-55799999D01*
X16073855Y-55799999D02*
X16111950Y-55914285D01*
X16111950Y-55914285D02*
X16188140Y-55990475D01*
X16188140Y-55990475D02*
X16264331Y-56028570D01*
X16264331Y-56028570D02*
X16416712Y-56066666D01*
X16416712Y-56066666D02*
X16530998Y-56066666D01*
X16530998Y-56066666D02*
X16683379Y-56028570D01*
X16683379Y-56028570D02*
X16759569Y-55990475D01*
X16759569Y-55990475D02*
X16835760Y-55914285D01*
X16835760Y-55914285D02*
X16873855Y-55799999D01*
X16873855Y-55799999D02*
X16873855Y-55723808D01*
X16873855Y-55723808D02*
X16835760Y-55609523D01*
X16835760Y-55609523D02*
X16797664Y-55571427D01*
X16797664Y-55571427D02*
X16530998Y-55571427D01*
X16530998Y-55571427D02*
X16530998Y-55723808D01*
X16873855Y-55228570D02*
X16073855Y-55228570D01*
X16073855Y-55228570D02*
X16873855Y-54771427D01*
X16873855Y-54771427D02*
X16073855Y-54771427D01*
X16873855Y-54390475D02*
X16073855Y-54390475D01*
X16073855Y-54390475D02*
X16073855Y-54199999D01*
X16073855Y-54199999D02*
X16111950Y-54085713D01*
X16111950Y-54085713D02*
X16188140Y-54009523D01*
X16188140Y-54009523D02*
X16264331Y-53971428D01*
X16264331Y-53971428D02*
X16416712Y-53933332D01*
X16416712Y-53933332D02*
X16530998Y-53933332D01*
X16530998Y-53933332D02*
X16683379Y-53971428D01*
X16683379Y-53971428D02*
X16759569Y-54009523D01*
X16759569Y-54009523D02*
X16835760Y-54085713D01*
X16835760Y-54085713D02*
X16873855Y-54199999D01*
X16873855Y-54199999D02*
X16873855Y-54390475D01*
X19413855Y-55514285D02*
X19413855Y-55895237D01*
X19413855Y-55895237D02*
X18613855Y-55895237D01*
X18994807Y-55247618D02*
X18994807Y-54980952D01*
X19413855Y-54866666D02*
X19413855Y-55247618D01*
X19413855Y-55247618D02*
X18613855Y-55247618D01*
X18613855Y-55247618D02*
X18613855Y-54866666D01*
X19413855Y-54523808D02*
X18613855Y-54523808D01*
X18613855Y-54523808D02*
X18613855Y-54333332D01*
X18613855Y-54333332D02*
X18651950Y-54219046D01*
X18651950Y-54219046D02*
X18728140Y-54142856D01*
X18728140Y-54142856D02*
X18804331Y-54104761D01*
X18804331Y-54104761D02*
X18956712Y-54066665D01*
X18956712Y-54066665D02*
X19070998Y-54066665D01*
X19070998Y-54066665D02*
X19223379Y-54104761D01*
X19223379Y-54104761D02*
X19299569Y-54142856D01*
X19299569Y-54142856D02*
X19375760Y-54219046D01*
X19375760Y-54219046D02*
X19413855Y-54333332D01*
X19413855Y-54333332D02*
X19413855Y-54523808D01*
X21191950Y-55609523D02*
X21153855Y-55685713D01*
X21153855Y-55685713D02*
X21153855Y-55799999D01*
X21153855Y-55799999D02*
X21191950Y-55914285D01*
X21191950Y-55914285D02*
X21268140Y-55990475D01*
X21268140Y-55990475D02*
X21344331Y-56028570D01*
X21344331Y-56028570D02*
X21496712Y-56066666D01*
X21496712Y-56066666D02*
X21610998Y-56066666D01*
X21610998Y-56066666D02*
X21763379Y-56028570D01*
X21763379Y-56028570D02*
X21839569Y-55990475D01*
X21839569Y-55990475D02*
X21915760Y-55914285D01*
X21915760Y-55914285D02*
X21953855Y-55799999D01*
X21953855Y-55799999D02*
X21953855Y-55723808D01*
X21953855Y-55723808D02*
X21915760Y-55609523D01*
X21915760Y-55609523D02*
X21877664Y-55571427D01*
X21877664Y-55571427D02*
X21610998Y-55571427D01*
X21610998Y-55571427D02*
X21610998Y-55723808D01*
X21953855Y-55228570D02*
X21153855Y-55228570D01*
X21153855Y-55228570D02*
X21953855Y-54771427D01*
X21953855Y-54771427D02*
X21153855Y-54771427D01*
X21953855Y-54390475D02*
X21153855Y-54390475D01*
X21153855Y-54390475D02*
X21153855Y-54199999D01*
X21153855Y-54199999D02*
X21191950Y-54085713D01*
X21191950Y-54085713D02*
X21268140Y-54009523D01*
X21268140Y-54009523D02*
X21344331Y-53971428D01*
X21344331Y-53971428D02*
X21496712Y-53933332D01*
X21496712Y-53933332D02*
X21610998Y-53933332D01*
X21610998Y-53933332D02*
X21763379Y-53971428D01*
X21763379Y-53971428D02*
X21839569Y-54009523D01*
X21839569Y-54009523D02*
X21915760Y-54085713D01*
X21915760Y-54085713D02*
X21953855Y-54199999D01*
X21953855Y-54199999D02*
X21953855Y-54390475D01*
D11*
X8156667Y-26574271D02*
X8156667Y-27481414D01*
X8156667Y-27481414D02*
X8096190Y-27662842D01*
X8096190Y-27662842D02*
X7975238Y-27783795D01*
X7975238Y-27783795D02*
X7793809Y-27844271D01*
X7793809Y-27844271D02*
X7672857Y-27844271D01*
X9305714Y-26997604D02*
X9305714Y-27844271D01*
X9003333Y-26513795D02*
X8700952Y-27420937D01*
X8700952Y-27420937D02*
X9487143Y-27420937D01*
X10371667Y13390728D02*
X10371667Y12483585D01*
X10371667Y12483585D02*
X10311190Y12302157D01*
X10311190Y12302157D02*
X10190238Y12181205D01*
X10190238Y12181205D02*
X10008809Y12120728D01*
X10008809Y12120728D02*
X9887857Y12120728D01*
X11641667Y12120728D02*
X10915952Y12120728D01*
X11278809Y12120728D02*
X11278809Y13390728D01*
X11278809Y13390728D02*
X11157857Y13209300D01*
X11157857Y13209300D02*
X11036905Y13088347D01*
X11036905Y13088347D02*
X10915952Y13027871D01*
X64558333Y-39638318D02*
X64497857Y-39698795D01*
X64497857Y-39698795D02*
X64316428Y-39759271D01*
X64316428Y-39759271D02*
X64195476Y-39759271D01*
X64195476Y-39759271D02*
X64014047Y-39698795D01*
X64014047Y-39698795D02*
X63893095Y-39577842D01*
X63893095Y-39577842D02*
X63832618Y-39456890D01*
X63832618Y-39456890D02*
X63772142Y-39214985D01*
X63772142Y-39214985D02*
X63772142Y-39033556D01*
X63772142Y-39033556D02*
X63832618Y-38791652D01*
X63832618Y-38791652D02*
X63893095Y-38670699D01*
X63893095Y-38670699D02*
X64014047Y-38549747D01*
X64014047Y-38549747D02*
X64195476Y-38489271D01*
X64195476Y-38489271D02*
X64316428Y-38489271D01*
X64316428Y-38489271D02*
X64497857Y-38549747D01*
X64497857Y-38549747D02*
X64558333Y-38610223D01*
X65767857Y-39759271D02*
X65042142Y-39759271D01*
X65404999Y-39759271D02*
X65404999Y-38489271D01*
X65404999Y-38489271D02*
X65284047Y-38670699D01*
X65284047Y-38670699D02*
X65163095Y-38791652D01*
X65163095Y-38791652D02*
X65042142Y-38852128D01*
X6842380Y-55189271D02*
X6842380Y-53919271D01*
X6842380Y-54524033D02*
X7568095Y-54524033D01*
X7568095Y-55189271D02*
X7568095Y-53919271D01*
X8051904Y-53919271D02*
X8838095Y-53919271D01*
X8838095Y-53919271D02*
X8414761Y-54403080D01*
X8414761Y-54403080D02*
X8596190Y-54403080D01*
X8596190Y-54403080D02*
X8717142Y-54463556D01*
X8717142Y-54463556D02*
X8777618Y-54524033D01*
X8777618Y-54524033D02*
X8838095Y-54644985D01*
X8838095Y-54644985D02*
X8838095Y-54947366D01*
X8838095Y-54947366D02*
X8777618Y-55068318D01*
X8777618Y-55068318D02*
X8717142Y-55128795D01*
X8717142Y-55128795D02*
X8596190Y-55189271D01*
X8596190Y-55189271D02*
X8233333Y-55189271D01*
X8233333Y-55189271D02*
X8112380Y-55128795D01*
X8112380Y-55128795D02*
X8051904Y-55068318D01*
X50376667Y14660728D02*
X50376667Y13753585D01*
X50376667Y13753585D02*
X50316190Y13572157D01*
X50316190Y13572157D02*
X50195238Y13451205D01*
X50195238Y13451205D02*
X50013809Y13390728D01*
X50013809Y13390728D02*
X49892857Y13390728D01*
X51525714Y14660728D02*
X51283809Y14660728D01*
X51283809Y14660728D02*
X51162857Y14600252D01*
X51162857Y14600252D02*
X51102381Y14539776D01*
X51102381Y14539776D02*
X50981428Y14358347D01*
X50981428Y14358347D02*
X50920952Y14116443D01*
X50920952Y14116443D02*
X50920952Y13632633D01*
X50920952Y13632633D02*
X50981428Y13511681D01*
X50981428Y13511681D02*
X51041905Y13451205D01*
X51041905Y13451205D02*
X51162857Y13390728D01*
X51162857Y13390728D02*
X51404762Y13390728D01*
X51404762Y13390728D02*
X51525714Y13451205D01*
X51525714Y13451205D02*
X51586190Y13511681D01*
X51586190Y13511681D02*
X51646667Y13632633D01*
X51646667Y13632633D02*
X51646667Y13935014D01*
X51646667Y13935014D02*
X51586190Y14055966D01*
X51586190Y14055966D02*
X51525714Y14116443D01*
X51525714Y14116443D02*
X51404762Y14176919D01*
X51404762Y14176919D02*
X51162857Y14176919D01*
X51162857Y14176919D02*
X51041905Y14116443D01*
X51041905Y14116443D02*
X50981428Y14055966D01*
X50981428Y14055966D02*
X50920952Y13935014D01*
X8156667Y-36734271D02*
X8156667Y-37641414D01*
X8156667Y-37641414D02*
X8096190Y-37822842D01*
X8096190Y-37822842D02*
X7975238Y-37943795D01*
X7975238Y-37943795D02*
X7793809Y-38004271D01*
X7793809Y-38004271D02*
X7672857Y-38004271D01*
X9366190Y-36734271D02*
X8761428Y-36734271D01*
X8761428Y-36734271D02*
X8700952Y-37339033D01*
X8700952Y-37339033D02*
X8761428Y-37278556D01*
X8761428Y-37278556D02*
X8882381Y-37218080D01*
X8882381Y-37218080D02*
X9184762Y-37218080D01*
X9184762Y-37218080D02*
X9305714Y-37278556D01*
X9305714Y-37278556D02*
X9366190Y-37339033D01*
X9366190Y-37339033D02*
X9426667Y-37459985D01*
X9426667Y-37459985D02*
X9426667Y-37762366D01*
X9426667Y-37762366D02*
X9366190Y-37883318D01*
X9366190Y-37883318D02*
X9305714Y-37943795D01*
X9305714Y-37943795D02*
X9184762Y-38004271D01*
X9184762Y-38004271D02*
X8882381Y-38004271D01*
X8882381Y-38004271D02*
X8761428Y-37943795D01*
X8761428Y-37943795D02*
X8700952Y-37883318D01*
X65926667Y-30939271D02*
X65926667Y-31846414D01*
X65926667Y-31846414D02*
X65866190Y-32027842D01*
X65866190Y-32027842D02*
X65745238Y-32148795D01*
X65745238Y-32148795D02*
X65563809Y-32209271D01*
X65563809Y-32209271D02*
X65442857Y-32209271D01*
X66410476Y-30939271D02*
X67196667Y-30939271D01*
X67196667Y-30939271D02*
X66773333Y-31423080D01*
X66773333Y-31423080D02*
X66954762Y-31423080D01*
X66954762Y-31423080D02*
X67075714Y-31483556D01*
X67075714Y-31483556D02*
X67136190Y-31544033D01*
X67136190Y-31544033D02*
X67196667Y-31664985D01*
X67196667Y-31664985D02*
X67196667Y-31967366D01*
X67196667Y-31967366D02*
X67136190Y-32088318D01*
X67136190Y-32088318D02*
X67075714Y-32148795D01*
X67075714Y-32148795D02*
X66954762Y-32209271D01*
X66954762Y-32209271D02*
X66591905Y-32209271D01*
X66591905Y-32209271D02*
X66470952Y-32148795D01*
X66470952Y-32148795D02*
X66410476Y-32088318D01*
X6842380Y-4389271D02*
X6842380Y-3119271D01*
X6842380Y-3724033D02*
X7568095Y-3724033D01*
X7568095Y-4389271D02*
X7568095Y-3119271D01*
X8838095Y-4389271D02*
X8112380Y-4389271D01*
X8475237Y-4389271D02*
X8475237Y-3119271D01*
X8475237Y-3119271D02*
X8354285Y-3300699D01*
X8354285Y-3300699D02*
X8233333Y-3421652D01*
X8233333Y-3421652D02*
X8112380Y-3482128D01*
X67422380Y-4389271D02*
X67422380Y-3119271D01*
X67422380Y-3724033D02*
X68148095Y-3724033D01*
X68148095Y-4389271D02*
X68148095Y-3119271D01*
X68692380Y-3240223D02*
X68752856Y-3179747D01*
X68752856Y-3179747D02*
X68873809Y-3119271D01*
X68873809Y-3119271D02*
X69176190Y-3119271D01*
X69176190Y-3119271D02*
X69297142Y-3179747D01*
X69297142Y-3179747D02*
X69357618Y-3240223D01*
X69357618Y-3240223D02*
X69418095Y-3361175D01*
X69418095Y-3361175D02*
X69418095Y-3482128D01*
X69418095Y-3482128D02*
X69357618Y-3663556D01*
X69357618Y-3663556D02*
X68631904Y-4389271D01*
X68631904Y-4389271D02*
X69418095Y-4389271D01*
X67422380Y-55189271D02*
X67422380Y-53919271D01*
X67422380Y-54524033D02*
X68148095Y-54524033D01*
X68148095Y-55189271D02*
X68148095Y-53919271D01*
X69297142Y-54342604D02*
X69297142Y-55189271D01*
X68994761Y-53858795D02*
X68692380Y-54765937D01*
X68692380Y-54765937D02*
X69478571Y-54765937D01*
X37676667Y-52649271D02*
X37676667Y-53556414D01*
X37676667Y-53556414D02*
X37616190Y-53737842D01*
X37616190Y-53737842D02*
X37495238Y-53858795D01*
X37495238Y-53858795D02*
X37313809Y-53919271D01*
X37313809Y-53919271D02*
X37192857Y-53919271D01*
X38220952Y-52770223D02*
X38281428Y-52709747D01*
X38281428Y-52709747D02*
X38402381Y-52649271D01*
X38402381Y-52649271D02*
X38704762Y-52649271D01*
X38704762Y-52649271D02*
X38825714Y-52709747D01*
X38825714Y-52709747D02*
X38886190Y-52770223D01*
X38886190Y-52770223D02*
X38946667Y-52891175D01*
X38946667Y-52891175D02*
X38946667Y-53012128D01*
X38946667Y-53012128D02*
X38886190Y-53193556D01*
X38886190Y-53193556D02*
X38160476Y-53919271D01*
X38160476Y-53919271D02*
X38946667Y-53919271D01*
X20663333Y-43164271D02*
X20239999Y-42559509D01*
X19937618Y-43164271D02*
X19937618Y-41894271D01*
X19937618Y-41894271D02*
X20421428Y-41894271D01*
X20421428Y-41894271D02*
X20542380Y-41954747D01*
X20542380Y-41954747D02*
X20602857Y-42015223D01*
X20602857Y-42015223D02*
X20663333Y-42136175D01*
X20663333Y-42136175D02*
X20663333Y-42317604D01*
X20663333Y-42317604D02*
X20602857Y-42438556D01*
X20602857Y-42438556D02*
X20542380Y-42499033D01*
X20542380Y-42499033D02*
X20421428Y-42559509D01*
X20421428Y-42559509D02*
X19937618Y-42559509D01*
X21872857Y-43164271D02*
X21147142Y-43164271D01*
X21509999Y-43164271D02*
X21509999Y-41894271D01*
X21509999Y-41894271D02*
X21389047Y-42075699D01*
X21389047Y-42075699D02*
X21268095Y-42196652D01*
X21268095Y-42196652D02*
X21147142Y-42257128D01*
%TO.C,J4*%
D10*
X3700000Y-23385000D02*
X5080000Y-23385000D01*
X3700000Y-24765000D02*
X3700000Y-23385000D01*
X3700000Y-26035000D02*
X3700000Y-31225000D01*
X3700000Y-26035000D02*
X6460000Y-26035000D01*
X3700000Y-31225000D02*
X6460000Y-31225000D01*
X6460000Y-26035000D02*
X6460000Y-31225000D01*
%TO.C,J1*%
X11320000Y-6875000D02*
X62340000Y-6875000D01*
X11320000Y-9525000D02*
X11320000Y-6875000D01*
X11320000Y-12175000D02*
X11320000Y-10795000D01*
X12700000Y-12175000D02*
X11320000Y-12175000D01*
X13970000Y-9525000D02*
X11320000Y-9525000D01*
X13970000Y-12175000D02*
X13970000Y-9525000D01*
X13970000Y-12175000D02*
X62340000Y-12175000D01*
X62340000Y-12175000D02*
X62340000Y-6875000D01*
%TO.C,C1*%
X63215225Y-41705000D02*
X63715225Y-41705000D01*
X63465225Y-41455000D02*
X63465225Y-41955000D01*
X66020000Y-40600000D02*
X66020000Y-45760000D01*
X66060000Y-40600000D02*
X66060000Y-45760000D01*
X66100000Y-40601000D02*
X66100000Y-45759000D01*
X66140000Y-40603000D02*
X66140000Y-45757000D01*
X66180000Y-40605000D02*
X66180000Y-45755000D01*
X66220000Y-40608000D02*
X66220000Y-45752000D01*
X66260000Y-40611000D02*
X66260000Y-42140000D01*
X66260000Y-44220000D02*
X66260000Y-45749000D01*
X66300000Y-40615000D02*
X66300000Y-42140000D01*
X66300000Y-44220000D02*
X66300000Y-45745000D01*
X66340000Y-40620000D02*
X66340000Y-42140000D01*
X66340000Y-44220000D02*
X66340000Y-45740000D01*
X66380000Y-40625000D02*
X66380000Y-42140000D01*
X66380000Y-44220000D02*
X66380000Y-45735000D01*
X66420000Y-40631000D02*
X66420000Y-42140000D01*
X66420000Y-44220000D02*
X66420000Y-45729000D01*
X66460000Y-40637000D02*
X66460000Y-42140000D01*
X66460000Y-44220000D02*
X66460000Y-45723000D01*
X66500000Y-40644000D02*
X66500000Y-42140000D01*
X66500000Y-44220000D02*
X66500000Y-45716000D01*
X66540000Y-40652000D02*
X66540000Y-42140000D01*
X66540000Y-44220000D02*
X66540000Y-45708000D01*
X66580000Y-40661000D02*
X66580000Y-42140000D01*
X66580000Y-44220000D02*
X66580000Y-45699000D01*
X66620000Y-40670000D02*
X66620000Y-42140000D01*
X66620000Y-44220000D02*
X66620000Y-45690000D01*
X66660000Y-40679000D02*
X66660000Y-42140000D01*
X66660000Y-44220000D02*
X66660000Y-45681000D01*
X66700000Y-40690000D02*
X66700000Y-42140000D01*
X66700000Y-44220000D02*
X66700000Y-45670000D01*
X66740000Y-40701000D02*
X66740000Y-42140000D01*
X66740000Y-44220000D02*
X66740000Y-45659000D01*
X66780000Y-40713000D02*
X66780000Y-42140000D01*
X66780000Y-44220000D02*
X66780000Y-45647000D01*
X66820000Y-40725000D02*
X66820000Y-42140000D01*
X66820000Y-44220000D02*
X66820000Y-45635000D01*
X66860000Y-40738000D02*
X66860000Y-42140000D01*
X66860000Y-44220000D02*
X66860000Y-45622000D01*
X66900000Y-40752000D02*
X66900000Y-42140000D01*
X66900000Y-44220000D02*
X66900000Y-45608000D01*
X66940000Y-40767000D02*
X66940000Y-42140000D01*
X66940000Y-44220000D02*
X66940000Y-45593000D01*
X66980000Y-40782000D02*
X66980000Y-42140000D01*
X66980000Y-44220000D02*
X66980000Y-45578000D01*
X67020000Y-40798000D02*
X67020000Y-42140000D01*
X67020000Y-44220000D02*
X67020000Y-45562000D01*
X67060000Y-40815000D02*
X67060000Y-42140000D01*
X67060000Y-44220000D02*
X67060000Y-45545000D01*
X67100000Y-40833000D02*
X67100000Y-42140000D01*
X67100000Y-44220000D02*
X67100000Y-45527000D01*
X67140000Y-40851000D02*
X67140000Y-42140000D01*
X67140000Y-44220000D02*
X67140000Y-45509000D01*
X67180000Y-40871000D02*
X67180000Y-42140000D01*
X67180000Y-44220000D02*
X67180000Y-45489000D01*
X67220000Y-40891000D02*
X67220000Y-42140000D01*
X67220000Y-44220000D02*
X67220000Y-45469000D01*
X67260000Y-40912000D02*
X67260000Y-42140000D01*
X67260000Y-44220000D02*
X67260000Y-45448000D01*
X67300000Y-40934000D02*
X67300000Y-42140000D01*
X67300000Y-44220000D02*
X67300000Y-45426000D01*
X67340000Y-40957000D02*
X67340000Y-42140000D01*
X67340000Y-44220000D02*
X67340000Y-45403000D01*
X67380000Y-40981000D02*
X67380000Y-42140000D01*
X67380000Y-44220000D02*
X67380000Y-45379000D01*
X67420000Y-41005000D02*
X67420000Y-42140000D01*
X67420000Y-44220000D02*
X67420000Y-45355000D01*
X67460000Y-41031000D02*
X67460000Y-42140000D01*
X67460000Y-44220000D02*
X67460000Y-45329000D01*
X67500000Y-41058000D02*
X67500000Y-42140000D01*
X67500000Y-44220000D02*
X67500000Y-45302000D01*
X67540000Y-41086000D02*
X67540000Y-42140000D01*
X67540000Y-44220000D02*
X67540000Y-45274000D01*
X67580000Y-41115000D02*
X67580000Y-42140000D01*
X67580000Y-44220000D02*
X67580000Y-45245000D01*
X67620000Y-41145000D02*
X67620000Y-42140000D01*
X67620000Y-44220000D02*
X67620000Y-45215000D01*
X67660000Y-41177000D02*
X67660000Y-42140000D01*
X67660000Y-44220000D02*
X67660000Y-45183000D01*
X67700000Y-41210000D02*
X67700000Y-42140000D01*
X67700000Y-44220000D02*
X67700000Y-45150000D01*
X67740000Y-41244000D02*
X67740000Y-42140000D01*
X67740000Y-44220000D02*
X67740000Y-45116000D01*
X67780000Y-41279000D02*
X67780000Y-42140000D01*
X67780000Y-44220000D02*
X67780000Y-45081000D01*
X67820000Y-41316000D02*
X67820000Y-42140000D01*
X67820000Y-44220000D02*
X67820000Y-45044000D01*
X67860000Y-41355000D02*
X67860000Y-42140000D01*
X67860000Y-44220000D02*
X67860000Y-45005000D01*
X67900000Y-41395000D02*
X67900000Y-42140000D01*
X67900000Y-44220000D02*
X67900000Y-44965000D01*
X67940000Y-41437000D02*
X67940000Y-42140000D01*
X67940000Y-44220000D02*
X67940000Y-44923000D01*
X67980000Y-41481000D02*
X67980000Y-42140000D01*
X67980000Y-44220000D02*
X67980000Y-44879000D01*
X68020000Y-41528000D02*
X68020000Y-42140000D01*
X68020000Y-44220000D02*
X68020000Y-44832000D01*
X68060000Y-41576000D02*
X68060000Y-42140000D01*
X68060000Y-44220000D02*
X68060000Y-44784000D01*
X68100000Y-41627000D02*
X68100000Y-42140000D01*
X68100000Y-44220000D02*
X68100000Y-44733000D01*
X68140000Y-41681000D02*
X68140000Y-42140000D01*
X68140000Y-44220000D02*
X68140000Y-44679000D01*
X68180000Y-41737000D02*
X68180000Y-42140000D01*
X68180000Y-44220000D02*
X68180000Y-44623000D01*
X68220000Y-41797000D02*
X68220000Y-42140000D01*
X68220000Y-44220000D02*
X68220000Y-44563000D01*
X68260000Y-41861000D02*
X68260000Y-42140000D01*
X68260000Y-44220000D02*
X68260000Y-44499000D01*
X68300000Y-41929000D02*
X68300000Y-42140000D01*
X68300000Y-44220000D02*
X68300000Y-44431000D01*
X68340000Y-42003000D02*
X68340000Y-44357000D01*
X68380000Y-42082000D02*
X68380000Y-44278000D01*
X68420000Y-42169000D02*
X68420000Y-44191000D01*
X68460000Y-42266000D02*
X68460000Y-44094000D01*
X68500000Y-42375000D02*
X68500000Y-43985000D01*
X68540000Y-42503000D02*
X68540000Y-43857000D01*
X68580000Y-42663000D02*
X68580000Y-43697000D01*
X68620000Y-42897000D02*
X68620000Y-43463000D01*
X68640000Y-43180000D02*
G75*
G02*
X63400000Y-43180000I-2620000J0D01*
G01*
X63400000Y-43180000D02*
G75*
G02*
X68640000Y-43180000I2620000J0D01*
G01*
%TO.C,J6*%
X12590000Y-52180000D02*
X12590000Y-50800000D01*
X13970000Y-52180000D02*
X12590000Y-52180000D01*
X15240000Y-49420000D02*
X22970000Y-49420000D01*
X15240000Y-52180000D02*
X15240000Y-49420000D01*
X15240000Y-52180000D02*
X22970000Y-52180000D01*
X22970000Y-52180000D02*
X22970000Y-49420000D01*
%TO.C,J5*%
X3700000Y-33545000D02*
X5080000Y-33545000D01*
X3700000Y-34925000D02*
X3700000Y-33545000D01*
X3700000Y-36195000D02*
X3700000Y-41385000D01*
X3700000Y-36195000D02*
X6460000Y-36195000D01*
X3700000Y-41385000D02*
X6460000Y-41385000D01*
X6460000Y-36195000D02*
X6460000Y-41385000D01*
%TO.C,J3*%
X68520000Y-25400000D02*
X68520000Y-40700000D01*
X68520000Y-25400000D02*
X71180000Y-25400000D01*
X68520000Y-40700000D02*
X71180000Y-40700000D01*
X69850000Y-22800000D02*
X71180000Y-22800000D01*
X71180000Y-22800000D02*
X71180000Y-24130000D01*
X71180000Y-25400000D02*
X71180000Y-40700000D01*
%TO.C,J2*%
X26990000Y-51630000D02*
X28790000Y-51630000D01*
X26990000Y-53080000D02*
X26990000Y-51630000D01*
X28260000Y-55900000D02*
X47940000Y-55900000D01*
X28790000Y-51630000D02*
X28790000Y-50640000D01*
X49210000Y-51630000D02*
X47410000Y-51630000D01*
X49210000Y-53080000D02*
X49210000Y-51630000D01*
%TO.C,R1*%
X16915000Y-45085000D02*
X17685000Y-45085000D01*
X24995000Y-45085000D02*
X24225000Y-45085000D01*
X17685000Y-43715000D02*
X24225000Y-43715000D01*
X24225000Y-46455000D01*
X17685000Y-46455000D01*
X17685000Y-43715000D01*
%TD*%
M02*
