M48
; DRILL file KiCad 10.0.3 date 2026-06-27T01:26:01
; FORMAT={-:-/ absolute / metric / decimal}
; #@! TF.CreationDate,2026-06-27T01:26:01+03:00
; #@! TF.GenerationSoftware,Kicad,Pcbnew,10.0.3
; #@! TF.FileFunction,Plated,1,4,PTH
FMAT,2
METRIC
; #@! TA.AperFunction,Plated,PTH,ViaDrill
T1C0.300
; #@! TA.AperFunction,Plated,PTH,ComponentDrill
T2C0.800
; #@! TA.AperFunction,Plated,PTH,ComponentDrill
T3C1.000
%
G90
G05
T1
X15.24Y-31.115
X16.51Y-28.575
X20.32Y-38.1
X28.575Y-50.8
X33.02Y-50.165
X34.29Y-9.525
X36.83Y-36.83
X38.1Y-50.165
X39.37Y-38.1
X43.18Y-38.1
X44.45Y-40.64
X45.085Y-41.91
X45.72Y-52.705
X46.99Y-50.165
T2
X15.875Y-45.085
X26.035Y-45.085
X64.77Y-43.18
X67.27Y-43.18
T3
X5.08Y-24.765
X5.08Y-27.305
X5.08Y-29.845
X5.08Y-34.925
X5.08Y-37.465
X5.08Y-40.005
X12.7Y-8.255
X12.7Y-10.795
X13.97Y-50.8
X15.24Y-8.255
X15.24Y-10.795
X16.51Y-50.8
X17.78Y-8.255
X17.78Y-10.795
X19.05Y-50.8
X20.32Y-8.255
X20.32Y-10.795
X21.59Y-50.8
X22.86Y-8.255
X22.86Y-10.795
X25.4Y-8.255
X25.4Y-10.795
X27.94Y-8.255
X27.94Y-10.795
X30.48Y-8.255
X30.48Y-10.795
X33.02Y-8.255
X33.02Y-10.795
X35.56Y-8.255
X35.56Y-10.795
X38.1Y-8.255
X38.1Y-10.795
X40.64Y-8.255
X40.64Y-10.795
X43.18Y-8.255
X43.18Y-10.795
X45.72Y-8.255
X45.72Y-10.795
X48.26Y-8.255
X48.26Y-10.795
X50.8Y-8.255
X50.8Y-10.795
X53.34Y-8.255
X53.34Y-10.795
X55.88Y-8.255
X55.88Y-10.795
X58.42Y-8.255
X58.42Y-10.795
X60.96Y-8.255
X60.96Y-10.795
X69.85Y-24.13
X69.85Y-26.67
X69.85Y-29.21
X69.85Y-31.75
X69.85Y-34.29
X69.85Y-36.83
X69.85Y-39.37
M30
