<?xml version="1.0" standalone="no"?>
 <!DOCTYPE svg PUBLIC "-//W3C//DTD SVG 1.1//EN" 
 "http://www.w3.org/Graphics/SVG/1.1/DTD/svg11.dtd"> 
<svg
  xmlns:svg="http://www.w3.org/2000/svg"
  xmlns="http://www.w3.org/2000/svg"
  xmlns:xlink="http://www.w3.org/1999/xlink"
  xmlns:inkscape="http://www.inkscape.org/namespaces/inkscape"
  version="1.1"
  width="75.9968mm" height="57.9882mm" viewBox="0.0000 0.0000 75.9968 57.9882">
<title>SVG Image created as top.svg date 2026-06-24T01:23:44 </title>
  <desc>Image generated by PCBNEW </desc>
<g style="fill:#000000; fill-opacity:1.0000;stroke:#000000; stroke-opacity:1.0000;
stroke-linecap:round; stroke-linejoin:round;"
 transform="translate(0 0) scale(1 1)">
<path style="fill:#C83434; fill-opacity:1.0000; stroke:none;fill-rule:evenodd;"
d="M 13.1200,51.6500
13.1200,49.9500
14.8200,49.9500
14.8200,51.6500
Z" /> 
</g>
<g style="fill:#C83434; fill-opacity:1.0000; stroke:none;">
<circle cx="16.5100" cy="50.8000" r="0.8500" /> 
<circle cx="21.5900" cy="50.8000" r="0.8500" /> 
<circle cx="5.0800" cy="29.8450" r="0.8500" /> 
<path style="fill:#C83434; fill-opacity:1.0000; stroke:none;fill-rule:evenodd;"
d="M 11.8500,11.6450
11.8500,9.9450
13.5500,9.9450
13.5500,11.6450
Z" /> 
<circle cx="17.7800" cy="13.3350" r="0.8500" /> 
<circle cx="22.8600" cy="10.7950" r="0.8500" /> 
<circle cx="27.9400" cy="13.3350" r="0.8500" /> 
<circle cx="33.0200" cy="10.7950" r="0.8500" /> 
<circle cx="35.5600" cy="13.3350" r="0.8500" /> 
<circle cx="40.6400" cy="13.3350" r="0.8500" /> 
<circle cx="43.1800" cy="10.7950" r="0.8500" /> 
<circle cx="48.2600" cy="13.3350" r="0.8500" /> 
<circle cx="50.8000" cy="13.3350" r="0.8500" /> 
<circle cx="53.3400" cy="10.7950" r="0.8500" /> 
<circle cx="53.3400" cy="13.3350" r="0.8500" /> 
<circle cx="60.9600" cy="10.7950" r="0.8500" /> 
<circle cx="60.9600" cy="13.3350" r="0.8500" /> 
<path style="fill:#C83434; fill-opacity:1.0000; stroke:none;fill-rule:evenodd;"
d="M 29.0500,50.7900
29.0614,50.7326
29.0939,50.6839
29.1426,50.6514
29.2000,50.6400
29.5000,50.6400
29.5574,50.6514
29.6061,50.6839
29.6386,50.7326
29.6500,50.7900
29.6500,52.1900
29.6386,52.2474
29.6061,52.2961
29.5574,52.3286
29.5000,52.3400
29.2000,52.3400
29.1426,52.3286
29.0939,52.2961
29.0614,52.2474
29.0500,52.1900
Z" /> 
<path style="fill:#C83434; fill-opacity:1.0000; stroke:none;fill-rule:evenodd;"
d="M 30.3000,50.7900
30.3114,50.7326
30.3439,50.6839
30.3926,50.6514
30.4500,50.6400
30.7500,50.6400
30.8074,50.6514
30.8561,50.6839
30.8886,50.7326
30.9000,50.7900
30.9000,52.1900
30.8886,52.2474
30.8561,52.2961
30.8074,52.3286
30.7500,52.3400
30.4500,52.3400
30.3926,52.3286
30.3439,52.2961
30.3114,52.2474
30.3000,52.1900
Z" /> 
<path style="fill:#C83434; fill-opacity:1.0000; stroke:none;fill-rule:evenodd;"
d="M 31.5500,50.7900
31.5614,50.7326
31.5939,50.6839
31.6426,50.6514
31.7000,50.6400
32.0000,50.6400
32.0574,50.6514
32.1061,50.6839
32.1386,50.7326
32.1500,50.7900
32.1500,52.1900
32.1386,52.2474
32.1061,52.2961
32.0574,52.3286
32.0000,52.3400
31.7000,52.3400
31.6426,52.3286
31.5939,52.2961
31.5614,52.2474
31.5500,52.1900
Z" /> 
<path style="fill:#C83434; fill-opacity:1.0000; stroke:none;fill-rule:evenodd;"
d="M 32.8000,50.7900
32.8114,50.7326
32.8439,50.6839
32.8926,50.6514
32.9500,50.6400
33.2500,50.6400
33.3074,50.6514
33.3561,50.6839
33.3886,50.7326
33.4000,50.7900
33.4000,52.1900
33.3886,52.2474
33.3561,52.2961
33.3074,52.3286
33.2500,52.3400
32.9500,52.3400
32.8926,52.3286
32.8439,52.2961
32.8114,52.2474
32.8000,52.1900
Z" /> 
<path style="fill:#C83434; fill-opacity:1.0000; stroke:none;fill-rule:evenodd;"
d="M 34.0500,50.7900
34.0614,50.7326
34.0939,50.6839
34.1426,50.6514
34.2000,50.6400
34.5000,50.6400
34.5574,50.6514
34.6061,50.6839
34.6386,50.7326
34.6500,50.7900
34.6500,52.1900
34.6386,52.2474
34.6061,52.2961
34.5574,52.3286
34.5000,52.3400
34.2000,52.3400
34.1426,52.3286
34.0939,52.2961
34.0614,52.2474
34.0500,52.1900
Z" /> 
<path style="fill:#C83434; fill-opacity:1.0000; stroke:none;fill-rule:evenodd;"
d="M 35.3000,50.7900
35.3114,50.7326
35.3439,50.6839
35.3926,50.6514
35.4500,50.6400
35.7500,50.6400
35.8074,50.6514
35.8561,50.6839
35.8886,50.7326
35.9000,50.7900
35.9000,52.1900
35.8886,52.2474
35.8561,52.2961
35.8074,52.3286
35.7500,52.3400
35.4500,52.3400
35.3926,52.3286
35.3439,52.2961
35.3114,52.2474
35.3000,52.1900
Z" /> 
<path style="fill:#C83434; fill-opacity:1.0000; stroke:none;fill-rule:evenodd;"
d="M 36.5500,50.7900
36.5614,50.7326
36.5939,50.6839
36.6426,50.6514
36.7000,50.6400
37.0000,50.6400
37.0574,50.6514
37.1061,50.6839
37.1386,50.7326
37.1500,50.7900
37.1500,52.1900
37.1386,52.2474
37.1061,52.2961
37.0574,52.3286
37.0000,52.3400
36.7000,52.3400
36.6426,52.3286
36.5939,52.2961
36.5614,52.2474
36.5500,52.1900
Z" /> 
<path style="fill:#C83434; fill-opacity:1.0000; stroke:none;fill-rule:evenodd;"
d="M 37.8000,50.7900
37.8114,50.7326
37.8439,50.6839
37.8926,50.6514
37.9500,50.6400
38.2500,50.6400
38.3074,50.6514
38.3561,50.6839
38.3886,50.7326
38.4000,50.7900
38.4000,52.1900
38.3886,52.2474
38.3561,52.2961
38.3074,52.3286
38.2500,52.3400
37.9500,52.3400
37.8926,52.3286
37.8439,52.2961
37.8114,52.2474
37.8000,52.1900
Z" /> 
<path style="fill:#C83434; fill-opacity:1.0000; stroke:none;fill-rule:evenodd;"
d="M 39.0500,50.7900
39.0614,50.7326
39.0939,50.6839
39.1426,50.6514
39.2000,50.6400
39.5000,50.6400
39.5574,50.6514
39.6061,50.6839
39.6386,50.7326
39.6500,50.7900
39.6500,52.1900
39.6386,52.2474
39.6061,52.2961
39.5574,52.3286
39.5000,52.3400
39.2000,52.3400
39.1426,52.3286
39.0939,52.2961
39.0614,52.2474
39.0500,52.1900
Z" /> 
<path style="fill:#C83434; fill-opacity:1.0000; stroke:none;fill-rule:evenodd;"
d="M 40.3000,50.7900
40.3114,50.7326
40.3439,50.6839
40.3926,50.6514
40.4500,50.6400
40.7500,50.6400
40.8074,50.6514
40.8561,50.6839
40.8886,50.7326
40.9000,50.7900
40.9000,52.1900
40.8886,52.2474
40.8561,52.2961
40.8074,52.3286
40.7500,52.3400
40.4500,52.3400
40.3926,52.3286
40.3439,52.2961
40.3114,52.2474
40.3000,52.1900
Z" /> 
<path style="fill:#C83434; fill-opacity:1.0000; stroke:none;fill-rule:evenodd;"
d="M 41.5500,50.7900
41.5614,50.7326
41.5939,50.6839
41.6426,50.6514
41.7000,50.6400
42.0000,50.6400
42.0574,50.6514
42.1061,50.6839
42.1386,50.7326
42.1500,50.7900
42.1500,52.1900
42.1386,52.2474
42.1061,52.2961
42.0574,52.3286
42.0000,52.3400
41.7000,52.3400
41.6426,52.3286
41.5939,52.2961
41.5614,52.2474
41.5500,52.1900
Z" /> 
<path style="fill:#C83434; fill-opacity:1.0000; stroke:none;fill-rule:evenodd;"
d="M 42.8000,50.7900
42.8114,50.7326
42.8439,50.6839
42.8926,50.6514
42.9500,50.6400
43.2500,50.6400
43.3074,50.6514
43.3561,50.6839
43.3886,50.7326
43.4000,50.7900
43.4000,52.1900
43.3886,52.2474
43.3561,52.2961
43.3074,52.3286
43.2500,52.3400
42.9500,52.3400
42.8926,52.3286
42.8439,52.2961
42.8114,52.2474
42.8000,52.1900
Z" /> 
<path style="fill:#C83434; fill-opacity:1.0000; stroke:none;fill-rule:evenodd;"
d="M 44.0500,50.7900
44.0614,50.7326
44.0939,50.6839
44.1426,50.6514
44.2000,50.6400
44.5000,50.6400
44.5574,50.6514
44.6061,50.6839
44.6386,50.7326
44.6500,50.7900
44.6500,52.1900
44.6386,52.2474
44.6061,52.2961
44.5574,52.3286
44.5000,52.3400
44.2000,52.3400
44.1426,52.3286
44.0939,52.2961
44.0614,52.2474
44.0500,52.1900
Z" /> 
<path style="fill:#C83434; fill-opacity:1.0000; stroke:none;fill-rule:evenodd;"
d="M 45.3000,50.7900
45.3114,50.7326
45.3439,50.6839
45.3926,50.6514
45.4500,50.6400
45.7500,50.6400
45.8074,50.6514
45.8561,50.6839
45.8886,50.7326
45.9000,50.7900
45.9000,52.1900
45.8886,52.2474
45.8561,52.2961
45.8074,52.3286
45.7500,52.3400
45.4500,52.3400
45.3926,52.3286
45.3439,52.2961
45.3114,52.2474
45.3000,52.1900
Z" /> 
<path style="fill:#C83434; fill-opacity:1.0000; stroke:none;fill-rule:evenodd;"
d="M 46.5500,50.7900
46.5614,50.7326
46.5939,50.6839
46.6426,50.6514
46.7000,50.6400
47.0000,50.6400
47.0574,50.6514
47.1061,50.6839
47.1386,50.7326
47.1500,50.7900
47.1500,52.1900
47.1386,52.2474
47.1061,52.2961
47.0574,52.3286
47.0000,52.3400
46.7000,52.3400
46.6426,52.3286
46.5939,52.2961
46.5614,52.2474
46.5500,52.1900
Z" /> 
<path style="fill:#C83434; fill-opacity:1.0000; stroke:none;fill-rule:evenodd;"
d="M 27.0000,53.5900
27.0190,53.4943
27.0732,53.4132
27.1543,53.3590
27.2500,53.3400
27.7500,53.3400
27.8457,53.3590
27.9268,53.4132
27.9810,53.4943
28.0000,53.5900
28.0000,55.7900
27.9810,55.8857
27.9268,55.9668
27.8457,56.0210
27.7500,56.0400
27.2500,56.0400
27.1543,56.0210
27.0732,55.9668
27.0190,55.8857
27.0000,55.7900
Z" /> 
<path style="fill:#C83434; fill-opacity:1.0000; stroke:none;fill-rule:evenodd;"
d="M 48.2000,53.5900
48.2190,53.4943
48.2732,53.4132
48.3543,53.3590
48.4500,53.3400
48.9500,53.3400
49.0457,53.3590
49.1268,53.4132
49.1810,53.4943
49.2000,53.5900
49.2000,55.7900
49.1810,55.8857
49.1268,55.9668
49.0457,56.0210
48.9500,56.0400
48.4500,56.0400
48.3543,56.0210
48.2732,55.9668
48.2190,55.8857
48.2000,55.7900
Z" /> 
<circle cx="67.2700" cy="43.1800" r="0.8000" /> 
<circle cx="69.8500" cy="29.2100" r="0.8500" /> 
<circle cx="69.8500" cy="36.8300" r="0.8500" /> 
<path style="fill:#C83434; fill-opacity:1.0000; stroke:none;fill-rule:evenodd;"
d="M 4.2300,35.7750
4.2300,34.0750
5.9300,34.0750
5.9300,35.7750
Z" /> 
<circle cx="29.8450" cy="31.1150" r="0.3000" /> 
<circle cx="11.4300" cy="28.5750" r="0.3000" /> 
<circle cx="28.5750" cy="50.8000" r="0.3000" /> 
<circle cx="43.1800" cy="50.1650" r="0.3000" /> 
<circle cx="43.1800" cy="38.1000" r="0.3000" /> 
<circle cx="17.1450" cy="38.1000" r="0.3000" /> 
<circle cx="46.9900" cy="52.7050" r="0.3000" /> 
<circle cx="26.6700" cy="38.1000" r="0.3000" /> 
<circle cx="39.3700" cy="38.1000" r="0.3000" /> 
<circle cx="34.2900" cy="50.1650" r="0.3000" /> 
<circle cx="33.0200" cy="38.1000" r="0.3000" /> 
<circle cx="39.3700" cy="50.1650" r="0.3000" /> 
<circle cx="35.5600" cy="49.5300" r="0.3000" /> 
</g>
<g style="fill:none; 
stroke:#C83434; stroke-width:0.2500; stroke-opacity:1; 
stroke-linecap:round; stroke-linejoin:round;">
<path d="M13.9700 31.1150
L13.9700 50.8000
" />
<path d="M29.8450 31.1150
L13.9700 31.1150
" />
<path d="M41.9100 12.0650
L46.9900 12.0650
" />
<path d="M59.6900 12.0650
L59.6900 36.8300
" />
<path d="M31.7500 49.5300
L16.5100 49.5300
" />
<path d="M21.5900 49.5300
L21.5900 50.8000
" />
<path d="M16.5100 49.5300
L16.5100 50.8000
" />
<path d="M31.7500 29.8450
L5.0800 29.8450
" />
<path d="M31.7500 12.0650
L31.7500 51.4350
" />
<path d="M52.0700 12.0650
L52.0700 13.3350
" />
<path d="M17.7800 12.0650
L21.5900 12.0650
" />
<path d="M67.3100 36.8300
L67.3100 43.1800
" />
<path d="M5.0800 29.8450
L5.0800 34.9250
" />
<path d="M41.9100 10.7950
L43.1800 10.7950
" />
<path d="M52.0700 12.0650
L59.6900 12.0650
" />
<path d="M26.6700 12.0650
L34.2900 12.0650
" />
<path d="M21.5900 10.7950
L22.8600 10.7950
" />
<path d="M59.6900 10.7950
L60.9600 10.7950
" />
<path d="M46.9900 13.3350
L48.2600 13.3350
" />
<path d="M26.6700 12.0650
L26.6700 13.3350
" />
<path d="M34.2900 13.3350
L35.5600 13.3350
" />
<path d="M59.6900 36.8300
L69.8500 36.8300
" />
<path d="M46.9900 12.0650
L52.0700 12.0650
" />
<path d="M52.0700 13.3350
L53.3400 13.3350
" />
<path d="M41.9100 12.0650
L41.9100 10.7950
" />
<path d="M59.6900 12.0650
L59.6900 10.7950
" />
<path d="M34.2900 12.0650
L34.2900 13.3350
" />
<path d="M21.5900 12.0650
L26.6700 12.0650
" />
<path d="M46.9900 12.0650
L46.9900 13.3350
" />
<path d="M34.2900 12.0650
L41.9100 12.0650
" />
<path d="M26.6700 13.3350
L27.9400 13.3350
" />
<path d="M21.5900 12.0650
L21.5900 10.7950
" />
<path d="M17.7800 13.3350
L17.7800 12.0650
" />
<path d="M53.3400 10.7950
L52.0700 10.7950
" />
<path d="M32.3850 9.5250
L32.3850 8.8900
" />
<path d="M52.0700 9.5250
L32.3850 9.5250
" />
<path d="M52.0700 10.7950
L52.0700 9.5250
" />
<path d="M32.3850 8.8900
L11.4300 8.8900
" />
<path d="M11.4300 8.8900
L11.4300 28.5750
" />
</g>
<g style="fill:none; 
stroke:#C83434; stroke-width:0.4000; stroke-opacity:1; 
stroke-linecap:round; stroke-linejoin:round;">
<path d="M31.7500 9.5250
L31.7500 10.7950
" />
<path d="M28.5750 51.4350
L29.2100 51.4350
" />
<path d="M12.7000 10.7950
L12.7000 9.5250
" />
<path d="M31.7500 10.7950
L33.0200 10.7950
" />
<path d="M12.7000 9.5250
L31.7500 9.5250
" />
<path d="M28.5750 50.8000
L28.5750 51.4350
" />
</g>
<g style="fill:none; 
stroke:#C83434; stroke-width:0.2500; stroke-opacity:1; 
stroke-linecap:round; stroke-linejoin:round;">
<path d="M43.1800 50.1650
L43.1800 51.4350
" />
<path d="M43.1800 38.1000
L43.1800 48.8950
" />
<path d="M43.8150 48.8950
L43.8150 49.5300
" />
<path d="M43.8150 49.5300
L44.4500 49.5300
" />
<path d="M44.4500 49.5300
L44.4500 51.4350
" />
<path d="M43.1800 48.8950
L43.8150 48.8950
" />
<path d="M17.1450 38.1000
L17.1450 46.3550
" />
<path d="M15.2400 46.3550
L15.2400 52.7050
" />
<path d="M15.2400 52.7050
L45.7200 52.7050
" />
<path d="M17.1450 46.3550
L15.2400 46.3550
" />
<path d="M45.7200 52.7050
L45.7200 51.4350
" />
<path d="M46.9900 52.7050
L46.9900 51.4350
" />
<path d="M39.3700 48.8950
L40.0050 48.8950
" />
<path d="M39.3700 38.1000
L39.3700 48.8950
" />
<path d="M40.6400 49.5300
L40.6400 51.4350
" />
<path d="M40.0050 49.5300
L40.6400 49.5300
" />
<path d="M40.0050 48.8950
L40.0050 49.5300
" />
<path d="M34.2900 50.1650
L34.2900 51.4350
" />
<path d="M33.0200 38.1000
L33.0200 51.4350
" />
<path d="M39.3700 50.1650
L39.3700 51.4350
" />
<path d="M35.5600 49.5300
L35.5600 51.4350
" />
<path d="M39.3700 14.6050
L38.1000 14.6050
" />
<path d="M38.1000 14.6050
L38.1000 51.4350
" />
<path d="M39.3700 13.3350
L39.3700 14.6050
" />
<path d="M40.6400 13.3350
L39.3700 13.3350
" />
<path d="M50.8000 13.3350
L49.5300 13.3350
" />
<path d="M49.5300 13.3350
L49.5300 14.6050
" />
<path d="M49.5300 14.6050
L41.9100 14.6050
" />
<path d="M41.9100 14.6050
L41.9100 51.4350
" />
<path d="M60.9600 29.2100
L69.8500 29.2100
" />
<path d="M60.9600 13.3350
L60.9600 29.2100
" />
</g>
<g style="fill:none; 
stroke:#F2EDA1; stroke-width:0.1588; stroke-opacity:1; 
stroke-linecap:round; stroke-linejoin:round;">
<text x="50.8000" y="-13.3350"
textLength="2.3994" font-size="1.6933" lengthAdjust="spacingAndGlyphs"
text-anchor="middle" opacity="0" stroke-opacity="0">J6</text>
<g class="stroked-text"><desc>J6</desc>
<path d="M50.3767 -14.6607
L50.3767 -13.7536
" />
<path d="M50.3767 -13.7536
L50.3162 -13.5722
" />
<path d="M50.3162 -13.5722
L50.1952 -13.4512
" />
<path d="M50.1952 -13.4512
L50.0138 -13.3907
" />
<path d="M50.0138 -13.3907
L49.8929 -13.3907
" />
<path d="M51.5257 -14.6607
L51.2838 -14.6607
" />
<path d="M51.2838 -14.6607
L51.1629 -14.6003
" />
<path d="M51.1629 -14.6003
L51.1024 -14.5398
" />
<path d="M51.1024 -14.5398
L50.9814 -14.3583
" />
<path d="M50.9814 -14.3583
L50.9210 -14.1164
" />
<path d="M50.9210 -14.1164
L50.9210 -13.6326
" />
<path d="M50.9210 -13.6326
L50.9814 -13.5117
" />
<path d="M50.9814 -13.5117
L51.0419 -13.4512
" />
<path d="M51.0419 -13.4512
L51.1629 -13.3907
" />
<path d="M51.1629 -13.3907
L51.4048 -13.3907
" />
<path d="M51.4048 -13.3907
L51.5257 -13.4512
" />
<path d="M51.5257 -13.4512
L51.5862 -13.5117
" />
<path d="M51.5862 -13.5117
L51.6467 -13.6326
" />
<path d="M51.6467 -13.6326
L51.6467 -13.9350
" />
<path d="M51.6467 -13.9350
L51.5862 -14.0560
" />
<path d="M51.5862 -14.0560
L51.5257 -14.1164
" />
<path d="M51.5257 -14.1164
L51.4048 -14.1769
" />
<path d="M51.4048 -14.1769
L51.1629 -14.1769
" />
<path d="M51.1629 -14.1769
L51.0419 -14.1164
" />
<path d="M51.0419 -14.1164
L50.9814 -14.0560
" />
<path d="M50.9814 -14.0560
L50.9210 -13.9350
" />
</g><text x="20.8750" y="43.2200"
textLength="2.7018" font-size="1.6933" lengthAdjust="spacingAndGlyphs"
text-anchor="middle" opacity="0" stroke-opacity="0">R1</text>
<g class="stroked-text"><desc>R1</desc>
<path d="M20.6633 43.1643
L20.2400 42.5595
" />
<path d="M19.9376 43.1643
L19.9376 41.8943
" />
<path d="M19.9376 41.8943
L20.4214 41.8943
" />
<path d="M20.4214 41.8943
L20.5424 41.9547
" />
<path d="M20.5424 41.9547
L20.6029 42.0152
" />
<path d="M20.6029 42.0152
L20.6633 42.1362
" />
<path d="M20.6633 42.1362
L20.6633 42.3176
" />
<path d="M20.6633 42.3176
L20.6029 42.4386
" />
<path d="M20.6029 42.4386
L20.5424 42.4990
" />
<path d="M20.5424 42.4990
L20.4214 42.5595
" />
<path d="M20.4214 42.5595
L19.9376 42.5595
" />
<path d="M21.8729 43.1643
L21.1471 43.1643
" />
<path d="M21.5100 43.1643
L21.5100 41.8943
" />
<path d="M21.5100 41.8943
L21.3890 42.0757
" />
<path d="M21.3890 42.0757
L21.2681 42.1967
" />
<path d="M21.2681 42.1967
L21.1471 42.2571
" />
</g><text x="68.3900" y="55.2450"
textLength="2.7622" font-size="1.6933" lengthAdjust="spacingAndGlyphs"
text-anchor="middle" opacity="0" stroke-opacity="0">H4</text>
<g class="stroked-text"><desc>H4</desc>
<path d="M67.4224 55.1893
L67.4224 53.9193
" />
<path d="M67.4224 54.5240
L68.1481 54.5240
" />
<path d="M68.1481 55.1893
L68.1481 53.9193
" />
<path d="M69.2971 54.3426
L69.2971 55.1893
" />
<path d="M68.9948 53.8588
L68.6924 54.7659
" />
<path d="M68.6924 54.7659
L69.4786 54.7659
" />
</g><text x="8.5800" y="27.9000"
textLength="2.3994" font-size="1.6933" lengthAdjust="spacingAndGlyphs"
text-anchor="middle" opacity="0" stroke-opacity="0">J4</text>
<g class="stroked-text"><desc>J4</desc>
<path d="M8.1567 26.5743
L8.1567 27.4814
" />
<path d="M8.1567 27.4814
L8.0962 27.6628
" />
<path d="M8.0962 27.6628
L7.9752 27.7838
" />
<path d="M7.9752 27.7838
L7.7938 27.8443
" />
<path d="M7.7938 27.8443
L7.6729 27.8443
" />
<path d="M9.3057 26.9976
L9.3057 27.8443
" />
<path d="M9.0033 26.5138
L8.7010 27.4209
" />
<path d="M8.7010 27.4209
L9.4871 27.4209
" />
</g><text x="10.7950" y="-12.0650"
textLength="2.3994" font-size="1.6933" lengthAdjust="spacingAndGlyphs"
text-anchor="middle" opacity="0" stroke-opacity="0">J1</text>
<g class="stroked-text"><desc>J1</desc>
<path d="M10.3717 -13.3907
L10.3717 -12.4836
" />
<path d="M10.3717 -12.4836
L10.3112 -12.3022
" />
<path d="M10.3112 -12.3022
L10.1902 -12.1812
" />
<path d="M10.1902 -12.1812
L10.0088 -12.1207
" />
<path d="M10.0088 -12.1207
L9.8879 -12.1207
" />
<path d="M11.6417 -12.1207
L10.9160 -12.1207
" />
<path d="M11.2788 -12.1207
L11.2788 -13.3907
" />
<path d="M11.2788 -13.3907
L11.1579 -13.2093
" />
<path d="M11.1579 -13.2093
L11.0369 -13.0883
" />
<path d="M11.0369 -13.0883
L10.9160 -13.0279
" />
</g><text x="38.1000" y="53.9750"
textLength="2.3994" font-size="1.6933" lengthAdjust="spacingAndGlyphs"
text-anchor="middle" opacity="0" stroke-opacity="0">J2</text>
<g class="stroked-text"><desc>J2</desc>
<path d="M37.6767 52.6493
L37.6767 53.5564
" />
<path d="M37.6767 53.5564
L37.6162 53.7378
" />
<path d="M37.6162 53.7378
L37.4952 53.8588
" />
<path d="M37.4952 53.8588
L37.3138 53.9193
" />
<path d="M37.3138 53.9193
L37.1929 53.9193
" />
<path d="M38.2210 52.7702
L38.2814 52.7097
" />
<path d="M38.2814 52.7097
L38.4024 52.6493
" />
<path d="M38.4024 52.6493
L38.7048 52.6493
" />
<path d="M38.7048 52.6493
L38.8257 52.7097
" />
<path d="M38.8257 52.7097
L38.8862 52.7702
" />
<path d="M38.8862 52.7702
L38.9467 52.8912
" />
<path d="M38.9467 52.8912
L38.9467 53.0121
" />
<path d="M38.9467 53.0121
L38.8862 53.1936
" />
<path d="M38.8862 53.1936
L38.1605 53.9193
" />
<path d="M38.1605 53.9193
L38.9467 53.9193
" />
</g><text x="7.8100" y="4.4450"
textLength="2.7622" font-size="1.6933" lengthAdjust="spacingAndGlyphs"
text-anchor="middle" opacity="0" stroke-opacity="0">H1</text>
<g class="stroked-text"><desc>H1</desc>
<path d="M6.8424 4.3893
L6.8424 3.1193
" />
<path d="M6.8424 3.7240
L7.5681 3.7240
" />
<path d="M7.5681 4.3893
L7.5681 3.1193
" />
<path d="M8.8381 4.3893
L8.1124 4.3893
" />
<path d="M8.4752 4.3893
L8.4752 3.1193
" />
<path d="M8.4752 3.1193
L8.3543 3.3007
" />
<path d="M8.3543 3.3007
L8.2333 3.4217
" />
<path d="M8.2333 3.4217
L8.1124 3.4821
" />
</g><text x="64.7700" y="39.8150"
textLength="2.7018" font-size="1.6933" lengthAdjust="spacingAndGlyphs"
text-anchor="middle" opacity="0" stroke-opacity="0">C1</text>
<g class="stroked-text"><desc>C1</desc>
<path d="M64.5583 39.6383
L64.4979 39.6988
" />
<path d="M64.4979 39.6988
L64.3164 39.7593
" />
<path d="M64.3164 39.7593
L64.1955 39.7593
" />
<path d="M64.1955 39.7593
L64.0140 39.6988
" />
<path d="M64.0140 39.6988
L63.8931 39.5778
" />
<path d="M63.8931 39.5778
L63.8326 39.4569
" />
<path d="M63.8326 39.4569
L63.7721 39.2150
" />
<path d="M63.7721 39.2150
L63.7721 39.0336
" />
<path d="M63.7721 39.0336
L63.8326 38.7917
" />
<path d="M63.8326 38.7917
L63.8931 38.6707
" />
<path d="M63.8931 38.6707
L64.0140 38.5497
" />
<path d="M64.0140 38.5497
L64.1955 38.4893
" />
<path d="M64.1955 38.4893
L64.3164 38.4893
" />
<path d="M64.3164 38.4893
L64.4979 38.5497
" />
<path d="M64.4979 38.5497
L64.5583 38.6102
" />
<path d="M65.7679 39.7593
L65.0421 39.7593
" />
<path d="M65.4050 39.7593
L65.4050 38.4893
" />
<path d="M65.4050 38.4893
L65.2840 38.6707
" />
<path d="M65.2840 38.6707
L65.1631 38.7917
" />
<path d="M65.1631 38.7917
L65.0421 38.8521
" />
</g><text x="66.3500" y="32.2650"
textLength="2.3994" font-size="1.6933" lengthAdjust="spacingAndGlyphs"
text-anchor="middle" opacity="0" stroke-opacity="0">J3</text>
<g class="stroked-text"><desc>J3</desc>
<path d="M65.9267 30.9393
L65.9267 31.8464
" />
<path d="M65.9267 31.8464
L65.8662 32.0278
" />
<path d="M65.8662 32.0278
L65.7452 32.1488
" />
<path d="M65.7452 32.1488
L65.5638 32.2093
" />
<path d="M65.5638 32.2093
L65.4429 32.2093
" />
<path d="M66.4105 30.9393
L67.1967 30.9393
" />
<path d="M67.1967 30.9393
L66.7733 31.4231
" />
<path d="M66.7733 31.4231
L66.9548 31.4231
" />
<path d="M66.9548 31.4231
L67.0757 31.4836
" />
<path d="M67.0757 31.4836
L67.1362 31.5440
" />
<path d="M67.1362 31.5440
L67.1967 31.6650
" />
<path d="M67.1967 31.6650
L67.1967 31.9674
" />
<path d="M67.1967 31.9674
L67.1362 32.0883
" />
<path d="M67.1362 32.0883
L67.0757 32.1488
" />
<path d="M67.0757 32.1488
L66.9548 32.2093
" />
<path d="M66.9548 32.2093
L66.5919 32.2093
" />
<path d="M66.5919 32.2093
L66.4710 32.1488
" />
<path d="M66.4710 32.1488
L66.4105 32.0883
" />
</g><text x="68.3900" y="4.4450"
textLength="2.7622" font-size="1.6933" lengthAdjust="spacingAndGlyphs"
text-anchor="middle" opacity="0" stroke-opacity="0">H2</text>
<g class="stroked-text"><desc>H2</desc>
<path d="M67.4224 4.3893
L67.4224 3.1193
" />
<path d="M67.4224 3.7240
L68.1481 3.7240
" />
<path d="M68.1481 4.3893
L68.1481 3.1193
" />
<path d="M68.6924 3.2402
L68.7529 3.1797
" />
<path d="M68.7529 3.1797
L68.8738 3.1193
" />
<path d="M68.8738 3.1193
L69.1762 3.1193
" />
<path d="M69.1762 3.1193
L69.2971 3.1797
" />
<path d="M69.2971 3.1797
L69.3576 3.2402
" />
<path d="M69.3576 3.2402
L69.4181 3.3612
" />
<path d="M69.4181 3.3612
L69.4181 3.4821
" />
<path d="M69.4181 3.4821
L69.3576 3.6636
" />
<path d="M69.3576 3.6636
L68.6319 4.3893
" />
<path d="M68.6319 4.3893
L69.4181 4.3893
" />
</g><text x="8.5800" y="38.0600"
textLength="2.3994" font-size="1.6933" lengthAdjust="spacingAndGlyphs"
text-anchor="middle" opacity="0" stroke-opacity="0">J5</text>
<g class="stroked-text"><desc>J5</desc>
<path d="M8.1567 36.7343
L8.1567 37.6414
" />
<path d="M8.1567 37.6414
L8.0962 37.8228
" />
<path d="M8.0962 37.8228
L7.9752 37.9438
" />
<path d="M7.9752 37.9438
L7.7938 38.0043
" />
<path d="M7.7938 38.0043
L7.6729 38.0043
" />
<path d="M9.3662 36.7343
L8.7614 36.7343
" />
<path d="M8.7614 36.7343
L8.7010 37.3390
" />
<path d="M8.7010 37.3390
L8.7614 37.2786
" />
<path d="M8.7614 37.2786
L8.8824 37.2181
" />
<path d="M8.8824 37.2181
L9.1848 37.2181
" />
<path d="M9.1848 37.2181
L9.3057 37.2786
" />
<path d="M9.3057 37.2786
L9.3662 37.3390
" />
<path d="M9.3662 37.3390
L9.4267 37.4600
" />
<path d="M9.4267 37.4600
L9.4267 37.7624
" />
<path d="M9.4267 37.7624
L9.3662 37.8833
" />
<path d="M9.3662 37.8833
L9.3057 37.9438
" />
<path d="M9.3057 37.9438
L9.1848 38.0043
" />
<path d="M9.1848 38.0043
L8.8824 38.0043
" />
<path d="M8.8824 38.0043
L8.7614 37.9438
" />
<path d="M8.7614 37.9438
L8.7010 37.8833
" />
</g><text x="7.8100" y="55.2450"
textLength="2.7622" font-size="1.6933" lengthAdjust="spacingAndGlyphs"
text-anchor="middle" opacity="0" stroke-opacity="0">H3</text>
<g class="stroked-text"><desc>H3</desc>
<path d="M6.8424 55.1893
L6.8424 53.9193
" />
<path d="M6.8424 54.5240
L7.5681 54.5240
" />
<path d="M7.5681 55.1893
L7.5681 53.9193
" />
<path d="M8.0519 53.9193
L8.8381 53.9193
" />
<path d="M8.8381 53.9193
L8.4148 54.4031
" />
<path d="M8.4148 54.4031
L8.5962 54.4031
" />
<path d="M8.5962 54.4031
L8.7171 54.4636
" />
<path d="M8.7171 54.4636
L8.7776 54.5240
" />
<path d="M8.7776 54.5240
L8.8381 54.6450
" />
<path d="M8.8381 54.6450
L8.8381 54.9474
" />
<path d="M8.8381 54.9474
L8.7776 55.0683
" />
<path d="M8.7776 55.0683
L8.7171 55.1288
" />
<path d="M8.7171 55.1288
L8.5962 55.1893
" />
<path d="M8.5962 55.1893
L8.2333 55.1893
" />
<path d="M8.2333 55.1893
L8.1124 55.1288
" />
<path d="M8.1124 55.1288
L8.0519 55.0683
" />
</g></g>
<g style="fill:none; 
stroke:#F2EDA1; stroke-width:0.1200; stroke-opacity:1; 
stroke-linecap:round; stroke-linejoin:round;">
<path d="M12.5900 52.1800
L12.5900 50.8000
" />
<path d="M13.9700 52.1800
L12.5900 52.1800
" />
<path d="M15.2400 49.4200
L22.9700 49.4200
" />
<path d="M15.2400 52.1800
L15.2400 49.4200
" />
<path d="M15.2400 52.1800
L22.9700 52.1800
" />
<path d="M22.9700 52.1800
L22.9700 49.4200
" />
<path d="M16.9150 45.0850
L17.6850 45.0850
" />
<path d="M24.9950 45.0850
L24.2250 45.0850
" />
<path style="fill:none; 
stroke:#F2EDA1; stroke-width:0.1200; stroke-opacity:1; 
stroke-linecap:round; stroke-linejoin:round;fill:none"
d="M 17.6850,43.7150
24.2250,43.7150
24.2250,46.4550
17.6850,46.4550
Z" /> 
<path d="M3.7000 23.3850
L5.0800 23.3850
" />
<path d="M3.7000 24.7650
L3.7000 23.3850
" />
<path d="M3.7000 26.0350
L3.7000 31.2250
" />
<path d="M3.7000 26.0350
L6.4600 26.0350
" />
<path d="M3.7000 31.2250
L6.4600 31.2250
" />
<path d="M6.4600 26.0350
L6.4600 31.2250
" />
<path d="M11.3700 9.4650
L12.7000 9.4650
" />
<path d="M11.3700 10.7950
L11.3700 9.4650
" />
<path d="M11.3700 12.0650
L13.9700 12.0650
" />
<path d="M11.3700 14.6650
L11.3700 12.0650
" />
<path d="M11.3700 14.6650
L62.2900 14.6650
" />
<path d="M13.9700 9.4650
L62.2900 9.4650
" />
<path d="M13.9700 12.0650
L13.9700 9.4650
" />
<path d="M62.2900 14.6650
L62.2900 9.4650
" />
<path d="M26.9900 51.6300
L28.7900 51.6300
" />
<path d="M26.9900 53.0800
L26.9900 51.6300
" />
<path d="M28.2600 55.9000
L47.9400 55.9000
" />
<path d="M28.7900 51.6300
L28.7900 50.6400
" />
<path d="M49.2100 51.6300
L47.4100 51.6300
" />
<path d="M49.2100 53.0800
L49.2100 51.6300
" />
<path d="M63.2152 41.7050
L63.7152 41.7050
" />
<path d="M63.4652 41.4550
L63.4652 41.9550
" />
<path d="M66.0200 40.6000
L66.0200 45.7600
" />
<path d="M66.0600 40.6000
L66.0600 45.7600
" />
<path d="M66.1000 40.6010
L66.1000 45.7590
" />
<path d="M66.1400 40.6030
L66.1400 45.7570
" />
<path d="M66.1800 40.6050
L66.1800 45.7550
" />
<path d="M66.2200 40.6080
L66.2200 45.7520
" />
<path d="M66.2600 40.6110
L66.2600 42.1400
" />
<path d="M66.2600 44.2200
L66.2600 45.7490
" />
<path d="M66.3000 40.6150
L66.3000 42.1400
" />
<path d="M66.3000 44.2200
L66.3000 45.7450
" />
<path d="M66.3400 40.6200
L66.3400 42.1400
" />
<path d="M66.3400 44.2200
L66.3400 45.7400
" />
<path d="M66.3800 40.6250
L66.3800 42.1400
" />
<path d="M66.3800 44.2200
L66.3800 45.7350
" />
<path d="M66.4200 40.6310
L66.4200 42.1400
" />
<path d="M66.4200 44.2200
L66.4200 45.7290
" />
<path d="M66.4600 40.6370
L66.4600 42.1400
" />
<path d="M66.4600 44.2200
L66.4600 45.7230
" />
<path d="M66.5000 40.6440
L66.5000 42.1400
" />
<path d="M66.5000 44.2200
L66.5000 45.7160
" />
<path d="M66.5400 40.6520
L66.5400 42.1400
" />
<path d="M66.5400 44.2200
L66.5400 45.7080
" />
<path d="M66.5800 40.6610
L66.5800 42.1400
" />
<path d="M66.5800 44.2200
L66.5800 45.6990
" />
<path d="M66.6200 40.6700
L66.6200 42.1400
" />
<path d="M66.6200 44.2200
L66.6200 45.6900
" />
<path d="M66.6600 40.6790
L66.6600 42.1400
" />
<path d="M66.6600 44.2200
L66.6600 45.6810
" />
<path d="M66.7000 40.6900
L66.7000 42.1400
" />
<path d="M66.7000 44.2200
L66.7000 45.6700
" />
<path d="M66.7400 40.7010
L66.7400 42.1400
" />
<path d="M66.7400 44.2200
L66.7400 45.6590
" />
<path d="M66.7800 40.7130
L66.7800 42.1400
" />
<path d="M66.7800 44.2200
L66.7800 45.6470
" />
<path d="M66.8200 40.7250
L66.8200 42.1400
" />
<path d="M66.8200 44.2200
L66.8200 45.6350
" />
<path d="M66.8600 40.7380
L66.8600 42.1400
" />
<path d="M66.8600 44.2200
L66.8600 45.6220
" />
<path d="M66.9000 40.7520
L66.9000 42.1400
" />
<path d="M66.9000 44.2200
L66.9000 45.6080
" />
<path d="M66.9400 40.7670
L66.9400 42.1400
" />
<path d="M66.9400 44.2200
L66.9400 45.5930
" />
<path d="M66.9800 40.7820
L66.9800 42.1400
" />
<path d="M66.9800 44.2200
L66.9800 45.5780
" />
<path d="M67.0200 40.7980
L67.0200 42.1400
" />
<path d="M67.0200 44.2200
L67.0200 45.5620
" />
<path d="M67.0600 40.8150
L67.0600 42.1400
" />
<path d="M67.0600 44.2200
L67.0600 45.5450
" />
<path d="M67.1000 40.8330
L67.1000 42.1400
" />
<path d="M67.1000 44.2200
L67.1000 45.5270
" />
<path d="M67.1400 40.8510
L67.1400 42.1400
" />
<path d="M67.1400 44.2200
L67.1400 45.5090
" />
<path d="M67.1800 40.8710
L67.1800 42.1400
" />
<path d="M67.1800 44.2200
L67.1800 45.4890
" />
<path d="M67.2200 40.8910
L67.2200 42.1400
" />
<path d="M67.2200 44.2200
L67.2200 45.4690
" />
<path d="M67.2600 40.9120
L67.2600 42.1400
" />
<path d="M67.2600 44.2200
L67.2600 45.4480
" />
<path d="M67.3000 40.9340
L67.3000 42.1400
" />
<path d="M67.3000 44.2200
L67.3000 45.4260
" />
<path d="M67.3400 40.9570
L67.3400 42.1400
" />
<path d="M67.3400 44.2200
L67.3400 45.4030
" />
<path d="M67.3800 40.9810
L67.3800 42.1400
" />
<path d="M67.3800 44.2200
L67.3800 45.3790
" />
<path d="M67.4200 41.0050
L67.4200 42.1400
" />
<path d="M67.4200 44.2200
L67.4200 45.3550
" />
<path d="M67.4600 41.0310
L67.4600 42.1400
" />
<path d="M67.4600 44.2200
L67.4600 45.3290
" />
<path d="M67.5000 41.0580
L67.5000 42.1400
" />
<path d="M67.5000 44.2200
L67.5000 45.3020
" />
<path d="M67.5400 41.0860
L67.5400 42.1400
" />
<path d="M67.5400 44.2200
L67.5400 45.2740
" />
<path d="M67.5800 41.1150
L67.5800 42.1400
" />
<path d="M67.5800 44.2200
L67.5800 45.2450
" />
<path d="M67.6200 41.1450
L67.6200 42.1400
" />
<path d="M67.6200 44.2200
L67.6200 45.2150
" />
<path d="M67.6600 41.1770
L67.6600 42.1400
" />
<path d="M67.6600 44.2200
L67.6600 45.1830
" />
<path d="M67.7000 41.2100
L67.7000 42.1400
" />
<path d="M67.7000 44.2200
L67.7000 45.1500
" />
<path d="M67.7400 41.2440
L67.7400 42.1400
" />
<path d="M67.7400 44.2200
L67.7400 45.1160
" />
<path d="M67.7800 41.2790
L67.7800 42.1400
" />
<path d="M67.7800 44.2200
L67.7800 45.0810
" />
<path d="M67.8200 41.3160
L67.8200 42.1400
" />
<path d="M67.8200 44.2200
L67.8200 45.0440
" />
<path d="M67.8600 41.3550
L67.8600 42.1400
" />
<path d="M67.8600 44.2200
L67.8600 45.0050
" />
<path d="M67.9000 41.3950
L67.9000 42.1400
" />
<path d="M67.9000 44.2200
L67.9000 44.9650
" />
<path d="M67.9400 41.4370
L67.9400 42.1400
" />
<path d="M67.9400 44.2200
L67.9400 44.9230
" />
<path d="M67.9800 41.4810
L67.9800 42.1400
" />
<path d="M67.9800 44.2200
L67.9800 44.8790
" />
<path d="M68.0200 41.5280
L68.0200 42.1400
" />
<path d="M68.0200 44.2200
L68.0200 44.8320
" />
<path d="M68.0600 41.5760
L68.0600 42.1400
" />
<path d="M68.0600 44.2200
L68.0600 44.7840
" />
<path d="M68.1000 41.6270
L68.1000 42.1400
" />
<path d="M68.1000 44.2200
L68.1000 44.7330
" />
<path d="M68.1400 41.6810
L68.1400 42.1400
" />
<path d="M68.1400 44.2200
L68.1400 44.6790
" />
<path d="M68.1800 41.7370
L68.1800 42.1400
" />
<path d="M68.1800 44.2200
L68.1800 44.6230
" />
<path d="M68.2200 41.7970
L68.2200 42.1400
" />
<path d="M68.2200 44.2200
L68.2200 44.5630
" />
<path d="M68.2600 41.8610
L68.2600 42.1400
" />
<path d="M68.2600 44.2200
L68.2600 44.4990
" />
<path d="M68.3000 41.9290
L68.3000 42.1400
" />
<path d="M68.3000 44.2200
L68.3000 44.4310
" />
<path d="M68.3400 42.0030
L68.3400 44.3570
" />
<path d="M68.3800 42.0820
L68.3800 44.2780
" />
<path d="M68.4200 42.1690
L68.4200 44.1910
" />
<path d="M68.4600 42.2660
L68.4600 44.0940
" />
<path d="M68.5000 42.3750
L68.5000 43.9850
" />
<path d="M68.5400 42.5030
L68.5400 43.8570
" />
<path d="M68.5800 42.6630
L68.5800 43.6970
" />
<path d="M68.6200 42.8970
L68.6200 43.4630
" />
<circle cx="66.0200" cy="43.1800" r="2.6200" /> 
<path d="M68.5200 25.4000
L68.5200 40.7000
" />
<path d="M68.5200 25.4000
L71.1800 25.4000
" />
<path d="M68.5200 40.7000
L71.1800 40.7000
" />
<path d="M69.8500 22.8000
L71.1800 22.8000
" />
<path d="M71.1800 22.8000
L71.1800 24.1300
" />
<path d="M71.1800 25.4000
L71.1800 40.7000
" />
<path d="M3.7000 33.5450
L5.0800 33.5450
" />
<path d="M3.7000 34.9250
L3.7000 33.5450
" />
<path d="M3.7000 36.1950
L3.7000 41.3850
" />
<path d="M3.7000 36.1950
L6.4600 36.1950
" />
<path d="M3.7000 41.3850
L6.4600 41.3850
" />
<path d="M6.4600 36.1950
L6.4600 41.3850
" />
</g>
<g style="fill:none; 
stroke:#D0D2CD; stroke-width:0.1500; stroke-opacity:1; 
stroke-linecap:round; stroke-linejoin:round;">
<path d="M0.0000 0.0000
L76.0000 0.0000
" />
<path d="M0.0000 58.0000
L0.0000 0.0000
" />
<path d="M76.0000 0.0000
L76.0000 58.0000
" />
<path d="M76.0000 58.0000
L0.0000 58.0000
" />
</g>
<g style="fill:#FFFFFF; fill-opacity:1.0000; stroke:none;">
<circle cx="29.8450" cy="31.1150" r="0.1500" /> 
<circle cx="11.4300" cy="28.5750" r="0.1500" /> 
<circle cx="28.5750" cy="50.8000" r="0.1500" /> 
<circle cx="43.1800" cy="50.1650" r="0.1500" /> 
<circle cx="43.1800" cy="38.1000" r="0.1500" /> 
<circle cx="17.1450" cy="38.1000" r="0.1500" /> 
<circle cx="46.9900" cy="52.7050" r="0.1500" /> 
<circle cx="26.6700" cy="38.1000" r="0.1500" /> 
<circle cx="39.3700" cy="38.1000" r="0.1500" /> 
<circle cx="34.2900" cy="50.1650" r="0.1500" /> 
<circle cx="33.0200" cy="38.1000" r="0.1500" /> 
<circle cx="39.3700" cy="50.1650" r="0.1500" /> 
<circle cx="35.5600" cy="49.5300" r="0.1500" /> 
</g>
<g style="fill:#FFFFFF; fill-opacity:1.0000; stroke:none;">
<circle cx="13.9700" cy="50.8000" r="0.5000" /> 
</g>
<g style="fill:#FFFFFF; fill-opacity:1.0000; stroke:none;">
<circle cx="16.5100" cy="50.8000" r="0.5000" /> 
</g>
<g style="fill:#FFFFFF; fill-opacity:1.0000; stroke:none;">
<circle cx="19.0500" cy="50.8000" r="0.5000" /> 
</g>
<g style="fill:#FFFFFF; fill-opacity:1.0000; stroke:none;">
<circle cx="21.5900" cy="50.8000" r="0.5000" /> 
</g>
<g style="fill:#FFFFFF; fill-opacity:1.0000; stroke:none;">
<circle cx="15.8750" cy="45.0850" r="0.4000" /> 
</g>
<g style="fill:#FFFFFF; fill-opacity:1.0000; stroke:none;">
<circle cx="26.0350" cy="45.0850" r="0.4000" /> 
</g>
<g style="fill:#000000; fill-opacity:1.0000; stroke:none;">
<circle cx="72.3900" cy="54.6100" r="1.6000" /> 
</g>
<g style="fill:#FFFFFF; fill-opacity:1.0000; stroke:none;">
<circle cx="5.0800" cy="24.7650" r="0.5000" /> 
</g>
<g style="fill:#FFFFFF; fill-opacity:1.0000; stroke:none;">
<circle cx="5.0800" cy="27.3050" r="0.5000" /> 
</g>
<g style="fill:#FFFFFF; fill-opacity:1.0000; stroke:none;">
<circle cx="5.0800" cy="29.8450" r="0.5000" /> 
</g>
<g style="fill:#FFFFFF; fill-opacity:1.0000; stroke:none;">
<circle cx="12.7000" cy="10.7950" r="0.5000" /> 
</g>
<g style="fill:#FFFFFF; fill-opacity:1.0000; stroke:none;">
<circle cx="12.7000" cy="13.3350" r="0.5000" /> 
</g>
<g style="fill:#FFFFFF; fill-opacity:1.0000; stroke:none;">
<circle cx="15.2400" cy="10.7950" r="0.5000" /> 
</g>
<g style="fill:#FFFFFF; fill-opacity:1.0000; stroke:none;">
<circle cx="15.2400" cy="13.3350" r="0.5000" /> 
</g>
<g style="fill:#FFFFFF; fill-opacity:1.0000; stroke:none;">
<circle cx="17.7800" cy="10.7950" r="0.5000" /> 
</g>
<g style="fill:#FFFFFF; fill-opacity:1.0000; stroke:none;">
<circle cx="17.7800" cy="13.3350" r="0.5000" /> 
</g>
<g style="fill:#FFFFFF; fill-opacity:1.0000; stroke:none;">
<circle cx="20.3200" cy="10.7950" r="0.5000" /> 
</g>
<g style="fill:#FFFFFF; fill-opacity:1.0000; stroke:none;">
<circle cx="20.3200" cy="13.3350" r="0.5000" /> 
</g>
<g style="fill:#FFFFFF; fill-opacity:1.0000; stroke:none;">
<circle cx="22.8600" cy="10.7950" r="0.5000" /> 
</g>
<g style="fill:#FFFFFF; fill-opacity:1.0000; stroke:none;">
<circle cx="22.8600" cy="13.3350" r="0.5000" /> 
</g>
<g style="fill:#FFFFFF; fill-opacity:1.0000; stroke:none;">
<circle cx="25.4000" cy="10.7950" r="0.5000" /> 
</g>
<g style="fill:#FFFFFF; fill-opacity:1.0000; stroke:none;">
<circle cx="25.4000" cy="13.3350" r="0.5000" /> 
</g>
<g style="fill:#FFFFFF; fill-opacity:1.0000; stroke:none;">
<circle cx="27.9400" cy="10.7950" r="0.5000" /> 
</g>
<g style="fill:#FFFFFF; fill-opacity:1.0000; stroke:none;">
<circle cx="27.9400" cy="13.3350" r="0.5000" /> 
</g>
<g style="fill:#FFFFFF; fill-opacity:1.0000; stroke:none;">
<circle cx="30.4800" cy="10.7950" r="0.5000" /> 
</g>
<g style="fill:#FFFFFF; fill-opacity:1.0000; stroke:none;">
<circle cx="30.4800" cy="13.3350" r="0.5000" /> 
</g>
<g style="fill:#FFFFFF; fill-opacity:1.0000; stroke:none;">
<circle cx="33.0200" cy="10.7950" r="0.5000" /> 
</g>
<g style="fill:#FFFFFF; fill-opacity:1.0000; stroke:none;">
<circle cx="33.0200" cy="13.3350" r="0.5000" /> 
</g>
<g style="fill:#FFFFFF; fill-opacity:1.0000; stroke:none;">
<circle cx="35.5600" cy="10.7950" r="0.5000" /> 
</g>
<g style="fill:#FFFFFF; fill-opacity:1.0000; stroke:none;">
<circle cx="35.5600" cy="13.3350" r="0.5000" /> 
</g>
<g style="fill:#FFFFFF; fill-opacity:1.0000; stroke:none;">
<circle cx="38.1000" cy="10.7950" r="0.5000" /> 
</g>
<g style="fill:#FFFFFF; fill-opacity:1.0000; stroke:none;">
<circle cx="38.1000" cy="13.3350" r="0.5000" /> 
</g>
<g style="fill:#FFFFFF; fill-opacity:1.0000; stroke:none;">
<circle cx="40.6400" cy="10.7950" r="0.5000" /> 
</g>
<g style="fill:#FFFFFF; fill-opacity:1.0000; stroke:none;">
<circle cx="40.6400" cy="13.3350" r="0.5000" /> 
</g>
<g style="fill:#FFFFFF; fill-opacity:1.0000; stroke:none;">
<circle cx="43.1800" cy="10.7950" r="0.5000" /> 
</g>
<g style="fill:#FFFFFF; fill-opacity:1.0000; stroke:none;">
<circle cx="43.1800" cy="13.3350" r="0.5000" /> 
</g>
<g style="fill:#FFFFFF; fill-opacity:1.0000; stroke:none;">
<circle cx="45.7200" cy="10.7950" r="0.5000" /> 
</g>
<g style="fill:#FFFFFF; fill-opacity:1.0000; stroke:none;">
<circle cx="45.7200" cy="13.3350" r="0.5000" /> 
</g>
<g style="fill:#FFFFFF; fill-opacity:1.0000; stroke:none;">
<circle cx="48.2600" cy="10.7950" r="0.5000" /> 
</g>
<g style="fill:#FFFFFF; fill-opacity:1.0000; stroke:none;">
<circle cx="48.2600" cy="13.3350" r="0.5000" /> 
</g>
<g style="fill:#FFFFFF; fill-opacity:1.0000; stroke:none;">
<circle cx="50.8000" cy="10.7950" r="0.5000" /> 
</g>
<g style="fill:#FFFFFF; fill-opacity:1.0000; stroke:none;">
<circle cx="50.8000" cy="13.3350" r="0.5000" /> 
</g>
<g style="fill:#FFFFFF; fill-opacity:1.0000; stroke:none;">
<circle cx="53.3400" cy="10.7950" r="0.5000" /> 
</g>
<g style="fill:#FFFFFF; fill-opacity:1.0000; stroke:none;">
<circle cx="53.3400" cy="13.3350" r="0.5000" /> 
</g>
<g style="fill:#FFFFFF; fill-opacity:1.0000; stroke:none;">
<circle cx="55.8800" cy="10.7950" r="0.5000" /> 
</g>
<g style="fill:#FFFFFF; fill-opacity:1.0000; stroke:none;">
<circle cx="55.8800" cy="13.3350" r="0.5000" /> 
</g>
<g style="fill:#FFFFFF; fill-opacity:1.0000; stroke:none;">
<circle cx="58.4200" cy="10.7950" r="0.5000" /> 
</g>
<g style="fill:#FFFFFF; fill-opacity:1.0000; stroke:none;">
<circle cx="58.4200" cy="13.3350" r="0.5000" /> 
</g>
<g style="fill:#FFFFFF; fill-opacity:1.0000; stroke:none;">
<circle cx="60.9600" cy="10.7950" r="0.5000" /> 
</g>
<g style="fill:#FFFFFF; fill-opacity:1.0000; stroke:none;">
<circle cx="60.9600" cy="13.3350" r="0.5000" /> 
</g>
<g style="fill:#000000; fill-opacity:1.0000; stroke:none;">
<circle cx="3.8100" cy="3.8100" r="1.6000" /> 
</g>
<g style="fill:#FFFFFF; fill-opacity:1.0000; stroke:none;">
<circle cx="64.7700" cy="43.1800" r="0.4000" /> 
</g>
<g style="fill:#FFFFFF; fill-opacity:1.0000; stroke:none;">
<circle cx="67.2700" cy="43.1800" r="0.4000" /> 
</g>
<g style="fill:#FFFFFF; fill-opacity:1.0000; stroke:none;">
<circle cx="69.8500" cy="24.1300" r="0.5000" /> 
</g>
<g style="fill:#FFFFFF; fill-opacity:1.0000; stroke:none;">
<circle cx="69.8500" cy="26.6700" r="0.5000" /> 
</g>
<g style="fill:#FFFFFF; fill-opacity:1.0000; stroke:none;">
<circle cx="69.8500" cy="29.2100" r="0.5000" /> 
</g>
<g style="fill:#FFFFFF; fill-opacity:1.0000; stroke:none;">
<circle cx="69.8500" cy="31.7500" r="0.5000" /> 
</g>
<g style="fill:#FFFFFF; fill-opacity:1.0000; stroke:none;">
<circle cx="69.8500" cy="34.2900" r="0.5000" /> 
</g>
<g style="fill:#FFFFFF; fill-opacity:1.0000; stroke:none;">
<circle cx="69.8500" cy="36.8300" r="0.5000" /> 
</g>
<g style="fill:#FFFFFF; fill-opacity:1.0000; stroke:none;">
<circle cx="69.8500" cy="39.3700" r="0.5000" /> 
</g>
<g style="fill:#000000; fill-opacity:1.0000; stroke:none;">
<circle cx="72.3900" cy="3.8100" r="1.6000" /> 
</g>
<g style="fill:#FFFFFF; fill-opacity:1.0000; stroke:none;">
<circle cx="5.0800" cy="34.9250" r="0.5000" /> 
</g>
<g style="fill:#FFFFFF; fill-opacity:1.0000; stroke:none;">
<circle cx="5.0800" cy="37.4650" r="0.5000" /> 
</g>
<g style="fill:#FFFFFF; fill-opacity:1.0000; stroke:none;">
<circle cx="5.0800" cy="40.0050" r="0.5000" /> 
</g>
<g style="fill:#000000; fill-opacity:1.0000; stroke:none;">
<circle cx="3.8100" cy="54.6100" r="1.6000" /> 
</g> 
</svg>
