<?xml version="1.0" standalone="no"?>
 <!DOCTYPE svg PUBLIC "-//W3C//DTD SVG 1.1//EN" 
 "http://www.w3.org/Graphics/SVG/1.1/DTD/svg11.dtd"> 
<svg
  xmlns:svg="http://www.w3.org/2000/svg"
  xmlns="http://www.w3.org/2000/svg"
  xmlns:xlink="http://www.w3.org/1999/xlink"
  xmlns:inkscape="http://www.inkscape.org/namespaces/inkscape"
  version="1.1"
  width="75.9968mm" height="57.9882mm" viewBox="0.0000 0.0000 75.9968 57.9882">
<title>SVG Image created as B_Cu.svg date 2026-06-24T02:04:30 </title>
  <desc>Image generated by PCBNEW </desc>
<g style="fill:#000000; fill-opacity:1.0000;stroke:#000000; stroke-opacity:1.0000;
stroke-linecap:round; stroke-linejoin:round;"
 transform="translate(0 0) scale(1 1)">
<path style="fill:#4D7FC4; fill-opacity:1.0000; stroke:none;fill-rule:evenodd;"
d="M 63.9700,42.6300
63.9890,42.5343
64.0432,42.4532
64.1243,42.3990
64.2200,42.3800
65.3200,42.3800
65.4157,42.3990
65.4968,42.4532
65.5510,42.5343
65.5700,42.6300
65.5700,43.7300
65.5510,43.8257
65.4968,43.9068
65.4157,43.9610
65.3200,43.9800
64.2200,43.9800
64.1243,43.9610
64.0432,43.9068
63.9890,43.8257
63.9700,43.7300
Z" /> 
</g>
<g style="fill:#4D7FC4; fill-opacity:1.0000; stroke:none;">
<circle cx="19.0500" cy="50.8000" r="0.8500" /> 
<circle cx="12.7000" cy="8.2550" r="0.8500" /> 
<circle cx="15.2400" cy="10.7950" r="0.8500" /> 
<circle cx="17.7800" cy="10.7950" r="0.8500" /> 
<circle cx="20.3200" cy="10.7950" r="0.8500" /> 
<circle cx="25.4000" cy="10.7950" r="0.8500" /> 
<circle cx="27.9400" cy="10.7950" r="0.8500" /> 
<circle cx="38.1000" cy="8.2550" r="0.8500" /> 
<circle cx="60.9600" cy="8.2550" r="0.8500" /> 
<circle cx="69.8500" cy="29.2100" r="0.8500" /> 
<circle cx="69.8500" cy="39.3700" r="0.8500" /> 
<circle cx="5.0800" cy="37.4650" r="0.8500" /> 
<circle cx="15.8750" cy="45.0850" r="0.8000" /> 
<circle cx="26.0350" cy="45.0850" r="0.8000" /> 
<circle cx="28.5750" cy="50.8000" r="0.3000" /> 
<circle cx="16.5100" cy="28.5750" r="0.3000" /> 
<circle cx="15.2400" cy="31.1150" r="0.3000" /> 
<circle cx="43.1800" cy="38.1000" r="0.3000" /> 
<circle cx="45.7200" cy="52.7050" r="0.3000" /> 
<circle cx="20.3200" cy="38.1000" r="0.3000" /> 
<circle cx="34.2900" cy="9.5250" r="0.3000" /> 
<circle cx="46.9900" cy="50.1650" r="0.3000" /> 
<circle cx="36.8300" cy="36.8300" r="0.3000" /> 
<circle cx="33.0200" cy="50.1650" r="0.3000" /> 
<circle cx="39.3700" cy="38.1000" r="0.3000" /> 
<circle cx="38.1000" cy="50.1650" r="0.3000" /> 
<circle cx="45.0850" cy="41.9100" r="0.3000" /> 
<circle cx="44.4500" cy="40.6400" r="0.3000" /> 
</g>
<g style="fill:none; 
stroke:#4D7FC4; stroke-width:0.4000; stroke-opacity:1; 
stroke-linecap:round; stroke-linejoin:round;">
<path d="M12.7000 8.2550
L12.7000 9.5250
" />
<path d="M64.7700 39.3700
L64.7700 43.1800
" />
<path d="M12.7000 9.5250
L13.9700 9.5250
" />
<path d="M13.9700 9.5250
L13.9700 39.3700
" />
<path d="M13.9700 39.3700
L69.8500 39.3700
" />
</g>
<g style="fill:none; 
stroke:#4D7FC4; stroke-width:0.2500; stroke-opacity:1; 
stroke-linecap:round; stroke-linejoin:round;">
<path d="M26.0350 45.0850
L19.0500 45.0850
" />
<path d="M19.0500 45.0850
L19.0500 50.8000
" />
<path d="M15.2400 10.7950
L15.2400 31.1150
" />
<path d="M41.9100 38.1000
L43.1800 38.1000
" />
<path d="M19.0500 6.9850
L41.9100 6.9850
" />
<path d="M17.7800 9.5250
L19.0500 9.5250
" />
<path d="M19.0500 9.5250
L19.0500 6.9850
" />
<path d="M17.7800 10.7950
L17.7800 9.5250
" />
<path d="M41.9100 6.9850
L41.9100 38.1000
" />
<path d="M20.3200 10.7950
L20.3200 38.1000
" />
<path d="M25.4000 9.5250
L34.2900 9.5250
" />
<path d="M25.4000 10.7950
L25.4000 9.5250
" />
<path d="M27.9400 36.8300
L36.8300 36.8300
" />
<path d="M27.9400 10.7950
L27.9400 36.8300
" />
<path d="M39.3700 9.5250
L39.3700 38.1000
" />
<path d="M38.1000 8.2550
L38.1000 9.5250
" />
<path d="M38.1000 9.5250
L39.3700 9.5250
" />
<path d="M15.8750 41.9100
L15.8750 45.0850
" />
<path d="M45.0850 41.9100
L15.8750 41.9100
" />
<path d="M44.4500 40.6400
L6.3500 40.6400
" />
<path d="M6.3500 38.7350
L5.0800 38.7350
" />
<path d="M5.0800 38.7350
L5.0800 37.4650
" />
<path d="M6.3500 40.6400
L6.3500 38.7350
" />
<path d="M60.9600 8.2550
L60.9600 9.5250
" />
<path d="M62.2300 29.2100
L69.8500 29.2100
" />
<path d="M62.2300 9.5250
L62.2300 29.2100
" />
<path d="M60.9600 9.5250
L62.2300 9.5250
" />
</g>
<g style="fill:none; 
stroke:#D0D2CD; stroke-width:0.1500; stroke-opacity:1; 
stroke-linecap:round; stroke-linejoin:round;">
<path d="M0.0000 0.0000
L76.0000 0.0000
" />
<path d="M0.0000 58.0000
L0.0000 0.0000
" />
<path d="M76.0000 0.0000
L76.0000 58.0000
" />
<path d="M76.0000 58.0000
L0.0000 58.0000
" />
</g>
<g style="fill:#FFFFFF; fill-opacity:1.0000; stroke:none;">
<circle cx="28.5750" cy="50.8000" r="0.1500" /> 
<circle cx="16.5100" cy="28.5750" r="0.1500" /> 
<circle cx="15.2400" cy="31.1150" r="0.1500" /> 
<circle cx="43.1800" cy="38.1000" r="0.1500" /> 
<circle cx="45.7200" cy="52.7050" r="0.1500" /> 
<circle cx="20.3200" cy="38.1000" r="0.1500" /> 
<circle cx="34.2900" cy="9.5250" r="0.1500" /> 
<circle cx="46.9900" cy="50.1650" r="0.1500" /> 
<circle cx="36.8300" cy="36.8300" r="0.1500" /> 
<circle cx="33.0200" cy="50.1650" r="0.1500" /> 
<circle cx="39.3700" cy="38.1000" r="0.1500" /> 
<circle cx="38.1000" cy="50.1650" r="0.1500" /> 
<circle cx="45.0850" cy="41.9100" r="0.1500" /> 
<circle cx="44.4500" cy="40.6400" r="0.1500" /> 
</g>
<g style="fill:#FFFFFF; fill-opacity:1.0000; stroke:none;">
<circle cx="5.0800" cy="24.7650" r="0.5000" /> 
</g>
<g style="fill:#FFFFFF; fill-opacity:1.0000; stroke:none;">
<circle cx="5.0800" cy="27.3050" r="0.5000" /> 
</g>
<g style="fill:#FFFFFF; fill-opacity:1.0000; stroke:none;">
<circle cx="5.0800" cy="29.8450" r="0.5000" /> 
</g>
<g style="fill:#000000; fill-opacity:1.0000; stroke:none;">
<circle cx="72.3900" cy="54.6100" r="1.6000" /> 
</g>
<g style="fill:#FFFFFF; fill-opacity:1.0000; stroke:none;">
<circle cx="64.7700" cy="43.1800" r="0.4000" /> 
</g>
<g style="fill:#FFFFFF; fill-opacity:1.0000; stroke:none;">
<circle cx="67.2700" cy="43.1800" r="0.4000" /> 
</g>
<g style="fill:#FFFFFF; fill-opacity:1.0000; stroke:none;">
<circle cx="13.9700" cy="50.8000" r="0.5000" /> 
</g>
<g style="fill:#FFFFFF; fill-opacity:1.0000; stroke:none;">
<circle cx="16.5100" cy="50.8000" r="0.5000" /> 
</g>
<g style="fill:#FFFFFF; fill-opacity:1.0000; stroke:none;">
<circle cx="19.0500" cy="50.8000" r="0.5000" /> 
</g>
<g style="fill:#FFFFFF; fill-opacity:1.0000; stroke:none;">
<circle cx="21.5900" cy="50.8000" r="0.5000" /> 
</g>
<g style="fill:#FFFFFF; fill-opacity:1.0000; stroke:none;">
<circle cx="12.7000" cy="10.7950" r="0.5000" /> 
</g>
<g style="fill:#FFFFFF; fill-opacity:1.0000; stroke:none;">
<circle cx="12.7000" cy="8.2550" r="0.5000" /> 
</g>
<g style="fill:#FFFFFF; fill-opacity:1.0000; stroke:none;">
<circle cx="15.2400" cy="10.7950" r="0.5000" /> 
</g>
<g style="fill:#FFFFFF; fill-opacity:1.0000; stroke:none;">
<circle cx="15.2400" cy="8.2550" r="0.5000" /> 
</g>
<g style="fill:#FFFFFF; fill-opacity:1.0000; stroke:none;">
<circle cx="17.7800" cy="10.7950" r="0.5000" /> 
</g>
<g style="fill:#FFFFFF; fill-opacity:1.0000; stroke:none;">
<circle cx="17.7800" cy="8.2550" r="0.5000" /> 
</g>
<g style="fill:#FFFFFF; fill-opacity:1.0000; stroke:none;">
<circle cx="20.3200" cy="10.7950" r="0.5000" /> 
</g>
<g style="fill:#FFFFFF; fill-opacity:1.0000; stroke:none;">
<circle cx="20.3200" cy="8.2550" r="0.5000" /> 
</g>
<g style="fill:#FFFFFF; fill-opacity:1.0000; stroke:none;">
<circle cx="22.8600" cy="10.7950" r="0.5000" /> 
</g>
<g style="fill:#FFFFFF; fill-opacity:1.0000; stroke:none;">
<circle cx="22.8600" cy="8.2550" r="0.5000" /> 
</g>
<g style="fill:#FFFFFF; fill-opacity:1.0000; stroke:none;">
<circle cx="25.4000" cy="10.7950" r="0.5000" /> 
</g>
<g style="fill:#FFFFFF; fill-opacity:1.0000; stroke:none;">
<circle cx="25.4000" cy="8.2550" r="0.5000" /> 
</g>
<g style="fill:#FFFFFF; fill-opacity:1.0000; stroke:none;">
<circle cx="27.9400" cy="10.7950" r="0.5000" /> 
</g>
<g style="fill:#FFFFFF; fill-opacity:1.0000; stroke:none;">
<circle cx="27.9400" cy="8.2550" r="0.5000" /> 
</g>
<g style="fill:#FFFFFF; fill-opacity:1.0000; stroke:none;">
<circle cx="30.4800" cy="10.7950" r="0.5000" /> 
</g>
<g style="fill:#FFFFFF; fill-opacity:1.0000; stroke:none;">
<circle cx="30.4800" cy="8.2550" r="0.5000" /> 
</g>
<g style="fill:#FFFFFF; fill-opacity:1.0000; stroke:none;">
<circle cx="33.0200" cy="10.7950" r="0.5000" /> 
</g>
<g style="fill:#FFFFFF; fill-opacity:1.0000; stroke:none;">
<circle cx="33.0200" cy="8.2550" r="0.5000" /> 
</g>
<g style="fill:#FFFFFF; fill-opacity:1.0000; stroke:none;">
<circle cx="35.5600" cy="10.7950" r="0.5000" /> 
</g>
<g style="fill:#FFFFFF; fill-opacity:1.0000; stroke:none;">
<circle cx="35.5600" cy="8.2550" r="0.5000" /> 
</g>
<g style="fill:#FFFFFF; fill-opacity:1.0000; stroke:none;">
<circle cx="38.1000" cy="10.7950" r="0.5000" /> 
</g>
<g style="fill:#FFFFFF; fill-opacity:1.0000; stroke:none;">
<circle cx="38.1000" cy="8.2550" r="0.5000" /> 
</g>
<g style="fill:#FFFFFF; fill-opacity:1.0000; stroke:none;">
<circle cx="40.6400" cy="10.7950" r="0.5000" /> 
</g>
<g style="fill:#FFFFFF; fill-opacity:1.0000; stroke:none;">
<circle cx="40.6400" cy="8.2550" r="0.5000" /> 
</g>
<g style="fill:#FFFFFF; fill-opacity:1.0000; stroke:none;">
<circle cx="43.1800" cy="10.7950" r="0.5000" /> 
</g>
<g style="fill:#FFFFFF; fill-opacity:1.0000; stroke:none;">
<circle cx="43.1800" cy="8.2550" r="0.5000" /> 
</g>
<g style="fill:#FFFFFF; fill-opacity:1.0000; stroke:none;">
<circle cx="45.7200" cy="10.7950" r="0.5000" /> 
</g>
<g style="fill:#FFFFFF; fill-opacity:1.0000; stroke:none;">
<circle cx="45.7200" cy="8.2550" r="0.5000" /> 
</g>
<g style="fill:#FFFFFF; fill-opacity:1.0000; stroke:none;">
<circle cx="48.2600" cy="10.7950" r="0.5000" /> 
</g>
<g style="fill:#FFFFFF; fill-opacity:1.0000; stroke:none;">
<circle cx="48.2600" cy="8.2550" r="0.5000" /> 
</g>
<g style="fill:#FFFFFF; fill-opacity:1.0000; stroke:none;">
<circle cx="50.8000" cy="10.7950" r="0.5000" /> 
</g>
<g style="fill:#FFFFFF; fill-opacity:1.0000; stroke:none;">
<circle cx="50.8000" cy="8.2550" r="0.5000" /> 
</g>
<g style="fill:#FFFFFF; fill-opacity:1.0000; stroke:none;">
<circle cx="53.3400" cy="10.7950" r="0.5000" /> 
</g>
<g style="fill:#FFFFFF; fill-opacity:1.0000; stroke:none;">
<circle cx="53.3400" cy="8.2550" r="0.5000" /> 
</g>
<g style="fill:#FFFFFF; fill-opacity:1.0000; stroke:none;">
<circle cx="55.8800" cy="10.7950" r="0.5000" /> 
</g>
<g style="fill:#FFFFFF; fill-opacity:1.0000; stroke:none;">
<circle cx="55.8800" cy="8.2550" r="0.5000" /> 
</g>
<g style="fill:#FFFFFF; fill-opacity:1.0000; stroke:none;">
<circle cx="58.4200" cy="10.7950" r="0.5000" /> 
</g>
<g style="fill:#FFFFFF; fill-opacity:1.0000; stroke:none;">
<circle cx="58.4200" cy="8.2550" r="0.5000" /> 
</g>
<g style="fill:#FFFFFF; fill-opacity:1.0000; stroke:none;">
<circle cx="60.9600" cy="10.7950" r="0.5000" /> 
</g>
<g style="fill:#FFFFFF; fill-opacity:1.0000; stroke:none;">
<circle cx="60.9600" cy="8.2550" r="0.5000" /> 
</g>
<g style="fill:#FFFFFF; fill-opacity:1.0000; stroke:none;">
<circle cx="69.8500" cy="24.1300" r="0.5000" /> 
</g>
<g style="fill:#FFFFFF; fill-opacity:1.0000; stroke:none;">
<circle cx="69.8500" cy="26.6700" r="0.5000" /> 
</g>
<g style="fill:#FFFFFF; fill-opacity:1.0000; stroke:none;">
<circle cx="69.8500" cy="29.2100" r="0.5000" /> 
</g>
<g style="fill:#FFFFFF; fill-opacity:1.0000; stroke:none;">
<circle cx="69.8500" cy="31.7500" r="0.5000" /> 
</g>
<g style="fill:#FFFFFF; fill-opacity:1.0000; stroke:none;">
<circle cx="69.8500" cy="34.2900" r="0.5000" /> 
</g>
<g style="fill:#FFFFFF; fill-opacity:1.0000; stroke:none;">
<circle cx="69.8500" cy="36.8300" r="0.5000" /> 
</g>
<g style="fill:#FFFFFF; fill-opacity:1.0000; stroke:none;">
<circle cx="69.8500" cy="39.3700" r="0.5000" /> 
</g>
<g style="fill:#000000; fill-opacity:1.0000; stroke:none;">
<circle cx="3.8100" cy="3.8100" r="1.6000" /> 
</g>
<g style="fill:#FFFFFF; fill-opacity:1.0000; stroke:none;">
<circle cx="5.0800" cy="34.9250" r="0.5000" /> 
</g>
<g style="fill:#FFFFFF; fill-opacity:1.0000; stroke:none;">
<circle cx="5.0800" cy="37.4650" r="0.5000" /> 
</g>
<g style="fill:#FFFFFF; fill-opacity:1.0000; stroke:none;">
<circle cx="5.0800" cy="40.0050" r="0.5000" /> 
</g>
<g style="fill:#FFFFFF; fill-opacity:1.0000; stroke:none;">
<circle cx="15.8750" cy="45.0850" r="0.4000" /> 
</g>
<g style="fill:#FFFFFF; fill-opacity:1.0000; stroke:none;">
<circle cx="26.0350" cy="45.0850" r="0.4000" /> 
</g>
<g style="fill:#000000; fill-opacity:1.0000; stroke:none;">
<circle cx="72.3900" cy="3.8100" r="1.6000" /> 
<circle cx="3.8100" cy="54.6100" r="1.6000" /> 
</g> 
</svg>
