<?xml version="1.0" standalone="no"?>
 <!DOCTYPE svg PUBLIC "-//W3C//DTD SVG 1.1//EN" 
 "http://www.w3.org/Graphics/SVG/1.1/DTD/svg11.dtd"> 
<svg
  xmlns:svg="http://www.w3.org/2000/svg"
  xmlns="http://www.w3.org/2000/svg"
  xmlns:xlink="http://www.w3.org/1999/xlink"
  xmlns:inkscape="http://www.inkscape.org/namespaces/inkscape"
  version="1.1"
  width="75.9968mm" height="57.9882mm" viewBox="0.0000 0.0000 75.9968 57.9882">
<title>SVG Image created as F_Cu.svg date 2026-06-24T02:04:30 </title>
  <desc>Image generated by PCBNEW </desc>
<g style="fill:#000000; fill-opacity:1.0000;stroke:#000000; stroke-opacity:1.0000;
stroke-linecap:round; stroke-linejoin:round;"
 transform="translate(0 0) scale(1 1)">
</g>
<g style="fill:#C83434; fill-opacity:1.0000; stroke:none;">
<circle cx="5.0800" cy="29.8450" r="0.8500" /> 
<circle cx="67.2700" cy="43.1800" r="0.8000" /> 
<circle cx="16.5100" cy="50.8000" r="0.8500" /> 
<circle cx="21.5900" cy="50.8000" r="0.8500" /> 
<circle cx="17.7800" cy="8.2550" r="0.8500" /> 
<circle cx="22.8600" cy="10.7950" r="0.8500" /> 
<circle cx="25.4000" cy="8.2550" r="0.8500" /> 
<circle cx="27.9400" cy="8.2550" r="0.8500" /> 
<circle cx="30.4800" cy="10.7950" r="0.8500" /> 
<circle cx="35.5600" cy="10.7950" r="0.8500" /> 
<circle cx="35.5600" cy="8.2550" r="0.8500" /> 
<circle cx="40.6400" cy="10.7950" r="0.8500" /> 
<circle cx="43.1800" cy="10.7950" r="0.8500" /> 
<circle cx="48.2600" cy="8.2550" r="0.8500" /> 
<circle cx="50.8000" cy="8.2550" r="0.8500" /> 
<circle cx="53.3400" cy="10.7950" r="0.8500" /> 
<circle cx="53.3400" cy="8.2550" r="0.8500" /> 
<circle cx="60.9600" cy="10.7950" r="0.8500" /> 
<circle cx="69.8500" cy="26.6700" r="0.8500" /> 
<circle cx="69.8500" cy="36.8300" r="0.8500" /> 
<path style="fill:#C83434; fill-opacity:1.0000; stroke:none;fill-rule:evenodd;"
d="M 4.2300,35.7750
4.2300,34.0750
5.9300,34.0750
5.9300,35.7750
Z" /> 
<circle cx="5.0800" cy="40.0050" r="0.8500" /> 
<path style="fill:#C83434; fill-opacity:1.0000; stroke:none;fill-rule:evenodd;"
d="M 29.0500,50.7900
29.0614,50.7326
29.0939,50.6839
29.1426,50.6514
29.2000,50.6400
29.5000,50.6400
29.5574,50.6514
29.6061,50.6839
29.6386,50.7326
29.6500,50.7900
29.6500,52.1900
29.6386,52.2474
29.6061,52.2961
29.5574,52.3286
29.5000,52.3400
29.2000,52.3400
29.1426,52.3286
29.0939,52.2961
29.0614,52.2474
29.0500,52.1900
Z" /> 
<path style="fill:#C83434; fill-opacity:1.0000; stroke:none;fill-rule:evenodd;"
d="M 30.3000,50.7900
30.3114,50.7326
30.3439,50.6839
30.3926,50.6514
30.4500,50.6400
30.7500,50.6400
30.8074,50.6514
30.8561,50.6839
30.8886,50.7326
30.9000,50.7900
30.9000,52.1900
30.8886,52.2474
30.8561,52.2961
30.8074,52.3286
30.7500,52.3400
30.4500,52.3400
30.3926,52.3286
30.3439,52.2961
30.3114,52.2474
30.3000,52.1900
Z" /> 
<path style="fill:#C83434; fill-opacity:1.0000; stroke:none;fill-rule:evenodd;"
d="M 31.5500,50.7900
31.5614,50.7326
31.5939,50.6839
31.6426,50.6514
31.7000,50.6400
32.0000,50.6400
32.0574,50.6514
32.1061,50.6839
32.1386,50.7326
32.1500,50.7900
32.1500,52.1900
32.1386,52.2474
32.1061,52.2961
32.0574,52.3286
32.0000,52.3400
31.7000,52.3400
31.6426,52.3286
31.5939,52.2961
31.5614,52.2474
31.5500,52.1900
Z" /> 
<path style="fill:#C83434; fill-opacity:1.0000; stroke:none;fill-rule:evenodd;"
d="M 32.8000,50.7900
32.8114,50.7326
32.8439,50.6839
32.8926,50.6514
32.9500,50.6400
33.2500,50.6400
33.3074,50.6514
33.3561,50.6839
33.3886,50.7326
33.4000,50.7900
33.4000,52.1900
33.3886,52.2474
33.3561,52.2961
33.3074,52.3286
33.2500,52.3400
32.9500,52.3400
32.8926,52.3286
32.8439,52.2961
32.8114,52.2474
32.8000,52.1900
Z" /> 
<path style="fill:#C83434; fill-opacity:1.0000; stroke:none;fill-rule:evenodd;"
d="M 34.0500,50.7900
34.0614,50.7326
34.0939,50.6839
34.1426,50.6514
34.2000,50.6400
34.5000,50.6400
34.5574,50.6514
34.6061,50.6839
34.6386,50.7326
34.6500,50.7900
34.6500,52.1900
34.6386,52.2474
34.6061,52.2961
34.5574,52.3286
34.5000,52.3400
34.2000,52.3400
34.1426,52.3286
34.0939,52.2961
34.0614,52.2474
34.0500,52.1900
Z" /> 
<path style="fill:#C83434; fill-opacity:1.0000; stroke:none;fill-rule:evenodd;"
d="M 35.3000,50.7900
35.3114,50.7326
35.3439,50.6839
35.3926,50.6514
35.4500,50.6400
35.7500,50.6400
35.8074,50.6514
35.8561,50.6839
35.8886,50.7326
35.9000,50.7900
35.9000,52.1900
35.8886,52.2474
35.8561,52.2961
35.8074,52.3286
35.7500,52.3400
35.4500,52.3400
35.3926,52.3286
35.3439,52.2961
35.3114,52.2474
35.3000,52.1900
Z" /> 
<path style="fill:#C83434; fill-opacity:1.0000; stroke:none;fill-rule:evenodd;"
d="M 36.5500,50.7900
36.5614,50.7326
36.5939,50.6839
36.6426,50.6514
36.7000,50.6400
37.0000,50.6400
37.0574,50.6514
37.1061,50.6839
37.1386,50.7326
37.1500,50.7900
37.1500,52.1900
37.1386,52.2474
37.1061,52.2961
37.0574,52.3286
37.0000,52.3400
36.7000,52.3400
36.6426,52.3286
36.5939,52.2961
36.5614,52.2474
36.5500,52.1900
Z" /> 
<path style="fill:#C83434; fill-opacity:1.0000; stroke:none;fill-rule:evenodd;"
d="M 37.8000,50.7900
37.8114,50.7326
37.8439,50.6839
37.8926,50.6514
37.9500,50.6400
38.2500,50.6400
38.3074,50.6514
38.3561,50.6839
38.3886,50.7326
38.4000,50.7900
38.4000,52.1900
38.3886,52.2474
38.3561,52.2961
38.3074,52.3286
38.2500,52.3400
37.9500,52.3400
37.8926,52.3286
37.8439,52.2961
37.8114,52.2474
37.8000,52.1900
Z" /> 
<path style="fill:#C83434; fill-opacity:1.0000; stroke:none;fill-rule:evenodd;"
d="M 39.0500,50.7900
39.0614,50.7326
39.0939,50.6839
39.1426,50.6514
39.2000,50.6400
39.5000,50.6400
39.5574,50.6514
39.6061,50.6839
39.6386,50.7326
39.6500,50.7900
39.6500,52.1900
39.6386,52.2474
39.6061,52.2961
39.5574,52.3286
39.5000,52.3400
39.2000,52.3400
39.1426,52.3286
39.0939,52.2961
39.0614,52.2474
39.0500,52.1900
Z" /> 
<path style="fill:#C83434; fill-opacity:1.0000; stroke:none;fill-rule:evenodd;"
d="M 40.3000,50.7900
40.3114,50.7326
40.3439,50.6839
40.3926,50.6514
40.4500,50.6400
40.7500,50.6400
40.8074,50.6514
40.8561,50.6839
40.8886,50.7326
40.9000,50.7900
40.9000,52.1900
40.8886,52.2474
40.8561,52.2961
40.8074,52.3286
40.7500,52.3400
40.4500,52.3400
40.3926,52.3286
40.3439,52.2961
40.3114,52.2474
40.3000,52.1900
Z" /> 
<path style="fill:#C83434; fill-opacity:1.0000; stroke:none;fill-rule:evenodd;"
d="M 41.5500,50.7900
41.5614,50.7326
41.5939,50.6839
41.6426,50.6514
41.7000,50.6400
42.0000,50.6400
42.0574,50.6514
42.1061,50.6839
42.1386,50.7326
42.1500,50.7900
42.1500,52.1900
42.1386,52.2474
42.1061,52.2961
42.0574,52.3286
42.0000,52.3400
41.7000,52.3400
41.6426,52.3286
41.5939,52.2961
41.5614,52.2474
41.5500,52.1900
Z" /> 
<path style="fill:#C83434; fill-opacity:1.0000; stroke:none;fill-rule:evenodd;"
d="M 42.8000,50.7900
42.8114,50.7326
42.8439,50.6839
42.8926,50.6514
42.9500,50.6400
43.2500,50.6400
43.3074,50.6514
43.3561,50.6839
43.3886,50.7326
43.4000,50.7900
43.4000,52.1900
43.3886,52.2474
43.3561,52.2961
43.3074,52.3286
43.2500,52.3400
42.9500,52.3400
42.8926,52.3286
42.8439,52.2961
42.8114,52.2474
42.8000,52.1900
Z" /> 
<path style="fill:#C83434; fill-opacity:1.0000; stroke:none;fill-rule:evenodd;"
d="M 44.0500,50.7900
44.0614,50.7326
44.0939,50.6839
44.1426,50.6514
44.2000,50.6400
44.5000,50.6400
44.5574,50.6514
44.6061,50.6839
44.6386,50.7326
44.6500,50.7900
44.6500,52.1900
44.6386,52.2474
44.6061,52.2961
44.5574,52.3286
44.5000,52.3400
44.2000,52.3400
44.1426,52.3286
44.0939,52.2961
44.0614,52.2474
44.0500,52.1900
Z" /> 
<path style="fill:#C83434; fill-opacity:1.0000; stroke:none;fill-rule:evenodd;"
d="M 45.3000,50.7900
45.3114,50.7326
45.3439,50.6839
45.3926,50.6514
45.4500,50.6400
45.7500,50.6400
45.8074,50.6514
45.8561,50.6839
45.8886,50.7326
45.9000,50.7900
45.9000,52.1900
45.8886,52.2474
45.8561,52.2961
45.8074,52.3286
45.7500,52.3400
45.4500,52.3400
45.3926,52.3286
45.3439,52.2961
45.3114,52.2474
45.3000,52.1900
Z" /> 
<path style="fill:#C83434; fill-opacity:1.0000; stroke:none;fill-rule:evenodd;"
d="M 46.5500,50.7900
46.5614,50.7326
46.5939,50.6839
46.6426,50.6514
46.7000,50.6400
47.0000,50.6400
47.0574,50.6514
47.1061,50.6839
47.1386,50.7326
47.1500,50.7900
47.1500,52.1900
47.1386,52.2474
47.1061,52.2961
47.0574,52.3286
47.0000,52.3400
46.7000,52.3400
46.6426,52.3286
46.5939,52.2961
46.5614,52.2474
46.5500,52.1900
Z" /> 
<path style="fill:#C83434; fill-opacity:1.0000; stroke:none;fill-rule:evenodd;"
d="M 27.0000,53.5900
27.0190,53.4943
27.0732,53.4132
27.1543,53.3590
27.2500,53.3400
27.7500,53.3400
27.8457,53.3590
27.9268,53.4132
27.9810,53.4943
28.0000,53.5900
28.0000,55.7900
27.9810,55.8857
27.9268,55.9668
27.8457,56.0210
27.7500,56.0400
27.2500,56.0400
27.1543,56.0210
27.0732,55.9668
27.0190,55.8857
27.0000,55.7900
Z" /> 
<path style="fill:#C83434; fill-opacity:1.0000; stroke:none;fill-rule:evenodd;"
d="M 48.2000,53.5900
48.2190,53.4943
48.2732,53.4132
48.3543,53.3590
48.4500,53.3400
48.9500,53.3400
49.0457,53.3590
49.1268,53.4132
49.1810,53.4943
49.2000,53.5900
49.2000,55.7900
49.1810,55.8857
49.1268,55.9668
49.0457,56.0210
48.9500,56.0400
48.4500,56.0400
48.3543,56.0210
48.2732,55.9668
48.2190,55.8857
48.2000,55.7900
Z" /> 
<circle cx="28.5750" cy="50.8000" r="0.3000" /> 
<circle cx="16.5100" cy="28.5750" r="0.3000" /> 
<circle cx="15.2400" cy="31.1150" r="0.3000" /> 
<circle cx="43.1800" cy="38.1000" r="0.3000" /> 
<circle cx="45.7200" cy="52.7050" r="0.3000" /> 
<circle cx="20.3200" cy="38.1000" r="0.3000" /> 
<circle cx="34.2900" cy="9.5250" r="0.3000" /> 
<circle cx="46.9900" cy="50.1650" r="0.3000" /> 
<circle cx="36.8300" cy="36.8300" r="0.3000" /> 
<circle cx="33.0200" cy="50.1650" r="0.3000" /> 
<circle cx="39.3700" cy="38.1000" r="0.3000" /> 
<circle cx="38.1000" cy="50.1650" r="0.3000" /> 
<circle cx="45.0850" cy="41.9100" r="0.3000" /> 
<circle cx="44.4500" cy="40.6400" r="0.3000" /> 
</g>
<g style="fill:none; 
stroke:#C83434; stroke-width:0.4000; stroke-opacity:1; 
stroke-linecap:round; stroke-linejoin:round;">
<path d="M28.5750 51.4350
L29.2100 51.4350
" />
<path d="M28.5750 50.8000
L28.5750 51.4350
" />
</g>
<g style="fill:none; 
stroke:#C83434; stroke-width:0.2500; stroke-opacity:1; 
stroke-linecap:round; stroke-linejoin:round;">
<path d="M59.6900 10.7950
L60.9600 10.7950
" />
<path d="M48.2600 8.2550
L48.2600 6.9850
" />
<path d="M59.6900 9.5250
L59.6900 10.7950
" />
<path d="M27.9400 6.9850
L34.2900 6.9850
" />
<path d="M53.3400 8.2550
L53.3400 9.5250
" />
<path d="M52.0700 8.2550
L53.3400 8.2550
" />
<path d="M21.5900 49.5300
L21.5900 50.8000
" />
<path d="M48.2600 6.9850
L52.0700 6.9850
" />
<path d="M46.9900 9.5250
L46.9900 8.2550
" />
<path d="M34.2900 8.2550
L35.5600 8.2550
" />
<path d="M21.5900 9.5250
L26.6700 9.5250
" />
<path d="M31.7500 29.8450
L5.0800 29.8450
" />
<path d="M27.9400 8.2550
L27.9400 6.9850
" />
<path d="M67.3100 36.8300
L67.3100 43.1800
" />
<path d="M52.0700 6.9850
L52.0700 8.2550
" />
<path d="M53.3400 9.5250
L59.6900 9.5250
" />
<path d="M35.5600 8.2550
L35.5600 9.5250
" />
<path d="M31.7500 6.9850
L31.7500 51.4350
" />
<path d="M26.6700 8.2550
L27.9400 8.2550
" />
<path d="M60.9600 36.8300
L69.8500 36.8300
" />
<path d="M21.5900 9.5250
L21.5900 10.7950
" />
<path d="M41.9100 9.5250
L46.9900 9.5250
" />
<path d="M16.5100 49.5300
L16.5100 50.8000
" />
<path d="M41.9100 10.7950
L43.1800 10.7950
" />
<path d="M17.7800 9.5250
L21.5900 9.5250
" />
<path d="M34.2900 6.9850
L34.2900 8.2550
" />
<path d="M46.9900 8.2550
L48.2600 8.2550
" />
<path d="M17.7800 8.2550
L17.7800 9.5250
" />
<path d="M31.7500 49.5300
L16.5100 49.5300
" />
<path d="M26.6700 9.5250
L26.6700 8.2550
" />
<path d="M41.9100 9.5250
L41.9100 10.7950
" />
<path d="M60.9600 10.7950
L60.9600 36.8300
" />
<path d="M35.5600 9.5250
L41.9100 9.5250
" />
<path d="M21.5900 10.7950
L22.8600 10.7950
" />
<path d="M5.0800 29.8450
L5.0800 34.9250
" />
<path d="M29.2100 10.7950
L29.2100 12.0650
" />
<path d="M29.2100 12.0650
L16.5100 12.0650
" />
<path d="M16.5100 12.0650
L16.5100 28.5750
" />
<path d="M30.4800 10.7950
L29.2100 10.7950
" />
<path d="M14.6050 31.1150
L14.6050 49.5300
" />
<path d="M14.6050 49.5300
L15.2400 49.5300
" />
<path d="M15.2400 52.7050
L43.1800 52.7050
" />
<path d="M43.1800 52.7050
L43.1800 51.4350
" />
<path d="M15.2400 49.5300
L15.2400 52.7050
" />
<path d="M15.2400 31.1150
L14.6050 31.1150
" />
<path d="M43.1800 50.1650
L44.4500 50.1650
" />
<path d="M44.4500 50.1650
L44.4500 51.4350
" />
<path d="M43.1800 38.1000
L43.1800 50.1650
" />
<path d="M45.7200 52.7050
L45.7200 51.4350
" />
<path d="M46.9900 50.1650
L46.9900 51.4350
" />
<path d="M25.4000 8.2550
L25.4000 6.3500
" />
<path d="M62.2300 26.6700
L69.8500 26.6700
" />
<path d="M52.7050 6.3500
L52.7050 6.9850
" />
<path d="M25.4000 6.3500
L52.7050 6.3500
" />
<path d="M52.7050 6.9850
L62.2300 6.9850
" />
<path d="M25.4000 6.9850
L3.8100 6.9850
" />
<path d="M62.2300 6.9850
L62.2300 26.6700
" />
<path d="M3.8100 40.0050
L5.0800 40.0050
" />
<path d="M3.8100 6.9850
L3.8100 40.0050
" />
<path d="M36.8300 36.8300
L40.0050 36.8300
" />
<path d="M40.6400 37.4650
L40.6400 51.4350
" />
<path d="M40.0050 37.4650
L40.6400 37.4650
" />
<path d="M40.0050 36.8300
L40.0050 37.4650
" />
<path d="M34.2900 10.7950
L34.2900 51.4350
" />
<path d="M35.5600 10.7950
L34.2900 10.7950
" />
<path d="M33.0200 50.1650
L33.0200 51.4350
" />
<path d="M39.3700 38.1000
L39.3700 51.4350
" />
<path d="M40.6400 10.7950
L39.3700 10.7950
" />
<path d="M39.3700 12.0650
L35.5600 12.0650
" />
<path d="M39.3700 10.7950
L39.3700 12.0650
" />
<path d="M35.5600 12.0650
L35.5600 51.4350
" />
<path d="M38.1000 50.1650
L38.1000 51.4350
" />
<path d="M41.9100 12.0650
L41.9100 51.4350
" />
<path d="M50.8000 8.2550
L49.5300 8.2550
" />
<path d="M49.5300 8.2550
L49.5300 12.0650
" />
<path d="M49.5300 12.0650
L41.9100 12.0650
" />
<path d="M50.1650 12.7000
L45.7200 12.7000
" />
<path d="M52.0700 12.0650
L50.1650 12.0650
" />
<path d="M45.7200 12.7000
L45.7200 41.2750
" />
<path d="M53.3400 10.7950
L52.0700 10.7950
" />
<path d="M45.7200 41.2750
L45.0850 41.2750
" />
<path d="M50.1650 12.0650
L50.1650 12.7000
" />
<path d="M45.0850 41.2750
L45.0850 41.9100
" />
<path d="M52.0700 10.7950
L52.0700 12.0650
" />
</g>
<g style="fill:none; 
stroke:#D0D2CD; stroke-width:0.1500; stroke-opacity:1; 
stroke-linecap:round; stroke-linejoin:round;">
<path d="M0.0000 0.0000
L76.0000 0.0000
" />
<path d="M0.0000 58.0000
L0.0000 0.0000
" />
<path d="M76.0000 0.0000
L76.0000 58.0000
" />
<path d="M76.0000 58.0000
L0.0000 58.0000
" />
</g>
<g style="fill:#FFFFFF; fill-opacity:1.0000; stroke:none;">
<circle cx="28.5750" cy="50.8000" r="0.1500" /> 
<circle cx="16.5100" cy="28.5750" r="0.1500" /> 
<circle cx="15.2400" cy="31.1150" r="0.1500" /> 
<circle cx="43.1800" cy="38.1000" r="0.1500" /> 
<circle cx="45.7200" cy="52.7050" r="0.1500" /> 
<circle cx="20.3200" cy="38.1000" r="0.1500" /> 
<circle cx="34.2900" cy="9.5250" r="0.1500" /> 
<circle cx="46.9900" cy="50.1650" r="0.1500" /> 
<circle cx="36.8300" cy="36.8300" r="0.1500" /> 
<circle cx="33.0200" cy="50.1650" r="0.1500" /> 
<circle cx="39.3700" cy="38.1000" r="0.1500" /> 
<circle cx="38.1000" cy="50.1650" r="0.1500" /> 
<circle cx="45.0850" cy="41.9100" r="0.1500" /> 
<circle cx="44.4500" cy="40.6400" r="0.1500" /> 
</g>
<g style="fill:#FFFFFF; fill-opacity:1.0000; stroke:none;">
<circle cx="5.0800" cy="24.7650" r="0.5000" /> 
</g>
<g style="fill:#FFFFFF; fill-opacity:1.0000; stroke:none;">
<circle cx="5.0800" cy="27.3050" r="0.5000" /> 
</g>
<g style="fill:#FFFFFF; fill-opacity:1.0000; stroke:none;">
<circle cx="5.0800" cy="29.8450" r="0.5000" /> 
</g>
<g style="fill:#000000; fill-opacity:1.0000; stroke:none;">
<circle cx="72.3900" cy="54.6100" r="1.6000" /> 
</g>
<g style="fill:#FFFFFF; fill-opacity:1.0000; stroke:none;">
<circle cx="64.7700" cy="43.1800" r="0.4000" /> 
</g>
<g style="fill:#FFFFFF; fill-opacity:1.0000; stroke:none;">
<circle cx="67.2700" cy="43.1800" r="0.4000" /> 
</g>
<g style="fill:#FFFFFF; fill-opacity:1.0000; stroke:none;">
<circle cx="13.9700" cy="50.8000" r="0.5000" /> 
</g>
<g style="fill:#FFFFFF; fill-opacity:1.0000; stroke:none;">
<circle cx="16.5100" cy="50.8000" r="0.5000" /> 
</g>
<g style="fill:#FFFFFF; fill-opacity:1.0000; stroke:none;">
<circle cx="19.0500" cy="50.8000" r="0.5000" /> 
</g>
<g style="fill:#FFFFFF; fill-opacity:1.0000; stroke:none;">
<circle cx="21.5900" cy="50.8000" r="0.5000" /> 
</g>
<g style="fill:#FFFFFF; fill-opacity:1.0000; stroke:none;">
<circle cx="12.7000" cy="10.7950" r="0.5000" /> 
</g>
<g style="fill:#FFFFFF; fill-opacity:1.0000; stroke:none;">
<circle cx="12.7000" cy="8.2550" r="0.5000" /> 
</g>
<g style="fill:#FFFFFF; fill-opacity:1.0000; stroke:none;">
<circle cx="15.2400" cy="10.7950" r="0.5000" /> 
</g>
<g style="fill:#FFFFFF; fill-opacity:1.0000; stroke:none;">
<circle cx="15.2400" cy="8.2550" r="0.5000" /> 
</g>
<g style="fill:#FFFFFF; fill-opacity:1.0000; stroke:none;">
<circle cx="17.7800" cy="10.7950" r="0.5000" /> 
</g>
<g style="fill:#FFFFFF; fill-opacity:1.0000; stroke:none;">
<circle cx="17.7800" cy="8.2550" r="0.5000" /> 
</g>
<g style="fill:#FFFFFF; fill-opacity:1.0000; stroke:none;">
<circle cx="20.3200" cy="10.7950" r="0.5000" /> 
</g>
<g style="fill:#FFFFFF; fill-opacity:1.0000; stroke:none;">
<circle cx="20.3200" cy="8.2550" r="0.5000" /> 
</g>
<g style="fill:#FFFFFF; fill-opacity:1.0000; stroke:none;">
<circle cx="22.8600" cy="10.7950" r="0.5000" /> 
</g>
<g style="fill:#FFFFFF; fill-opacity:1.0000; stroke:none;">
<circle cx="22.8600" cy="8.2550" r="0.5000" /> 
</g>
<g style="fill:#FFFFFF; fill-opacity:1.0000; stroke:none;">
<circle cx="25.4000" cy="10.7950" r="0.5000" /> 
</g>
<g style="fill:#FFFFFF; fill-opacity:1.0000; stroke:none;">
<circle cx="25.4000" cy="8.2550" r="0.5000" /> 
</g>
<g style="fill:#FFFFFF; fill-opacity:1.0000; stroke:none;">
<circle cx="27.9400" cy="10.7950" r="0.5000" /> 
</g>
<g style="fill:#FFFFFF; fill-opacity:1.0000; stroke:none;">
<circle cx="27.9400" cy="8.2550" r="0.5000" /> 
</g>
<g style="fill:#FFFFFF; fill-opacity:1.0000; stroke:none;">
<circle cx="30.4800" cy="10.7950" r="0.5000" /> 
</g>
<g style="fill:#FFFFFF; fill-opacity:1.0000; stroke:none;">
<circle cx="30.4800" cy="8.2550" r="0.5000" /> 
</g>
<g style="fill:#FFFFFF; fill-opacity:1.0000; stroke:none;">
<circle cx="33.0200" cy="10.7950" r="0.5000" /> 
</g>
<g style="fill:#FFFFFF; fill-opacity:1.0000; stroke:none;">
<circle cx="33.0200" cy="8.2550" r="0.5000" /> 
</g>
<g style="fill:#FFFFFF; fill-opacity:1.0000; stroke:none;">
<circle cx="35.5600" cy="10.7950" r="0.5000" /> 
</g>
<g style="fill:#FFFFFF; fill-opacity:1.0000; stroke:none;">
<circle cx="35.5600" cy="8.2550" r="0.5000" /> 
</g>
<g style="fill:#FFFFFF; fill-opacity:1.0000; stroke:none;">
<circle cx="38.1000" cy="10.7950" r="0.5000" /> 
</g>
<g style="fill:#FFFFFF; fill-opacity:1.0000; stroke:none;">
<circle cx="38.1000" cy="8.2550" r="0.5000" /> 
</g>
<g style="fill:#FFFFFF; fill-opacity:1.0000; stroke:none;">
<circle cx="40.6400" cy="10.7950" r="0.5000" /> 
</g>
<g style="fill:#FFFFFF; fill-opacity:1.0000; stroke:none;">
<circle cx="40.6400" cy="8.2550" r="0.5000" /> 
</g>
<g style="fill:#FFFFFF; fill-opacity:1.0000; stroke:none;">
<circle cx="43.1800" cy="10.7950" r="0.5000" /> 
</g>
<g style="fill:#FFFFFF; fill-opacity:1.0000; stroke:none;">
<circle cx="43.1800" cy="8.2550" r="0.5000" /> 
</g>
<g style="fill:#FFFFFF; fill-opacity:1.0000; stroke:none;">
<circle cx="45.7200" cy="10.7950" r="0.5000" /> 
</g>
<g style="fill:#FFFFFF; fill-opacity:1.0000; stroke:none;">
<circle cx="45.7200" cy="8.2550" r="0.5000" /> 
</g>
<g style="fill:#FFFFFF; fill-opacity:1.0000; stroke:none;">
<circle cx="48.2600" cy="10.7950" r="0.5000" /> 
</g>
<g style="fill:#FFFFFF; fill-opacity:1.0000; stroke:none;">
<circle cx="48.2600" cy="8.2550" r="0.5000" /> 
</g>
<g style="fill:#FFFFFF; fill-opacity:1.0000; stroke:none;">
<circle cx="50.8000" cy="10.7950" r="0.5000" /> 
</g>
<g style="fill:#FFFFFF; fill-opacity:1.0000; stroke:none;">
<circle cx="50.8000" cy="8.2550" r="0.5000" /> 
</g>
<g style="fill:#FFFFFF; fill-opacity:1.0000; stroke:none;">
<circle cx="53.3400" cy="10.7950" r="0.5000" /> 
</g>
<g style="fill:#FFFFFF; fill-opacity:1.0000; stroke:none;">
<circle cx="53.3400" cy="8.2550" r="0.5000" /> 
</g>
<g style="fill:#FFFFFF; fill-opacity:1.0000; stroke:none;">
<circle cx="55.8800" cy="10.7950" r="0.5000" /> 
</g>
<g style="fill:#FFFFFF; fill-opacity:1.0000; stroke:none;">
<circle cx="55.8800" cy="8.2550" r="0.5000" /> 
</g>
<g style="fill:#FFFFFF; fill-opacity:1.0000; stroke:none;">
<circle cx="58.4200" cy="10.7950" r="0.5000" /> 
</g>
<g style="fill:#FFFFFF; fill-opacity:1.0000; stroke:none;">
<circle cx="58.4200" cy="8.2550" r="0.5000" /> 
</g>
<g style="fill:#FFFFFF; fill-opacity:1.0000; stroke:none;">
<circle cx="60.9600" cy="10.7950" r="0.5000" /> 
</g>
<g style="fill:#FFFFFF; fill-opacity:1.0000; stroke:none;">
<circle cx="60.9600" cy="8.2550" r="0.5000" /> 
</g>
<g style="fill:#FFFFFF; fill-opacity:1.0000; stroke:none;">
<circle cx="69.8500" cy="24.1300" r="0.5000" /> 
</g>
<g style="fill:#FFFFFF; fill-opacity:1.0000; stroke:none;">
<circle cx="69.8500" cy="26.6700" r="0.5000" /> 
</g>
<g style="fill:#FFFFFF; fill-opacity:1.0000; stroke:none;">
<circle cx="69.8500" cy="29.2100" r="0.5000" /> 
</g>
<g style="fill:#FFFFFF; fill-opacity:1.0000; stroke:none;">
<circle cx="69.8500" cy="31.7500" r="0.5000" /> 
</g>
<g style="fill:#FFFFFF; fill-opacity:1.0000; stroke:none;">
<circle cx="69.8500" cy="34.2900" r="0.5000" /> 
</g>
<g style="fill:#FFFFFF; fill-opacity:1.0000; stroke:none;">
<circle cx="69.8500" cy="36.8300" r="0.5000" /> 
</g>
<g style="fill:#FFFFFF; fill-opacity:1.0000; stroke:none;">
<circle cx="69.8500" cy="39.3700" r="0.5000" /> 
</g>
<g style="fill:#000000; fill-opacity:1.0000; stroke:none;">
<circle cx="3.8100" cy="3.8100" r="1.6000" /> 
</g>
<g style="fill:#FFFFFF; fill-opacity:1.0000; stroke:none;">
<circle cx="5.0800" cy="34.9250" r="0.5000" /> 
</g>
<g style="fill:#FFFFFF; fill-opacity:1.0000; stroke:none;">
<circle cx="5.0800" cy="37.4650" r="0.5000" /> 
</g>
<g style="fill:#FFFFFF; fill-opacity:1.0000; stroke:none;">
<circle cx="5.0800" cy="40.0050" r="0.5000" /> 
</g>
<g style="fill:#FFFFFF; fill-opacity:1.0000; stroke:none;">
<circle cx="15.8750" cy="45.0850" r="0.4000" /> 
</g>
<g style="fill:#FFFFFF; fill-opacity:1.0000; stroke:none;">
<circle cx="26.0350" cy="45.0850" r="0.4000" /> 
</g>
<g style="fill:#000000; fill-opacity:1.0000; stroke:none;">
<circle cx="72.3900" cy="3.8100" r="1.6000" /> 
<circle cx="3.8100" cy="54.6100" r="1.6000" /> 
</g> 
</svg>
