<?xml version="1.0" standalone="no"?>
 <!DOCTYPE svg PUBLIC "-//W3C//DTD SVG 1.1//EN" 
 "http://www.w3.org/Graphics/SVG/1.1/DTD/svg11.dtd"> 
<svg
  xmlns:svg="http://www.w3.org/2000/svg"
  xmlns="http://www.w3.org/2000/svg"
  xmlns:xlink="http://www.w3.org/1999/xlink"
  xmlns:inkscape="http://www.inkscape.org/namespaces/inkscape"
  version="1.1"
  width="75.9968mm" height="57.9882mm" viewBox="0.0000 0.0000 75.9968 57.9882">
<title>SVG Image created as In1_GND.svg date 2026-06-24T02:04:30 </title>
  <desc>Image generated by PCBNEW </desc>
<g style="fill:#000000; fill-opacity:1.0000;stroke:#000000; stroke-opacity:1.0000;
stroke-linecap:round; stroke-linejoin:round;"
 transform="translate(0 0) scale(1 1)">
</g>
<g style="fill:#7FC87F; fill-opacity:1.0000; stroke:none;">
<circle cx="5.0800" cy="29.8450" r="0.8500" /> 
<circle cx="67.2700" cy="43.1800" r="0.8000" /> 
<circle cx="16.5100" cy="50.8000" r="0.8500" /> 
<circle cx="21.5900" cy="50.8000" r="0.8500" /> 
<circle cx="17.7800" cy="8.2550" r="0.8500" /> 
<circle cx="22.8600" cy="10.7950" r="0.8500" /> 
<circle cx="27.9400" cy="8.2550" r="0.8500" /> 
<circle cx="35.5600" cy="8.2550" r="0.8500" /> 
<circle cx="43.1800" cy="10.7950" r="0.8500" /> 
<circle cx="48.2600" cy="8.2550" r="0.8500" /> 
<circle cx="53.3400" cy="8.2550" r="0.8500" /> 
<circle cx="60.9600" cy="10.7950" r="0.8500" /> 
<circle cx="69.8500" cy="36.8300" r="0.8500" /> 
<path style="fill:#7FC87F; fill-opacity:1.0000; stroke:none;fill-rule:evenodd;"
d="M 4.2300,35.7750
4.2300,34.0750
5.9300,34.0750
5.9300,35.7750
Z" /> 
<circle cx="28.5750" cy="50.8000" r="0.3000" /> 
<circle cx="16.5100" cy="28.5750" r="0.3000" /> 
<circle cx="15.2400" cy="31.1150" r="0.3000" /> 
<circle cx="43.1800" cy="38.1000" r="0.3000" /> 
<circle cx="45.7200" cy="52.7050" r="0.3000" /> 
<circle cx="20.3200" cy="38.1000" r="0.3000" /> 
<circle cx="34.2900" cy="9.5250" r="0.3000" /> 
<circle cx="46.9900" cy="50.1650" r="0.3000" /> 
<circle cx="36.8300" cy="36.8300" r="0.3000" /> 
<circle cx="33.0200" cy="50.1650" r="0.3000" /> 
<circle cx="39.3700" cy="38.1000" r="0.3000" /> 
<circle cx="38.1000" cy="50.1650" r="0.3000" /> 
<circle cx="45.0850" cy="41.9100" r="0.3000" /> 
<circle cx="44.4500" cy="40.6400" r="0.3000" /> 
<path style="fill:#7FC87F; fill-opacity:1.0000; stroke:none;fill-rule:evenodd;"
d="M 75.4425,0.5202
75.4883,0.5730
75.4995,0.6245
75.4995,57.3755
75.4798,57.4425
75.4270,57.4883
75.3755,57.4995
0.6245,57.4995
0.5575,57.4798
0.5117,57.4270
0.5005,57.3755
0.5005,54.4887
1.9595,54.4887
1.9595,54.7313
1.9912,54.9718
2.0539,55.2061
2.1468,55.4302
2.1468,55.4302
2.2681,55.6403
2.2681,55.6403
2.2681,55.6403
2.4157,55.8327
2.4157,55.8327
2.5873,56.0043
2.5873,56.0043
2.7797,56.1519
2.9898,56.2732
3.2139,56.3661
3.4482,56.4288
3.6286,56.4526
3.6887,56.4605
3.6887,56.4605
3.9313,56.4605
3.9794,56.4542
4.1718,56.4288
4.4061,56.3661
4.6302,56.2732
4.8403,56.1519
5.0327,56.0043
5.2043,55.8327
5.3519,55.6403
5.4732,55.4302
5.5661,55.2061
5.6288,54.9718
5.6605,54.7313
5.6605,54.4887
5.6605,54.4887
70.5395,54.4887
70.5395,54.7313
70.5712,54.9718
70.6339,55.2061
70.7268,55.4302
70.7268,55.4302
70.8481,55.6403
70.8481,55.6403
70.8481,55.6403
70.9957,55.8327
70.9957,55.8327
71.1673,56.0043
71.1673,56.0043
71.3597,56.1519
71.5698,56.2732
71.7939,56.3661
72.0282,56.4288
72.2086,56.4526
72.2687,56.4605
72.2687,56.4605
72.5113,56.4605
72.5594,56.4542
72.7518,56.4288
72.9861,56.3661
73.2102,56.2732
73.4203,56.1519
73.6127,56.0043
73.7843,55.8327
73.9319,55.6403
74.0532,55.4302
74.1461,55.2061
74.2088,54.9718
74.2405,54.7313
74.2405,54.4887
74.2088,54.2482
74.1461,54.0139
74.0532,53.7898
73.9319,53.5797
73.7843,53.3873
73.7843,53.3873
73.6127,53.2157
73.6127,53.2157
73.4203,53.0681
73.4203,53.0681
73.4203,53.0681
73.2102,52.9468
73.2102,52.9468
72.9861,52.8539
72.7518,52.7912
72.5113,52.7595
72.5113,52.7595
72.2687,52.7595
72.2687,52.7595
72.0282,52.7912
71.7939,52.8539
71.5698,52.9468
71.5698,52.9468
71.3597,53.0681
71.1673,53.2157
71.1673,53.2157
70.9957,53.3873
70.9957,53.3873
70.8481,53.5797
70.7268,53.7898
70.7268,53.7898
70.6339,54.0139
70.5712,54.2482
70.5395,54.4887
5.6605,54.4887
5.6288,54.2482
5.5661,54.0139
5.4732,53.7898
5.3519,53.5797
5.2043,53.3873
5.2043,53.3873
5.0327,53.2157
5.0327,53.2157
4.8403,53.0681
4.8403,53.0681
4.8403,53.0681
4.6302,52.9468
4.6302,52.9468
4.4061,52.8539
4.1718,52.7912
3.9313,52.7595
3.9313,52.7595
3.6887,52.7595
3.6887,52.7595
3.4482,52.7912
3.2139,52.8539
2.9898,52.9468
2.9898,52.9468
2.7797,53.0681
2.5873,53.2157
2.5873,53.2157
2.4157,53.3873
2.4157,53.3873
2.2681,53.5797
2.1468,53.7898
2.1468,53.7898
2.0539,54.0139
1.9912,54.2482
1.9595,54.4887
0.5005,54.4887
0.5005,52.6391
45.2195,52.6391
45.2195,52.7709
45.2536,52.8982
45.2817,52.9468
45.3195,53.0123
45.4127,53.1055
45.5268,53.1714
45.6541,53.2055
45.6541,53.2055
45.7859,53.2055
45.7859,53.2055
45.9132,53.1714
46.0273,53.1055
46.1205,53.0123
46.1864,52.8982
46.2205,52.7709
46.2205,52.6391
46.1864,52.5118
46.1205,52.3977
46.0273,52.3045
45.9703,52.2716
45.9132,52.2386
45.8495,52.2216
45.7859,52.2045
45.6541,52.2045
45.5268,52.2386
45.4127,52.3045
45.4127,52.3045
45.3195,52.3977
45.3195,52.3977
45.2536,52.5118
45.2195,52.6391
0.5005,52.6391
0.5005,50.8739
13.2195,50.8739
13.2483,51.0189
13.2483,51.0189
13.3049,51.1555
13.3049,51.1555
13.3870,51.2784
13.3871,51.2784
13.4916,51.3829
13.4916,51.3830
13.6145,51.4651
13.6145,51.4651
13.7511,51.5217
13.7511,51.5217
13.7511,51.5217
13.7511,51.5217
13.8961,51.5505
13.8961,51.5505
14.0439,51.5505
14.1415,51.5311
14.1889,51.5217
14.3255,51.4651
14.4484,51.3830
14.5530,51.2784
14.6351,51.1555
14.6917,51.0189
14.7205,50.8739
18.2995,50.8739
18.3283,51.0189
18.3283,51.0189
18.3849,51.1555
18.3849,51.1555
18.4670,51.2784
18.4671,51.2784
18.5716,51.3829
18.5716,51.3830
18.6945,51.4651
18.6945,51.4651
18.8311,51.5217
18.8311,51.5217
18.8311,51.5217
18.8311,51.5217
18.9761,51.5505
18.9761,51.5505
19.1239,51.5505
19.2215,51.5311
19.2689,51.5217
19.4055,51.4651
19.5284,51.3830
19.6330,51.2784
19.7151,51.1555
19.7717,51.0189
19.8005,50.8739
19.8005,50.7341
28.0745,50.7341
28.0745,50.8659
28.1086,50.9932
28.1235,51.0189
28.1745,51.1073
28.2677,51.2005
28.3818,51.2664
28.5091,51.3005
28.5091,51.3005
28.6409,51.3005
28.6409,51.3005
28.7682,51.2664
28.8823,51.2005
28.9755,51.1073
29.0414,50.9932
29.0755,50.8659
29.0755,50.7341
29.0414,50.6068
28.9755,50.4927
28.8823,50.3995
28.8108,50.3582
28.7682,50.3336
28.7045,50.3166
28.6409,50.2995
28.5091,50.2995
28.3818,50.3336
28.2677,50.3995
28.2677,50.3995
28.1745,50.4927
28.1745,50.4927
28.1086,50.6068
28.0745,50.7341
19.8005,50.7341
19.8005,50.7261
19.8005,50.7261
19.7717,50.5811
19.7717,50.5811
19.7717,50.5811
19.7652,50.5655
19.7151,50.4445
19.7151,50.4445
19.6330,50.3216
19.6329,50.3216
19.5284,50.2171
19.5284,50.2170
19.4940,50.1941
19.4055,50.1349
19.4055,50.1349
19.3190,50.0991
32.5195,50.0991
32.5195,50.2309
32.5536,50.3582
32.5775,50.3995
32.6195,50.4723
32.7127,50.5655
32.8268,50.6314
32.9541,50.6655
32.9541,50.6655
33.0859,50.6655
33.0859,50.6655
33.2132,50.6314
33.3273,50.5655
33.4205,50.4723
33.4864,50.3582
33.5205,50.2309
33.5205,50.0991
37.5995,50.0991
37.5995,50.2309
37.6336,50.3582
37.6575,50.3995
37.6995,50.4723
37.7927,50.5655
37.9068,50.6314
38.0341,50.6655
38.0341,50.6655
38.1659,50.6655
38.1659,50.6655
38.2932,50.6314
38.4073,50.5655
38.5005,50.4723
38.5664,50.3582
38.6005,50.2309
38.6005,50.0991
46.4895,50.0991
46.4895,50.2309
46.5236,50.3582
46.5475,50.3995
46.5895,50.4723
46.6827,50.5655
46.7968,50.6314
46.9241,50.6655
46.9241,50.6655
47.0559,50.6655
47.0559,50.6655
47.1832,50.6314
47.2973,50.5655
47.3905,50.4723
47.4564,50.3582
47.4905,50.2309
47.4905,50.0991
47.4564,49.9718
47.3905,49.8577
47.2973,49.7645
47.2402,49.7316
47.1832,49.6986
47.1195,49.6816
47.0559,49.6645
46.9241,49.6645
46.7968,49.6986
46.6827,49.7645
46.6827,49.7645
46.5895,49.8577
46.5895,49.8577
46.5236,49.9718
46.4895,50.0991
38.6005,50.0991
38.5664,49.9718
38.5005,49.8577
38.4073,49.7645
38.3502,49.7316
38.2932,49.6986
38.2295,49.6816
38.1659,49.6645
38.0341,49.6645
37.9068,49.6986
37.7927,49.7645
37.7927,49.7645
37.6995,49.8577
37.6995,49.8577
37.6336,49.9718
37.5995,50.0991
33.5205,50.0991
33.4864,49.9718
33.4205,49.8577
33.3273,49.7645
33.2702,49.7316
33.2132,49.6986
33.1495,49.6816
33.0859,49.6645
32.9541,49.6645
32.8268,49.6986
32.7127,49.7645
32.7127,49.7645
32.6195,49.8577
32.6195,49.8577
32.5536,49.9718
32.5195,50.0991
19.3190,50.0991
19.2689,50.0783
19.2689,50.0783
19.1239,50.0495
19.1239,50.0495
18.9761,50.0495
18.9761,50.0495
18.8311,50.0783
18.8311,50.0783
18.6945,50.1349
18.6945,50.1349
18.5716,50.2170
18.5716,50.2171
18.4671,50.3216
18.4670,50.3216
18.3849,50.4445
18.3849,50.4445
18.3283,50.5811
18.3283,50.5811
18.2995,50.7261
18.2995,50.7261
18.2995,50.8739
18.2995,50.8739
18.2995,50.8739
14.7205,50.8739
14.7205,50.8739
14.7205,50.7261
14.7205,50.7261
14.6917,50.5811
14.6917,50.5811
14.6917,50.5811
14.6852,50.5655
14.6351,50.4445
14.6351,50.4445
14.5530,50.3216
14.5529,50.3216
14.4484,50.2171
14.4484,50.2170
14.3255,50.1349
14.3255,50.1349
14.1889,50.0783
14.1889,50.0783
14.0439,50.0495
14.0439,50.0495
13.8961,50.0495
13.8961,50.0495
13.7511,50.0783
13.7511,50.0783
13.6145,50.1349
13.6145,50.1349
13.4916,50.2170
13.4916,50.2171
13.3871,50.3216
13.3870,50.3216
13.3049,50.4445
13.3049,50.4445
13.2483,50.5811
13.2483,50.5811
13.2195,50.7261
13.2195,50.7261
13.2195,50.8739
13.2195,50.8739
13.2195,50.8739
0.5005,50.8739
0.5005,45.1491
15.2245,45.1491
15.2495,45.2747
15.2495,45.2747
15.2985,45.3931
15.2985,45.3931
15.3697,45.4997
15.3697,45.4997
15.4603,45.5903
15.4603,45.5903
15.5669,45.6615
15.5669,45.6615
15.5669,45.6615
15.6853,45.7105
15.6853,45.7105
15.6853,45.7105
15.8109,45.7355
15.8109,45.7355
15.9391,45.7355
16.0236,45.7187
16.0647,45.7105
16.1831,45.6615
16.2897,45.5903
16.3803,45.4997
16.4515,45.3931
16.5005,45.2747
16.5255,45.1491
25.3845,45.1491
25.4095,45.2747
25.4095,45.2747
25.4585,45.3931
25.4585,45.3931
25.5297,45.4997
25.5297,45.4997
25.6203,45.5903
25.6203,45.5903
25.7269,45.6615
25.7269,45.6615
25.7269,45.6615
25.8453,45.7105
25.8453,45.7105
25.8453,45.7105
25.9709,45.7355
25.9709,45.7355
26.0991,45.7355
26.1836,45.7187
26.2247,45.7105
26.3431,45.6615
26.4497,45.5903
26.5403,45.4997
26.6115,45.3931
26.6605,45.2747
26.6855,45.1491
26.6855,45.0209
26.6855,45.0209
26.6605,44.8953
26.6605,44.8953
26.6605,44.8953
26.6115,44.7769
26.6115,44.7769
26.6115,44.7769
26.5403,44.6703
26.5403,44.6703
26.4497,44.5797
26.4497,44.5797
26.3431,44.5085
26.3431,44.5085
26.2247,44.4595
26.2247,44.4595
26.0991,44.4345
26.0991,44.4345
25.9709,44.4345
25.9709,44.4345
25.8453,44.4595
25.8453,44.4595
25.7269,44.5085
25.7269,44.5085
25.6203,44.5797
25.6203,44.5797
25.5297,44.6703
25.5297,44.6703
25.4585,44.7769
25.4585,44.7769
25.4095,44.8953
25.4095,44.8953
25.3845,45.0209
25.3845,45.0209
25.3845,45.1491
25.3845,45.1491
25.3845,45.1491
16.5255,45.1491
16.5255,45.1491
16.5255,45.0209
16.5255,45.0209
16.5005,44.8953
16.5005,44.8953
16.5005,44.8953
16.4515,44.7769
16.4515,44.7769
16.4515,44.7769
16.3803,44.6703
16.3803,44.6703
16.2897,44.5797
16.2897,44.5797
16.1831,44.5085
16.1831,44.5085
16.0647,44.4595
16.0647,44.4595
15.9391,44.4345
15.9391,44.4345
15.8109,44.4345
15.8109,44.4345
15.6853,44.4595
15.6853,44.4595
15.5669,44.5085
15.5669,44.5085
15.4603,44.5797
15.4603,44.5797
15.3697,44.6703
15.3697,44.6703
15.2985,44.7769
15.2985,44.7769
15.2495,44.8953
15.2495,44.8953
15.2245,45.0209
15.2245,45.0209
15.2245,45.1491
15.2245,45.1491
15.2245,45.1491
0.5005,45.1491
0.5005,43.2441
64.1195,43.2441
64.1445,43.3697
64.1445,43.3697
64.1935,43.4881
64.1935,43.4881
64.2647,43.5947
64.2647,43.5947
64.3553,43.6853
64.3553,43.6853
64.4619,43.7565
64.4619,43.7565
64.4619,43.7565
64.5803,43.8055
64.5803,43.8055
64.5803,43.8055
64.7059,43.8305
64.7059,43.8305
64.8341,43.8305
64.9186,43.8137
64.9597,43.8055
65.0781,43.7565
65.1847,43.6853
65.2753,43.5947
65.3465,43.4881
65.3955,43.3697
65.4205,43.2441
65.4205,43.1159
65.4205,43.1159
65.3955,42.9903
65.3955,42.9903
65.3955,42.9903
65.3465,42.8719
65.3465,42.8719
65.3465,42.8719
65.2753,42.7653
65.2753,42.7653
65.1847,42.6747
65.1847,42.6747
65.0781,42.6035
65.0781,42.6035
64.9597,42.5545
64.9597,42.5545
64.8341,42.5295
64.8341,42.5295
64.7059,42.5295
64.7059,42.5295
64.5803,42.5545
64.5803,42.5545
64.4619,42.6035
64.4619,42.6035
64.3553,42.6747
64.3553,42.6747
64.2647,42.7653
64.2647,42.7653
64.1935,42.8719
64.1935,42.8719
64.1445,42.9903
64.1445,42.9903
64.1195,43.1159
64.1195,43.1159
64.1195,43.2441
64.1195,43.2441
64.1195,43.2441
0.5005,43.2441
0.5005,41.8441
44.5845,41.8441
44.5845,41.9759
44.6186,42.1032
44.6516,42.1602
44.6845,42.2173
44.7777,42.3105
44.8918,42.3764
45.0191,42.4105
45.0191,42.4105
45.1509,42.4105
45.1509,42.4105
45.2782,42.3764
45.3923,42.3105
45.4855,42.2173
45.5514,42.1032
45.5855,41.9759
45.5855,41.8441
45.5514,41.7168
45.4855,41.6027
45.3923,41.5095
45.3352,41.4766
45.2782,41.4436
45.2145,41.4266
45.1509,41.4095
45.0191,41.4095
44.8918,41.4436
44.7777,41.5095
44.7777,41.5095
44.6845,41.6027
44.6845,41.6027
44.6186,41.7168
44.5845,41.8441
0.5005,41.8441
0.5005,40.0789
4.3295,40.0789
4.3583,40.2239
4.3583,40.2239
4.4149,40.3605
4.4149,40.3605
4.4970,40.4834
4.4971,40.4834
4.6016,40.5879
4.6016,40.5880
4.7245,40.6701
4.7245,40.6701
4.8110,40.7059
4.8611,40.7267
4.8611,40.7267
4.8611,40.7267
5.0061,40.7555
5.0061,40.7555
5.1539,40.7555
5.2515,40.7361
5.2989,40.7267
5.4355,40.6701
5.5584,40.5880
5.5723,40.5741
43.9495,40.5741
43.9495,40.7059
43.9628,40.7555
43.9836,40.8332
44.0166,40.8902
44.0495,40.9473
44.1427,41.0405
44.2568,41.1064
44.3841,41.1405
44.3841,41.1405
44.5159,41.1405
44.5159,41.1405
44.6432,41.1064
44.7573,41.0405
44.8505,40.9473
44.9164,40.8332
44.9505,40.7059
44.9505,40.5741
44.9164,40.4468
44.8505,40.3327
44.7573,40.2395
44.7002,40.2066
44.6432,40.1736
44.5795,40.1566
44.5159,40.1395
44.3841,40.1395
44.2568,40.1736
44.1427,40.2395
44.1427,40.2395
44.0495,40.3327
44.0495,40.3327
43.9836,40.4468
43.9495,40.5741
5.5723,40.5741
5.6630,40.4834
5.7451,40.3605
5.8017,40.2239
5.8280,40.0917
5.8305,40.0789
5.8305,39.9311
5.8017,39.7861
5.8017,39.7861
5.8017,39.7861
5.7766,39.7255
5.7451,39.6495
5.7451,39.6495
5.6630,39.5266
5.6629,39.5266
5.5803,39.4439
69.0995,39.4439
69.1283,39.5889
69.1283,39.5889
69.1849,39.7255
69.1849,39.7255
69.2670,39.8484
69.2671,39.8484
69.3716,39.9529
69.3716,39.9530
69.4945,40.0351
69.4945,40.0351
69.6311,40.0917
69.6311,40.0917
69.6311,40.0917
69.6311,40.0917
69.7761,40.1205
69.7761,40.1205
69.9239,40.1205
70.0215,40.1011
70.0689,40.0917
70.2055,40.0351
70.3284,39.9530
70.4330,39.8484
70.5151,39.7255
70.5717,39.5889
70.6005,39.4439
70.6005,39.2961
70.6005,39.2961
70.5717,39.1511
70.5717,39.1511
70.5717,39.1511
70.5717,39.1511
70.5151,39.0145
70.5151,39.0145
70.4330,38.8916
70.4329,38.8916
70.3284,38.7871
70.3284,38.7870
70.2055,38.7049
70.2055,38.7049
70.0689,38.6483
70.0689,38.6483
69.9239,38.6195
69.9239,38.6195
69.7761,38.6195
69.7761,38.6195
69.6311,38.6483
69.6311,38.6483
69.4945,38.7049
69.4945,38.7049
69.3716,38.7870
69.3716,38.7871
69.2671,38.8916
69.2670,38.8916
69.1849,39.0145
69.1849,39.0145
69.1283,39.1511
69.1283,39.1511
69.0995,39.2961
69.0995,39.2961
69.0995,39.4439
69.0995,39.4439
69.0995,39.4439
5.5803,39.4439
5.5584,39.4221
5.5584,39.4220
5.5151,39.3931
5.5151,39.3931
5.4355,39.3399
5.4355,39.3399
5.2989,39.2833
5.2989,39.2833
5.1539,39.2545
5.1539,39.2545
5.0061,39.2545
5.0061,39.2545
4.8611,39.2833
4.8611,39.2833
4.7245,39.3399
4.7245,39.3399
4.6016,39.4220
4.6016,39.4221
4.4971,39.5266
4.4970,39.5266
4.4149,39.6495
4.4149,39.6495
4.3583,39.7861
4.3583,39.7861
4.3295,39.9311
4.3295,39.9311
4.3295,40.0789
4.3295,40.0789
4.3295,40.0789
0.5005,40.0789
0.5005,37.5389
4.3295,37.5389
4.3583,37.6839
4.3583,37.6839
4.4149,37.8205
4.4149,37.8205
4.4970,37.9434
4.4971,37.9434
4.6016,38.0479
4.6016,38.0480
4.7245,38.1301
4.7245,38.1301
4.8110,38.1659
4.8611,38.1867
4.8611,38.1867
4.8611,38.1867
5.0061,38.2155
5.0061,38.2155
5.1539,38.2155
5.2515,38.1961
5.2989,38.1867
5.4355,38.1301
5.5584,38.0480
5.5723,38.0341
19.8195,38.0341
19.8195,38.1659
19.8328,38.2155
19.8536,38.2932
19.8866,38.3502
19.9195,38.4073
20.0127,38.5005
20.1268,38.5664
20.2541,38.6005
20.2541,38.6005
20.3859,38.6005
20.3859,38.6005
20.5132,38.5664
20.6273,38.5005
20.7205,38.4073
20.7864,38.2932
20.8205,38.1659
20.8205,38.0341
38.8695,38.0341
38.8695,38.1659
38.8828,38.2155
38.9036,38.2932
38.9366,38.3502
38.9695,38.4073
39.0627,38.5005
39.1768,38.5664
39.3041,38.6005
39.3041,38.6005
39.4359,38.6005
39.4359,38.6005
39.5632,38.5664
39.6773,38.5005
39.7705,38.4073
39.8364,38.2932
39.8705,38.1659
39.8705,38.0341
42.6795,38.0341
42.6795,38.1659
42.6928,38.2155
42.7136,38.2932
42.7466,38.3502
42.7795,38.4073
42.8727,38.5005
42.9868,38.5664
43.1141,38.6005
43.1141,38.6005
43.2459,38.6005
43.2459,38.6005
43.3732,38.5664
43.4873,38.5005
43.5805,38.4073
43.6464,38.2932
43.6805,38.1659
43.6805,38.0341
43.6464,37.9068
43.5805,37.7927
43.4873,37.6995
43.4303,37.6666
43.3732,37.6336
43.3095,37.6166
43.2459,37.5995
43.1141,37.5995
42.9868,37.6336
42.8727,37.6995
42.8727,37.6995
42.7795,37.7927
42.7795,37.7927
42.7136,37.9068
42.6795,38.0341
39.8705,38.0341
39.8364,37.9068
39.7705,37.7927
39.6773,37.6995
39.6202,37.6666
39.5632,37.6336
39.4995,37.6166
39.4359,37.5995
39.3041,37.5995
39.1768,37.6336
39.0627,37.6995
39.0627,37.6995
38.9695,37.7927
38.9695,37.7927
38.9036,37.9068
38.8695,38.0341
20.8205,38.0341
20.7864,37.9068
20.7205,37.7927
20.6273,37.6995
20.5702,37.6666
20.5132,37.6336
20.4495,37.6166
20.3859,37.5995
20.2541,37.5995
20.1268,37.6336
20.0127,37.6995
20.0127,37.6995
19.9195,37.7927
19.9195,37.7927
19.8536,37.9068
19.8195,38.0341
5.5723,38.0341
5.6630,37.9434
5.7451,37.8205
5.8017,37.6839
5.8305,37.5389
5.8305,37.3911
5.8305,37.3911
5.8017,37.2461
5.8017,37.2461
5.8017,37.2461
5.7952,37.2305
5.7451,37.1095
5.7451,37.1095
5.6630,36.9866
5.6629,36.9866
5.5584,36.8821
5.5584,36.8820
5.5240,36.8591
5.4355,36.7999
5.4355,36.7999
5.3490,36.7641
36.3295,36.7641
36.3295,36.8959
36.3636,37.0232
36.3966,37.0802
36.4295,37.1373
36.5227,37.2305
36.6368,37.2964
36.7641,37.3305
36.7641,37.3305
36.8959,37.3305
36.8959,37.3305
37.0232,37.2964
37.1373,37.2305
37.2305,37.1373
37.2964,37.0232
37.3305,36.8959
37.3305,36.7641
37.2964,36.6368
37.2305,36.5227
37.1373,36.4295
37.0802,36.3966
37.0232,36.3636
36.9595,36.3466
36.8959,36.3295
36.7641,36.3295
36.6368,36.3636
36.5227,36.4295
36.5227,36.4295
36.4295,36.5227
36.4295,36.5227
36.3636,36.6368
36.3295,36.7641
5.3490,36.7641
5.2989,36.7433
5.2989,36.7433
5.1539,36.7145
5.1539,36.7145
5.0061,36.7145
5.0061,36.7145
4.8611,36.7433
4.8611,36.7433
4.7245,36.7999
4.7245,36.7999
4.6016,36.8820
4.6016,36.8821
4.4971,36.9866
4.4970,36.9866
4.4149,37.1095
4.4149,37.1095
4.3583,37.2461
4.3583,37.2461
4.3295,37.3911
4.3295,37.3911
4.3295,37.5389
4.3295,37.5389
4.3295,37.5389
0.5005,37.5389
0.5005,34.3639
69.0995,34.3639
69.1283,34.5089
69.1283,34.5089
69.1849,34.6455
69.1849,34.6455
69.2670,34.7684
69.2671,34.7684
69.3716,34.8729
69.3716,34.8730
69.4945,34.9551
69.4945,34.9551
69.6311,35.0117
69.6311,35.0117
69.6311,35.0117
69.6311,35.0117
69.7761,35.0405
69.7761,35.0405
69.9239,35.0405
70.0215,35.0211
70.0689,35.0117
70.2055,34.9551
70.3284,34.8730
70.4330,34.7684
70.5151,34.6455
70.5717,34.5089
70.6005,34.3639
70.6005,34.2161
70.6005,34.2161
70.5717,34.0711
70.5717,34.0711
70.5717,34.0711
70.5717,34.0711
70.5151,33.9345
70.5151,33.9345
70.4330,33.8116
70.4329,33.8116
70.3284,33.7071
70.3284,33.7070
70.2055,33.6249
70.2055,33.6249
70.0689,33.5683
70.0689,33.5683
69.9239,33.5395
69.9239,33.5395
69.7761,33.5395
69.7761,33.5395
69.6311,33.5683
69.6311,33.5683
69.4945,33.6249
69.4945,33.6249
69.3716,33.7070
69.3716,33.7071
69.2671,33.8116
69.2670,33.8116
69.1849,33.9345
69.1849,33.9345
69.1283,34.0711
69.1283,34.0711
69.0995,34.2161
69.0995,34.2161
69.0995,34.3639
69.0995,34.3639
69.0995,34.3639
0.5005,34.3639
0.5005,31.8239
69.0995,31.8239
69.1283,31.9689
69.1283,31.9689
69.1849,32.1055
69.1849,32.1055
69.2670,32.2284
69.2671,32.2284
69.3716,32.3329
69.3716,32.3330
69.4945,32.4151
69.4945,32.4151
69.6311,32.4717
69.6311,32.4717
69.6311,32.4717
69.6311,32.4717
69.7761,32.5005
69.7761,32.5005
69.9239,32.5005
70.0215,32.4811
70.0689,32.4717
70.2055,32.4151
70.3284,32.3330
70.4330,32.2284
70.5151,32.1055
70.5717,31.9689
70.6005,31.8239
70.6005,31.6761
70.6005,31.6761
70.5717,31.5311
70.5717,31.5311
70.5717,31.5311
70.5717,31.5311
70.5151,31.3945
70.5151,31.3945
70.4330,31.2716
70.4329,31.2716
70.3284,31.1671
70.3284,31.1670
70.2055,31.0849
70.2055,31.0849
70.0689,31.0283
70.0689,31.0283
69.9239,30.9995
69.9239,30.9995
69.7761,30.9995
69.7761,30.9995
69.6311,31.0283
69.6311,31.0283
69.4945,31.0849
69.4945,31.0849
69.3716,31.1670
69.3716,31.1671
69.2671,31.2716
69.2670,31.2716
69.1849,31.3945
69.1849,31.3945
69.1283,31.5311
69.1283,31.5311
69.0995,31.6761
69.0995,31.6761
69.0995,31.8239
69.0995,31.8239
69.0995,31.8239
0.5005,31.8239
0.5005,31.0491
14.7395,31.0491
14.7395,31.1809
14.7736,31.3082
14.8066,31.3652
14.8395,31.4223
14.9327,31.5155
15.0468,31.5814
15.1741,31.6155
15.1741,31.6155
15.3059,31.6155
15.3059,31.6155
15.4332,31.5814
15.5473,31.5155
15.6405,31.4223
15.7064,31.3082
15.7405,31.1809
15.7405,31.0491
15.7064,30.9218
15.6405,30.8077
15.5473,30.7145
15.4902,30.6816
15.4332,30.6486
15.3695,30.6316
15.3059,30.6145
15.1741,30.6145
15.0468,30.6486
14.9327,30.7145
14.9327,30.7145
14.8395,30.8077
14.8395,30.8077
14.7736,30.9218
14.7395,31.0491
0.5005,31.0491
0.5005,29.2839
69.0995,29.2839
69.1283,29.4289
69.1283,29.4289
69.1849,29.5655
69.1849,29.5655
69.2670,29.6884
69.2671,29.6884
69.3716,29.7929
69.3716,29.7930
69.4945,29.8751
69.4945,29.8751
69.6311,29.9317
69.6311,29.9317
69.6311,29.9317
69.6311,29.9317
69.7761,29.9605
69.7761,29.9605
69.9239,29.9605
70.0215,29.9411
70.0689,29.9317
70.2055,29.8751
70.3284,29.7930
70.4330,29.6884
70.5151,29.5655
70.5717,29.4289
70.6005,29.2839
70.6005,29.1361
70.6005,29.1361
70.5717,28.9911
70.5717,28.9911
70.5717,28.9911
70.5717,28.9911
70.5151,28.8545
70.5151,28.8545
70.4330,28.7316
70.4329,28.7316
70.3284,28.6271
70.3284,28.6270
70.2055,28.5449
70.2055,28.5449
70.0689,28.4883
70.0689,28.4883
69.9239,28.4595
69.9239,28.4595
69.7761,28.4595
69.7761,28.4595
69.6311,28.4883
69.6311,28.4883
69.4945,28.5449
69.4945,28.5449
69.3716,28.6270
69.3716,28.6271
69.2671,28.7316
69.2670,28.7316
69.1849,28.8545
69.1849,28.8545
69.1283,28.9911
69.1283,28.9911
69.0995,29.1361
69.0995,29.1361
69.0995,29.2839
69.0995,29.2839
69.0995,29.2839
0.5005,29.2839
0.5005,28.5091
16.0095,28.5091
16.0095,28.6409
16.0436,28.7682
16.0766,28.8252
16.1095,28.8823
16.2027,28.9755
16.3168,29.0414
16.4441,29.0755
16.4441,29.0755
16.5759,29.0755
16.5759,29.0755
16.7032,29.0414
16.8173,28.9755
16.9105,28.8823
16.9764,28.7682
17.0105,28.6409
17.0105,28.5091
16.9764,28.3818
16.9105,28.2677
16.8173,28.1745
16.7602,28.1416
16.7032,28.1086
16.6395,28.0916
16.5759,28.0745
16.4441,28.0745
16.3168,28.1086
16.2027,28.1745
16.2027,28.1745
16.1095,28.2677
16.1095,28.2677
16.0436,28.3818
16.0095,28.5091
0.5005,28.5091
0.5005,27.3789
4.3295,27.3789
4.3583,27.5239
4.3583,27.5239
4.4149,27.6605
4.4149,27.6605
4.4970,27.7834
4.4971,27.7834
4.6016,27.8879
4.6016,27.8880
4.7245,27.9701
4.7245,27.9701
4.8611,28.0267
4.8611,28.0267
4.8611,28.0267
4.8611,28.0267
5.0061,28.0555
5.0061,28.0555
5.1539,28.0555
5.2515,28.0361
5.2989,28.0267
5.4355,27.9701
5.5584,27.8880
5.6630,27.7834
5.7451,27.6605
5.8017,27.5239
5.8280,27.3917
5.8305,27.3789
5.8305,27.2311
5.8017,27.0861
5.8017,27.0861
5.8017,27.0861
5.7766,27.0255
5.7451,26.9495
5.7451,26.9495
5.6630,26.8266
5.6629,26.8266
5.5803,26.7439
69.0995,26.7439
69.1283,26.8889
69.1283,26.8889
69.1849,27.0255
69.1849,27.0255
69.2670,27.1484
69.2671,27.1484
69.3716,27.2529
69.3716,27.2530
69.4945,27.3351
69.4945,27.3351
69.6311,27.3917
69.6311,27.3917
69.6311,27.3917
69.6311,27.3917
69.7761,27.4205
69.7761,27.4205
69.9239,27.4205
70.0215,27.4011
70.0689,27.3917
70.2055,27.3351
70.3284,27.2530
70.4330,27.1484
70.5151,27.0255
70.5717,26.8889
70.6005,26.7439
70.6005,26.5961
70.6005,26.5961
70.5717,26.4511
70.5717,26.4511
70.5717,26.4511
70.5717,26.4511
70.5151,26.3145
70.5151,26.3145
70.4330,26.1916
70.4329,26.1916
70.3284,26.0871
70.3284,26.0870
70.2055,26.0049
70.2055,26.0049
70.0689,25.9483
70.0689,25.9483
69.9239,25.9195
69.9239,25.9195
69.7761,25.9195
69.7761,25.9195
69.6311,25.9483
69.6311,25.9483
69.4945,26.0049
69.4945,26.0049
69.3716,26.0870
69.3716,26.0871
69.2671,26.1916
69.2670,26.1916
69.1849,26.3145
69.1849,26.3145
69.1283,26.4511
69.1283,26.4511
69.0995,26.5961
69.0995,26.5961
69.0995,26.7439
69.0995,26.7439
69.0995,26.7439
5.5803,26.7439
5.5584,26.7221
5.5584,26.7220
5.5151,26.6931
5.5151,26.6931
5.4355,26.6399
5.4355,26.6399
5.2989,26.5833
5.2989,26.5833
5.1539,26.5545
5.1539,26.5545
5.0061,26.5545
5.0061,26.5545
4.8611,26.5833
4.8611,26.5833
4.7245,26.6399
4.7245,26.6399
4.6016,26.7220
4.6016,26.7221
4.4971,26.8266
4.4970,26.8266
4.4149,26.9495
4.4149,26.9495
4.3583,27.0861
4.3583,27.0861
4.3295,27.2311
4.3295,27.2311
4.3295,27.3789
4.3295,27.3789
4.3295,27.3789
0.5005,27.3789
0.5005,24.8389
4.3295,24.8389
4.3583,24.9839
4.3583,24.9839
4.4149,25.1205
4.4149,25.1205
4.4970,25.2434
4.4971,25.2434
4.6016,25.3479
4.6016,25.3480
4.7245,25.4301
4.7245,25.4301
4.8611,25.4867
4.8611,25.4867
4.8611,25.4867
4.8611,25.4867
5.0061,25.5155
5.0061,25.5155
5.1539,25.5155
5.2515,25.4961
5.2989,25.4867
5.4355,25.4301
5.5584,25.3480
5.6630,25.2434
5.7451,25.1205
5.8017,24.9839
5.8280,24.8517
5.8305,24.8389
5.8305,24.6911
5.8017,24.5461
5.8017,24.5461
5.8017,24.5461
5.7766,24.4855
5.7451,24.4095
5.7451,24.4095
5.6630,24.2866
5.6629,24.2866
5.5803,24.2039
69.0995,24.2039
69.1283,24.3489
69.1283,24.3489
69.1849,24.4855
69.1849,24.4855
69.2670,24.6084
69.2671,24.6084
69.3716,24.7129
69.3716,24.7130
69.4945,24.7951
69.4945,24.7951
69.6311,24.8517
69.6311,24.8517
69.6311,24.8517
69.6311,24.8517
69.7761,24.8805
69.7761,24.8805
69.9239,24.8805
70.0215,24.8611
70.0689,24.8517
70.2055,24.7951
70.3284,24.7130
70.4330,24.6084
70.5151,24.4855
70.5717,24.3489
70.6005,24.2039
70.6005,24.0561
70.6005,24.0561
70.5717,23.9111
70.5717,23.9111
70.5717,23.9111
70.5717,23.9111
70.5151,23.7745
70.5151,23.7745
70.4330,23.6516
70.4329,23.6516
70.3284,23.5471
70.3284,23.5470
70.2055,23.4649
70.2055,23.4649
70.0689,23.4083
70.0689,23.4083
69.9239,23.3795
69.9239,23.3795
69.7761,23.3795
69.7761,23.3795
69.6311,23.4083
69.6311,23.4083
69.4945,23.4649
69.4945,23.4649
69.3716,23.5470
69.3716,23.5471
69.2671,23.6516
69.2670,23.6516
69.1849,23.7745
69.1849,23.7745
69.1283,23.9111
69.1283,23.9111
69.0995,24.0561
69.0995,24.0561
69.0995,24.2039
69.0995,24.2039
69.0995,24.2039
5.5803,24.2039
5.5584,24.1821
5.5584,24.1820
5.5151,24.1531
5.5151,24.1531
5.4355,24.0999
5.4355,24.0999
5.2989,24.0433
5.2989,24.0433
5.1539,24.0145
5.1539,24.0145
5.0061,24.0145
5.0061,24.0145
4.8611,24.0433
4.8611,24.0433
4.7245,24.0999
4.7245,24.0999
4.6016,24.1820
4.6016,24.1821
4.4971,24.2866
4.4970,24.2866
4.4149,24.4095
4.4149,24.4095
4.3583,24.5461
4.3583,24.5461
4.3295,24.6911
4.3295,24.6911
4.3295,24.8389
4.3295,24.8389
4.3295,24.8389
0.5005,24.8389
0.5005,10.8689
11.9495,10.8689
11.9783,11.0139
11.9783,11.0139
12.0349,11.1505
12.0349,11.1505
12.1170,11.2734
12.1171,11.2734
12.2216,11.3779
12.2216,11.3780
12.3445,11.4601
12.3445,11.4601
12.4811,11.5167
12.4811,11.5167
12.4811,11.5167
12.4811,11.5167
12.6261,11.5455
12.6261,11.5455
12.7739,11.5455
12.8715,11.5261
12.9189,11.5167
13.0555,11.4601
13.1784,11.3780
13.2830,11.2734
13.3651,11.1505
13.4217,11.0139
13.4505,10.8689
14.4895,10.8689
14.5183,11.0139
14.5183,11.0139
14.5749,11.1505
14.5749,11.1505
14.6570,11.2734
14.6571,11.2734
14.7616,11.3779
14.7616,11.3780
14.8845,11.4601
14.8845,11.4601
15.0211,11.5167
15.0211,11.5167
15.0211,11.5167
15.0211,11.5167
15.1661,11.5455
15.1661,11.5455
15.3139,11.5455
15.4115,11.5261
15.4589,11.5167
15.5955,11.4601
15.7184,11.3780
15.8230,11.2734
15.9051,11.1505
15.9617,11.0139
15.9905,10.8689
17.0295,10.8689
17.0583,11.0139
17.0583,11.0139
17.1149,11.1505
17.1149,11.1505
17.1970,11.2734
17.1971,11.2734
17.3016,11.3779
17.3016,11.3780
17.4245,11.4601
17.4245,11.4601
17.5611,11.5167
17.5611,11.5167
17.5611,11.5167
17.5611,11.5167
17.7061,11.5455
17.7061,11.5455
17.8539,11.5455
17.9515,11.5261
17.9989,11.5167
18.1355,11.4601
18.2584,11.3780
18.3630,11.2734
18.4451,11.1505
18.5017,11.0139
18.5305,10.8689
19.5695,10.8689
19.5983,11.0139
19.5983,11.0139
19.6549,11.1505
19.6549,11.1505
19.7370,11.2734
19.7371,11.2734
19.8416,11.3779
19.8416,11.3780
19.9645,11.4601
19.9645,11.4601
20.1011,11.5167
20.1011,11.5167
20.1011,11.5167
20.1011,11.5167
20.2461,11.5455
20.2461,11.5455
20.3939,11.5455
20.4915,11.5261
20.5389,11.5167
20.6755,11.4601
20.7984,11.3780
20.9030,11.2734
20.9851,11.1505
21.0417,11.0139
21.0705,10.8689
24.6495,10.8689
24.6783,11.0139
24.6783,11.0139
24.7349,11.1505
24.7349,11.1505
24.8170,11.2734
24.8171,11.2734
24.9216,11.3779
24.9216,11.3780
25.0445,11.4601
25.0445,11.4601
25.1811,11.5167
25.1811,11.5167
25.1811,11.5167
25.1811,11.5167
25.3261,11.5455
25.3261,11.5455
25.4739,11.5455
25.5715,11.5261
25.6189,11.5167
25.7555,11.4601
25.8784,11.3780
25.9830,11.2734
26.0651,11.1505
26.1217,11.0139
26.1505,10.8689
27.1895,10.8689
27.2183,11.0139
27.2183,11.0139
27.2749,11.1505
27.2749,11.1505
27.3570,11.2734
27.3571,11.2734
27.4616,11.3779
27.4616,11.3780
27.5845,11.4601
27.5845,11.4601
27.7211,11.5167
27.7211,11.5167
27.7211,11.5167
27.7211,11.5167
27.8661,11.5455
27.8661,11.5455
28.0139,11.5455
28.1115,11.5261
28.1589,11.5167
28.2955,11.4601
28.4184,11.3780
28.5230,11.2734
28.6051,11.1505
28.6617,11.0139
28.6905,10.8689
29.7295,10.8689
29.7583,11.0139
29.7583,11.0139
29.8149,11.1505
29.8149,11.1505
29.8970,11.2734
29.8971,11.2734
30.0016,11.3779
30.0016,11.3780
30.1245,11.4601
30.1245,11.4601
30.2611,11.5167
30.2611,11.5167
30.2611,11.5167
30.2611,11.5167
30.4061,11.5455
30.4061,11.5455
30.5539,11.5455
30.6515,11.5261
30.6989,11.5167
30.8355,11.4601
30.9584,11.3780
31.0630,11.2734
31.1451,11.1505
31.2017,11.0139
31.2305,10.8689
32.2695,10.8689
32.2983,11.0139
32.2983,11.0139
32.3549,11.1505
32.3549,11.1505
32.4370,11.2734
32.4371,11.2734
32.5416,11.3779
32.5416,11.3780
32.6645,11.4601
32.6645,11.4601
32.8011,11.5167
32.8011,11.5167
32.8011,11.5167
32.8011,11.5167
32.9461,11.5455
32.9461,11.5455
33.0939,11.5455
33.1915,11.5261
33.2389,11.5167
33.3755,11.4601
33.4984,11.3780
33.6030,11.2734
33.6851,11.1505
33.7417,11.0139
33.7705,10.8689
34.8095,10.8689
34.8383,11.0139
34.8383,11.0139
34.8949,11.1505
34.8949,11.1505
34.9770,11.2734
34.9771,11.2734
35.0816,11.3779
35.0816,11.3780
35.2045,11.4601
35.2045,11.4601
35.3411,11.5167
35.3411,11.5167
35.3411,11.5167
35.3411,11.5167
35.4861,11.5455
35.4861,11.5455
35.6339,11.5455
35.7315,11.5261
35.7789,11.5167
35.9155,11.4601
36.0384,11.3780
36.1430,11.2734
36.2251,11.1505
36.2817,11.0139
36.3105,10.8689
37.3495,10.8689
37.3783,11.0139
37.3783,11.0139
37.4349,11.1505
37.4349,11.1505
37.5170,11.2734
37.5171,11.2734
37.6216,11.3779
37.6216,11.3780
37.7445,11.4601
37.7445,11.4601
37.8811,11.5167
37.8811,11.5167
37.8811,11.5167
37.8811,11.5167
38.0261,11.5455
38.0261,11.5455
38.1739,11.5455
38.2715,11.5261
38.3189,11.5167
38.4555,11.4601
38.5784,11.3780
38.6830,11.2734
38.7651,11.1505
38.8217,11.0139
38.8505,10.8689
39.8895,10.8689
39.9183,11.0139
39.9183,11.0139
39.9749,11.1505
39.9749,11.1505
40.0570,11.2734
40.0571,11.2734
40.1616,11.3779
40.1616,11.3780
40.2845,11.4601
40.2845,11.4601
40.4211,11.5167
40.4211,11.5167
40.4211,11.5167
40.4211,11.5167
40.5661,11.5455
40.5661,11.5455
40.7139,11.5455
40.8115,11.5261
40.8589,11.5167
40.9955,11.4601
41.1184,11.3780
41.2230,11.2734
41.3051,11.1505
41.3617,11.0139
41.3905,10.8689
44.9695,10.8689
44.9983,11.0139
44.9983,11.0139
45.0549,11.1505
45.0549,11.1505
45.1370,11.2734
45.1371,11.2734
45.2416,11.3779
45.2416,11.3780
45.3645,11.4601
45.3645,11.4601
45.5011,11.5167
45.5011,11.5167
45.5011,11.5167
45.5011,11.5167
45.6461,11.5455
45.6461,11.5455
45.7939,11.5455
45.8915,11.5261
45.9389,11.5167
46.0755,11.4601
46.1984,11.3780
46.3030,11.2734
46.3851,11.1505
46.4417,11.0139
46.4705,10.8689
47.5095,10.8689
47.5383,11.0139
47.5383,11.0139
47.5949,11.1505
47.5949,11.1505
47.6770,11.2734
47.6771,11.2734
47.7816,11.3779
47.7816,11.3780
47.9045,11.4601
47.9045,11.4601
48.0411,11.5167
48.0411,11.5167
48.0411,11.5167
48.0411,11.5167
48.1861,11.5455
48.1861,11.5455
48.3339,11.5455
48.4315,11.5261
48.4789,11.5167
48.6155,11.4601
48.7384,11.3780
48.8430,11.2734
48.9251,11.1505
48.9817,11.0139
49.0105,10.8689
50.0495,10.8689
50.0783,11.0139
50.0783,11.0139
50.1349,11.1505
50.1349,11.1505
50.2170,11.2734
50.2171,11.2734
50.3216,11.3779
50.3216,11.3780
50.4445,11.4601
50.4445,11.4601
50.5811,11.5167
50.5811,11.5167
50.5811,11.5167
50.5811,11.5167
50.7261,11.5455
50.7261,11.5455
50.8739,11.5455
50.9715,11.5261
51.0189,11.5167
51.1555,11.4601
51.2784,11.3780
51.3830,11.2734
51.4651,11.1505
51.5217,11.0139
51.5505,10.8689
52.5895,10.8689
52.6183,11.0139
52.6183,11.0139
52.6749,11.1505
52.6749,11.1505
52.7570,11.2734
52.7571,11.2734
52.8616,11.3779
52.8616,11.3780
52.9845,11.4601
52.9845,11.4601
53.1211,11.5167
53.1211,11.5167
53.1211,11.5167
53.1211,11.5167
53.2661,11.5455
53.2661,11.5455
53.4139,11.5455
53.5115,11.5261
53.5589,11.5167
53.6955,11.4601
53.8184,11.3780
53.9230,11.2734
54.0051,11.1505
54.0617,11.0139
54.0905,10.8689
55.1295,10.8689
55.1583,11.0139
55.1583,11.0139
55.2149,11.1505
55.2149,11.1505
55.2970,11.2734
55.2971,11.2734
55.4016,11.3779
55.4016,11.3780
55.5245,11.4601
55.5245,11.4601
55.6611,11.5167
55.6611,11.5167
55.6611,11.5167
55.6611,11.5167
55.8061,11.5455
55.8061,11.5455
55.9539,11.5455
56.0515,11.5261
56.0989,11.5167
56.2355,11.4601
56.3584,11.3780
56.4630,11.2734
56.5451,11.1505
56.6017,11.0139
56.6305,10.8689
57.6695,10.8689
57.6983,11.0139
57.6983,11.0139
57.7549,11.1505
57.7549,11.1505
57.8370,11.2734
57.8371,11.2734
57.9416,11.3779
57.9416,11.3780
58.0645,11.4601
58.0645,11.4601
58.2011,11.5167
58.2011,11.5167
58.2011,11.5167
58.2011,11.5167
58.3461,11.5455
58.3461,11.5455
58.4939,11.5455
58.5915,11.5261
58.6389,11.5167
58.7755,11.4601
58.8984,11.3780
59.0030,11.2734
59.0851,11.1505
59.1417,11.0139
59.1705,10.8689
59.1705,10.7211
59.1705,10.7211
59.1417,10.5761
59.1417,10.5761
59.1417,10.5761
59.1417,10.5761
59.0851,10.4395
59.0851,10.4395
59.0030,10.3166
59.0029,10.3166
58.8984,10.2121
58.8984,10.2120
58.7755,10.1299
58.7755,10.1299
58.6389,10.0733
58.6389,10.0733
58.4939,10.0445
58.4939,10.0445
58.3461,10.0445
58.3461,10.0445
58.2011,10.0733
58.2011,10.0733
58.0645,10.1299
58.0645,10.1299
57.9416,10.2120
57.9416,10.2121
57.8371,10.3166
57.8370,10.3166
57.7549,10.4395
57.7549,10.4395
57.6983,10.5761
57.6983,10.5761
57.6695,10.7211
57.6695,10.7211
57.6695,10.8689
57.6695,10.8689
57.6695,10.8689
56.6305,10.8689
56.6305,10.8689
56.6305,10.7211
56.6305,10.7211
56.6017,10.5761
56.6017,10.5761
56.6017,10.5761
56.6017,10.5761
56.5451,10.4395
56.5451,10.4395
56.4630,10.3166
56.4629,10.3166
56.3584,10.2121
56.3584,10.2120
56.2355,10.1299
56.2355,10.1299
56.0989,10.0733
56.0989,10.0733
55.9539,10.0445
55.9539,10.0445
55.8061,10.0445
55.8061,10.0445
55.6611,10.0733
55.6611,10.0733
55.5245,10.1299
55.5245,10.1299
55.4016,10.2120
55.4016,10.2121
55.2971,10.3166
55.2970,10.3166
55.2149,10.4395
55.2149,10.4395
55.1583,10.5761
55.1583,10.5761
55.1295,10.7211
55.1295,10.7211
55.1295,10.8689
55.1295,10.8689
55.1295,10.8689
54.0905,10.8689
54.0905,10.8689
54.0905,10.7211
54.0905,10.7211
54.0617,10.5761
54.0617,10.5761
54.0617,10.5761
54.0617,10.5761
54.0051,10.4395
54.0051,10.4395
53.9230,10.3166
53.9229,10.3166
53.8184,10.2121
53.8184,10.2120
53.6955,10.1299
53.6955,10.1299
53.5589,10.0733
53.5589,10.0733
53.4139,10.0445
53.4139,10.0445
53.2661,10.0445
53.2661,10.0445
53.1211,10.0733
53.1211,10.0733
52.9845,10.1299
52.9845,10.1299
52.8616,10.2120
52.8616,10.2121
52.7571,10.3166
52.7570,10.3166
52.6749,10.4395
52.6749,10.4395
52.6183,10.5761
52.6183,10.5761
52.5895,10.7211
52.5895,10.7211
52.5895,10.8689
52.5895,10.8689
52.5895,10.8689
51.5505,10.8689
51.5505,10.8689
51.5505,10.7211
51.5505,10.7211
51.5217,10.5761
51.5217,10.5761
51.5217,10.5761
51.5217,10.5761
51.4651,10.4395
51.4651,10.4395
51.3830,10.3166
51.3829,10.3166
51.2784,10.2121
51.2784,10.2120
51.1555,10.1299
51.1555,10.1299
51.0189,10.0733
51.0189,10.0733
50.8739,10.0445
50.8739,10.0445
50.7261,10.0445
50.7261,10.0445
50.5811,10.0733
50.5811,10.0733
50.4445,10.1299
50.4445,10.1299
50.3216,10.2120
50.3216,10.2121
50.2171,10.3166
50.2170,10.3166
50.1349,10.4395
50.1349,10.4395
50.0783,10.5761
50.0783,10.5761
50.0495,10.7211
50.0495,10.7211
50.0495,10.8689
50.0495,10.8689
50.0495,10.8689
49.0105,10.8689
49.0105,10.8689
49.0105,10.7211
49.0105,10.7211
48.9817,10.5761
48.9817,10.5761
48.9817,10.5761
48.9817,10.5761
48.9251,10.4395
48.9251,10.4395
48.8430,10.3166
48.8429,10.3166
48.7384,10.2121
48.7384,10.2120
48.6155,10.1299
48.6155,10.1299
48.4789,10.0733
48.4789,10.0733
48.3339,10.0445
48.3339,10.0445
48.1861,10.0445
48.1861,10.0445
48.0411,10.0733
48.0411,10.0733
47.9045,10.1299
47.9045,10.1299
47.7816,10.2120
47.7816,10.2121
47.6771,10.3166
47.6770,10.3166
47.5949,10.4395
47.5949,10.4395
47.5383,10.5761
47.5383,10.5761
47.5095,10.7211
47.5095,10.7211
47.5095,10.8689
47.5095,10.8689
47.5095,10.8689
46.4705,10.8689
46.4705,10.8689
46.4705,10.7211
46.4705,10.7211
46.4417,10.5761
46.4417,10.5761
46.4417,10.5761
46.4417,10.5761
46.3851,10.4395
46.3851,10.4395
46.3030,10.3166
46.3029,10.3166
46.1984,10.2121
46.1984,10.2120
46.0755,10.1299
46.0755,10.1299
45.9389,10.0733
45.9389,10.0733
45.7939,10.0445
45.7939,10.0445
45.6461,10.0445
45.6461,10.0445
45.5011,10.0733
45.5011,10.0733
45.3645,10.1299
45.3645,10.1299
45.2416,10.2120
45.2416,10.2121
45.1371,10.3166
45.1370,10.3166
45.0549,10.4395
45.0549,10.4395
44.9983,10.5761
44.9983,10.5761
44.9695,10.7211
44.9695,10.7211
44.9695,10.8689
44.9695,10.8689
44.9695,10.8689
41.3905,10.8689
41.3905,10.8689
41.3905,10.7211
41.3905,10.7211
41.3617,10.5761
41.3617,10.5761
41.3617,10.5761
41.3617,10.5761
41.3051,10.4395
41.3051,10.4395
41.2230,10.3166
41.2229,10.3166
41.1184,10.2121
41.1184,10.2120
40.9955,10.1299
40.9955,10.1299
40.8589,10.0733
40.8589,10.0733
40.7139,10.0445
40.7139,10.0445
40.5661,10.0445
40.5661,10.0445
40.4211,10.0733
40.4211,10.0733
40.2845,10.1299
40.2845,10.1299
40.1616,10.2120
40.1616,10.2121
40.0571,10.3166
40.0570,10.3166
39.9749,10.4395
39.9749,10.4395
39.9183,10.5761
39.9183,10.5761
39.8895,10.7211
39.8895,10.7211
39.8895,10.8689
39.8895,10.8689
39.8895,10.8689
38.8505,10.8689
38.8505,10.8689
38.8505,10.7211
38.8505,10.7211
38.8217,10.5761
38.8217,10.5761
38.8217,10.5761
38.8217,10.5761
38.7651,10.4395
38.7651,10.4395
38.6830,10.3166
38.6829,10.3166
38.5784,10.2121
38.5784,10.2120
38.4555,10.1299
38.4555,10.1299
38.3189,10.0733
38.3189,10.0733
38.1739,10.0445
38.1739,10.0445
38.0261,10.0445
38.0261,10.0445
37.8811,10.0733
37.8811,10.0733
37.7445,10.1299
37.7445,10.1299
37.6216,10.2120
37.6216,10.2121
37.5171,10.3166
37.5170,10.3166
37.4349,10.4395
37.4349,10.4395
37.3783,10.5761
37.3783,10.5761
37.3495,10.7211
37.3495,10.7211
37.3495,10.8689
37.3495,10.8689
37.3495,10.8689
36.3105,10.8689
36.3105,10.8689
36.3105,10.7211
36.3105,10.7211
36.2817,10.5761
36.2817,10.5761
36.2817,10.5761
36.2817,10.5761
36.2251,10.4395
36.2251,10.4395
36.1430,10.3166
36.1429,10.3166
36.0384,10.2121
36.0384,10.2120
35.9155,10.1299
35.9155,10.1299
35.7789,10.0733
35.7789,10.0733
35.6339,10.0445
35.6339,10.0445
35.4861,10.0445
35.4861,10.0445
35.3411,10.0733
35.3411,10.0733
35.2045,10.1299
35.2045,10.1299
35.0816,10.2120
35.0816,10.2121
34.9771,10.3166
34.9770,10.3166
34.8949,10.4395
34.8949,10.4395
34.8383,10.5761
34.8383,10.5761
34.8095,10.7211
34.8095,10.7211
34.8095,10.8689
34.8095,10.8689
34.8095,10.8689
33.7705,10.8689
33.7705,10.8689
33.7705,10.7211
33.7705,10.7211
33.7417,10.5761
33.7417,10.5761
33.7417,10.5761
33.7417,10.5761
33.6851,10.4395
33.6851,10.4395
33.6030,10.3166
33.6029,10.3166
33.4984,10.2121
33.4984,10.2120
33.3755,10.1299
33.3755,10.1299
33.2389,10.0733
33.2389,10.0733
33.0939,10.0445
33.0939,10.0445
32.9461,10.0445
32.9461,10.0445
32.8011,10.0733
32.8011,10.0733
32.6645,10.1299
32.6645,10.1299
32.5416,10.2120
32.5416,10.2121
32.4371,10.3166
32.4370,10.3166
32.3549,10.4395
32.3549,10.4395
32.2983,10.5761
32.2983,10.5761
32.2695,10.7211
32.2695,10.7211
32.2695,10.8689
32.2695,10.8689
32.2695,10.8689
31.2305,10.8689
31.2305,10.8689
31.2305,10.7211
31.2305,10.7211
31.2017,10.5761
31.2017,10.5761
31.2017,10.5761
31.2017,10.5761
31.1451,10.4395
31.1451,10.4395
31.0630,10.3166
31.0629,10.3166
30.9584,10.2121
30.9584,10.2120
30.8355,10.1299
30.8355,10.1299
30.6989,10.0733
30.6989,10.0733
30.5539,10.0445
30.5539,10.0445
30.4061,10.0445
30.4061,10.0445
30.2611,10.0733
30.2611,10.0733
30.1245,10.1299
30.1245,10.1299
30.0016,10.2120
30.0016,10.2121
29.8971,10.3166
29.8970,10.3166
29.8149,10.4395
29.8149,10.4395
29.7583,10.5761
29.7583,10.5761
29.7295,10.7211
29.7295,10.7211
29.7295,10.8689
29.7295,10.8689
29.7295,10.8689
28.6905,10.8689
28.6905,10.8689
28.6905,10.7211
28.6905,10.7211
28.6617,10.5761
28.6617,10.5761
28.6617,10.5761
28.6617,10.5761
28.6051,10.4395
28.6051,10.4395
28.5230,10.3166
28.5229,10.3166
28.4184,10.2121
28.4184,10.2120
28.2955,10.1299
28.2955,10.1299
28.1589,10.0733
28.1589,10.0733
28.0139,10.0445
28.0139,10.0445
27.8661,10.0445
27.8661,10.0445
27.7211,10.0733
27.7211,10.0733
27.5845,10.1299
27.5845,10.1299
27.4616,10.2120
27.4616,10.2121
27.3571,10.3166
27.3570,10.3166
27.2749,10.4395
27.2749,10.4395
27.2183,10.5761
27.2183,10.5761
27.1895,10.7211
27.1895,10.7211
27.1895,10.8689
27.1895,10.8689
27.1895,10.8689
26.1505,10.8689
26.1505,10.8689
26.1505,10.7211
26.1505,10.7211
26.1217,10.5761
26.1217,10.5761
26.1217,10.5761
26.1217,10.5761
26.0651,10.4395
26.0651,10.4395
25.9830,10.3166
25.9829,10.3166
25.8784,10.2121
25.8784,10.2120
25.7555,10.1299
25.7555,10.1299
25.6189,10.0733
25.6189,10.0733
25.4739,10.0445
25.4739,10.0445
25.3261,10.0445
25.3261,10.0445
25.1811,10.0733
25.1811,10.0733
25.0445,10.1299
25.0445,10.1299
24.9216,10.2120
24.9216,10.2121
24.8171,10.3166
24.8170,10.3166
24.7349,10.4395
24.7349,10.4395
24.6783,10.5761
24.6783,10.5761
24.6495,10.7211
24.6495,10.7211
24.6495,10.8689
24.6495,10.8689
24.6495,10.8689
21.0705,10.8689
21.0705,10.8689
21.0705,10.7211
21.0705,10.7211
21.0417,10.5761
21.0417,10.5761
21.0417,10.5761
21.0417,10.5761
20.9851,10.4395
20.9851,10.4395
20.9030,10.3166
20.9029,10.3166
20.7984,10.2121
20.7984,10.2120
20.6755,10.1299
20.6755,10.1299
20.5389,10.0733
20.5389,10.0733
20.3939,10.0445
20.3939,10.0445
20.2461,10.0445
20.2461,10.0445
20.1011,10.0733
20.1011,10.0733
19.9645,10.1299
19.9645,10.1299
19.8416,10.2120
19.8416,10.2121
19.7371,10.3166
19.7370,10.3166
19.6549,10.4395
19.6549,10.4395
19.5983,10.5761
19.5983,10.5761
19.5695,10.7211
19.5695,10.7211
19.5695,10.8689
19.5695,10.8689
19.5695,10.8689
18.5305,10.8689
18.5305,10.8689
18.5305,10.7211
18.5305,10.7211
18.5017,10.5761
18.5017,10.5761
18.5017,10.5761
18.5017,10.5761
18.4451,10.4395
18.4451,10.4395
18.3630,10.3166
18.3629,10.3166
18.2584,10.2121
18.2584,10.2120
18.1355,10.1299
18.1355,10.1299
17.9989,10.0733
17.9989,10.0733
17.8539,10.0445
17.8539,10.0445
17.7061,10.0445
17.7061,10.0445
17.5611,10.0733
17.5611,10.0733
17.4245,10.1299
17.4245,10.1299
17.3016,10.2120
17.3016,10.2121
17.1971,10.3166
17.1970,10.3166
17.1149,10.4395
17.1149,10.4395
17.0583,10.5761
17.0583,10.5761
17.0295,10.7211
17.0295,10.7211
17.0295,10.8689
17.0295,10.8689
17.0295,10.8689
15.9905,10.8689
15.9905,10.8689
15.9905,10.7211
15.9905,10.7211
15.9617,10.5761
15.9617,10.5761
15.9617,10.5761
15.9617,10.5761
15.9051,10.4395
15.9051,10.4395
15.8230,10.3166
15.8229,10.3166
15.7184,10.2121
15.7184,10.2120
15.5955,10.1299
15.5955,10.1299
15.4589,10.0733
15.4589,10.0733
15.3139,10.0445
15.3139,10.0445
15.1661,10.0445
15.1661,10.0445
15.0211,10.0733
15.0211,10.0733
14.8845,10.1299
14.8845,10.1299
14.7616,10.2120
14.7616,10.2121
14.6571,10.3166
14.6570,10.3166
14.5749,10.4395
14.5749,10.4395
14.5183,10.5761
14.5183,10.5761
14.4895,10.7211
14.4895,10.7211
14.4895,10.8689
14.4895,10.8689
14.4895,10.8689
13.4505,10.8689
13.4505,10.8689
13.4505,10.7211
13.4505,10.7211
13.4217,10.5761
13.4217,10.5761
13.4217,10.5761
13.4217,10.5761
13.3651,10.4395
13.3651,10.4395
13.2830,10.3166
13.2829,10.3166
13.1784,10.2121
13.1784,10.2120
13.0555,10.1299
13.0555,10.1299
12.9189,10.0733
12.9189,10.0733
12.7739,10.0445
12.7739,10.0445
12.6261,10.0445
12.6261,10.0445
12.4811,10.0733
12.4811,10.0733
12.3445,10.1299
12.3445,10.1299
12.2216,10.2120
12.2216,10.2121
12.1171,10.3166
12.1170,10.3166
12.0349,10.4395
12.0349,10.4395
11.9783,10.5761
11.9783,10.5761
11.9495,10.7211
11.9495,10.7211
11.9495,10.8689
11.9495,10.8689
11.9495,10.8689
0.5005,10.8689
0.5005,9.4591
33.7895,9.4591
33.7895,9.5909
33.8236,9.7182
33.8566,9.7752
33.8895,9.8323
33.9827,9.9255
34.0968,9.9914
34.2241,10.0255
34.2241,10.0255
34.3559,10.0255
34.3559,10.0255
34.4832,9.9914
34.5973,9.9255
34.6905,9.8323
34.7564,9.7182
34.7905,9.5909
34.7905,9.4591
34.7564,9.3318
34.6905,9.2177
34.5973,9.1245
34.5403,9.0916
34.4832,9.0586
34.4195,9.0416
34.3559,9.0245
34.2241,9.0245
34.0968,9.0586
33.9827,9.1245
33.9827,9.1245
33.8895,9.2177
33.8895,9.2177
33.8236,9.3318
33.7895,9.4591
0.5005,9.4591
0.5005,8.3289
11.9495,8.3289
11.9783,8.4739
11.9783,8.4739
12.0349,8.6105
12.0349,8.6105
12.1170,8.7334
12.1171,8.7334
12.2216,8.8379
12.2216,8.8380
12.3445,8.9201
12.3445,8.9201
12.4811,8.9767
12.4811,8.9767
12.4811,8.9767
12.4811,8.9767
12.6261,9.0055
12.6261,9.0055
12.7739,9.0055
12.8715,8.9861
12.9189,8.9767
13.0555,8.9201
13.1784,8.8380
13.2830,8.7334
13.3651,8.6105
13.4217,8.4739
13.4505,8.3289
14.4895,8.3289
14.5183,8.4739
14.5183,8.4739
14.5749,8.6105
14.5749,8.6105
14.6570,8.7334
14.6571,8.7334
14.7616,8.8379
14.7616,8.8380
14.8845,8.9201
14.8845,8.9201
15.0211,8.9767
15.0211,8.9767
15.0211,8.9767
15.0211,8.9767
15.1661,9.0055
15.1661,9.0055
15.3139,9.0055
15.4115,8.9861
15.4589,8.9767
15.5955,8.9201
15.7184,8.8380
15.8230,8.7334
15.9051,8.6105
15.9617,8.4739
15.9905,8.3289
19.5695,8.3289
19.5983,8.4739
19.5983,8.4739
19.6549,8.6105
19.6549,8.6105
19.7370,8.7334
19.7371,8.7334
19.8416,8.8379
19.8416,8.8380
19.9645,8.9201
19.9645,8.9201
20.1011,8.9767
20.1011,8.9767
20.1011,8.9767
20.1011,8.9767
20.2461,9.0055
20.2461,9.0055
20.3939,9.0055
20.4915,8.9861
20.5389,8.9767
20.6755,8.9201
20.7984,8.8380
20.9030,8.7334
20.9851,8.6105
21.0417,8.4739
21.0705,8.3289
22.1095,8.3289
22.1383,8.4739
22.1383,8.4739
22.1949,8.6105
22.1949,8.6105
22.2770,8.7334
22.2771,8.7334
22.3816,8.8379
22.3816,8.8380
22.5045,8.9201
22.5045,8.9201
22.6411,8.9767
22.6411,8.9767
22.6411,8.9767
22.6411,8.9767
22.7861,9.0055
22.7861,9.0055
22.9339,9.0055
23.0315,8.9861
23.0789,8.9767
23.2155,8.9201
23.3384,8.8380
23.4430,8.7334
23.5251,8.6105
23.5817,8.4739
23.6105,8.3289
24.6495,8.3289
24.6783,8.4739
24.6783,8.4739
24.7349,8.6105
24.7349,8.6105
24.8170,8.7334
24.8171,8.7334
24.9216,8.8379
24.9216,8.8380
25.0445,8.9201
25.0445,8.9201
25.1811,8.9767
25.1811,8.9767
25.1811,8.9767
25.1811,8.9767
25.3261,9.0055
25.3261,9.0055
25.4739,9.0055
25.5715,8.9861
25.6189,8.9767
25.7555,8.9201
25.8784,8.8380
25.9830,8.7334
26.0651,8.6105
26.1217,8.4739
26.1505,8.3289
29.7295,8.3289
29.7583,8.4739
29.7583,8.4739
29.8149,8.6105
29.8149,8.6105
29.8970,8.7334
29.8971,8.7334
30.0016,8.8379
30.0016,8.8380
30.1245,8.9201
30.1245,8.9201
30.2611,8.9767
30.2611,8.9767
30.2611,8.9767
30.2611,8.9767
30.4061,9.0055
30.4061,9.0055
30.5539,9.0055
30.6515,8.9861
30.6989,8.9767
30.8355,8.9201
30.9584,8.8380
31.0630,8.7334
31.1451,8.6105
31.2017,8.4739
31.2305,8.3289
32.2695,8.3289
32.2983,8.4739
32.2983,8.4739
32.3549,8.6105
32.3549,8.6105
32.4370,8.7334
32.4371,8.7334
32.5416,8.8379
32.5416,8.8380
32.6645,8.9201
32.6645,8.9201
32.8011,8.9767
32.8011,8.9767
32.8011,8.9767
32.8011,8.9767
32.9461,9.0055
32.9461,9.0055
33.0939,9.0055
33.1915,8.9861
33.2389,8.9767
33.3755,8.9201
33.4984,8.8380
33.6030,8.7334
33.6851,8.6105
33.7417,8.4739
33.7705,8.3289
37.3495,8.3289
37.3783,8.4739
37.3783,8.4739
37.4349,8.6105
37.4349,8.6105
37.5170,8.7334
37.5171,8.7334
37.6216,8.8379
37.6216,8.8380
37.7445,8.9201
37.7445,8.9201
37.8811,8.9767
37.8811,8.9767
37.8811,8.9767
37.8811,8.9767
38.0261,9.0055
38.0261,9.0055
38.1739,9.0055
38.2715,8.9861
38.3189,8.9767
38.4555,8.9201
38.5784,8.8380
38.6830,8.7334
38.7651,8.6105
38.8217,8.4739
38.8505,8.3289
39.8895,8.3289
39.9183,8.4739
39.9183,8.4739
39.9749,8.6105
39.9749,8.6105
40.0570,8.7334
40.0571,8.7334
40.1616,8.8379
40.1616,8.8380
40.2845,8.9201
40.2845,8.9201
40.4211,8.9767
40.4211,8.9767
40.4211,8.9767
40.4211,8.9767
40.5661,9.0055
40.5661,9.0055
40.7139,9.0055
40.8115,8.9861
40.8589,8.9767
40.9955,8.9201
41.1184,8.8380
41.2230,8.7334
41.3051,8.6105
41.3617,8.4739
41.3905,8.3289
42.4295,8.3289
42.4583,8.4739
42.4583,8.4739
42.5149,8.6105
42.5149,8.6105
42.5970,8.7334
42.5971,8.7334
42.7016,8.8379
42.7016,8.8380
42.8245,8.9201
42.8245,8.9201
42.9611,8.9767
42.9611,8.9767
42.9611,8.9767
42.9611,8.9767
43.1061,9.0055
43.1061,9.0055
43.2539,9.0055
43.3515,8.9861
43.3989,8.9767
43.5355,8.9201
43.6584,8.8380
43.7630,8.7334
43.8451,8.6105
43.9017,8.4739
43.9305,8.3289
44.9695,8.3289
44.9983,8.4739
44.9983,8.4739
45.0549,8.6105
45.0549,8.6105
45.1370,8.7334
45.1371,8.7334
45.2416,8.8379
45.2416,8.8380
45.3645,8.9201
45.3645,8.9201
45.5011,8.9767
45.5011,8.9767
45.5011,8.9767
45.5011,8.9767
45.6461,9.0055
45.6461,9.0055
45.7939,9.0055
45.8915,8.9861
45.9389,8.9767
46.0755,8.9201
46.1984,8.8380
46.3030,8.7334
46.3851,8.6105
46.4417,8.4739
46.4705,8.3289
50.0495,8.3289
50.0783,8.4739
50.0783,8.4739
50.1349,8.6105
50.1349,8.6105
50.2170,8.7334
50.2171,8.7334
50.3216,8.8379
50.3216,8.8380
50.4445,8.9201
50.4445,8.9201
50.5811,8.9767
50.5811,8.9767
50.5811,8.9767
50.5811,8.9767
50.7261,9.0055
50.7261,9.0055
50.8739,9.0055
50.9715,8.9861
51.0189,8.9767
51.1555,8.9201
51.2784,8.8380
51.3830,8.7334
51.4651,8.6105
51.5217,8.4739
51.5505,8.3289
55.1295,8.3289
55.1583,8.4739
55.1583,8.4739
55.2149,8.6105
55.2149,8.6105
55.2970,8.7334
55.2971,8.7334
55.4016,8.8379
55.4016,8.8380
55.5245,8.9201
55.5245,8.9201
55.6611,8.9767
55.6611,8.9767
55.6611,8.9767
55.6611,8.9767
55.8061,9.0055
55.8061,9.0055
55.9539,9.0055
56.0515,8.9861
56.0989,8.9767
56.2355,8.9201
56.3584,8.8380
56.4630,8.7334
56.5451,8.6105
56.6017,8.4739
56.6305,8.3289
57.6695,8.3289
57.6983,8.4739
57.6983,8.4739
57.7549,8.6105
57.7549,8.6105
57.8370,8.7334
57.8371,8.7334
57.9416,8.8379
57.9416,8.8380
58.0645,8.9201
58.0645,8.9201
58.2011,8.9767
58.2011,8.9767
58.2011,8.9767
58.2011,8.9767
58.3461,9.0055
58.3461,9.0055
58.4939,9.0055
58.5915,8.9861
58.6389,8.9767
58.7755,8.9201
58.8984,8.8380
59.0030,8.7334
59.0851,8.6105
59.1417,8.4739
59.1705,8.3289
60.2095,8.3289
60.2383,8.4739
60.2383,8.4739
60.2949,8.6105
60.2949,8.6105
60.3770,8.7334
60.3771,8.7334
60.4816,8.8379
60.4816,8.8380
60.6045,8.9201
60.6045,8.9201
60.7411,8.9767
60.7411,8.9767
60.7411,8.9767
60.7411,8.9767
60.8861,9.0055
60.8861,9.0055
61.0339,9.0055
61.1315,8.9861
61.1789,8.9767
61.3155,8.9201
61.4384,8.8380
61.5430,8.7334
61.6251,8.6105
61.6817,8.4739
61.7105,8.3289
61.7105,8.1811
61.7105,8.1811
61.6817,8.0361
61.6817,8.0361
61.6817,8.0361
61.6817,8.0361
61.6251,7.8995
61.6251,7.8995
61.5430,7.7766
61.5429,7.7766
61.4384,7.6721
61.4384,7.6720
61.3155,7.5899
61.3155,7.5899
61.1789,7.5333
61.1789,7.5333
61.0339,7.5045
61.0339,7.5045
60.8861,7.5045
60.8861,7.5045
60.7411,7.5333
60.7411,7.5333
60.6045,7.5899
60.6045,7.5899
60.4816,7.6720
60.4816,7.6721
60.3771,7.7766
60.3770,7.7766
60.2949,7.8995
60.2949,7.8995
60.2383,8.0361
60.2383,8.0361
60.2095,8.1811
60.2095,8.1811
60.2095,8.3289
60.2095,8.3289
60.2095,8.3289
59.1705,8.3289
59.1705,8.3289
59.1705,8.1811
59.1705,8.1811
59.1417,8.0361
59.1417,8.0361
59.1417,8.0361
59.1417,8.0361
59.0851,7.8995
59.0851,7.8995
59.0030,7.7766
59.0029,7.7766
58.8984,7.6721
58.8984,7.6720
58.7755,7.5899
58.7755,7.5899
58.6389,7.5333
58.6389,7.5333
58.4939,7.5045
58.4939,7.5045
58.3461,7.5045
58.3461,7.5045
58.2011,7.5333
58.2011,7.5333
58.0645,7.5899
58.0645,7.5899
57.9416,7.6720
57.9416,7.6721
57.8371,7.7766
57.8370,7.7766
57.7549,7.8995
57.7549,7.8995
57.6983,8.0361
57.6983,8.0361
57.6695,8.1811
57.6695,8.1811
57.6695,8.3289
57.6695,8.3289
57.6695,8.3289
56.6305,8.3289
56.6305,8.3289
56.6305,8.1811
56.6305,8.1811
56.6017,8.0361
56.6017,8.0361
56.6017,8.0361
56.6017,8.0361
56.5451,7.8995
56.5451,7.8995
56.4630,7.7766
56.4629,7.7766
56.3584,7.6721
56.3584,7.6720
56.2355,7.5899
56.2355,7.5899
56.0989,7.5333
56.0989,7.5333
55.9539,7.5045
55.9539,7.5045
55.8061,7.5045
55.8061,7.5045
55.6611,7.5333
55.6611,7.5333
55.5245,7.5899
55.5245,7.5899
55.4016,7.6720
55.4016,7.6721
55.2971,7.7766
55.2970,7.7766
55.2149,7.8995
55.2149,7.8995
55.1583,8.0361
55.1583,8.0361
55.1295,8.1811
55.1295,8.1811
55.1295,8.3289
55.1295,8.3289
55.1295,8.3289
51.5505,8.3289
51.5505,8.3289
51.5505,8.1811
51.5505,8.1811
51.5217,8.0361
51.5217,8.0361
51.5217,8.0361
51.5217,8.0361
51.4651,7.8995
51.4651,7.8995
51.3830,7.7766
51.3829,7.7766
51.2784,7.6721
51.2784,7.6720
51.1555,7.5899
51.1555,7.5899
51.0189,7.5333
51.0189,7.5333
50.8739,7.5045
50.8739,7.5045
50.7261,7.5045
50.7261,7.5045
50.5811,7.5333
50.5811,7.5333
50.4445,7.5899
50.4445,7.5899
50.3216,7.6720
50.3216,7.6721
50.2171,7.7766
50.2170,7.7766
50.1349,7.8995
50.1349,7.8995
50.0783,8.0361
50.0783,8.0361
50.0495,8.1811
50.0495,8.1811
50.0495,8.3289
50.0495,8.3289
50.0495,8.3289
46.4705,8.3289
46.4705,8.3289
46.4705,8.1811
46.4705,8.1811
46.4417,8.0361
46.4417,8.0361
46.4417,8.0361
46.4417,8.0361
46.3851,7.8995
46.3851,7.8995
46.3030,7.7766
46.3029,7.7766
46.1984,7.6721
46.1984,7.6720
46.0755,7.5899
46.0755,7.5899
45.9389,7.5333
45.9389,7.5333
45.7939,7.5045
45.7939,7.5045
45.6461,7.5045
45.6461,7.5045
45.5011,7.5333
45.5011,7.5333
45.3645,7.5899
45.3645,7.5899
45.2416,7.6720
45.2416,7.6721
45.1371,7.7766
45.1370,7.7766
45.0549,7.8995
45.0549,7.8995
44.9983,8.0361
44.9983,8.0361
44.9695,8.1811
44.9695,8.1811
44.9695,8.3289
44.9695,8.3289
44.9695,8.3289
43.9305,8.3289
43.9305,8.3289
43.9305,8.1811
43.9305,8.1811
43.9017,8.0361
43.9017,8.0361
43.9017,8.0361
43.9017,8.0361
43.8451,7.8995
43.8451,7.8995
43.7630,7.7766
43.7629,7.7766
43.6584,7.6721
43.6584,7.6720
43.5355,7.5899
43.5355,7.5899
43.3989,7.5333
43.3989,7.5333
43.2539,7.5045
43.2539,7.5045
43.1061,7.5045
43.1061,7.5045
42.9611,7.5333
42.9611,7.5333
42.8245,7.5899
42.8245,7.5899
42.7016,7.6720
42.7016,7.6721
42.5971,7.7766
42.5970,7.7766
42.5149,7.8995
42.5149,7.8995
42.4583,8.0361
42.4583,8.0361
42.4295,8.1811
42.4295,8.1811
42.4295,8.3289
42.4295,8.3289
42.4295,8.3289
41.3905,8.3289
41.3905,8.3289
41.3905,8.1811
41.3905,8.1811
41.3617,8.0361
41.3617,8.0361
41.3617,8.0361
41.3617,8.0361
41.3051,7.8995
41.3051,7.8995
41.2230,7.7766
41.2229,7.7766
41.1184,7.6721
41.1184,7.6720
40.9955,7.5899
40.9955,7.5899
40.8589,7.5333
40.8589,7.5333
40.7139,7.5045
40.7139,7.5045
40.5661,7.5045
40.5661,7.5045
40.4211,7.5333
40.4211,7.5333
40.2845,7.5899
40.2845,7.5899
40.1616,7.6720
40.1616,7.6721
40.0571,7.7766
40.0570,7.7766
39.9749,7.8995
39.9749,7.8995
39.9183,8.0361
39.9183,8.0361
39.8895,8.1811
39.8895,8.1811
39.8895,8.3289
39.8895,8.3289
39.8895,8.3289
38.8505,8.3289
38.8505,8.3289
38.8505,8.1811
38.8505,8.1811
38.8217,8.0361
38.8217,8.0361
38.8217,8.0361
38.8217,8.0361
38.7651,7.8995
38.7651,7.8995
38.6830,7.7766
38.6829,7.7766
38.5784,7.6721
38.5784,7.6720
38.4555,7.5899
38.4555,7.5899
38.3189,7.5333
38.3189,7.5333
38.1739,7.5045
38.1739,7.5045
38.0261,7.5045
38.0261,7.5045
37.8811,7.5333
37.8811,7.5333
37.7445,7.5899
37.7445,7.5899
37.6216,7.6720
37.6216,7.6721
37.5171,7.7766
37.5170,7.7766
37.4349,7.8995
37.4349,7.8995
37.3783,8.0361
37.3783,8.0361
37.3495,8.1811
37.3495,8.1811
37.3495,8.3289
37.3495,8.3289
37.3495,8.3289
33.7705,8.3289
33.7705,8.3289
33.7705,8.1811
33.7705,8.1811
33.7417,8.0361
33.7417,8.0361
33.7417,8.0361
33.7417,8.0361
33.6851,7.8995
33.6851,7.8995
33.6030,7.7766
33.6029,7.7766
33.4984,7.6721
33.4984,7.6720
33.3755,7.5899
33.3755,7.5899
33.2389,7.5333
33.2389,7.5333
33.0939,7.5045
33.0939,7.5045
32.9461,7.5045
32.9461,7.5045
32.8011,7.5333
32.8011,7.5333
32.6645,7.5899
32.6645,7.5899
32.5416,7.6720
32.5416,7.6721
32.4371,7.7766
32.4370,7.7766
32.3549,7.8995
32.3549,7.8995
32.2983,8.0361
32.2983,8.0361
32.2695,8.1811
32.2695,8.1811
32.2695,8.3289
32.2695,8.3289
32.2695,8.3289
31.2305,8.3289
31.2305,8.3289
31.2305,8.1811
31.2305,8.1811
31.2017,8.0361
31.2017,8.0361
31.2017,8.0361
31.2017,8.0361
31.1451,7.8995
31.1451,7.8995
31.0630,7.7766
31.0629,7.7766
30.9584,7.6721
30.9584,7.6720
30.8355,7.5899
30.8355,7.5899
30.6989,7.5333
30.6989,7.5333
30.5539,7.5045
30.5539,7.5045
30.4061,7.5045
30.4061,7.5045
30.2611,7.5333
30.2611,7.5333
30.1245,7.5899
30.1245,7.5899
30.0016,7.6720
30.0016,7.6721
29.8971,7.7766
29.8970,7.7766
29.8149,7.8995
29.8149,7.8995
29.7583,8.0361
29.7583,8.0361
29.7295,8.1811
29.7295,8.1811
29.7295,8.3289
29.7295,8.3289
29.7295,8.3289
26.1505,8.3289
26.1505,8.3289
26.1505,8.1811
26.1505,8.1811
26.1217,8.0361
26.1217,8.0361
26.1217,8.0361
26.1217,8.0361
26.0651,7.8995
26.0651,7.8995
25.9830,7.7766
25.9829,7.7766
25.8784,7.6721
25.8784,7.6720
25.7555,7.5899
25.7555,7.5899
25.6189,7.5333
25.6189,7.5333
25.4739,7.5045
25.4739,7.5045
25.3261,7.5045
25.3261,7.5045
25.1811,7.5333
25.1811,7.5333
25.0445,7.5899
25.0445,7.5899
24.9216,7.6720
24.9216,7.6721
24.8171,7.7766
24.8170,7.7766
24.7349,7.8995
24.7349,7.8995
24.6783,8.0361
24.6783,8.0361
24.6495,8.1811
24.6495,8.1811
24.6495,8.3289
24.6495,8.3289
24.6495,8.3289
23.6105,8.3289
23.6105,8.3289
23.6105,8.1811
23.6105,8.1811
23.5817,8.0361
23.5817,8.0361
23.5817,8.0361
23.5817,8.0361
23.5251,7.8995
23.5251,7.8995
23.4430,7.7766
23.4429,7.7766
23.3384,7.6721
23.3384,7.6720
23.2155,7.5899
23.2155,7.5899
23.0789,7.5333
23.0789,7.5333
22.9339,7.5045
22.9339,7.5045
22.7861,7.5045
22.7861,7.5045
22.6411,7.5333
22.6411,7.5333
22.5045,7.5899
22.5045,7.5899
22.3816,7.6720
22.3816,7.6721
22.2771,7.7766
22.2770,7.7766
22.1949,7.8995
22.1949,7.8995
22.1383,8.0361
22.1383,8.0361
22.1095,8.1811
22.1095,8.1811
22.1095,8.3289
22.1095,8.3289
22.1095,8.3289
21.0705,8.3289
21.0705,8.3289
21.0705,8.1811
21.0705,8.1811
21.0417,8.0361
21.0417,8.0361
21.0417,8.0361
21.0417,8.0361
20.9851,7.8995
20.9851,7.8995
20.9030,7.7766
20.9029,7.7766
20.7984,7.6721
20.7984,7.6720
20.6755,7.5899
20.6755,7.5899
20.5389,7.5333
20.5389,7.5333
20.3939,7.5045
20.3939,7.5045
20.2461,7.5045
20.2461,7.5045
20.1011,7.5333
20.1011,7.5333
19.9645,7.5899
19.9645,7.5899
19.8416,7.6720
19.8416,7.6721
19.7371,7.7766
19.7370,7.7766
19.6549,7.8995
19.6549,7.8995
19.5983,8.0361
19.5983,8.0361
19.5695,8.1811
19.5695,8.1811
19.5695,8.3289
19.5695,8.3289
19.5695,8.3289
15.9905,8.3289
15.9905,8.3289
15.9905,8.1811
15.9905,8.1811
15.9617,8.0361
15.9617,8.0361
15.9617,8.0361
15.9617,8.0361
15.9051,7.8995
15.9051,7.8995
15.8230,7.7766
15.8229,7.7766
15.7184,7.6721
15.7184,7.6720
15.5955,7.5899
15.5955,7.5899
15.4589,7.5333
15.4589,7.5333
15.3139,7.5045
15.3139,7.5045
15.1661,7.5045
15.1661,7.5045
15.0211,7.5333
15.0211,7.5333
14.8845,7.5899
14.8845,7.5899
14.7616,7.6720
14.7616,7.6721
14.6571,7.7766
14.6570,7.7766
14.5749,7.8995
14.5749,7.8995
14.5183,8.0361
14.5183,8.0361
14.4895,8.1811
14.4895,8.1811
14.4895,8.3289
14.4895,8.3289
14.4895,8.3289
13.4505,8.3289
13.4505,8.3289
13.4505,8.1811
13.4505,8.1811
13.4217,8.0361
13.4217,8.0361
13.4217,8.0361
13.4217,8.0361
13.3651,7.8995
13.3651,7.8995
13.2830,7.7766
13.2829,7.7766
13.1784,7.6721
13.1784,7.6720
13.0555,7.5899
13.0555,7.5899
12.9189,7.5333
12.9189,7.5333
12.7739,7.5045
12.7739,7.5045
12.6261,7.5045
12.6261,7.5045
12.4811,7.5333
12.4811,7.5333
12.3445,7.5899
12.3445,7.5899
12.2216,7.6720
12.2216,7.6721
12.1171,7.7766
12.1170,7.7766
12.0349,7.8995
12.0349,7.8995
11.9783,8.0361
11.9783,8.0361
11.9495,8.1811
11.9495,8.1811
11.9495,8.3289
11.9495,8.3289
11.9495,8.3289
0.5005,8.3289
0.5005,3.6887
1.9595,3.6887
1.9595,3.9313
1.9912,4.1718
2.0539,4.4061
2.1468,4.6302
2.1468,4.6302
2.2681,4.8403
2.2681,4.8403
2.2681,4.8403
2.4157,5.0327
2.4157,5.0327
2.5873,5.2043
2.5873,5.2043
2.7797,5.3519
2.9898,5.4732
3.2139,5.5661
3.4482,5.6288
3.6286,5.6526
3.6887,5.6605
3.6887,5.6605
3.9313,5.6605
3.9794,5.6542
4.1718,5.6288
4.4061,5.5661
4.6302,5.4732
4.8403,5.3519
5.0327,5.2043
5.2043,5.0327
5.3519,4.8403
5.4732,4.6302
5.5661,4.4061
5.6288,4.1718
5.6605,3.9313
5.6605,3.6887
5.6605,3.6887
70.5395,3.6887
70.5395,3.9313
70.5712,4.1718
70.6339,4.4061
70.7268,4.6302
70.7268,4.6302
70.8481,4.8403
70.8481,4.8403
70.8481,4.8403
70.9957,5.0327
70.9957,5.0327
71.1673,5.2043
71.1673,5.2043
71.3597,5.3519
71.5698,5.4732
71.7939,5.5661
72.0282,5.6288
72.2086,5.6526
72.2687,5.6605
72.2687,5.6605
72.5113,5.6605
72.5594,5.6542
72.7518,5.6288
72.9861,5.5661
73.2102,5.4732
73.4203,5.3519
73.6127,5.2043
73.7843,5.0327
73.9319,4.8403
74.0532,4.6302
74.1461,4.4061
74.2088,4.1718
74.2405,3.9313
74.2405,3.6887
74.2088,3.4482
74.1461,3.2139
74.0532,2.9898
73.9319,2.7797
73.7843,2.5873
73.7843,2.5873
73.6127,2.4157
73.6127,2.4157
73.4203,2.2681
73.4203,2.2681
73.4203,2.2681
73.2102,2.1468
73.2102,2.1468
72.9861,2.0539
72.7518,1.9912
72.5113,1.9595
72.5113,1.9595
72.2687,1.9595
72.2687,1.9595
72.0282,1.9912
71.7939,2.0539
71.5698,2.1468
71.5698,2.1468
71.3597,2.2681
71.1673,2.4157
71.1673,2.4157
70.9957,2.5873
70.9957,2.5873
70.8481,2.7797
70.7268,2.9898
70.7268,2.9898
70.6339,3.2139
70.5712,3.4482
70.5395,3.6887
5.6605,3.6887
5.6288,3.4482
5.5661,3.2139
5.4732,2.9898
5.3519,2.7797
5.2043,2.5873
5.2043,2.5873
5.0327,2.4157
5.0327,2.4157
4.8403,2.2681
4.8403,2.2681
4.8403,2.2681
4.6302,2.1468
4.6302,2.1468
4.4061,2.0539
4.1718,1.9912
3.9313,1.9595
3.9313,1.9595
3.6887,1.9595
3.6887,1.9595
3.4482,1.9912
3.2139,2.0539
2.9898,2.1468
2.9898,2.1468
2.7797,2.2681
2.5873,2.4157
2.5873,2.4157
2.4157,2.5873
2.4157,2.5873
2.2681,2.7797
2.1468,2.9898
2.1468,2.9898
2.0539,3.2139
1.9912,3.4482
1.9595,3.6887
0.5005,3.6887
0.5005,0.6245
0.5202,0.5575
0.5730,0.5117
0.6245,0.5005
75.3755,0.5005
Z" /> 
</g>
<g style="fill:none; 
stroke:#D0D2CD; stroke-width:0.1500; stroke-opacity:1; 
stroke-linecap:round; stroke-linejoin:round;">
<path d="M0.0000 0.0000
L76.0000 0.0000
" />
<path d="M0.0000 58.0000
L0.0000 0.0000
" />
<path d="M76.0000 0.0000
L76.0000 58.0000
" />
<path d="M76.0000 58.0000
L0.0000 58.0000
" />
</g>
<g style="fill:#FFFFFF; fill-opacity:1.0000; stroke:none;">
<circle cx="28.5750" cy="50.8000" r="0.1500" /> 
<circle cx="16.5100" cy="28.5750" r="0.1500" /> 
<circle cx="15.2400" cy="31.1150" r="0.1500" /> 
<circle cx="43.1800" cy="38.1000" r="0.1500" /> 
<circle cx="45.7200" cy="52.7050" r="0.1500" /> 
<circle cx="20.3200" cy="38.1000" r="0.1500" /> 
<circle cx="34.2900" cy="9.5250" r="0.1500" /> 
<circle cx="46.9900" cy="50.1650" r="0.1500" /> 
<circle cx="36.8300" cy="36.8300" r="0.1500" /> 
<circle cx="33.0200" cy="50.1650" r="0.1500" /> 
<circle cx="39.3700" cy="38.1000" r="0.1500" /> 
<circle cx="38.1000" cy="50.1650" r="0.1500" /> 
<circle cx="45.0850" cy="41.9100" r="0.1500" /> 
<circle cx="44.4500" cy="40.6400" r="0.1500" /> 
</g>
<g style="fill:#FFFFFF; fill-opacity:1.0000; stroke:none;">
<circle cx="5.0800" cy="24.7650" r="0.5000" /> 
</g>
<g style="fill:#FFFFFF; fill-opacity:1.0000; stroke:none;">
<circle cx="5.0800" cy="27.3050" r="0.5000" /> 
</g>
<g style="fill:#FFFFFF; fill-opacity:1.0000; stroke:none;">
<circle cx="5.0800" cy="29.8450" r="0.5000" /> 
</g>
<g style="fill:#000000; fill-opacity:1.0000; stroke:none;">
<circle cx="72.3900" cy="54.6100" r="1.6000" /> 
</g>
<g style="fill:#FFFFFF; fill-opacity:1.0000; stroke:none;">
<circle cx="64.7700" cy="43.1800" r="0.4000" /> 
</g>
<g style="fill:#FFFFFF; fill-opacity:1.0000; stroke:none;">
<circle cx="67.2700" cy="43.1800" r="0.4000" /> 
</g>
<g style="fill:#FFFFFF; fill-opacity:1.0000; stroke:none;">
<circle cx="13.9700" cy="50.8000" r="0.5000" /> 
</g>
<g style="fill:#FFFFFF; fill-opacity:1.0000; stroke:none;">
<circle cx="16.5100" cy="50.8000" r="0.5000" /> 
</g>
<g style="fill:#FFFFFF; fill-opacity:1.0000; stroke:none;">
<circle cx="19.0500" cy="50.8000" r="0.5000" /> 
</g>
<g style="fill:#FFFFFF; fill-opacity:1.0000; stroke:none;">
<circle cx="21.5900" cy="50.8000" r="0.5000" /> 
</g>
<g style="fill:#FFFFFF; fill-opacity:1.0000; stroke:none;">
<circle cx="12.7000" cy="10.7950" r="0.5000" /> 
</g>
<g style="fill:#FFFFFF; fill-opacity:1.0000; stroke:none;">
<circle cx="12.7000" cy="8.2550" r="0.5000" /> 
</g>
<g style="fill:#FFFFFF; fill-opacity:1.0000; stroke:none;">
<circle cx="15.2400" cy="10.7950" r="0.5000" /> 
</g>
<g style="fill:#FFFFFF; fill-opacity:1.0000; stroke:none;">
<circle cx="15.2400" cy="8.2550" r="0.5000" /> 
</g>
<g style="fill:#FFFFFF; fill-opacity:1.0000; stroke:none;">
<circle cx="17.7800" cy="10.7950" r="0.5000" /> 
</g>
<g style="fill:#FFFFFF; fill-opacity:1.0000; stroke:none;">
<circle cx="17.7800" cy="8.2550" r="0.5000" /> 
</g>
<g style="fill:#FFFFFF; fill-opacity:1.0000; stroke:none;">
<circle cx="20.3200" cy="10.7950" r="0.5000" /> 
</g>
<g style="fill:#FFFFFF; fill-opacity:1.0000; stroke:none;">
<circle cx="20.3200" cy="8.2550" r="0.5000" /> 
</g>
<g style="fill:#FFFFFF; fill-opacity:1.0000; stroke:none;">
<circle cx="22.8600" cy="10.7950" r="0.5000" /> 
</g>
<g style="fill:#FFFFFF; fill-opacity:1.0000; stroke:none;">
<circle cx="22.8600" cy="8.2550" r="0.5000" /> 
</g>
<g style="fill:#FFFFFF; fill-opacity:1.0000; stroke:none;">
<circle cx="25.4000" cy="10.7950" r="0.5000" /> 
</g>
<g style="fill:#FFFFFF; fill-opacity:1.0000; stroke:none;">
<circle cx="25.4000" cy="8.2550" r="0.5000" /> 
</g>
<g style="fill:#FFFFFF; fill-opacity:1.0000; stroke:none;">
<circle cx="27.9400" cy="10.7950" r="0.5000" /> 
</g>
<g style="fill:#FFFFFF; fill-opacity:1.0000; stroke:none;">
<circle cx="27.9400" cy="8.2550" r="0.5000" /> 
</g>
<g style="fill:#FFFFFF; fill-opacity:1.0000; stroke:none;">
<circle cx="30.4800" cy="10.7950" r="0.5000" /> 
</g>
<g style="fill:#FFFFFF; fill-opacity:1.0000; stroke:none;">
<circle cx="30.4800" cy="8.2550" r="0.5000" /> 
</g>
<g style="fill:#FFFFFF; fill-opacity:1.0000; stroke:none;">
<circle cx="33.0200" cy="10.7950" r="0.5000" /> 
</g>
<g style="fill:#FFFFFF; fill-opacity:1.0000; stroke:none;">
<circle cx="33.0200" cy="8.2550" r="0.5000" /> 
</g>
<g style="fill:#FFFFFF; fill-opacity:1.0000; stroke:none;">
<circle cx="35.5600" cy="10.7950" r="0.5000" /> 
</g>
<g style="fill:#FFFFFF; fill-opacity:1.0000; stroke:none;">
<circle cx="35.5600" cy="8.2550" r="0.5000" /> 
</g>
<g style="fill:#FFFFFF; fill-opacity:1.0000; stroke:none;">
<circle cx="38.1000" cy="10.7950" r="0.5000" /> 
</g>
<g style="fill:#FFFFFF; fill-opacity:1.0000; stroke:none;">
<circle cx="38.1000" cy="8.2550" r="0.5000" /> 
</g>
<g style="fill:#FFFFFF; fill-opacity:1.0000; stroke:none;">
<circle cx="40.6400" cy="10.7950" r="0.5000" /> 
</g>
<g style="fill:#FFFFFF; fill-opacity:1.0000; stroke:none;">
<circle cx="40.6400" cy="8.2550" r="0.5000" /> 
</g>
<g style="fill:#FFFFFF; fill-opacity:1.0000; stroke:none;">
<circle cx="43.1800" cy="10.7950" r="0.5000" /> 
</g>
<g style="fill:#FFFFFF; fill-opacity:1.0000; stroke:none;">
<circle cx="43.1800" cy="8.2550" r="0.5000" /> 
</g>
<g style="fill:#FFFFFF; fill-opacity:1.0000; stroke:none;">
<circle cx="45.7200" cy="10.7950" r="0.5000" /> 
</g>
<g style="fill:#FFFFFF; fill-opacity:1.0000; stroke:none;">
<circle cx="45.7200" cy="8.2550" r="0.5000" /> 
</g>
<g style="fill:#FFFFFF; fill-opacity:1.0000; stroke:none;">
<circle cx="48.2600" cy="10.7950" r="0.5000" /> 
</g>
<g style="fill:#FFFFFF; fill-opacity:1.0000; stroke:none;">
<circle cx="48.2600" cy="8.2550" r="0.5000" /> 
</g>
<g style="fill:#FFFFFF; fill-opacity:1.0000; stroke:none;">
<circle cx="50.8000" cy="10.7950" r="0.5000" /> 
</g>
<g style="fill:#FFFFFF; fill-opacity:1.0000; stroke:none;">
<circle cx="50.8000" cy="8.2550" r="0.5000" /> 
</g>
<g style="fill:#FFFFFF; fill-opacity:1.0000; stroke:none;">
<circle cx="53.3400" cy="10.7950" r="0.5000" /> 
</g>
<g style="fill:#FFFFFF; fill-opacity:1.0000; stroke:none;">
<circle cx="53.3400" cy="8.2550" r="0.5000" /> 
</g>
<g style="fill:#FFFFFF; fill-opacity:1.0000; stroke:none;">
<circle cx="55.8800" cy="10.7950" r="0.5000" /> 
</g>
<g style="fill:#FFFFFF; fill-opacity:1.0000; stroke:none;">
<circle cx="55.8800" cy="8.2550" r="0.5000" /> 
</g>
<g style="fill:#FFFFFF; fill-opacity:1.0000; stroke:none;">
<circle cx="58.4200" cy="10.7950" r="0.5000" /> 
</g>
<g style="fill:#FFFFFF; fill-opacity:1.0000; stroke:none;">
<circle cx="58.4200" cy="8.2550" r="0.5000" /> 
</g>
<g style="fill:#FFFFFF; fill-opacity:1.0000; stroke:none;">
<circle cx="60.9600" cy="10.7950" r="0.5000" /> 
</g>
<g style="fill:#FFFFFF; fill-opacity:1.0000; stroke:none;">
<circle cx="60.9600" cy="8.2550" r="0.5000" /> 
</g>
<g style="fill:#FFFFFF; fill-opacity:1.0000; stroke:none;">
<circle cx="69.8500" cy="24.1300" r="0.5000" /> 
</g>
<g style="fill:#FFFFFF; fill-opacity:1.0000; stroke:none;">
<circle cx="69.8500" cy="26.6700" r="0.5000" /> 
</g>
<g style="fill:#FFFFFF; fill-opacity:1.0000; stroke:none;">
<circle cx="69.8500" cy="29.2100" r="0.5000" /> 
</g>
<g style="fill:#FFFFFF; fill-opacity:1.0000; stroke:none;">
<circle cx="69.8500" cy="31.7500" r="0.5000" /> 
</g>
<g style="fill:#FFFFFF; fill-opacity:1.0000; stroke:none;">
<circle cx="69.8500" cy="34.2900" r="0.5000" /> 
</g>
<g style="fill:#FFFFFF; fill-opacity:1.0000; stroke:none;">
<circle cx="69.8500" cy="36.8300" r="0.5000" /> 
</g>
<g style="fill:#FFFFFF; fill-opacity:1.0000; stroke:none;">
<circle cx="69.8500" cy="39.3700" r="0.5000" /> 
</g>
<g style="fill:#000000; fill-opacity:1.0000; stroke:none;">
<circle cx="3.8100" cy="3.8100" r="1.6000" /> 
</g>
<g style="fill:#FFFFFF; fill-opacity:1.0000; stroke:none;">
<circle cx="5.0800" cy="34.9250" r="0.5000" /> 
</g>
<g style="fill:#FFFFFF; fill-opacity:1.0000; stroke:none;">
<circle cx="5.0800" cy="37.4650" r="0.5000" /> 
</g>
<g style="fill:#FFFFFF; fill-opacity:1.0000; stroke:none;">
<circle cx="5.0800" cy="40.0050" r="0.5000" /> 
</g>
<g style="fill:#FFFFFF; fill-opacity:1.0000; stroke:none;">
<circle cx="15.8750" cy="45.0850" r="0.4000" /> 
</g>
<g style="fill:#FFFFFF; fill-opacity:1.0000; stroke:none;">
<circle cx="26.0350" cy="45.0850" r="0.4000" /> 
</g>
<g style="fill:#000000; fill-opacity:1.0000; stroke:none;">
<circle cx="72.3900" cy="3.8100" r="1.6000" /> 
<circle cx="3.8100" cy="54.6100" r="1.6000" /> 
</g> 
</svg>
