<?xml version="1.0" standalone="no"?>
 <!DOCTYPE svg PUBLIC "-//W3C//DTD SVG 1.1//EN" 
 "http://www.w3.org/Graphics/SVG/1.1/DTD/svg11.dtd"> 
<svg
  xmlns:svg="http://www.w3.org/2000/svg"
  xmlns="http://www.w3.org/2000/svg"
  xmlns:xlink="http://www.w3.org/1999/xlink"
  xmlns:inkscape="http://www.inkscape.org/namespaces/inkscape"
  version="1.1"
  width="75.9968mm" height="57.9882mm" viewBox="0.0000 0.0000 75.9968 57.9882">
<title>SVG Image created as In2_Cu.svg date 2026-06-24T02:04:30 </title>
  <desc>Image generated by PCBNEW </desc>
<g style="fill:#000000; fill-opacity:1.0000;stroke:#000000; stroke-opacity:1.0000;
stroke-linecap:round; stroke-linejoin:round;"
 transform="translate(0 0) scale(1 1)">
<path style="fill:#CE7D2C; fill-opacity:1.0000; stroke:none;fill-rule:evenodd;"
d="M 4.2300,25.6150
4.2300,23.9150
5.9300,23.9150
5.9300,25.6150
Z" /> 
</g>
<g style="fill:#CE7D2C; fill-opacity:1.0000; stroke:none;">
<circle cx="5.0800" cy="27.3050" r="0.8500" /> 
<path style="fill:#CE7D2C; fill-opacity:1.0000; stroke:none;fill-rule:evenodd;"
d="M 13.1200,51.6500
13.1200,49.9500
14.8200,49.9500
14.8200,51.6500
Z" /> 
<path style="fill:#CE7D2C; fill-opacity:1.0000; stroke:none;fill-rule:evenodd;"
d="M 11.8500,11.6450
11.8500,9.9450
13.5500,9.9450
13.5500,11.6450
Z" /> 
<circle cx="33.0200" cy="10.7950" r="0.8500" /> 
<circle cx="38.1000" cy="10.7950" r="0.8500" /> 
<circle cx="40.6400" cy="8.2550" r="0.8500" /> 
<circle cx="55.8800" cy="10.7950" r="0.8500" /> 
<circle cx="58.4200" cy="8.2550" r="0.8500" /> 
<path style="fill:#CE7D2C; fill-opacity:1.0000; stroke:none;fill-rule:evenodd;"
d="M 69.0000,24.9800
69.0000,23.2800
70.7000,23.2800
70.7000,24.9800
Z" /> 
<circle cx="28.5750" cy="50.8000" r="0.3000" /> 
<circle cx="16.5100" cy="28.5750" r="0.3000" /> 
<circle cx="15.2400" cy="31.1150" r="0.3000" /> 
<circle cx="43.1800" cy="38.1000" r="0.3000" /> 
<circle cx="45.7200" cy="52.7050" r="0.3000" /> 
<circle cx="20.3200" cy="38.1000" r="0.3000" /> 
<circle cx="34.2900" cy="9.5250" r="0.3000" /> 
<circle cx="46.9900" cy="50.1650" r="0.3000" /> 
<circle cx="36.8300" cy="36.8300" r="0.3000" /> 
<circle cx="33.0200" cy="50.1650" r="0.3000" /> 
<circle cx="39.3700" cy="38.1000" r="0.3000" /> 
<circle cx="38.1000" cy="50.1650" r="0.3000" /> 
<circle cx="45.0850" cy="41.9100" r="0.3000" /> 
<circle cx="44.4500" cy="40.6400" r="0.3000" /> 
</g>
<g style="fill:none; 
stroke:#CE7D2C; stroke-width:0.2500; stroke-opacity:1; 
stroke-linecap:round; stroke-linejoin:round;">
<path d="M42.5450 6.9850
L42.5450 6.3500
" />
<path d="M57.1500 8.2550
L57.1500 6.9850
" />
<path d="M42.5450 6.3500
L5.0800 6.3500
" />
<path d="M57.1500 6.9850
L42.5450 6.9850
" />
<path d="M58.4200 8.2550
L57.1500 8.2550
" />
<path d="M5.0800 6.3500
L5.0800 24.7650
" />
</g>
<g style="fill:none; 
stroke:#CE7D2C; stroke-width:0.4000; stroke-opacity:1; 
stroke-linecap:round; stroke-linejoin:round;">
<path d="M31.7500 9.5250
L31.7500 10.7950
" />
<path d="M12.7000 10.7950
L12.7000 9.5250
" />
<path d="M28.5750 12.0650
L28.5750 50.8000
" />
<path d="M12.7000 9.5250
L31.7500 9.5250
" />
<path d="M28.5750 27.3050
L5.0800 27.3050
" />
<path d="M29.2100 12.0650
L28.5750 12.0650
" />
<path d="M29.2100 9.5250
L29.2100 12.0650
" />
<path d="M31.7500 10.7950
L33.0200 10.7950
" />
</g>
<g style="fill:none; 
stroke:#CE7D2C; stroke-width:0.2500; stroke-opacity:1; 
stroke-linecap:round; stroke-linejoin:round;">
<path d="M13.9700 28.5750
L13.9700 50.8000
" />
<path d="M16.5100 28.5750
L13.9700 28.5750
" />
<path d="M20.3200 52.7050
L45.7200 52.7050
" />
<path d="M20.3200 38.1000
L20.3200 52.7050
" />
<path d="M41.9100 6.9850
L41.9100 50.1650
" />
<path d="M34.2900 6.9850
L41.9100 6.9850
" />
<path d="M41.9100 50.1650
L46.9900 50.1650
" />
<path d="M34.2900 9.5250
L34.2900 6.9850
" />
<path d="M36.8300 10.7950
L36.8300 12.0650
" />
<path d="M38.1000 10.7950
L36.8300 10.7950
" />
<path d="M33.0200 12.0650
L33.0200 50.1650
" />
<path d="M36.8300 12.0650
L33.0200 12.0650
" />
<path d="M39.3700 12.0650
L38.1000 12.0650
" />
<path d="M38.1000 12.0650
L38.1000 50.1650
" />
<path d="M39.3700 8.2550
L39.3700 12.0650
" />
<path d="M40.6400 8.2550
L39.3700 8.2550
" />
<path d="M44.4500 24.1300
L44.4500 40.6400
" />
<path d="M55.8800 10.7950
L55.8800 24.1300
" />
<path d="M55.8800 24.1300
L69.8500 24.1300
" />
<path d="M55.8800 24.1300
L44.4500 24.1300
" />
</g>
<g style="fill:none; 
stroke:#D0D2CD; stroke-width:0.1500; stroke-opacity:1; 
stroke-linecap:round; stroke-linejoin:round;">
<path d="M0.0000 0.0000
L76.0000 0.0000
" />
<path d="M0.0000 58.0000
L0.0000 0.0000
" />
<path d="M76.0000 0.0000
L76.0000 58.0000
" />
<path d="M76.0000 58.0000
L0.0000 58.0000
" />
</g>
<g style="fill:#FFFFFF; fill-opacity:1.0000; stroke:none;">
<circle cx="28.5750" cy="50.8000" r="0.1500" /> 
<circle cx="16.5100" cy="28.5750" r="0.1500" /> 
<circle cx="15.2400" cy="31.1150" r="0.1500" /> 
<circle cx="43.1800" cy="38.1000" r="0.1500" /> 
<circle cx="45.7200" cy="52.7050" r="0.1500" /> 
<circle cx="20.3200" cy="38.1000" r="0.1500" /> 
<circle cx="34.2900" cy="9.5250" r="0.1500" /> 
<circle cx="46.9900" cy="50.1650" r="0.1500" /> 
<circle cx="36.8300" cy="36.8300" r="0.1500" /> 
<circle cx="33.0200" cy="50.1650" r="0.1500" /> 
<circle cx="39.3700" cy="38.1000" r="0.1500" /> 
<circle cx="38.1000" cy="50.1650" r="0.1500" /> 
<circle cx="45.0850" cy="41.9100" r="0.1500" /> 
<circle cx="44.4500" cy="40.6400" r="0.1500" /> 
</g>
<g style="fill:#FFFFFF; fill-opacity:1.0000; stroke:none;">
<circle cx="5.0800" cy="24.7650" r="0.5000" /> 
</g>
<g style="fill:#FFFFFF; fill-opacity:1.0000; stroke:none;">
<circle cx="5.0800" cy="27.3050" r="0.5000" /> 
</g>
<g style="fill:#FFFFFF; fill-opacity:1.0000; stroke:none;">
<circle cx="5.0800" cy="29.8450" r="0.5000" /> 
</g>
<g style="fill:#000000; fill-opacity:1.0000; stroke:none;">
<circle cx="72.3900" cy="54.6100" r="1.6000" /> 
</g>
<g style="fill:#FFFFFF; fill-opacity:1.0000; stroke:none;">
<circle cx="64.7700" cy="43.1800" r="0.4000" /> 
</g>
<g style="fill:#FFFFFF; fill-opacity:1.0000; stroke:none;">
<circle cx="67.2700" cy="43.1800" r="0.4000" /> 
</g>
<g style="fill:#FFFFFF; fill-opacity:1.0000; stroke:none;">
<circle cx="13.9700" cy="50.8000" r="0.5000" /> 
</g>
<g style="fill:#FFFFFF; fill-opacity:1.0000; stroke:none;">
<circle cx="16.5100" cy="50.8000" r="0.5000" /> 
</g>
<g style="fill:#FFFFFF; fill-opacity:1.0000; stroke:none;">
<circle cx="19.0500" cy="50.8000" r="0.5000" /> 
</g>
<g style="fill:#FFFFFF; fill-opacity:1.0000; stroke:none;">
<circle cx="21.5900" cy="50.8000" r="0.5000" /> 
</g>
<g style="fill:#FFFFFF; fill-opacity:1.0000; stroke:none;">
<circle cx="12.7000" cy="10.7950" r="0.5000" /> 
</g>
<g style="fill:#FFFFFF; fill-opacity:1.0000; stroke:none;">
<circle cx="12.7000" cy="8.2550" r="0.5000" /> 
</g>
<g style="fill:#FFFFFF; fill-opacity:1.0000; stroke:none;">
<circle cx="15.2400" cy="10.7950" r="0.5000" /> 
</g>
<g style="fill:#FFFFFF; fill-opacity:1.0000; stroke:none;">
<circle cx="15.2400" cy="8.2550" r="0.5000" /> 
</g>
<g style="fill:#FFFFFF; fill-opacity:1.0000; stroke:none;">
<circle cx="17.7800" cy="10.7950" r="0.5000" /> 
</g>
<g style="fill:#FFFFFF; fill-opacity:1.0000; stroke:none;">
<circle cx="17.7800" cy="8.2550" r="0.5000" /> 
</g>
<g style="fill:#FFFFFF; fill-opacity:1.0000; stroke:none;">
<circle cx="20.3200" cy="10.7950" r="0.5000" /> 
</g>
<g style="fill:#FFFFFF; fill-opacity:1.0000; stroke:none;">
<circle cx="20.3200" cy="8.2550" r="0.5000" /> 
</g>
<g style="fill:#FFFFFF; fill-opacity:1.0000; stroke:none;">
<circle cx="22.8600" cy="10.7950" r="0.5000" /> 
</g>
<g style="fill:#FFFFFF; fill-opacity:1.0000; stroke:none;">
<circle cx="22.8600" cy="8.2550" r="0.5000" /> 
</g>
<g style="fill:#FFFFFF; fill-opacity:1.0000; stroke:none;">
<circle cx="25.4000" cy="10.7950" r="0.5000" /> 
</g>
<g style="fill:#FFFFFF; fill-opacity:1.0000; stroke:none;">
<circle cx="25.4000" cy="8.2550" r="0.5000" /> 
</g>
<g style="fill:#FFFFFF; fill-opacity:1.0000; stroke:none;">
<circle cx="27.9400" cy="10.7950" r="0.5000" /> 
</g>
<g style="fill:#FFFFFF; fill-opacity:1.0000; stroke:none;">
<circle cx="27.9400" cy="8.2550" r="0.5000" /> 
</g>
<g style="fill:#FFFFFF; fill-opacity:1.0000; stroke:none;">
<circle cx="30.4800" cy="10.7950" r="0.5000" /> 
</g>
<g style="fill:#FFFFFF; fill-opacity:1.0000; stroke:none;">
<circle cx="30.4800" cy="8.2550" r="0.5000" /> 
</g>
<g style="fill:#FFFFFF; fill-opacity:1.0000; stroke:none;">
<circle cx="33.0200" cy="10.7950" r="0.5000" /> 
</g>
<g style="fill:#FFFFFF; fill-opacity:1.0000; stroke:none;">
<circle cx="33.0200" cy="8.2550" r="0.5000" /> 
</g>
<g style="fill:#FFFFFF; fill-opacity:1.0000; stroke:none;">
<circle cx="35.5600" cy="10.7950" r="0.5000" /> 
</g>
<g style="fill:#FFFFFF; fill-opacity:1.0000; stroke:none;">
<circle cx="35.5600" cy="8.2550" r="0.5000" /> 
</g>
<g style="fill:#FFFFFF; fill-opacity:1.0000; stroke:none;">
<circle cx="38.1000" cy="10.7950" r="0.5000" /> 
</g>
<g style="fill:#FFFFFF; fill-opacity:1.0000; stroke:none;">
<circle cx="38.1000" cy="8.2550" r="0.5000" /> 
</g>
<g style="fill:#FFFFFF; fill-opacity:1.0000; stroke:none;">
<circle cx="40.6400" cy="10.7950" r="0.5000" /> 
</g>
<g style="fill:#FFFFFF; fill-opacity:1.0000; stroke:none;">
<circle cx="40.6400" cy="8.2550" r="0.5000" /> 
</g>
<g style="fill:#FFFFFF; fill-opacity:1.0000; stroke:none;">
<circle cx="43.1800" cy="10.7950" r="0.5000" /> 
</g>
<g style="fill:#FFFFFF; fill-opacity:1.0000; stroke:none;">
<circle cx="43.1800" cy="8.2550" r="0.5000" /> 
</g>
<g style="fill:#FFFFFF; fill-opacity:1.0000; stroke:none;">
<circle cx="45.7200" cy="10.7950" r="0.5000" /> 
</g>
<g style="fill:#FFFFFF; fill-opacity:1.0000; stroke:none;">
<circle cx="45.7200" cy="8.2550" r="0.5000" /> 
</g>
<g style="fill:#FFFFFF; fill-opacity:1.0000; stroke:none;">
<circle cx="48.2600" cy="10.7950" r="0.5000" /> 
</g>
<g style="fill:#FFFFFF; fill-opacity:1.0000; stroke:none;">
<circle cx="48.2600" cy="8.2550" r="0.5000" /> 
</g>
<g style="fill:#FFFFFF; fill-opacity:1.0000; stroke:none;">
<circle cx="50.8000" cy="10.7950" r="0.5000" /> 
</g>
<g style="fill:#FFFFFF; fill-opacity:1.0000; stroke:none;">
<circle cx="50.8000" cy="8.2550" r="0.5000" /> 
</g>
<g style="fill:#FFFFFF; fill-opacity:1.0000; stroke:none;">
<circle cx="53.3400" cy="10.7950" r="0.5000" /> 
</g>
<g style="fill:#FFFFFF; fill-opacity:1.0000; stroke:none;">
<circle cx="53.3400" cy="8.2550" r="0.5000" /> 
</g>
<g style="fill:#FFFFFF; fill-opacity:1.0000; stroke:none;">
<circle cx="55.8800" cy="10.7950" r="0.5000" /> 
</g>
<g style="fill:#FFFFFF; fill-opacity:1.0000; stroke:none;">
<circle cx="55.8800" cy="8.2550" r="0.5000" /> 
</g>
<g style="fill:#FFFFFF; fill-opacity:1.0000; stroke:none;">
<circle cx="58.4200" cy="10.7950" r="0.5000" /> 
</g>
<g style="fill:#FFFFFF; fill-opacity:1.0000; stroke:none;">
<circle cx="58.4200" cy="8.2550" r="0.5000" /> 
</g>
<g style="fill:#FFFFFF; fill-opacity:1.0000; stroke:none;">
<circle cx="60.9600" cy="10.7950" r="0.5000" /> 
</g>
<g style="fill:#FFFFFF; fill-opacity:1.0000; stroke:none;">
<circle cx="60.9600" cy="8.2550" r="0.5000" /> 
</g>
<g style="fill:#FFFFFF; fill-opacity:1.0000; stroke:none;">
<circle cx="69.8500" cy="24.1300" r="0.5000" /> 
</g>
<g style="fill:#FFFFFF; fill-opacity:1.0000; stroke:none;">
<circle cx="69.8500" cy="26.6700" r="0.5000" /> 
</g>
<g style="fill:#FFFFFF; fill-opacity:1.0000; stroke:none;">
<circle cx="69.8500" cy="29.2100" r="0.5000" /> 
</g>
<g style="fill:#FFFFFF; fill-opacity:1.0000; stroke:none;">
<circle cx="69.8500" cy="31.7500" r="0.5000" /> 
</g>
<g style="fill:#FFFFFF; fill-opacity:1.0000; stroke:none;">
<circle cx="69.8500" cy="34.2900" r="0.5000" /> 
</g>
<g style="fill:#FFFFFF; fill-opacity:1.0000; stroke:none;">
<circle cx="69.8500" cy="36.8300" r="0.5000" /> 
</g>
<g style="fill:#FFFFFF; fill-opacity:1.0000; stroke:none;">
<circle cx="69.8500" cy="39.3700" r="0.5000" /> 
</g>
<g style="fill:#000000; fill-opacity:1.0000; stroke:none;">
<circle cx="3.8100" cy="3.8100" r="1.6000" /> 
</g>
<g style="fill:#FFFFFF; fill-opacity:1.0000; stroke:none;">
<circle cx="5.0800" cy="34.9250" r="0.5000" /> 
</g>
<g style="fill:#FFFFFF; fill-opacity:1.0000; stroke:none;">
<circle cx="5.0800" cy="37.4650" r="0.5000" /> 
</g>
<g style="fill:#FFFFFF; fill-opacity:1.0000; stroke:none;">
<circle cx="5.0800" cy="40.0050" r="0.5000" /> 
</g>
<g style="fill:#FFFFFF; fill-opacity:1.0000; stroke:none;">
<circle cx="15.8750" cy="45.0850" r="0.4000" /> 
</g>
<g style="fill:#FFFFFF; fill-opacity:1.0000; stroke:none;">
<circle cx="26.0350" cy="45.0850" r="0.4000" /> 
</g>
<g style="fill:#000000; fill-opacity:1.0000; stroke:none;">
<circle cx="72.3900" cy="3.8100" r="1.6000" /> 
<circle cx="3.8100" cy="54.6100" r="1.6000" /> 
</g> 
</svg>
