<?xml version="1.0" standalone="no"?>
 <!DOCTYPE svg PUBLIC "-//W3C//DTD SVG 1.1//EN" 
 "http://www.w3.org/Graphics/SVG/1.1/DTD/svg11.dtd"> 
<svg
  xmlns:svg="http://www.w3.org/2000/svg"
  xmlns="http://www.w3.org/2000/svg"
  xmlns:xlink="http://www.w3.org/1999/xlink"
  xmlns:inkscape="http://www.inkscape.org/namespaces/inkscape"
  version="1.1"
  width="64.9986mm" height="54.9910mm" viewBox="0.0000 0.0000 64.9986 54.9910">
<title>SVG Image created as pitalk_pcb.svg date 2026-06-07T01:42:14 </title>
  <desc>Image generated by PCBNEW </desc>
<g style="fill:#000000; fill-opacity:1.0000;stroke:#000000; stroke-opacity:1.0000;
stroke-linecap:round; stroke-linejoin:round;"
 transform="translate(0 0) scale(1 1)">
<path style="fill:#C83434; fill-opacity:1.0000; stroke:none;fill-rule:evenodd;"
d="M 57.1500,46.4000
57.1690,46.3043
57.2232,46.2232
57.3043,46.1690
57.4000,46.1500
58.6000,46.1500
58.6957,46.1690
58.7768,46.2232
58.8310,46.3043
58.8500,46.4000
58.8500,47.6000
58.8310,47.6957
58.7768,47.7768
58.6957,47.8310
58.6000,47.8500
57.4000,47.8500
57.3043,47.8310
57.2232,47.7768
57.1690,47.6957
57.1500,47.6000
Z" /> 
</g>
<g style="fill:#C83434; fill-opacity:1.0000; stroke:none;">
<circle cx="58.0000" cy="49.5400" r="0.8500" /> 
<circle cx="55.4600" cy="47.0000" r="0.8500" /> 
<circle cx="55.4600" cy="49.5400" r="0.8500" /> 
<circle cx="52.9200" cy="47.0000" r="0.8500" /> 
<circle cx="52.9200" cy="49.5400" r="0.8500" /> 
<circle cx="50.3800" cy="47.0000" r="0.8500" /> 
<circle cx="50.3800" cy="49.5400" r="0.8500" /> 
<circle cx="47.8400" cy="47.0000" r="0.8500" /> 
<circle cx="47.8400" cy="49.5400" r="0.8500" /> 
<circle cx="45.3000" cy="47.0000" r="0.8500" /> 
<circle cx="45.3000" cy="49.5400" r="0.8500" /> 
<circle cx="42.7600" cy="47.0000" r="0.8500" /> 
<circle cx="42.7600" cy="49.5400" r="0.8500" /> 
<circle cx="40.2200" cy="47.0000" r="0.8500" /> 
<circle cx="40.2200" cy="49.5400" r="0.8500" /> 
<circle cx="37.6800" cy="47.0000" r="0.8500" /> 
<circle cx="37.6800" cy="49.5400" r="0.8500" /> 
<circle cx="35.1400" cy="47.0000" r="0.8500" /> 
<circle cx="35.1400" cy="49.5400" r="0.8500" /> 
<circle cx="32.6000" cy="47.0000" r="0.8500" /> 
<circle cx="32.6000" cy="49.5400" r="0.8500" /> 
<circle cx="30.0600" cy="47.0000" r="0.8500" /> 
<circle cx="30.0600" cy="49.5400" r="0.8500" /> 
<circle cx="27.5200" cy="47.0000" r="0.8500" /> 
<circle cx="27.5200" cy="49.5400" r="0.8500" /> 
<circle cx="24.9800" cy="47.0000" r="0.8500" /> 
<circle cx="24.9800" cy="49.5400" r="0.8500" /> 
<circle cx="22.4400" cy="47.0000" r="0.8500" /> 
<circle cx="22.4400" cy="49.5400" r="0.8500" /> 
<circle cx="19.9000" cy="47.0000" r="0.8500" /> 
<circle cx="19.9000" cy="49.5400" r="0.8500" /> 
<circle cx="17.3600" cy="47.0000" r="0.8500" /> 
<circle cx="17.3600" cy="49.5400" r="0.8500" /> 
<circle cx="14.8200" cy="47.0000" r="0.8500" /> 
<circle cx="14.8200" cy="49.5400" r="0.8500" /> 
<circle cx="12.2800" cy="47.0000" r="0.8500" /> 
<circle cx="12.2800" cy="49.5400" r="0.8500" /> 
<circle cx="9.7400" cy="47.0000" r="0.8500" /> 
<circle cx="9.7400" cy="49.5400" r="0.8500" /> 
<path style="fill:#C83434; fill-opacity:1.0000; stroke:none;fill-rule:evenodd;"
d="M 6.1300,5.1550
6.1490,5.0593
6.2032,4.9782
6.2843,4.9240
6.3800,4.9050
7.6200,4.9050
7.7157,4.9240
7.7968,4.9782
7.8510,5.0593
7.8700,5.1550
7.8700,6.8450
7.8510,6.9407
7.7968,7.0218
7.7157,7.0760
7.6200,7.0950
6.3800,7.0950
6.2843,7.0760
6.2032,7.0218
6.1490,6.9407
6.1300,6.8450
Z" /> 
</g>
<g style="fill:none; 
stroke:#C83434; stroke-width:1.7400; stroke-opacity:1; 
stroke-linecap:round; stroke-linejoin:round;">
<path d="M9.5400 5.7750
L9.5400 6.2250
" />
<path d="M12.0800 5.7750
L12.0800 6.2250
" />
<path d="M14.6200 5.7750
L14.6200 6.2250
" />
<path d="M17.1600 5.7750
L17.1600 6.2250
" />
<path d="M19.7000 5.7750
L19.7000 6.2250
" />
<path d="M22.2400 5.7750
L22.2400 6.2250
" />
<path d="M24.7800 5.7750
L24.7800 6.2250
" />
<path d="M27.3200 5.7750
L27.3200 6.2250
" />
<path d="M29.8600 5.7750
L29.8600 6.2250
" />
<path d="M32.4000 5.7750
L32.4000 6.2250
" />
<path d="M34.9400 5.7750
L34.9400 6.2250
" />
<path d="M37.4800 5.7750
L37.4800 6.2250
" />
<path d="M40.0200 5.7750
L40.0200 6.2250
" />
<path d="M42.5600 5.7750
L42.5600 6.2250
" />
<path style="fill:#C83434; fill-opacity:1.0000; stroke:none;fill-rule:evenodd;"
d="M 53.1500,6.8500
53.1500,5.1500
54.8500,5.1500
54.8500,6.8500
Z" /> 
</g>
<g style="fill:#C83434; fill-opacity:1.0000; stroke:none;">
<circle cx="56.5400" cy="6.0000" r="0.8500" /> 
<circle cx="54.0000" cy="8.5400" r="0.8500" /> 
<circle cx="56.5400" cy="8.5400" r="0.8500" /> 
<circle cx="54.0000" cy="11.0800" r="0.8500" /> 
<circle cx="56.5400" cy="11.0800" r="0.8500" /> 
<path style="fill:#C83434; fill-opacity:1.0000; stroke:none;fill-rule:evenodd;"
d="M 5.1500,21.8500
5.1500,20.1500
6.8500,20.1500
6.8500,21.8500
Z" /> 
<circle cx="6.0000" cy="23.5400" r="0.8500" /> 
<circle cx="6.0000" cy="26.0800" r="0.8500" /> 
<circle cx="6.0000" cy="28.6200" r="0.8500" /> 
<circle cx="6.0000" cy="31.1600" r="0.8500" /> 
<circle cx="6.0000" cy="33.7000" r="0.8500" /> 
<circle cx="6.0000" cy="36.2400" r="0.8500" /> 
<path style="fill:#C83434; fill-opacity:1.0000; stroke:none;fill-rule:evenodd;"
d="M 14.1500,37.8500
14.1500,36.1500
15.8500,36.1500
15.8500,37.8500
Z" /> 
<circle cx="17.5400" cy="37.0000" r="0.8500" /> 
<circle cx="20.0800" cy="37.0000" r="0.8500" /> 
<circle cx="22.6200" cy="37.0000" r="0.8500" /> 
<path style="fill:#C83434; fill-opacity:1.0000; stroke:none;fill-rule:evenodd;"
d="M 24.2200,38.8150
24.2303,38.7633
24.2595,38.7195
24.3033,38.6903
24.3550,38.6800
24.6250,38.6800
24.6767,38.6903
24.7205,38.7195
24.7497,38.7633
24.7600,38.8150
24.7600,39.1850
24.7497,39.2367
24.7205,39.2805
24.6767,39.3097
24.6250,39.3200
24.3550,39.3200
24.3033,39.3097
24.2595,39.2805
24.2303,39.2367
24.2200,39.1850
Z" /> 
<path style="fill:#C83434; fill-opacity:1.0000; stroke:none;fill-rule:evenodd;"
d="M 25.2400,38.8150
25.2503,38.7633
25.2795,38.7195
25.3233,38.6903
25.3750,38.6800
25.6450,38.6800
25.6967,38.6903
25.7405,38.7195
25.7697,38.7633
25.7800,38.8150
25.7800,39.1850
25.7697,39.2367
25.7405,39.2805
25.6967,39.3097
25.6450,39.3200
25.3750,39.3200
25.3233,39.3097
25.2795,39.2805
25.2503,39.2367
25.2400,39.1850
Z" /> 
</g>
<g style="fill:none; 
stroke:#F2EDA1; stroke-width:0.1500; stroke-opacity:1; 
stroke-linecap:round; stroke-linejoin:round;">
<text x="24.0000" y="3.7000"
textLength="15.6786" font-size="1.3333" lengthAdjust="spacingAndGlyphs"
text-anchor="middle" opacity="0" stroke-opacity="0">J2 SCREEN LOCKING</text>
<g class="stroked-text"><desc>J2 SCREEN LOCKING</desc>
<path d="M16.8095 2.6548
L16.8095 3.3691
" />
<path d="M16.8095 3.3691
L16.7619 3.5120
" />
<path d="M16.7619 3.5120
L16.6667 3.6072
" />
<path d="M16.6667 3.6072
L16.5238 3.6548
" />
<path d="M16.5238 3.6548
L16.4286 3.6548
" />
<path d="M17.2381 2.7501
L17.2857 2.7024
" />
<path d="M17.2857 2.7024
L17.3810 2.6548
" />
<path d="M17.3810 2.6548
L17.6190 2.6548
" />
<path d="M17.6190 2.6548
L17.7143 2.7024
" />
<path d="M17.7143 2.7024
L17.7619 2.7501
" />
<path d="M17.7619 2.7501
L17.8095 2.8453
" />
<path d="M17.8095 2.8453
L17.8095 2.9405
" />
<path d="M17.8095 2.9405
L17.7619 3.0834
" />
<path d="M17.7619 3.0834
L17.1905 3.6548
" />
<path d="M17.1905 3.6548
L17.8095 3.6548
" />
<path d="M18.9524 3.6072
L19.0952 3.6548
" />
<path d="M19.0952 3.6548
L19.3333 3.6548
" />
<path d="M19.3333 3.6548
L19.4286 3.6072
" />
<path d="M19.4286 3.6072
L19.4762 3.5596
" />
<path d="M19.4762 3.5596
L19.5238 3.4643
" />
<path d="M19.5238 3.4643
L19.5238 3.3691
" />
<path d="M19.5238 3.3691
L19.4762 3.2739
" />
<path d="M19.4762 3.2739
L19.4286 3.2262
" />
<path d="M19.4286 3.2262
L19.3333 3.1786
" />
<path d="M19.3333 3.1786
L19.1429 3.1310
" />
<path d="M19.1429 3.1310
L19.0476 3.0834
" />
<path d="M19.0476 3.0834
L19.0000 3.0358
" />
<path d="M19.0000 3.0358
L18.9524 2.9405
" />
<path d="M18.9524 2.9405
L18.9524 2.8453
" />
<path d="M18.9524 2.8453
L19.0000 2.7501
" />
<path d="M19.0000 2.7501
L19.0476 2.7024
" />
<path d="M19.0476 2.7024
L19.1429 2.6548
" />
<path d="M19.1429 2.6548
L19.3810 2.6548
" />
<path d="M19.3810 2.6548
L19.5238 2.7024
" />
<path d="M20.5238 3.5596
L20.4762 3.6072
" />
<path d="M20.4762 3.6072
L20.3333 3.6548
" />
<path d="M20.3333 3.6548
L20.2381 3.6548
" />
<path d="M20.2381 3.6548
L20.0952 3.6072
" />
<path d="M20.0952 3.6072
L20.0000 3.5120
" />
<path d="M20.0000 3.5120
L19.9524 3.4167
" />
<path d="M19.9524 3.4167
L19.9048 3.2262
" />
<path d="M19.9048 3.2262
L19.9048 3.0834
" />
<path d="M19.9048 3.0834
L19.9524 2.8929
" />
<path d="M19.9524 2.8929
L20.0000 2.7977
" />
<path d="M20.0000 2.7977
L20.0952 2.7024
" />
<path d="M20.0952 2.7024
L20.2381 2.6548
" />
<path d="M20.2381 2.6548
L20.3333 2.6548
" />
<path d="M20.3333 2.6548
L20.4762 2.7024
" />
<path d="M20.4762 2.7024
L20.5238 2.7501
" />
<path d="M21.5238 3.6548
L21.1905 3.1786
" />
<path d="M20.9524 3.6548
L20.9524 2.6548
" />
<path d="M20.9524 2.6548
L21.3333 2.6548
" />
<path d="M21.3333 2.6548
L21.4286 2.7024
" />
<path d="M21.4286 2.7024
L21.4762 2.7501
" />
<path d="M21.4762 2.7501
L21.5238 2.8453
" />
<path d="M21.5238 2.8453
L21.5238 2.9882
" />
<path d="M21.5238 2.9882
L21.4762 3.0834
" />
<path d="M21.4762 3.0834
L21.4286 3.1310
" />
<path d="M21.4286 3.1310
L21.3333 3.1786
" />
<path d="M21.3333 3.1786
L20.9524 3.1786
" />
<path d="M21.9524 3.1310
L22.2857 3.1310
" />
<path d="M22.4286 3.6548
L21.9524 3.6548
" />
<path d="M21.9524 3.6548
L21.9524 2.6548
" />
<path d="M21.9524 2.6548
L22.4286 2.6548
" />
<path d="M22.8571 3.1310
L23.1905 3.1310
" />
<path d="M23.3333 3.6548
L22.8571 3.6548
" />
<path d="M22.8571 3.6548
L22.8571 2.6548
" />
<path d="M22.8571 2.6548
L23.3333 2.6548
" />
<path d="M23.7619 3.6548
L23.7619 2.6548
" />
<path d="M23.7619 2.6548
L24.3333 3.6548
" />
<path d="M24.3333 3.6548
L24.3333 2.6548
" />
<path d="M26.0476 3.6548
L25.5714 3.6548
" />
<path d="M25.5714 3.6548
L25.5714 2.6548
" />
<path d="M26.5714 2.6548
L26.7619 2.6548
" />
<path d="M26.7619 2.6548
L26.8571 2.7024
" />
<path d="M26.8571 2.7024
L26.9524 2.7977
" />
<path d="M26.9524 2.7977
L27.0000 2.9882
" />
<path d="M27.0000 2.9882
L27.0000 3.3215
" />
<path d="M27.0000 3.3215
L26.9524 3.5120
" />
<path d="M26.9524 3.5120
L26.8571 3.6072
" />
<path d="M26.8571 3.6072
L26.7619 3.6548
" />
<path d="M26.7619 3.6548
L26.5714 3.6548
" />
<path d="M26.5714 3.6548
L26.4762 3.6072
" />
<path d="M26.4762 3.6072
L26.3810 3.5120
" />
<path d="M26.3810 3.5120
L26.3333 3.3215
" />
<path d="M26.3333 3.3215
L26.3333 2.9882
" />
<path d="M26.3333 2.9882
L26.3810 2.7977
" />
<path d="M26.3810 2.7977
L26.4762 2.7024
" />
<path d="M26.4762 2.7024
L26.5714 2.6548
" />
<path d="M28.0000 3.5596
L27.9524 3.6072
" />
<path d="M27.9524 3.6072
L27.8095 3.6548
" />
<path d="M27.8095 3.6548
L27.7143 3.6548
" />
<path d="M27.7143 3.6548
L27.5714 3.6072
" />
<path d="M27.5714 3.6072
L27.4762 3.5120
" />
<path d="M27.4762 3.5120
L27.4286 3.4167
" />
<path d="M27.4286 3.4167
L27.3810 3.2262
" />
<path d="M27.3810 3.2262
L27.3810 3.0834
" />
<path d="M27.3810 3.0834
L27.4286 2.8929
" />
<path d="M27.4286 2.8929
L27.4762 2.7977
" />
<path d="M27.4762 2.7977
L27.5714 2.7024
" />
<path d="M27.5714 2.7024
L27.7143 2.6548
" />
<path d="M27.7143 2.6548
L27.8095 2.6548
" />
<path d="M27.8095 2.6548
L27.9524 2.7024
" />
<path d="M27.9524 2.7024
L28.0000 2.7501
" />
<path d="M28.4286 3.6548
L28.4286 2.6548
" />
<path d="M29.0000 3.6548
L28.5714 3.0834
" />
<path d="M29.0000 2.6548
L28.4286 3.2262
" />
<path d="M29.4286 3.6548
L29.4286 2.6548
" />
<path d="M29.9048 3.6548
L29.9048 2.6548
" />
<path d="M29.9048 2.6548
L30.4762 3.6548
" />
<path d="M30.4762 3.6548
L30.4762 2.6548
" />
<path d="M31.4762 2.7024
L31.3810 2.6548
" />
<path d="M31.3810 2.6548
L31.2381 2.6548
" />
<path d="M31.2381 2.6548
L31.0952 2.7024
" />
<path d="M31.0952 2.7024
L31.0000 2.7977
" />
<path d="M31.0000 2.7977
L30.9524 2.8929
" />
<path d="M30.9524 2.8929
L30.9048 3.0834
" />
<path d="M30.9048 3.0834
L30.9048 3.2262
" />
<path d="M30.9048 3.2262
L30.9524 3.4167
" />
<path d="M30.9524 3.4167
L31.0000 3.5120
" />
<path d="M31.0000 3.5120
L31.0952 3.6072
" />
<path d="M31.0952 3.6072
L31.2381 3.6548
" />
<path d="M31.2381 3.6548
L31.3333 3.6548
" />
<path d="M31.3333 3.6548
L31.4762 3.6072
" />
<path d="M31.4762 3.6072
L31.5238 3.5596
" />
<path d="M31.5238 3.5596
L31.5238 3.2262
" />
<path d="M31.5238 3.2262
L31.3333 3.2262
" />
</g><text x="55.0000" y="15.3000"
textLength="9.8214" font-size="1.3333" lengthAdjust="spacingAndGlyphs"
text-anchor="middle" opacity="0" stroke-opacity="0">J3 MIC MALE</text>
<g class="stroked-text"><desc>J3 MIC MALE</desc>
<path d="M50.7381 14.2548
L50.7381 14.9691
" />
<path d="M50.7381 14.9691
L50.6905 15.1120
" />
<path d="M50.6905 15.1120
L50.5952 15.2072
" />
<path d="M50.5952 15.2072
L50.4524 15.2548
" />
<path d="M50.4524 15.2548
L50.3571 15.2548
" />
<path d="M51.1190 14.2548
L51.7381 14.2548
" />
<path d="M51.7381 14.2548
L51.4048 14.6358
" />
<path d="M51.4048 14.6358
L51.5476 14.6358
" />
<path d="M51.5476 14.6358
L51.6429 14.6834
" />
<path d="M51.6429 14.6834
L51.6905 14.7310
" />
<path d="M51.6905 14.7310
L51.7381 14.8262
" />
<path d="M51.7381 14.8262
L51.7381 15.0643
" />
<path d="M51.7381 15.0643
L51.6905 15.1596
" />
<path d="M51.6905 15.1596
L51.6429 15.2072
" />
<path d="M51.6429 15.2072
L51.5476 15.2548
" />
<path d="M51.5476 15.2548
L51.2619 15.2548
" />
<path d="M51.2619 15.2548
L51.1667 15.2072
" />
<path d="M51.1667 15.2072
L51.1190 15.1596
" />
<path d="M52.9286 15.2548
L52.9286 14.2548
" />
<path d="M52.9286 14.2548
L53.2619 14.9691
" />
<path d="M53.2619 14.9691
L53.5952 14.2548
" />
<path d="M53.5952 14.2548
L53.5952 15.2548
" />
<path d="M54.0714 15.2548
L54.0714 14.2548
" />
<path d="M55.1190 15.1596
L55.0714 15.2072
" />
<path d="M55.0714 15.2072
L54.9286 15.2548
" />
<path d="M54.9286 15.2548
L54.8333 15.2548
" />
<path d="M54.8333 15.2548
L54.6905 15.2072
" />
<path d="M54.6905 15.2072
L54.5952 15.1120
" />
<path d="M54.5952 15.1120
L54.5476 15.0167
" />
<path d="M54.5476 15.0167
L54.5000 14.8262
" />
<path d="M54.5000 14.8262
L54.5000 14.6834
" />
<path d="M54.5000 14.6834
L54.5476 14.4929
" />
<path d="M54.5476 14.4929
L54.5952 14.3977
" />
<path d="M54.5952 14.3977
L54.6905 14.3024
" />
<path d="M54.6905 14.3024
L54.8333 14.2548
" />
<path d="M54.8333 14.2548
L54.9286 14.2548
" />
<path d="M54.9286 14.2548
L55.0714 14.3024
" />
<path d="M55.0714 14.3024
L55.1190 14.3501
" />
<path d="M56.3095 15.2548
L56.3095 14.2548
" />
<path d="M56.3095 14.2548
L56.6429 14.9691
" />
<path d="M56.6429 14.9691
L56.9762 14.2548
" />
<path d="M56.9762 14.2548
L56.9762 15.2548
" />
<path d="M57.4048 14.9691
L57.8810 14.9691
" />
<path d="M57.3095 15.2548
L57.6429 14.2548
" />
<path d="M57.6429 14.2548
L57.9762 15.2548
" />
<path d="M58.7857 15.2548
L58.3095 15.2548
" />
<path d="M58.3095 15.2548
L58.3095 14.2548
" />
<path d="M59.1190 14.7310
L59.4524 14.7310
" />
<path d="M59.5952 15.2548
L59.1190 15.2548
" />
<path d="M59.1190 15.2548
L59.1190 14.2548
" />
<path d="M59.1190 14.2548
L59.5952 14.2548
" />
</g><text x="16.0000" y="19.5000"
textLength="15.4405" font-size="1.3333" lengthAdjust="spacingAndGlyphs"
text-anchor="middle" opacity="0" stroke-opacity="0">J4 AMP FEMALE 1x7</text>
<g class="stroked-text"><desc>J4 AMP FEMALE 1x7</desc>
<path d="M8.9286 18.4548
L8.9286 19.1691
" />
<path d="M8.9286 19.1691
L8.8810 19.3120
" />
<path d="M8.8810 19.3120
L8.7857 19.4072
" />
<path d="M8.7857 19.4072
L8.6429 19.4548
" />
<path d="M8.6429 19.4548
L8.5476 19.4548
" />
<path d="M9.8333 18.7882
L9.8333 19.4548
" />
<path d="M9.5952 18.4072
L9.3571 19.1215
" />
<path d="M9.3571 19.1215
L9.9762 19.1215
" />
<path d="M11.0714 19.1691
L11.5476 19.1691
" />
<path d="M10.9762 19.4548
L11.3095 18.4548
" />
<path d="M11.3095 18.4548
L11.6429 19.4548
" />
<path d="M11.9762 19.4548
L11.9762 18.4548
" />
<path d="M11.9762 18.4548
L12.3095 19.1691
" />
<path d="M12.3095 19.1691
L12.6429 18.4548
" />
<path d="M12.6429 18.4548
L12.6429 19.4548
" />
<path d="M13.1190 19.4548
L13.1190 18.4548
" />
<path d="M13.1190 18.4548
L13.5000 18.4548
" />
<path d="M13.5000 18.4548
L13.5952 18.5024
" />
<path d="M13.5952 18.5024
L13.6429 18.5501
" />
<path d="M13.6429 18.5501
L13.6905 18.6453
" />
<path d="M13.6905 18.6453
L13.6905 18.7882
" />
<path d="M13.6905 18.7882
L13.6429 18.8834
" />
<path d="M13.6429 18.8834
L13.5952 18.9310
" />
<path d="M13.5952 18.9310
L13.5000 18.9786
" />
<path d="M13.5000 18.9786
L13.1190 18.9786
" />
<path d="M15.2143 18.9310
L14.8810 18.9310
" />
<path d="M14.8810 19.4548
L14.8810 18.4548
" />
<path d="M14.8810 18.4548
L15.3571 18.4548
" />
<path d="M15.7381 18.9310
L16.0714 18.9310
" />
<path d="M16.2143 19.4548
L15.7381 19.4548
" />
<path d="M15.7381 19.4548
L15.7381 18.4548
" />
<path d="M15.7381 18.4548
L16.2143 18.4548
" />
<path d="M16.6429 19.4548
L16.6429 18.4548
" />
<path d="M16.6429 18.4548
L16.9762 19.1691
" />
<path d="M16.9762 19.1691
L17.3095 18.4548
" />
<path d="M17.3095 18.4548
L17.3095 19.4548
" />
<path d="M17.7381 19.1691
L18.2143 19.1691
" />
<path d="M17.6429 19.4548
L17.9762 18.4548
" />
<path d="M17.9762 18.4548
L18.3095 19.4548
" />
<path d="M19.1190 19.4548
L18.6429 19.4548
" />
<path d="M18.6429 19.4548
L18.6429 18.4548
" />
<path d="M19.4524 18.9310
L19.7857 18.9310
" />
<path d="M19.9286 19.4548
L19.4524 19.4548
" />
<path d="M19.4524 19.4548
L19.4524 18.4548
" />
<path d="M19.4524 18.4548
L19.9286 18.4548
" />
<path d="M21.6429 19.4548
L21.0714 19.4548
" />
<path d="M21.3571 19.4548
L21.3571 18.4548
" />
<path d="M21.3571 18.4548
L21.2619 18.5977
" />
<path d="M21.2619 18.5977
L21.1667 18.6929
" />
<path d="M21.1667 18.6929
L21.0714 18.7405
" />
<path d="M21.9762 19.4548
L22.5000 18.7882
" />
<path d="M21.9762 18.7882
L22.5000 19.4548
" />
<path d="M22.7857 18.4548
L23.4524 18.4548
" />
<path d="M23.4524 18.4548
L23.0238 19.4548
" />
</g><text x="16.0000" y="43.5000"
textLength="5.5357" font-size="1.3333" lengthAdjust="spacingAndGlyphs"
text-anchor="middle" opacity="0" stroke-opacity="0">J5 BTN</text>
<g class="stroked-text"><desc>J5 BTN</desc>
<path d="M13.8810 42.4548
L13.8810 43.1691
" />
<path d="M13.8810 43.1691
L13.8333 43.3120
" />
<path d="M13.8333 43.3120
L13.7381 43.4072
" />
<path d="M13.7381 43.4072
L13.5952 43.4548
" />
<path d="M13.5952 43.4548
L13.5000 43.4548
" />
<path d="M14.8333 42.4548
L14.3571 42.4548
" />
<path d="M14.3571 42.4548
L14.3095 42.9310
" />
<path d="M14.3095 42.9310
L14.3571 42.8834
" />
<path d="M14.3571 42.8834
L14.4524 42.8358
" />
<path d="M14.4524 42.8358
L14.6905 42.8358
" />
<path d="M14.6905 42.8358
L14.7857 42.8834
" />
<path d="M14.7857 42.8834
L14.8333 42.9310
" />
<path d="M14.8333 42.9310
L14.8810 43.0262
" />
<path d="M14.8810 43.0262
L14.8810 43.2643
" />
<path d="M14.8810 43.2643
L14.8333 43.3596
" />
<path d="M14.8333 43.3596
L14.7857 43.4072
" />
<path d="M14.7857 43.4072
L14.6905 43.4548
" />
<path d="M14.6905 43.4548
L14.4524 43.4548
" />
<path d="M14.4524 43.4548
L14.3571 43.4072
" />
<path d="M14.3571 43.4072
L14.3095 43.3596
" />
<path d="M16.4048 42.9310
L16.5476 42.9786
" />
<path d="M16.5476 42.9786
L16.5952 43.0262
" />
<path d="M16.5952 43.0262
L16.6429 43.1215
" />
<path d="M16.6429 43.1215
L16.6429 43.2643
" />
<path d="M16.6429 43.2643
L16.5952 43.3596
" />
<path d="M16.5952 43.3596
L16.5476 43.4072
" />
<path d="M16.5476 43.4072
L16.4524 43.4548
" />
<path d="M16.4524 43.4548
L16.0714 43.4548
" />
<path d="M16.0714 43.4548
L16.0714 42.4548
" />
<path d="M16.0714 42.4548
L16.4048 42.4548
" />
<path d="M16.4048 42.4548
L16.5000 42.5024
" />
<path d="M16.5000 42.5024
L16.5476 42.5501
" />
<path d="M16.5476 42.5501
L16.5952 42.6453
" />
<path d="M16.5952 42.6453
L16.5952 42.7405
" />
<path d="M16.5952 42.7405
L16.5476 42.8358
" />
<path d="M16.5476 42.8358
L16.5000 42.8834
" />
<path d="M16.5000 42.8834
L16.4048 42.9310
" />
<path d="M16.4048 42.9310
L16.0714 42.9310
" />
<path d="M16.9286 42.4548
L17.5000 42.4548
" />
<path d="M17.2143 43.4548
L17.2143 42.4548
" />
<path d="M17.8333 43.4548
L17.8333 42.4548
" />
<path d="M17.8333 42.4548
L18.4048 43.4548
" />
<path d="M18.4048 43.4548
L18.4048 42.4548
" />
</g><text x="35.0000" y="53.0000"
textLength="9.4881" font-size="1.3333" lengthAdjust="spacingAndGlyphs"
text-anchor="middle" opacity="0" stroke-opacity="0">J1 GPIO IDC</text>
<g class="stroked-text"><desc>J1 GPIO IDC</desc>
<path d="M30.9048 51.9548
L30.9048 52.6691
" />
<path d="M30.9048 52.6691
L30.8571 52.8120
" />
<path d="M30.8571 52.8120
L30.7619 52.9072
" />
<path d="M30.7619 52.9072
L30.6190 52.9548
" />
<path d="M30.6190 52.9548
L30.5238 52.9548
" />
<path d="M31.9048 52.9548
L31.3333 52.9548
" />
<path d="M31.6190 52.9548
L31.6190 51.9548
" />
<path d="M31.6190 51.9548
L31.5238 52.0977
" />
<path d="M31.5238 52.0977
L31.4286 52.1929
" />
<path d="M31.4286 52.1929
L31.3333 52.2405
" />
<path d="M33.6190 52.0024
L33.5238 51.9548
" />
<path d="M33.5238 51.9548
L33.3810 51.9548
" />
<path d="M33.3810 51.9548
L33.2381 52.0024
" />
<path d="M33.2381 52.0024
L33.1429 52.0977
" />
<path d="M33.1429 52.0977
L33.0952 52.1929
" />
<path d="M33.0952 52.1929
L33.0476 52.3834
" />
<path d="M33.0476 52.3834
L33.0476 52.5262
" />
<path d="M33.0476 52.5262
L33.0952 52.7167
" />
<path d="M33.0952 52.7167
L33.1429 52.8120
" />
<path d="M33.1429 52.8120
L33.2381 52.9072
" />
<path d="M33.2381 52.9072
L33.3810 52.9548
" />
<path d="M33.3810 52.9548
L33.4762 52.9548
" />
<path d="M33.4762 52.9548
L33.6190 52.9072
" />
<path d="M33.6190 52.9072
L33.6667 52.8596
" />
<path d="M33.6667 52.8596
L33.6667 52.5262
" />
<path d="M33.6667 52.5262
L33.4762 52.5262
" />
<path d="M34.0952 52.9548
L34.0952 51.9548
" />
<path d="M34.0952 51.9548
L34.4762 51.9548
" />
<path d="M34.4762 51.9548
L34.5714 52.0024
" />
<path d="M34.5714 52.0024
L34.6190 52.0501
" />
<path d="M34.6190 52.0501
L34.6667 52.1453
" />
<path d="M34.6667 52.1453
L34.6667 52.2882
" />
<path d="M34.6667 52.2882
L34.6190 52.3834
" />
<path d="M34.6190 52.3834
L34.5714 52.4310
" />
<path d="M34.5714 52.4310
L34.4762 52.4786
" />
<path d="M34.4762 52.4786
L34.0952 52.4786
" />
<path d="M35.0952 52.9548
L35.0952 51.9548
" />
<path d="M35.7619 51.9548
L35.9524 51.9548
" />
<path d="M35.9524 51.9548
L36.0476 52.0024
" />
<path d="M36.0476 52.0024
L36.1429 52.0977
" />
<path d="M36.1429 52.0977
L36.1905 52.2882
" />
<path d="M36.1905 52.2882
L36.1905 52.6215
" />
<path d="M36.1905 52.6215
L36.1429 52.8120
" />
<path d="M36.1429 52.8120
L36.0476 52.9072
" />
<path d="M36.0476 52.9072
L35.9524 52.9548
" />
<path d="M35.9524 52.9548
L35.7619 52.9548
" />
<path d="M35.7619 52.9548
L35.6667 52.9072
" />
<path d="M35.6667 52.9072
L35.5714 52.8120
" />
<path d="M35.5714 52.8120
L35.5238 52.6215
" />
<path d="M35.5238 52.6215
L35.5238 52.2882
" />
<path d="M35.5238 52.2882
L35.5714 52.0977
" />
<path d="M35.5714 52.0977
L35.6667 52.0024
" />
<path d="M35.6667 52.0024
L35.7619 51.9548
" />
<path d="M37.3810 52.9548
L37.3810 51.9548
" />
<path d="M37.8571 52.9548
L37.8571 51.9548
" />
<path d="M37.8571 51.9548
L38.0952 51.9548
" />
<path d="M38.0952 51.9548
L38.2381 52.0024
" />
<path d="M38.2381 52.0024
L38.3333 52.0977
" />
<path d="M38.3333 52.0977
L38.3810 52.1929
" />
<path d="M38.3810 52.1929
L38.4286 52.3834
" />
<path d="M38.4286 52.3834
L38.4286 52.5262
" />
<path d="M38.4286 52.5262
L38.3810 52.7167
" />
<path d="M38.3810 52.7167
L38.3333 52.8120
" />
<path d="M38.3333 52.8120
L38.2381 52.9072
" />
<path d="M38.2381 52.9072
L38.0952 52.9548
" />
<path d="M38.0952 52.9548
L37.8571 52.9548
" />
<path d="M39.4286 52.8596
L39.3810 52.9072
" />
<path d="M39.3810 52.9072
L39.2381 52.9548
" />
<path d="M39.2381 52.9548
L39.1429 52.9548
" />
<path d="M39.1429 52.9548
L39.0000 52.9072
" />
<path d="M39.0000 52.9072
L38.9048 52.8120
" />
<path d="M38.9048 52.8120
L38.8571 52.7167
" />
<path d="M38.8571 52.7167
L38.8095 52.5262
" />
<path d="M38.8095 52.5262
L38.8095 52.3834
" />
<path d="M38.8095 52.3834
L38.8571 52.1929
" />
<path d="M38.8571 52.1929
L38.9048 52.0977
" />
<path d="M38.9048 52.0977
L39.0000 52.0024
" />
<path d="M39.0000 52.0024
L39.1429 51.9548
" />
<path d="M39.1429 51.9548
L39.2381 51.9548
" />
<path d="M39.2381 51.9548
L39.3810 52.0024
" />
<path d="M39.3810 52.0024
L39.4286 52.0501
" />
</g><text x="64.1000" y="48.7700"
textLength="1.9643" font-size="1.3333" lengthAdjust="spacingAndGlyphs"
text-anchor="middle" opacity="0" stroke-opacity="0">J1</text>
<g class="stroked-text"><desc>J1</desc>
<path d="M63.7667 47.7248
L63.7667 48.4391
" />
<path d="M63.7667 48.4391
L63.7190 48.5820
" />
<path d="M63.7190 48.5820
L63.6238 48.6772
" />
<path d="M63.6238 48.6772
L63.4810 48.7248
" />
<path d="M63.4810 48.7248
L63.3857 48.7248
" />
<path d="M64.7667 48.7248
L64.1952 48.7248
" />
<path d="M64.4810 48.7248
L64.4810 47.7248
" />
<path d="M64.4810 47.7248
L64.3857 47.8677
" />
<path d="M64.3857 47.8677
L64.2905 47.9629
" />
<path d="M64.2905 47.9629
L64.1952 48.0105
" />
</g><text x="24.7800" y="2.3800"
textLength="1.9643" font-size="1.3333" lengthAdjust="spacingAndGlyphs"
text-anchor="middle" opacity="0" stroke-opacity="0">J2</text>
<g class="stroked-text"><desc>J2</desc>
<path d="M24.4467 1.3348
L24.4467 2.0491
" />
<path d="M24.4467 2.0491
L24.3990 2.1920
" />
<path d="M24.3990 2.1920
L24.3038 2.2872
" />
<path d="M24.3038 2.2872
L24.1610 2.3348
" />
<path d="M24.1610 2.3348
L24.0657 2.3348
" />
<path d="M24.8752 1.4301
L24.9229 1.3824
" />
<path d="M24.9229 1.3824
L25.0181 1.3348
" />
<path d="M25.0181 1.3348
L25.2562 1.3348
" />
<path d="M25.2562 1.3348
L25.3514 1.3824
" />
<path d="M25.3514 1.3824
L25.3990 1.4301
" />
<path d="M25.3990 1.4301
L25.4467 1.5253
" />
<path d="M25.4467 1.5253
L25.4467 1.6205
" />
<path d="M25.4467 1.6205
L25.3990 1.7634
" />
<path d="M25.3990 1.7634
L24.8276 2.3348
" />
<path d="M24.8276 2.3348
L25.4467 2.3348
" />
</g><text x="55.2700" y="4.1200"
textLength="1.9643" font-size="1.3333" lengthAdjust="spacingAndGlyphs"
text-anchor="middle" opacity="0" stroke-opacity="0">J3</text>
<g class="stroked-text"><desc>J3</desc>
<path d="M54.9367 3.0748
L54.9367 3.7891
" />
<path d="M54.9367 3.7891
L54.8890 3.9320
" />
<path d="M54.8890 3.9320
L54.7938 4.0272
" />
<path d="M54.7938 4.0272
L54.6510 4.0748
" />
<path d="M54.6510 4.0748
L54.5557 4.0748
" />
<path d="M55.3176 3.0748
L55.9367 3.0748
" />
<path d="M55.9367 3.0748
L55.6033 3.4558
" />
<path d="M55.6033 3.4558
L55.7462 3.4558
" />
<path d="M55.7462 3.4558
L55.8414 3.5034
" />
<path d="M55.8414 3.5034
L55.8890 3.5510
" />
<path d="M55.8890 3.5510
L55.9367 3.6462
" />
<path d="M55.9367 3.6462
L55.9367 3.8843
" />
<path d="M55.9367 3.8843
L55.8890 3.9796
" />
<path d="M55.8890 3.9796
L55.8414 4.0272
" />
<path d="M55.8414 4.0272
L55.7462 4.0748
" />
<path d="M55.7462 4.0748
L55.4605 4.0748
" />
<path d="M55.4605 4.0748
L55.3652 4.0272
" />
<path d="M55.3652 4.0272
L55.3176 3.9796
" />
</g><text x="6.0000" y="18.7300"
textLength="1.9643" font-size="1.3333" lengthAdjust="spacingAndGlyphs"
text-anchor="middle" opacity="0" stroke-opacity="0">J4</text>
<g class="stroked-text"><desc>J4</desc>
<path d="M5.6667 17.6848
L5.6667 18.3991
" />
<path d="M5.6667 18.3991
L5.6190 18.5420
" />
<path d="M5.6190 18.5420
L5.5238 18.6372
" />
<path d="M5.5238 18.6372
L5.3810 18.6848
" />
<path d="M5.3810 18.6848
L5.2857 18.6848
" />
<path d="M6.5714 18.0182
L6.5714 18.6848
" />
<path d="M6.3333 17.6372
L6.0952 18.3515
" />
<path d="M6.0952 18.3515
L6.7143 18.3515
" />
</g><text x="12.6200" y="37.5000"
textLength="1.9643" font-size="1.3333" lengthAdjust="spacingAndGlyphs"
text-anchor="middle" opacity="0" stroke-opacity="0">J5</text>
<g class="stroked-text"><desc>J5</desc>
<path d="M12.2867 36.4548
L12.2867 37.1691
" />
<path d="M12.2867 37.1691
L12.2390 37.3120
" />
<path d="M12.2390 37.3120
L12.1438 37.4072
" />
<path d="M12.1438 37.4072
L12.0010 37.4548
" />
<path d="M12.0010 37.4548
L11.9057 37.4548
" />
<path d="M13.2390 36.4548
L12.7629 36.4548
" />
<path d="M12.7629 36.4548
L12.7152 36.9310
" />
<path d="M12.7152 36.9310
L12.7629 36.8834
" />
<path d="M12.7629 36.8834
L12.8581 36.8358
" />
<path d="M12.8581 36.8358
L13.0962 36.8358
" />
<path d="M13.0962 36.8358
L13.1914 36.8834
" />
<path d="M13.1914 36.8834
L13.2390 36.9310
" />
<path d="M13.2390 36.9310
L13.2867 37.0262
" />
<path d="M13.2867 37.0262
L13.2867 37.2643
" />
<path d="M13.2867 37.2643
L13.2390 37.3596
" />
<path d="M13.2390 37.3596
L13.1914 37.4072
" />
<path d="M13.1914 37.4072
L13.0962 37.4548
" />
<path d="M13.0962 37.4548
L12.8581 37.4548
" />
<path d="M12.8581 37.4548
L12.7629 37.4072
" />
<path d="M12.7629 37.4072
L12.7152 37.3596
" />
</g><text x="25.0000" y="38.3300"
textLength="2.2024" font-size="1.3333" lengthAdjust="spacingAndGlyphs"
text-anchor="middle" opacity="0" stroke-opacity="0">R1</text>
<g class="stroked-text"><desc>R1</desc>
<path d="M24.8333 38.2848
L24.5000 37.8086
" />
<path d="M24.2619 38.2848
L24.2619 37.2848
" />
<path d="M24.2619 37.2848
L24.6429 37.2848
" />
<path d="M24.6429 37.2848
L24.7381 37.3324
" />
<path d="M24.7381 37.3324
L24.7857 37.3801
" />
<path d="M24.7857 37.3801
L24.8333 37.4753
" />
<path d="M24.8333 37.4753
L24.8333 37.6182
" />
<path d="M24.8333 37.6182
L24.7857 37.7134
" />
<path d="M24.7857 37.7134
L24.7381 37.7610
" />
<path d="M24.7381 37.7610
L24.6429 37.8086
" />
<path d="M24.6429 37.8086
L24.2619 37.8086
" />
<path d="M25.7857 38.2848
L25.2143 38.2848
" />
<path d="M25.5000 38.2848
L25.5000 37.2848
" />
<path d="M25.5000 37.2848
L25.4048 37.4277
" />
<path d="M25.4048 37.4277
L25.3095 37.5229
" />
<path d="M25.3095 37.5229
L25.2143 37.5705
" />
</g></g>
<g style="fill:none; 
stroke:#F2EDA1; stroke-width:0.1200; stroke-opacity:1; 
stroke-linecap:round; stroke-linejoin:round;">
<path d="M58.5000 42.3200
L57.5000 42.3200
" />
<path d="M57.5000 42.3200
L58.0000 43.3200
" />
<path d="M58.0000 43.3200
L58.5000 42.3200
" />
<path d="M63.2100 43.7100
L63.2100 52.8300
" />
<path d="M35.9200 43.7100
L35.9200 45.0200
" />
<path d="M4.5300 43.7100
L63.2100 43.7100
" />
<path d="M61.9100 45.0200
L61.9100 51.5200
" />
<path d="M35.9200 45.0200
L61.9100 45.0200
" />
<path d="M31.8200 45.0200
L31.8200 43.7100
" />
<path d="M5.8300 45.0200
L31.8200 45.0200
" />
<path d="M61.9100 51.5200
L5.8300 51.5200
" />
<path d="M5.8300 51.5200
L5.8300 45.0200
" />
<path d="M63.2100 52.8300
L4.5300 52.8300
" />
<path d="M4.5300 52.8300
L4.5300 43.7100
" />
<path d="M5.3300 4.0000
L5.3300 8.0000
" />
<path d="M6.2000 2.9700
L6.2000 3.5700
" />
<path d="M6.2000 3.5700
L7.8000 3.5700
" />
<path d="M7.0000 7.9900
L7.2500 7.4600
" />
<path d="M7.0000 7.9900
L12.0800 7.9900
" />
<path d="M7.0000 8.9900
L7.0000 7.9900
" />
<path d="M7.2500 7.4600
L12.0800 7.4600
" />
<path d="M7.2500 8.9900
L7.2500 7.9900
" />
<path d="M7.8000 3.5700
L7.8000 2.9700
" />
<path d="M8.7400 2.9700
L8.7400 3.5700
" />
<path d="M8.7400 3.5700
L10.3400 3.5700
" />
<path d="M10.3400 3.5700
L10.3400 2.9700
" />
<path d="M11.2800 2.9700
L11.2800 3.5700
" />
<path d="M11.2800 3.5700
L12.8800 3.5700
" />
<path d="M12.0800 7.4600
L12.0800 7.9900
" />
<path d="M12.0800 7.9900
L12.0800 8.9900
" />
<path d="M12.8800 3.5700
L12.8800 2.9700
" />
<path d="M13.8200 2.9700
L13.8200 3.5700
" />
<path d="M13.8200 3.5700
L15.4200 3.5700
" />
<path d="M15.4200 3.5700
L15.4200 2.9700
" />
<path d="M16.3600 2.9700
L16.3600 3.5700
" />
<path d="M16.3600 3.5700
L17.9600 3.5700
" />
<path d="M17.9600 3.5700
L17.9600 2.9700
" />
<path d="M18.9000 2.9700
L18.9000 3.5700
" />
<path d="M18.9000 3.5700
L20.5000 3.5700
" />
<path d="M20.5000 3.5700
L20.5000 2.9700
" />
<path d="M21.4400 2.9700
L21.4400 3.5700
" />
<path d="M21.4400 3.5700
L23.0400 3.5700
" />
<path d="M23.0400 3.5700
L23.0400 2.9700
" />
<path d="M23.9800 2.9700
L23.9800 3.5700
" />
<path d="M23.9800 3.5700
L25.5800 3.5700
" />
<path d="M25.5800 3.5700
L25.5800 2.9700
" />
<path d="M26.5200 2.9700
L26.5200 3.5700
" />
<path d="M26.5200 3.5700
L28.1200 3.5700
" />
<path d="M28.1200 3.5700
L28.1200 2.9700
" />
<path d="M29.0600 2.9700
L29.0600 3.5700
" />
<path d="M29.0600 3.5700
L30.6600 3.5700
" />
<path d="M30.6600 3.5700
L30.6600 2.9700
" />
<path d="M31.6000 2.9700
L31.6000 3.5700
" />
<path d="M31.6000 3.5700
L33.2000 3.5700
" />
<path d="M33.2000 3.5700
L33.2000 2.9700
" />
<path d="M34.1400 2.9700
L34.1400 3.5700
" />
<path d="M34.1400 3.5700
L35.7400 3.5700
" />
<path d="M35.7400 3.5700
L35.7400 2.9700
" />
<path d="M36.6800 2.9700
L36.6800 3.5700
" />
<path d="M36.6800 3.5700
L38.2800 3.5700
" />
<path d="M37.4800 7.4600
L37.4800 7.9900
" />
<path d="M37.4800 7.9900
L37.4800 8.9900
" />
<path d="M38.2800 3.5700
L38.2800 2.9700
" />
<path d="M39.2200 2.9700
L39.2200 3.5700
" />
<path d="M39.2200 3.5700
L40.8200 3.5700
" />
<path d="M40.8200 3.5700
L40.8200 2.9700
" />
<path d="M41.7600 2.9700
L41.7600 3.5700
" />
<path d="M41.7600 3.5700
L43.3600 3.5700
" />
<path d="M42.3100 7.4600
L37.4800 7.4600
" />
<path d="M42.3100 8.9900
L42.3100 7.9900
" />
<path d="M42.5600 7.9900
L37.4800 7.9900
" />
<path d="M42.5600 7.9900
L42.3100 7.4600
" />
<path d="M42.5600 8.9900
L42.5600 7.9900
" />
<path d="M43.3600 3.5700
L43.3600 2.9700
" />
<path style="fill:none; 
stroke:#F2EDA1; stroke-width:0.1200; stroke-opacity:1; 
stroke-linecap:round; stroke-linejoin:round;fill:none"
d="M 5.6200,2.9700
43.9400,2.9700
43.9400,8.9900
5.6200,8.9900
Z" /> 
<path d="M52.6200 4.6200
L54.0000 4.6200
" />
<path d="M52.6200 6.0000
L52.6200 4.6200
" />
<path d="M52.6200 7.2700
L52.6200 12.4600
" />
<path d="M52.6200 7.2700
L55.2700 7.2700
" />
<path d="M52.6200 12.4600
L57.9200 12.4600
" />
<path d="M55.2700 4.6200
L57.9200 4.6200
" />
<path d="M55.2700 7.2700
L55.2700 4.6200
" />
<path d="M57.9200 4.6200
L57.9200 12.4600
" />
<path d="M4.6700 22.2700
L4.6700 37.5700
" />
<path d="M4.6700 22.2700
L7.3300 22.2700
" />
<path d="M4.6700 37.5700
L7.3300 37.5700
" />
<path d="M6.0000 19.6700
L7.3300 19.6700
" />
<path d="M7.3300 19.6700
L7.3300 21.0000
" />
<path d="M7.3300 22.2700
L7.3300 37.5700
" />
<path d="M13.6200 38.3800
L13.6200 37.0000
" />
<path d="M15.0000 38.3800
L13.6200 38.3800
" />
<path d="M16.2700 38.3800
L24.0000 38.3800
" />
<path d="M16.2700 38.3800
L16.2700 35.6200
" />
<path d="M24.0000 38.3800
L24.0000 35.6200
" />
<path d="M16.2700 35.6200
L24.0000 35.6200
" />
<path d="M24.8464 38.6200
L25.1536 38.6200
" />
<path d="M24.8464 39.3800
L25.1536 39.3800
" />
<path style="fill:#D864FF; fill-opacity:0.4000; stroke:none;fill-rule:evenodd;"
d="M 57.1500,46.4000
57.1690,46.3043
57.2232,46.2232
57.3043,46.1690
57.4000,46.1500
58.6000,46.1500
58.6957,46.1690
58.7768,46.2232
58.8310,46.3043
58.8500,46.4000
58.8500,47.6000
58.8310,47.6957
58.7768,47.7768
58.6957,47.8310
58.6000,47.8500
57.4000,47.8500
57.3043,47.8310
57.2232,47.7768
57.1690,47.6957
57.1500,47.6000
Z" /> 
</g>
<g style="fill:#D864FF; fill-opacity:0.4000; stroke:none;">
<circle cx="58.0000" cy="49.5400" r="0.8500" /> 
<circle cx="55.4600" cy="47.0000" r="0.8500" /> 
<circle cx="55.4600" cy="49.5400" r="0.8500" /> 
<circle cx="52.9200" cy="47.0000" r="0.8500" /> 
<circle cx="52.9200" cy="49.5400" r="0.8500" /> 
<circle cx="50.3800" cy="47.0000" r="0.8500" /> 
<circle cx="50.3800" cy="49.5400" r="0.8500" /> 
<circle cx="47.8400" cy="47.0000" r="0.8500" /> 
<circle cx="47.8400" cy="49.5400" r="0.8500" /> 
<circle cx="45.3000" cy="47.0000" r="0.8500" /> 
<circle cx="45.3000" cy="49.5400" r="0.8500" /> 
<circle cx="42.7600" cy="47.0000" r="0.8500" /> 
<circle cx="42.7600" cy="49.5400" r="0.8500" /> 
<circle cx="40.2200" cy="47.0000" r="0.8500" /> 
<circle cx="40.2200" cy="49.5400" r="0.8500" /> 
<circle cx="37.6800" cy="47.0000" r="0.8500" /> 
<circle cx="37.6800" cy="49.5400" r="0.8500" /> 
<circle cx="35.1400" cy="47.0000" r="0.8500" /> 
<circle cx="35.1400" cy="49.5400" r="0.8500" /> 
<circle cx="32.6000" cy="47.0000" r="0.8500" /> 
<circle cx="32.6000" cy="49.5400" r="0.8500" /> 
<circle cx="30.0600" cy="47.0000" r="0.8500" /> 
<circle cx="30.0600" cy="49.5400" r="0.8500" /> 
<circle cx="27.5200" cy="47.0000" r="0.8500" /> 
<circle cx="27.5200" cy="49.5400" r="0.8500" /> 
<circle cx="24.9800" cy="47.0000" r="0.8500" /> 
<circle cx="24.9800" cy="49.5400" r="0.8500" /> 
<circle cx="22.4400" cy="47.0000" r="0.8500" /> 
<circle cx="22.4400" cy="49.5400" r="0.8500" /> 
<circle cx="19.9000" cy="47.0000" r="0.8500" /> 
<circle cx="19.9000" cy="49.5400" r="0.8500" /> 
<circle cx="17.3600" cy="47.0000" r="0.8500" /> 
<circle cx="17.3600" cy="49.5400" r="0.8500" /> 
<circle cx="14.8200" cy="47.0000" r="0.8500" /> 
<circle cx="14.8200" cy="49.5400" r="0.8500" /> 
<circle cx="12.2800" cy="47.0000" r="0.8500" /> 
<circle cx="12.2800" cy="49.5400" r="0.8500" /> 
<circle cx="9.7400" cy="47.0000" r="0.8500" /> 
<circle cx="9.7400" cy="49.5400" r="0.8500" /> 
<path style="fill:#D864FF; fill-opacity:0.4000; stroke:none;fill-rule:evenodd;"
d="M 6.1300,5.1550
6.1490,5.0593
6.2032,4.9782
6.2843,4.9240
6.3800,4.9050
7.6200,4.9050
7.7157,4.9240
7.7968,4.9782
7.8510,5.0593
7.8700,5.1550
7.8700,6.8450
7.8510,6.9407
7.7968,7.0218
7.7157,7.0760
7.6200,7.0950
6.3800,7.0950
6.2843,7.0760
6.2032,7.0218
6.1490,6.9407
6.1300,6.8450
Z" /> 
</g>
<g style="fill:none; 
stroke:#D864FF; stroke-width:1.7400; stroke-opacity:1; 
stroke-linecap:round; stroke-linejoin:round;">
<path d="M9.5400 5.7750
L9.5400 6.2250
" />
<path d="M12.0800 5.7750
L12.0800 6.2250
" />
<path d="M14.6200 5.7750
L14.6200 6.2250
" />
<path d="M17.1600 5.7750
L17.1600 6.2250
" />
<path d="M19.7000 5.7750
L19.7000 6.2250
" />
<path d="M22.2400 5.7750
L22.2400 6.2250
" />
<path d="M24.7800 5.7750
L24.7800 6.2250
" />
<path d="M27.3200 5.7750
L27.3200 6.2250
" />
<path d="M29.8600 5.7750
L29.8600 6.2250
" />
<path d="M32.4000 5.7750
L32.4000 6.2250
" />
<path d="M34.9400 5.7750
L34.9400 6.2250
" />
<path d="M37.4800 5.7750
L37.4800 6.2250
" />
<path d="M40.0200 5.7750
L40.0200 6.2250
" />
<path d="M42.5600 5.7750
L42.5600 6.2250
" />
<path style="fill:#D864FF; fill-opacity:0.4000; stroke:none;fill-rule:evenodd;"
d="M 53.1500,6.8500
53.1500,5.1500
54.8500,5.1500
54.8500,6.8500
Z" /> 
</g>
<g style="fill:#D864FF; fill-opacity:0.4000; stroke:none;">
<circle cx="56.5400" cy="6.0000" r="0.8500" /> 
<circle cx="54.0000" cy="8.5400" r="0.8500" /> 
<circle cx="56.5400" cy="8.5400" r="0.8500" /> 
<circle cx="54.0000" cy="11.0800" r="0.8500" /> 
<circle cx="56.5400" cy="11.0800" r="0.8500" /> 
<path style="fill:#D864FF; fill-opacity:0.4000; stroke:none;fill-rule:evenodd;"
d="M 5.1500,21.8500
5.1500,20.1500
6.8500,20.1500
6.8500,21.8500
Z" /> 
<circle cx="6.0000" cy="23.5400" r="0.8500" /> 
<circle cx="6.0000" cy="26.0800" r="0.8500" /> 
<circle cx="6.0000" cy="28.6200" r="0.8500" /> 
<circle cx="6.0000" cy="31.1600" r="0.8500" /> 
<circle cx="6.0000" cy="33.7000" r="0.8500" /> 
<circle cx="6.0000" cy="36.2400" r="0.8500" /> 
<path style="fill:#D864FF; fill-opacity:0.4000; stroke:none;fill-rule:evenodd;"
d="M 14.1500,37.8500
14.1500,36.1500
15.8500,36.1500
15.8500,37.8500
Z" /> 
<circle cx="17.5400" cy="37.0000" r="0.8500" /> 
<circle cx="20.0800" cy="37.0000" r="0.8500" /> 
<circle cx="22.6200" cy="37.0000" r="0.8500" /> 
<path style="fill:#D864FF; fill-opacity:0.4000; stroke:none;fill-rule:evenodd;"
d="M 24.2200,38.8150
24.2303,38.7633
24.2595,38.7195
24.3033,38.6903
24.3550,38.6800
24.6250,38.6800
24.6767,38.6903
24.7205,38.7195
24.7497,38.7633
24.7600,38.8150
24.7600,39.1850
24.7497,39.2367
24.7205,39.2805
24.6767,39.3097
24.6250,39.3200
24.3550,39.3200
24.3033,39.3097
24.2595,39.2805
24.2303,39.2367
24.2200,39.1850
Z" /> 
<path style="fill:#D864FF; fill-opacity:0.4000; stroke:none;fill-rule:evenodd;"
d="M 25.2400,38.8150
25.2503,38.7633
25.2795,38.7195
25.3233,38.6903
25.3750,38.6800
25.6450,38.6800
25.6967,38.6903
25.7405,38.7195
25.7697,38.7633
25.7800,38.8150
25.7800,39.1850
25.7697,39.2367
25.7405,39.2805
25.6967,39.3097
25.6450,39.3200
25.3750,39.3200
25.3233,39.3097
25.2795,39.2805
25.2503,39.2367
25.2400,39.1850
Z" /> 
<circle cx="3.0000" cy="3.0000" r="1.6000" /> 
<circle cx="62.0000" cy="3.0000" r="1.6000" /> 
<circle cx="3.0000" cy="52.0000" r="1.6000" /> 
<circle cx="62.0000" cy="52.0000" r="1.6000" /> 
<path style="fill:none; 
stroke:#D0D2CD; stroke-width:0.1000; stroke-opacity:1; 
stroke-linecap:round; stroke-linejoin:round;fill:none"
d="M 0.0000,0.0000
65.0000,0.0000
65.0000,55.0000
0.0000,55.0000
Z" /> 
</g>
<g style="fill:#FFFFFF; fill-opacity:1.0000; stroke:none;">
<circle cx="58.0000" cy="47.0000" r="0.5000" /> 
</g>
<g style="fill:#FFFFFF; fill-opacity:1.0000; stroke:none;">
<circle cx="58.0000" cy="49.5400" r="0.5000" /> 
</g>
<g style="fill:#FFFFFF; fill-opacity:1.0000; stroke:none;">
<circle cx="55.4600" cy="47.0000" r="0.5000" /> 
</g>
<g style="fill:#FFFFFF; fill-opacity:1.0000; stroke:none;">
<circle cx="55.4600" cy="49.5400" r="0.5000" /> 
</g>
<g style="fill:#FFFFFF; fill-opacity:1.0000; stroke:none;">
<circle cx="52.9200" cy="47.0000" r="0.5000" /> 
</g>
<g style="fill:#FFFFFF; fill-opacity:1.0000; stroke:none;">
<circle cx="52.9200" cy="49.5400" r="0.5000" /> 
</g>
<g style="fill:#FFFFFF; fill-opacity:1.0000; stroke:none;">
<circle cx="50.3800" cy="47.0000" r="0.5000" /> 
</g>
<g style="fill:#FFFFFF; fill-opacity:1.0000; stroke:none;">
<circle cx="50.3800" cy="49.5400" r="0.5000" /> 
</g>
<g style="fill:#FFFFFF; fill-opacity:1.0000; stroke:none;">
<circle cx="47.8400" cy="47.0000" r="0.5000" /> 
</g>
<g style="fill:#FFFFFF; fill-opacity:1.0000; stroke:none;">
<circle cx="47.8400" cy="49.5400" r="0.5000" /> 
</g>
<g style="fill:#FFFFFF; fill-opacity:1.0000; stroke:none;">
<circle cx="45.3000" cy="47.0000" r="0.5000" /> 
</g>
<g style="fill:#FFFFFF; fill-opacity:1.0000; stroke:none;">
<circle cx="45.3000" cy="49.5400" r="0.5000" /> 
</g>
<g style="fill:#FFFFFF; fill-opacity:1.0000; stroke:none;">
<circle cx="42.7600" cy="47.0000" r="0.5000" /> 
</g>
<g style="fill:#FFFFFF; fill-opacity:1.0000; stroke:none;">
<circle cx="42.7600" cy="49.5400" r="0.5000" /> 
</g>
<g style="fill:#FFFFFF; fill-opacity:1.0000; stroke:none;">
<circle cx="40.2200" cy="47.0000" r="0.5000" /> 
</g>
<g style="fill:#FFFFFF; fill-opacity:1.0000; stroke:none;">
<circle cx="40.2200" cy="49.5400" r="0.5000" /> 
</g>
<g style="fill:#FFFFFF; fill-opacity:1.0000; stroke:none;">
<circle cx="37.6800" cy="47.0000" r="0.5000" /> 
</g>
<g style="fill:#FFFFFF; fill-opacity:1.0000; stroke:none;">
<circle cx="37.6800" cy="49.5400" r="0.5000" /> 
</g>
<g style="fill:#FFFFFF; fill-opacity:1.0000; stroke:none;">
<circle cx="35.1400" cy="47.0000" r="0.5000" /> 
</g>
<g style="fill:#FFFFFF; fill-opacity:1.0000; stroke:none;">
<circle cx="35.1400" cy="49.5400" r="0.5000" /> 
</g>
<g style="fill:#FFFFFF; fill-opacity:1.0000; stroke:none;">
<circle cx="32.6000" cy="47.0000" r="0.5000" /> 
</g>
<g style="fill:#FFFFFF; fill-opacity:1.0000; stroke:none;">
<circle cx="32.6000" cy="49.5400" r="0.5000" /> 
</g>
<g style="fill:#FFFFFF; fill-opacity:1.0000; stroke:none;">
<circle cx="30.0600" cy="47.0000" r="0.5000" /> 
</g>
<g style="fill:#FFFFFF; fill-opacity:1.0000; stroke:none;">
<circle cx="30.0600" cy="49.5400" r="0.5000" /> 
</g>
<g style="fill:#FFFFFF; fill-opacity:1.0000; stroke:none;">
<circle cx="27.5200" cy="47.0000" r="0.5000" /> 
</g>
<g style="fill:#FFFFFF; fill-opacity:1.0000; stroke:none;">
<circle cx="27.5200" cy="49.5400" r="0.5000" /> 
</g>
<g style="fill:#FFFFFF; fill-opacity:1.0000; stroke:none;">
<circle cx="24.9800" cy="47.0000" r="0.5000" /> 
</g>
<g style="fill:#FFFFFF; fill-opacity:1.0000; stroke:none;">
<circle cx="24.9800" cy="49.5400" r="0.5000" /> 
</g>
<g style="fill:#FFFFFF; fill-opacity:1.0000; stroke:none;">
<circle cx="22.4400" cy="47.0000" r="0.5000" /> 
</g>
<g style="fill:#FFFFFF; fill-opacity:1.0000; stroke:none;">
<circle cx="22.4400" cy="49.5400" r="0.5000" /> 
</g>
<g style="fill:#FFFFFF; fill-opacity:1.0000; stroke:none;">
<circle cx="19.9000" cy="47.0000" r="0.5000" /> 
</g>
<g style="fill:#FFFFFF; fill-opacity:1.0000; stroke:none;">
<circle cx="19.9000" cy="49.5400" r="0.5000" /> 
</g>
<g style="fill:#FFFFFF; fill-opacity:1.0000; stroke:none;">
<circle cx="17.3600" cy="47.0000" r="0.5000" /> 
</g>
<g style="fill:#FFFFFF; fill-opacity:1.0000; stroke:none;">
<circle cx="17.3600" cy="49.5400" r="0.5000" /> 
</g>
<g style="fill:#FFFFFF; fill-opacity:1.0000; stroke:none;">
<circle cx="14.8200" cy="47.0000" r="0.5000" /> 
</g>
<g style="fill:#FFFFFF; fill-opacity:1.0000; stroke:none;">
<circle cx="14.8200" cy="49.5400" r="0.5000" /> 
</g>
<g style="fill:#FFFFFF; fill-opacity:1.0000; stroke:none;">
<circle cx="12.2800" cy="47.0000" r="0.5000" /> 
</g>
<g style="fill:#FFFFFF; fill-opacity:1.0000; stroke:none;">
<circle cx="12.2800" cy="49.5400" r="0.5000" /> 
</g>
<g style="fill:#FFFFFF; fill-opacity:1.0000; stroke:none;">
<circle cx="9.7400" cy="47.0000" r="0.5000" /> 
</g>
<g style="fill:#FFFFFF; fill-opacity:1.0000; stroke:none;">
<circle cx="9.7400" cy="49.5400" r="0.5000" /> 
</g>
<g style="fill:#FFFFFF; fill-opacity:1.0000; stroke:none;">
<circle cx="7.0000" cy="6.0000" r="0.5950" /> 
</g>
<g style="fill:#FFFFFF; fill-opacity:1.0000; stroke:none;">
<circle cx="9.5400" cy="6.0000" r="0.5950" /> 
</g>
<g style="fill:#FFFFFF; fill-opacity:1.0000; stroke:none;">
<circle cx="12.0800" cy="6.0000" r="0.5950" /> 
</g>
<g style="fill:#FFFFFF; fill-opacity:1.0000; stroke:none;">
<circle cx="14.6200" cy="6.0000" r="0.5950" /> 
</g>
<g style="fill:#FFFFFF; fill-opacity:1.0000; stroke:none;">
<circle cx="17.1600" cy="6.0000" r="0.5950" /> 
</g>
<g style="fill:#FFFFFF; fill-opacity:1.0000; stroke:none;">
<circle cx="19.7000" cy="6.0000" r="0.5950" /> 
</g>
<g style="fill:#FFFFFF; fill-opacity:1.0000; stroke:none;">
<circle cx="22.2400" cy="6.0000" r="0.5950" /> 
</g>
<g style="fill:#FFFFFF; fill-opacity:1.0000; stroke:none;">
<circle cx="24.7800" cy="6.0000" r="0.5950" /> 
</g>
<g style="fill:#FFFFFF; fill-opacity:1.0000; stroke:none;">
<circle cx="27.3200" cy="6.0000" r="0.5950" /> 
</g>
<g style="fill:#FFFFFF; fill-opacity:1.0000; stroke:none;">
<circle cx="29.8600" cy="6.0000" r="0.5950" /> 
</g>
<g style="fill:#FFFFFF; fill-opacity:1.0000; stroke:none;">
<circle cx="32.4000" cy="6.0000" r="0.5950" /> 
</g>
<g style="fill:#FFFFFF; fill-opacity:1.0000; stroke:none;">
<circle cx="34.9400" cy="6.0000" r="0.5950" /> 
</g>
<g style="fill:#FFFFFF; fill-opacity:1.0000; stroke:none;">
<circle cx="37.4800" cy="6.0000" r="0.5950" /> 
</g>
<g style="fill:#FFFFFF; fill-opacity:1.0000; stroke:none;">
<circle cx="40.0200" cy="6.0000" r="0.5950" /> 
</g>
<g style="fill:#FFFFFF; fill-opacity:1.0000; stroke:none;">
<circle cx="42.5600" cy="6.0000" r="0.5950" /> 
</g>
<g style="fill:#FFFFFF; fill-opacity:1.0000; stroke:none;">
<circle cx="54.0000" cy="6.0000" r="0.5000" /> 
</g>
<g style="fill:#FFFFFF; fill-opacity:1.0000; stroke:none;">
<circle cx="56.5400" cy="6.0000" r="0.5000" /> 
</g>
<g style="fill:#FFFFFF; fill-opacity:1.0000; stroke:none;">
<circle cx="54.0000" cy="8.5400" r="0.5000" /> 
</g>
<g style="fill:#FFFFFF; fill-opacity:1.0000; stroke:none;">
<circle cx="56.5400" cy="8.5400" r="0.5000" /> 
</g>
<g style="fill:#FFFFFF; fill-opacity:1.0000; stroke:none;">
<circle cx="54.0000" cy="11.0800" r="0.5000" /> 
</g>
<g style="fill:#FFFFFF; fill-opacity:1.0000; stroke:none;">
<circle cx="56.5400" cy="11.0800" r="0.5000" /> 
</g>
<g style="fill:#FFFFFF; fill-opacity:1.0000; stroke:none;">
<circle cx="6.0000" cy="21.0000" r="0.5000" /> 
</g>
<g style="fill:#FFFFFF; fill-opacity:1.0000; stroke:none;">
<circle cx="6.0000" cy="23.5400" r="0.5000" /> 
</g>
<g style="fill:#FFFFFF; fill-opacity:1.0000; stroke:none;">
<circle cx="6.0000" cy="26.0800" r="0.5000" /> 
</g>
<g style="fill:#FFFFFF; fill-opacity:1.0000; stroke:none;">
<circle cx="6.0000" cy="28.6200" r="0.5000" /> 
</g>
<g style="fill:#FFFFFF; fill-opacity:1.0000; stroke:none;">
<circle cx="6.0000" cy="31.1600" r="0.5000" /> 
</g>
<g style="fill:#FFFFFF; fill-opacity:1.0000; stroke:none;">
<circle cx="6.0000" cy="33.7000" r="0.5000" /> 
</g>
<g style="fill:#FFFFFF; fill-opacity:1.0000; stroke:none;">
<circle cx="6.0000" cy="36.2400" r="0.5000" /> 
</g>
<g style="fill:#FFFFFF; fill-opacity:1.0000; stroke:none;">
<circle cx="15.0000" cy="37.0000" r="0.5000" /> 
</g>
<g style="fill:#FFFFFF; fill-opacity:1.0000; stroke:none;">
<circle cx="17.5400" cy="37.0000" r="0.5000" /> 
</g>
<g style="fill:#FFFFFF; fill-opacity:1.0000; stroke:none;">
<circle cx="20.0800" cy="37.0000" r="0.5000" /> 
</g>
<g style="fill:#FFFFFF; fill-opacity:1.0000; stroke:none;">
<circle cx="22.6200" cy="37.0000" r="0.5000" /> 
</g>
<g style="fill:#000000; fill-opacity:1.0000; stroke:none;">
<circle cx="3.0000" cy="3.0000" r="1.6000" /> 
<circle cx="62.0000" cy="3.0000" r="1.6000" /> 
<circle cx="3.0000" cy="52.0000" r="1.6000" /> 
<circle cx="62.0000" cy="52.0000" r="1.6000" /> 
</g> 
</svg>
